%TF.GenerationSoftware,KiCad,Pcbnew,9.0.0*%
%TF.CreationDate,2025-03-26T17:15:45-07:00*%
%TF.ProjectId,SMRRC_SwitchAndSignal,534d5252-435f-4537-9769-746368416e64,n/c*%
%TF.SameCoordinates,Original*%
%TF.FileFunction,Copper,L1,Top*%
%TF.FilePolarity,Positive*%
%FSLAX46Y46*%
G04 Gerber Fmt 4.6, Leading zero omitted, Abs format (unit mm)*
G04 Created by KiCad (PCBNEW 9.0.0) date 2025-03-26 17:15:45*
%MOMM*%
%LPD*%
G01*
G04 APERTURE LIST*
G04 Aperture macros list*
%AMRoundRect*
0 Rectangle with rounded corners*
0 $1 Rounding radius*
0 $2 $3 $4 $5 $6 $7 $8 $9 X,Y pos of 4 corners*
0 Add a 4 corners polygon primitive as box body*
4,1,4,$2,$3,$4,$5,$6,$7,$8,$9,$2,$3,0*
0 Add four circle primitives for the rounded corners*
1,1,$1+$1,$2,$3*
1,1,$1+$1,$4,$5*
1,1,$1+$1,$6,$7*
1,1,$1+$1,$8,$9*
0 Add four rect primitives between the rounded corners*
20,1,$1+$1,$2,$3,$4,$5,0*
20,1,$1+$1,$4,$5,$6,$7,0*
20,1,$1+$1,$6,$7,$8,$9,0*
20,1,$1+$1,$8,$9,$2,$3,0*%
%AMFreePoly0*
4,1,9,3.862500,-0.866500,0.737500,-0.866500,0.737500,-0.450000,-0.737500,-0.450000,-0.737500,0.450000,0.737500,0.450000,0.737500,0.866500,3.862500,0.866500,3.862500,-0.866500,3.862500,-0.866500,$1*%
G04 Aperture macros list end*
%TA.AperFunction,SMDPad,CuDef*%
%ADD10RoundRect,0.100000X-0.650000X-0.100000X0.650000X-0.100000X0.650000X0.100000X-0.650000X0.100000X0*%
%TD*%
%TA.AperFunction,SMDPad,CuDef*%
%ADD11RoundRect,0.150000X1.050000X0.150000X-1.050000X0.150000X-1.050000X-0.150000X1.050000X-0.150000X0*%
%TD*%
%TA.AperFunction,SMDPad,CuDef*%
%ADD12RoundRect,0.150000X-0.150000X0.825000X-0.150000X-0.825000X0.150000X-0.825000X0.150000X0.825000X0*%
%TD*%
%TA.AperFunction,SMDPad,CuDef*%
%ADD13RoundRect,0.150000X-0.875000X-0.150000X0.875000X-0.150000X0.875000X0.150000X-0.875000X0.150000X0*%
%TD*%
%TA.AperFunction,SMDPad,CuDef*%
%ADD14RoundRect,0.250000X2.050000X0.300000X-2.050000X0.300000X-2.050000X-0.300000X2.050000X-0.300000X0*%
%TD*%
%TA.AperFunction,SMDPad,CuDef*%
%ADD15RoundRect,0.250000X2.025000X2.375000X-2.025000X2.375000X-2.025000X-2.375000X2.025000X-2.375000X0*%
%TD*%
%TA.AperFunction,SMDPad,CuDef*%
%ADD16RoundRect,0.250002X4.449998X5.149998X-4.449998X5.149998X-4.449998X-5.149998X4.449998X-5.149998X0*%
%TD*%
%TA.AperFunction,SMDPad,CuDef*%
%ADD17RoundRect,0.225000X-0.425000X-0.225000X0.425000X-0.225000X0.425000X0.225000X-0.425000X0.225000X0*%
%TD*%
%TA.AperFunction,SMDPad,CuDef*%
%ADD18FreePoly0,0.000000*%
%TD*%
%TA.AperFunction,SMDPad,CuDef*%
%ADD19R,1.300000X1.550000*%
%TD*%
%TA.AperFunction,ComponentPad*%
%ADD20C,1.400000*%
%TD*%
%TA.AperFunction,ComponentPad*%
%ADD21O,1.400000X1.400000*%
%TD*%
%TA.AperFunction,SMDPad,CuDef*%
%ADD22RoundRect,0.250000X-0.350000X-0.450000X0.350000X-0.450000X0.350000X0.450000X-0.350000X0.450000X0*%
%TD*%
%TA.AperFunction,SMDPad,CuDef*%
%ADD23RoundRect,0.250000X0.350000X0.450000X-0.350000X0.450000X-0.350000X-0.450000X0.350000X-0.450000X0*%
%TD*%
%TA.AperFunction,ComponentPad*%
%ADD24C,2.800000*%
%TD*%
%TA.AperFunction,ComponentPad*%
%ADD25RoundRect,0.250000X-1.150000X-1.150000X1.150000X-1.150000X1.150000X1.150000X-1.150000X1.150000X0*%
%TD*%
%TA.AperFunction,ComponentPad*%
%ADD26RoundRect,0.250001X0.949999X0.949999X-0.949999X0.949999X-0.949999X-0.949999X0.949999X-0.949999X0*%
%TD*%
%TA.AperFunction,ComponentPad*%
%ADD27C,2.400000*%
%TD*%
%TA.AperFunction,ComponentPad*%
%ADD28RoundRect,0.250001X0.899999X-0.899999X0.899999X0.899999X-0.899999X0.899999X-0.899999X-0.899999X0*%
%TD*%
%TA.AperFunction,ComponentPad*%
%ADD29C,2.300000*%
%TD*%
%TA.AperFunction,ComponentPad*%
%ADD30RoundRect,0.250001X-1.149999X-1.149999X1.149999X-1.149999X1.149999X1.149999X-1.149999X1.149999X0*%
%TD*%
%TA.AperFunction,ComponentPad*%
%ADD31R,1.700000X1.700000*%
%TD*%
%TA.AperFunction,ComponentPad*%
%ADD32O,1.700000X1.700000*%
%TD*%
%TA.AperFunction,SMDPad,CuDef*%
%ADD33RoundRect,0.250000X0.650000X-1.500000X0.650000X1.500000X-0.650000X1.500000X-0.650000X-1.500000X0*%
%TD*%
%TA.AperFunction,SMDPad,CuDef*%
%ADD34RoundRect,0.250000X-0.650000X1.500000X-0.650000X-1.500000X0.650000X-1.500000X0.650000X1.500000X0*%
%TD*%
%TA.AperFunction,SMDPad,CuDef*%
%ADD35RoundRect,0.250001X0.624999X-0.462499X0.624999X0.462499X-0.624999X0.462499X-0.624999X-0.462499X0*%
%TD*%
%TA.AperFunction,SMDPad,CuDef*%
%ADD36RoundRect,0.250001X-0.462499X-0.624999X0.462499X-0.624999X0.462499X0.624999X-0.462499X0.624999X0*%
%TD*%
%TA.AperFunction,SMDPad,CuDef*%
%ADD37RoundRect,0.250000X-0.337500X-0.475000X0.337500X-0.475000X0.337500X0.475000X-0.337500X0.475000X0*%
%TD*%
%TA.AperFunction,ComponentPad*%
%ADD38R,1.600000X1.600000*%
%TD*%
%TA.AperFunction,ComponentPad*%
%ADD39C,1.600000*%
%TD*%
%TA.AperFunction,SMDPad,CuDef*%
%ADD40RoundRect,0.250000X0.475000X-0.337500X0.475000X0.337500X-0.475000X0.337500X-0.475000X-0.337500X0*%
%TD*%
%TA.AperFunction,SMDPad,CuDef*%
%ADD41RoundRect,0.250000X-0.475000X0.337500X-0.475000X-0.337500X0.475000X-0.337500X0.475000X0.337500X0*%
%TD*%
%TA.AperFunction,ComponentPad*%
%ADD42R,1.200000X1.200000*%
%TD*%
%TA.AperFunction,ComponentPad*%
%ADD43C,1.200000*%
%TD*%
%TA.AperFunction,ViaPad*%
%ADD44C,1.000000*%
%TD*%
%TA.AperFunction,ViaPad*%
%ADD45C,1.200000*%
%TD*%
%TA.AperFunction,Conductor*%
%ADD46C,0.300000*%
%TD*%
%TA.AperFunction,Conductor*%
%ADD47C,0.600000*%
%TD*%
%TA.AperFunction,Conductor*%
%ADD48C,1.000000*%
%TD*%
%TA.AperFunction,Conductor*%
%ADD49C,2.000000*%
%TD*%
%TA.AperFunction,Conductor*%
%ADD50C,1.500000*%
%TD*%
G04 APERTURE END LIST*
D10*
%TO.P,U14,1,S1*%
%TO.N,GND*%
X73340000Y-97350000D03*
%TO.P,U14,2,G1*%
%TO.N,Net-(U14-G1)*%
X73340000Y-98000000D03*
%TO.P,U14,3,D2*%
%TO.N,K1*%
X73340000Y-98650000D03*
%TO.P,U14,4,S2*%
%TO.N,GND*%
X76000000Y-98650000D03*
%TO.P,U14,5,G2*%
%TO.N,Net-(U14-G2)*%
X76000000Y-98000000D03*
%TO.P,U14,6,D1*%
%TO.N,Net-(U14-D1)*%
X76000000Y-97350000D03*
%TD*%
%TO.P,U13,1,S1*%
%TO.N,GND*%
X81340000Y-97350000D03*
%TO.P,U13,2,G1*%
%TO.N,Net-(U13-G1)*%
X81340000Y-98000000D03*
%TO.P,U13,3,D2*%
%TO.N,Net-(U13-D2)*%
X81340000Y-98650000D03*
%TO.P,U13,4,S2*%
%TO.N,GND*%
X84000000Y-98650000D03*
%TO.P,U13,5,G2*%
%TO.N,Net-(U13-G2)*%
X84000000Y-98000000D03*
%TO.P,U13,6,D1*%
%TO.N,Net-(U13-D1)*%
X84000000Y-97350000D03*
%TD*%
%TO.P,U12,1,S1*%
%TO.N,GND*%
X92340000Y-97350000D03*
%TO.P,U12,2,G1*%
%TO.N,Net-(U12-G1)*%
X92340000Y-98000000D03*
%TO.P,U12,3,D2*%
%TO.N,Net-(U12-D2)*%
X92340000Y-98650000D03*
%TO.P,U12,4,S2*%
%TO.N,GND*%
X95000000Y-98650000D03*
%TO.P,U12,5,G2*%
%TO.N,Net-(U12-G2)*%
X95000000Y-98000000D03*
%TO.P,U12,6,D1*%
%TO.N,Net-(U12-D1)*%
X95000000Y-97350000D03*
%TD*%
%TO.P,U11,1,S1*%
%TO.N,GND*%
X102340000Y-97350000D03*
%TO.P,U11,2,G1*%
%TO.N,Net-(U11-G1)*%
X102340000Y-98000000D03*
%TO.P,U11,3,D2*%
%TO.N,Net-(U11-D2)*%
X102340000Y-98650000D03*
%TO.P,U11,4,S2*%
%TO.N,GND*%
X105000000Y-98650000D03*
%TO.P,U11,5,G2*%
%TO.N,Net-(U11-G2)*%
X105000000Y-98000000D03*
%TO.P,U11,6,D1*%
%TO.N,Net-(U11-D1)*%
X105000000Y-97350000D03*
%TD*%
%TO.P,U10,1,S1*%
%TO.N,GND*%
X113340000Y-97350000D03*
%TO.P,U10,2,G1*%
%TO.N,Net-(U10-G1)*%
X113340000Y-98000000D03*
%TO.P,U10,3,D2*%
%TO.N,Net-(U10-D2)*%
X113340000Y-98650000D03*
%TO.P,U10,4,S2*%
%TO.N,GND*%
X116000000Y-98650000D03*
%TO.P,U10,5,G2*%
%TO.N,Net-(U10-G2)*%
X116000000Y-98000000D03*
%TO.P,U10,6,D1*%
%TO.N,Net-(U10-D1)*%
X116000000Y-97350000D03*
%TD*%
%TO.P,U9,1,S1*%
%TO.N,GND*%
X123670000Y-97350000D03*
%TO.P,U9,2,G1*%
%TO.N,Net-(U5-Q4)*%
X123670000Y-98000000D03*
%TO.P,U9,3,D2*%
%TO.N,Net-(U9-D2)*%
X123670000Y-98650000D03*
%TO.P,U9,4,S2*%
%TO.N,GND*%
X126330000Y-98650000D03*
%TO.P,U9,5,G2*%
%TO.N,Net-(U5-Q5)*%
X126330000Y-98000000D03*
%TO.P,U9,6,D1*%
%TO.N,Net-(U9-D1)*%
X126330000Y-97350000D03*
%TD*%
%TO.P,U8,1,S1*%
%TO.N,GND*%
X134000000Y-97350000D03*
%TO.P,U8,2,G1*%
%TO.N,Net-(U5-Q2)*%
X134000000Y-98000000D03*
%TO.P,U8,3,D2*%
%TO.N,Net-(U8-D2)*%
X134000000Y-98650000D03*
%TO.P,U8,4,S2*%
%TO.N,GND*%
X136660000Y-98650000D03*
%TO.P,U8,5,G2*%
%TO.N,Net-(U5-Q3)*%
X136660000Y-98000000D03*
%TO.P,U8,6,D1*%
%TO.N,Net-(U8-D1)*%
X136660000Y-97350000D03*
%TD*%
%TO.P,U7,1,S1*%
%TO.N,GND*%
X144000000Y-97350000D03*
%TO.P,U7,2,G1*%
%TO.N,Net-(U5-Q0)*%
X144000000Y-98000000D03*
%TO.P,U7,3,D2*%
%TO.N,Net-(U7-D2)*%
X144000000Y-98650000D03*
%TO.P,U7,4,S2*%
%TO.N,GND*%
X146660000Y-98650000D03*
%TO.P,U7,5,G2*%
%TO.N,Net-(U5-Q1)*%
X146660000Y-98000000D03*
%TO.P,U7,6,D1*%
%TO.N,Net-(U7-D1)*%
X146660000Y-97350000D03*
%TD*%
D11*
%TO.P,U6,1,A0*%
%TO.N,Net-(U3-RC0)*%
X104250000Y-110445000D03*
%TO.P,U6,2,A1*%
%TO.N,Net-(U3-RC1)*%
X104250000Y-109175000D03*
%TO.P,U6,3,A2*%
%TO.N,Net-(U3-RC2)*%
X104250000Y-107905000D03*
%TO.P,U6,4,Q0*%
%TO.N,Net-(U11-G1)*%
X104250000Y-106635000D03*
%TO.P,U6,5,Q1*%
%TO.N,Net-(U11-G2)*%
X104250000Y-105365000D03*
%TO.P,U6,6,Q2*%
%TO.N,Net-(U12-G1)*%
X104250000Y-104095000D03*
%TO.P,U6,7,Q3*%
%TO.N,Net-(U12-G2)*%
X104250000Y-102825000D03*
%TO.P,U6,8,GND*%
%TO.N,GND*%
X104250000Y-101555000D03*
%TO.P,U6,9,Q4*%
%TO.N,Net-(U13-G1)*%
X97750000Y-101555000D03*
%TO.P,U6,10,Q5*%
%TO.N,Net-(U13-G2)*%
X97750000Y-102825000D03*
%TO.P,U6,11,Q6*%
%TO.N,Net-(U14-G1)*%
X97750000Y-104095000D03*
%TO.P,U6,12,Q7*%
%TO.N,Net-(U14-G2)*%
X97750000Y-105365000D03*
%TO.P,U6,13,D*%
%TO.N,Net-(U3-RC7)*%
X97750000Y-106635000D03*
%TO.P,U6,14,E*%
%TO.N,Net-(U3-RC4)*%
X97750000Y-107905000D03*
%TO.P,U6,15,Clr*%
%TO.N,Net-(U3-RC6)*%
X97750000Y-109175000D03*
%TO.P,U6,16,VCC*%
%TO.N,+5V*%
X97750000Y-110445000D03*
%TD*%
%TO.P,U5,1,A0*%
%TO.N,Net-(U3-RC0)*%
X141250000Y-110445000D03*
%TO.P,U5,2,A1*%
%TO.N,Net-(U3-RC1)*%
X141250000Y-109175000D03*
%TO.P,U5,3,A2*%
%TO.N,Net-(U3-RC2)*%
X141250000Y-107905000D03*
%TO.P,U5,4,Q0*%
%TO.N,Net-(U5-Q0)*%
X141250000Y-106635000D03*
%TO.P,U5,5,Q1*%
%TO.N,Net-(U5-Q1)*%
X141250000Y-105365000D03*
%TO.P,U5,6,Q2*%
%TO.N,Net-(U5-Q2)*%
X141250000Y-104095000D03*
%TO.P,U5,7,Q3*%
%TO.N,Net-(U5-Q3)*%
X141250000Y-102825000D03*
%TO.P,U5,8,GND*%
%TO.N,GND*%
X141250000Y-101555000D03*
%TO.P,U5,9,Q4*%
%TO.N,Net-(U5-Q4)*%
X134750000Y-101555000D03*
%TO.P,U5,10,Q5*%
%TO.N,Net-(U5-Q5)*%
X134750000Y-102825000D03*
%TO.P,U5,11,Q6*%
%TO.N,Net-(U10-G1)*%
X134750000Y-104095000D03*
%TO.P,U5,12,Q7*%
%TO.N,Net-(U10-G2)*%
X134750000Y-105365000D03*
%TO.P,U5,13,D*%
%TO.N,Net-(U3-RC7)*%
X134750000Y-106635000D03*
%TO.P,U5,14,E*%
%TO.N,Net-(U3-RC3)*%
X134750000Y-107905000D03*
%TO.P,U5,15,Clr*%
%TO.N,Net-(U3-RC6)*%
X134750000Y-109175000D03*
%TO.P,U5,16,VCC*%
%TO.N,+5V*%
X134750000Y-110445000D03*
%TD*%
D12*
%TO.P,U4,1,RO*%
%TO.N,Net-(U3-RB5)*%
X105655000Y-123957500D03*
%TO.P,U4,2,~{RE}*%
%TO.N,Net-(U3-RB4)*%
X104385000Y-123957500D03*
%TO.P,U4,3,DE*%
%TO.N,Net-(U3-RB6)*%
X103115000Y-123957500D03*
%TO.P,U4,4,DI*%
%TO.N,Net-(U3-RB7)*%
X101845000Y-123957500D03*
%TO.P,U4,5,GND*%
%TO.N,GND*%
X101845000Y-128907500D03*
%TO.P,U4,6,A*%
%TO.N,Net-(J4-Pin_5)*%
X103115000Y-128907500D03*
%TO.P,U4,7,B*%
%TO.N,Net-(J4-Pin_7)*%
X104385000Y-128907500D03*
%TO.P,U4,8,VCC*%
%TO.N,+5V*%
X105655000Y-128907500D03*
%TD*%
D13*
%TO.P,U3,1,VDD*%
%TO.N,+5V*%
X113350000Y-106285000D03*
%TO.P,U3,2,RA5*%
%TO.N,Net-(J2-Pin_3)*%
X113350000Y-107555000D03*
%TO.P,U3,3,RA4*%
%TO.N,Net-(J2-Pin_1)*%
X113350000Y-108825000D03*
%TO.P,U3,4,RA3/~{MCLR}/VPP*%
%TO.N,Net-(J1-Pin_1)*%
X113350000Y-110095000D03*
%TO.P,U3,5,RC5*%
%TO.N,Servo*%
X113350000Y-111365000D03*
%TO.P,U3,6,RC4*%
%TO.N,Net-(U3-RC4)*%
X113350000Y-112635000D03*
%TO.P,U3,7,RC3*%
%TO.N,Net-(U3-RC3)*%
X113350000Y-113905000D03*
%TO.P,U3,8,RC6*%
%TO.N,Net-(U3-RC6)*%
X113350000Y-115175000D03*
%TO.P,U3,9,RC7*%
%TO.N,Net-(U3-RC7)*%
X113350000Y-116445000D03*
%TO.P,U3,10,RB7*%
%TO.N,Net-(U3-RB7)*%
X113350000Y-117715000D03*
%TO.P,U3,11,RB6*%
%TO.N,Net-(U3-RB6)*%
X122650000Y-117715000D03*
%TO.P,U3,12,RB5*%
%TO.N,Net-(U3-RB5)*%
X122650000Y-116445000D03*
%TO.P,U3,13,RB4*%
%TO.N,Net-(U3-RB4)*%
X122650000Y-115175000D03*
%TO.P,U3,14,RC2*%
%TO.N,Net-(U3-RC2)*%
X122650000Y-113905000D03*
%TO.P,U3,15,RC1*%
%TO.N,Net-(U3-RC1)*%
X122650000Y-112635000D03*
%TO.P,U3,16,RC0*%
%TO.N,Net-(U3-RC0)*%
X122650000Y-111365000D03*
%TO.P,U3,17,RA2*%
%TO.N,Net-(U3-RA2)*%
X122650000Y-110095000D03*
%TO.P,U3,18,RA1/ICSPCLK*%
%TO.N,Net-(J1-Pin_5)*%
X122650000Y-108825000D03*
%TO.P,U3,19,RA0/ICSPDAT*%
%TO.N,Net-(J1-Pin_4)*%
X122650000Y-107555000D03*
%TO.P,U3,20,VSS*%
%TO.N,GND*%
X122650000Y-106285000D03*
%TD*%
D14*
%TO.P,U2,1,IN*%
%TO.N,Net-(D2-K)*%
X81150000Y-115540000D03*
D15*
%TO.P,U2,2,GND*%
%TO.N,GND*%
X74425000Y-115775000D03*
X74425000Y-110225000D03*
D16*
X72000000Y-113000000D03*
D15*
X69575000Y-115775000D03*
X69575000Y-110225000D03*
D14*
%TO.P,U2,3,OUT*%
%TO.N,+6V*%
X81150000Y-110460000D03*
%TD*%
D17*
%TO.P,U1,1,OUT*%
%TO.N,+5V*%
X92800000Y-122932500D03*
D18*
%TO.P,U1,2,GND*%
%TO.N,GND*%
X92887500Y-124432500D03*
D17*
%TO.P,U1,3,IN*%
%TO.N,Net-(D1-K)*%
X92800000Y-125932500D03*
%TD*%
D19*
%TO.P,SW2,1,1*%
%TO.N,GND*%
X159250000Y-99020000D03*
X159250000Y-106980000D03*
%TO.P,SW2,2,2*%
%TO.N,Net-(J2-Pin_3)*%
X154750000Y-99020000D03*
X154750000Y-106980000D03*
%TD*%
%TO.P,SW1,1,1*%
%TO.N,GND*%
X159250000Y-88020000D03*
X159250000Y-95980000D03*
%TO.P,SW1,2,2*%
%TO.N,Net-(J2-Pin_1)*%
X154750000Y-88020000D03*
X154750000Y-95980000D03*
%TD*%
D20*
%TO.P,R21,1*%
%TO.N,Net-(U14-D1)*%
X76000000Y-93620000D03*
D21*
%TO.P,R21,2*%
%TO.N,Net-(J10-Pin_4)*%
X76000000Y-86000000D03*
%TD*%
D20*
%TO.P,R20,1*%
%TO.N,Net-(U13-D2)*%
X80000000Y-93620000D03*
D21*
%TO.P,R20,2*%
%TO.N,Net-(J10-Pin_3)*%
X80000000Y-86000000D03*
%TD*%
D20*
%TO.P,R19,1*%
%TO.N,Net-(U13-D1)*%
X84000000Y-93620000D03*
D21*
%TO.P,R19,2*%
%TO.N,Net-(J10-Pin_2)*%
X84000000Y-86000000D03*
%TD*%
D20*
%TO.P,R18,1*%
%TO.N,Net-(U12-D2)*%
X92000000Y-93620000D03*
D21*
%TO.P,R18,2*%
%TO.N,Net-(J9-Pin_4)*%
X92000000Y-86000000D03*
%TD*%
D20*
%TO.P,R17,1*%
%TO.N,Net-(U12-D1)*%
X96000000Y-93620000D03*
D21*
%TO.P,R17,2*%
%TO.N,Net-(J9-Pin_3)*%
X96000000Y-86000000D03*
%TD*%
D20*
%TO.P,R16,1*%
%TO.N,Net-(U11-D2)*%
X100000000Y-93620000D03*
D21*
%TO.P,R16,2*%
%TO.N,Net-(J9-Pin_2)*%
X100000000Y-86000000D03*
%TD*%
D20*
%TO.P,R15,1*%
%TO.N,Net-(U11-D1)*%
X108000000Y-93620000D03*
D21*
%TO.P,R15,2*%
%TO.N,Net-(J8-Pin_4)*%
X108000000Y-86000000D03*
%TD*%
D20*
%TO.P,R14,1*%
%TO.N,Net-(U10-D2)*%
X112000000Y-93620000D03*
D21*
%TO.P,R14,2*%
%TO.N,Net-(J8-Pin_3)*%
X112000000Y-86000000D03*
%TD*%
D20*
%TO.P,R13,1*%
%TO.N,Net-(U10-D1)*%
X116000000Y-93620000D03*
D21*
%TO.P,R13,2*%
%TO.N,Net-(J8-Pin_2)*%
X116000000Y-86000000D03*
%TD*%
D20*
%TO.P,R12,1*%
%TO.N,Net-(U9-D2)*%
X124000000Y-93620000D03*
D21*
%TO.P,R12,2*%
%TO.N,Net-(J7-Pin_4)*%
X124000000Y-86000000D03*
%TD*%
D20*
%TO.P,R11,1*%
%TO.N,Net-(U9-D1)*%
X128000000Y-93620000D03*
D21*
%TO.P,R11,2*%
%TO.N,Net-(J7-Pin_3)*%
X128000000Y-86000000D03*
%TD*%
D20*
%TO.P,R10,1*%
%TO.N,Net-(U8-D2)*%
X132000000Y-93620000D03*
D21*
%TO.P,R10,2*%
%TO.N,Net-(J7-Pin_2)*%
X132000000Y-86000000D03*
%TD*%
D20*
%TO.P,R9,1*%
%TO.N,Net-(U8-D1)*%
X140000000Y-93620000D03*
D21*
%TO.P,R9,2*%
%TO.N,Net-(J6-Pin_4)*%
X140000000Y-86000000D03*
%TD*%
D20*
%TO.P,R8,1*%
%TO.N,Net-(U7-D2)*%
X144000000Y-93620000D03*
D21*
%TO.P,R8,2*%
%TO.N,Net-(J6-Pin_3)*%
X144000000Y-86000000D03*
%TD*%
D20*
%TO.P,R7,1*%
%TO.N,Net-(U7-D1)*%
X148000000Y-93620000D03*
D21*
%TO.P,R7,2*%
%TO.N,Net-(J6-Pin_2)*%
X148000000Y-86000000D03*
%TD*%
D22*
%TO.P,R6,1*%
%TO.N,Net-(J3-Pin_1)*%
X108000000Y-111000000D03*
%TO.P,R6,2*%
%TO.N,Servo*%
X110000000Y-111000000D03*
%TD*%
%TO.P,R5,1*%
%TO.N,Net-(D5-K)*%
X150000000Y-108000000D03*
%TO.P,R5,2*%
%TO.N,Net-(J2-Pin_3)*%
X152000000Y-108000000D03*
%TD*%
%TO.P,R4,1*%
%TO.N,+5V*%
X147000000Y-104000000D03*
%TO.P,R4,2*%
%TO.N,Net-(J2-Pin_3)*%
X149000000Y-104000000D03*
%TD*%
%TO.P,R3,1*%
%TO.N,Net-(D4-K)*%
X150000000Y-97000000D03*
%TO.P,R3,2*%
%TO.N,Net-(J2-Pin_1)*%
X152000000Y-97000000D03*
%TD*%
%TO.P,R2,1*%
%TO.N,+5V*%
X147000000Y-102000000D03*
%TO.P,R2,2*%
%TO.N,Net-(J2-Pin_1)*%
X149000000Y-102000000D03*
%TD*%
D23*
%TO.P,R1,1*%
%TO.N,Net-(D3-K)*%
X127900000Y-116760000D03*
%TO.P,R1,2*%
%TO.N,Net-(U3-RA2)*%
X125900000Y-116760000D03*
%TD*%
D24*
%TO.P,K1,11*%
%TO.N,2C*%
X144122206Y-125250000D03*
%TO.P,K1,12*%
%TO.N,2N*%
X139122206Y-125250000D03*
%TO.P,K1,14*%
%TO.N,2R*%
X149122206Y-125250000D03*
%TO.P,K1,21*%
%TO.N,1C*%
X144122206Y-132750000D03*
%TO.P,K1,22*%
%TO.N,1N*%
X139122206Y-132750000D03*
%TO.P,K1,24*%
%TO.N,1R*%
X149122206Y-132750000D03*
D25*
%TO.P,K1,A1*%
%TO.N,+12V*%
X124122206Y-125250000D03*
D24*
%TO.P,K1,A2*%
%TO.N,K1*%
X124122206Y-132750000D03*
%TD*%
D26*
%TO.P,J10,1,Pin_1*%
%TO.N,+12V*%
X86000000Y-80000000D03*
D27*
%TO.P,J10,2,Pin_2*%
%TO.N,Net-(J10-Pin_2)*%
X82500000Y-80000000D03*
%TO.P,J10,3,Pin_3*%
%TO.N,Net-(J10-Pin_3)*%
X79000000Y-80000000D03*
%TO.P,J10,4,Pin_4*%
%TO.N,Net-(J10-Pin_4)*%
X75500000Y-80000000D03*
%TD*%
D26*
%TO.P,J9,1,Pin_1*%
%TO.N,+12V*%
X102000000Y-80000000D03*
D27*
%TO.P,J9,2,Pin_2*%
%TO.N,Net-(J9-Pin_2)*%
X98500000Y-80000000D03*
%TO.P,J9,3,Pin_3*%
%TO.N,Net-(J9-Pin_3)*%
X95000000Y-80000000D03*
%TO.P,J9,4,Pin_4*%
%TO.N,Net-(J9-Pin_4)*%
X91500000Y-80000000D03*
%TD*%
D26*
%TO.P,J8,1,Pin_1*%
%TO.N,+12V*%
X118000000Y-80000000D03*
D27*
%TO.P,J8,2,Pin_2*%
%TO.N,Net-(J8-Pin_2)*%
X114500000Y-80000000D03*
%TO.P,J8,3,Pin_3*%
%TO.N,Net-(J8-Pin_3)*%
X111000000Y-80000000D03*
%TO.P,J8,4,Pin_4*%
%TO.N,Net-(J8-Pin_4)*%
X107500000Y-80000000D03*
%TD*%
D26*
%TO.P,J7,1,Pin_1*%
%TO.N,+12V*%
X134000000Y-80000000D03*
D27*
%TO.P,J7,2,Pin_2*%
%TO.N,Net-(J7-Pin_2)*%
X130500000Y-80000000D03*
%TO.P,J7,3,Pin_3*%
%TO.N,Net-(J7-Pin_3)*%
X127000000Y-80000000D03*
%TO.P,J7,4,Pin_4*%
%TO.N,Net-(J7-Pin_4)*%
X123500000Y-80000000D03*
%TD*%
D26*
%TO.P,J6,1,Pin_1*%
%TO.N,+12V*%
X150000000Y-80000000D03*
D27*
%TO.P,J6,2,Pin_2*%
%TO.N,Net-(J6-Pin_2)*%
X146500000Y-80000000D03*
%TO.P,J6,3,Pin_3*%
%TO.N,Net-(J6-Pin_3)*%
X143000000Y-80000000D03*
%TO.P,J6,4,Pin_4*%
%TO.N,Net-(J6-Pin_4)*%
X139500000Y-80000000D03*
%TD*%
D28*
%TO.P,J5,1,Pin_1*%
%TO.N,1N*%
X157000000Y-131000000D03*
D29*
%TO.P,J5,2,Pin_2*%
%TO.N,1C*%
X157000000Y-127500000D03*
%TO.P,J5,3,Pin_3*%
%TO.N,1R*%
X157000000Y-124000000D03*
%TO.P,J5,4,Pin_4*%
%TO.N,2N*%
X157000000Y-120500000D03*
%TO.P,J5,5,Pin_5*%
%TO.N,2C*%
X157000000Y-117000000D03*
%TO.P,J5,6,Pin_6*%
%TO.N,2R*%
X157000000Y-113500000D03*
%TD*%
D30*
%TO.P,J4,1,Pin_1*%
%TO.N,+12V*%
X76000000Y-137000000D03*
D24*
%TO.P,J4,2,Pin_2*%
X81000000Y-137000000D03*
%TO.P,J4,3,Pin_3*%
%TO.N,GND*%
X86000000Y-137000000D03*
%TO.P,J4,4,Pin_4*%
X91000000Y-137000000D03*
%TO.P,J4,5,Pin_5*%
%TO.N,Net-(J4-Pin_5)*%
X96000000Y-137000000D03*
%TO.P,J4,6,Pin_6*%
X101000000Y-137000000D03*
%TO.P,J4,7,Pin_7*%
%TO.N,Net-(J4-Pin_7)*%
X106000000Y-137000000D03*
%TO.P,J4,8,Pin_8*%
X111000000Y-137000000D03*
%TD*%
D31*
%TO.P,J3,1,Pin_1*%
%TO.N,Net-(J3-Pin_1)*%
X83525000Y-105000000D03*
D32*
%TO.P,J3,2,Pin_2*%
%TO.N,+6V*%
X80985000Y-105000000D03*
%TO.P,J3,3,Pin_3*%
%TO.N,GND*%
X78445000Y-105000000D03*
%TD*%
D31*
%TO.P,J2,1,Pin_1*%
%TO.N,Net-(J2-Pin_1)*%
X140460000Y-117000000D03*
D32*
%TO.P,J2,2,Pin_2*%
%TO.N,GND*%
X143000000Y-117000000D03*
%TO.P,J2,3,Pin_3*%
%TO.N,Net-(J2-Pin_3)*%
X145540000Y-117000000D03*
%TD*%
D31*
%TO.P,J1,1,Pin_1*%
%TO.N,Net-(J1-Pin_1)*%
X98400000Y-117700000D03*
D32*
%TO.P,J1,2,Pin_2*%
%TO.N,+5V*%
X100940000Y-117700000D03*
%TO.P,J1,3,Pin_3*%
%TO.N,GND*%
X103480000Y-117700000D03*
%TO.P,J1,4,Pin_4*%
%TO.N,Net-(J1-Pin_4)*%
X106020000Y-117700000D03*
%TO.P,J1,5,Pin_5*%
%TO.N,Net-(J1-Pin_5)*%
X108560000Y-117700000D03*
%TD*%
D33*
%TO.P,D7,1,K*%
%TO.N,K1*%
X115000000Y-128500000D03*
%TO.P,D7,2,A*%
%TO.N,GND*%
X115000000Y-123500000D03*
%TD*%
D34*
%TO.P,D6,1,K*%
%TO.N,+12V*%
X119000000Y-123500000D03*
%TO.P,D6,2,A*%
%TO.N,K1*%
X119000000Y-128500000D03*
%TD*%
D35*
%TO.P,D5,1,K*%
%TO.N,Net-(D5-K)*%
X152000000Y-104487500D03*
%TO.P,D5,2,A*%
%TO.N,+5V*%
X152000000Y-101512500D03*
%TD*%
%TO.P,D4,1,K*%
%TO.N,Net-(D4-K)*%
X152000000Y-93487500D03*
%TO.P,D4,2,A*%
%TO.N,+5V*%
X152000000Y-90512500D03*
%TD*%
D36*
%TO.P,D3,1,K*%
%TO.N,Net-(D3-K)*%
X130925000Y-116760000D03*
%TO.P,D3,2,A*%
%TO.N,+5V*%
X133900000Y-116760000D03*
%TD*%
D34*
%TO.P,D2,1,K*%
%TO.N,Net-(D2-K)*%
X77200000Y-123900000D03*
%TO.P,D2,2,A*%
%TO.N,+12V*%
X77200000Y-128900000D03*
%TD*%
%TO.P,D1,1,K*%
%TO.N,Net-(D1-K)*%
X81000000Y-123900000D03*
%TO.P,D1,2,A*%
%TO.N,+12V*%
X81000000Y-128900000D03*
%TD*%
D37*
%TO.P,C11,1*%
%TO.N,+5V*%
X97962500Y-113000000D03*
%TO.P,C11,2*%
%TO.N,GND*%
X100037500Y-113000000D03*
%TD*%
%TO.P,C10,1*%
%TO.N,+5V*%
X134962500Y-113000000D03*
%TO.P,C10,2*%
%TO.N,GND*%
X137037500Y-113000000D03*
%TD*%
D38*
%TO.P,C9,1*%
%TO.N,+6V*%
X90500000Y-106500000D03*
D39*
%TO.P,C9,2*%
%TO.N,GND*%
X90500000Y-109000000D03*
%TD*%
D40*
%TO.P,C8,1*%
%TO.N,+5V*%
X107750000Y-128470000D03*
%TO.P,C8,2*%
%TO.N,GND*%
X107750000Y-126395000D03*
%TD*%
D37*
%TO.P,C7,1*%
%TO.N,+5V*%
X113862500Y-104100000D03*
%TO.P,C7,2*%
%TO.N,GND*%
X115937500Y-104100000D03*
%TD*%
D41*
%TO.P,C6,1*%
%TO.N,+6V*%
X85500000Y-109925000D03*
%TO.P,C6,2*%
%TO.N,GND*%
X85500000Y-112000000D03*
%TD*%
%TO.P,C5,1*%
%TO.N,+5V*%
X89750000Y-121395000D03*
%TO.P,C5,2*%
%TO.N,GND*%
X89750000Y-123470000D03*
%TD*%
D40*
%TO.P,C4,1*%
%TO.N,Net-(D2-K)*%
X85500000Y-116075000D03*
%TO.P,C4,2*%
%TO.N,GND*%
X85500000Y-114000000D03*
%TD*%
%TO.P,C3,1*%
%TO.N,Net-(D1-K)*%
X89750000Y-127470000D03*
%TO.P,C3,2*%
%TO.N,GND*%
X89750000Y-125395000D03*
%TD*%
D38*
%TO.P,C2,1*%
%TO.N,Net-(D2-K)*%
X89500000Y-116000000D03*
D39*
%TO.P,C2,2*%
%TO.N,GND*%
X89500000Y-114000000D03*
%TD*%
D42*
%TO.P,C1,1*%
%TO.N,Net-(D1-K)*%
X85750000Y-127432500D03*
D43*
%TO.P,C1,2*%
%TO.N,GND*%
X85750000Y-125432500D03*
%TD*%
D44*
%TO.N,+5V*%
X91300000Y-121395000D03*
X110900000Y-123300000D03*
X146500000Y-113400000D03*
X133300000Y-113500000D03*
%TO.N,Net-(J2-Pin_3)*%
X115615058Y-112133404D03*
%TO.N,Net-(J2-Pin_1)*%
X114976704Y-113186498D03*
%TO.N,+5V*%
X113900000Y-100500000D03*
X127700000Y-100500000D03*
%TO.N,GND*%
X111500000Y-131900000D03*
%TO.N,+5V*%
X98600000Y-129700000D03*
X106800000Y-129800000D03*
D45*
%TO.N,GND*%
X129400000Y-95800000D03*
X122900000Y-95800000D03*
D44*
X120465000Y-104100000D03*
%TO.N,+5V*%
X147000000Y-100700000D03*
X151900000Y-100300000D03*
%TO.N,K1*%
X118366015Y-104884255D03*
X73000000Y-99900000D03*
%TO.N,Net-(J3-Pin_1)*%
X108100000Y-104800000D03*
%TO.N,GND*%
X100100000Y-102500000D03*
X106100000Y-101500000D03*
X138545000Y-101555000D03*
%TO.N,Net-(J1-Pin_1)*%
X111100000Y-105800000D03*
X95300000Y-106200000D03*
%TO.N,Net-(J1-Pin_4)*%
X118436397Y-116536397D03*
%TO.N,Net-(J1-Pin_5)*%
X119300000Y-117700000D03*
%TO.N,Net-(U3-RA2)*%
X126650000Y-109900000D03*
X124400000Y-109800000D03*
%TO.N,Net-(U3-RC0)*%
X125049114Y-110837381D03*
%TO.N,Net-(U3-RC1)*%
X120950000Y-109403124D03*
%TO.N,Net-(U3-RC2)*%
X124800000Y-107300000D03*
%TO.N,Net-(U3-RB4)*%
X120100000Y-119400000D03*
X104800000Y-119700000D03*
%TO.N,Net-(U3-RB5)*%
X121100000Y-120900000D03*
X105673554Y-122250000D03*
%TO.N,Net-(U3-RB6)*%
X122600000Y-120200000D03*
X103500000Y-120200000D03*
%TO.N,Net-(U3-RB7)*%
X110603447Y-120800000D03*
X102200000Y-121000000D03*
%TO.N,Net-(U3-RC7)*%
X116950000Y-107147481D03*
%TO.N,Net-(U3-RC6)*%
X117364443Y-111691557D03*
%TO.N,Net-(U3-RC4)*%
X111500000Y-112900000D03*
X100200000Y-110800000D03*
%TO.N,Net-(U3-RC0)*%
X106200000Y-110500000D03*
X139100000Y-110400000D03*
%TO.N,Net-(U3-RC1)*%
X106627180Y-109325255D03*
X139000000Y-109100000D03*
%TO.N,Net-(U3-RC2)*%
X106800000Y-108000000D03*
X139000000Y-107800000D03*
%TO.N,Net-(U3-RC6)*%
X99800000Y-109100000D03*
X132588369Y-111300000D03*
%TO.N,Net-(U3-RC3)*%
X115727159Y-108470864D03*
X131935039Y-108200000D03*
%TO.N,Net-(U3-RC7)*%
X99700000Y-106700000D03*
X132657703Y-106300994D03*
%TO.N,Net-(U5-Q1)*%
X141771067Y-97400465D03*
X148200000Y-98000000D03*
%TO.N,Net-(U5-Q3)*%
X138200000Y-98300000D03*
X140776792Y-99507211D03*
%TO.N,Net-(U5-Q2)*%
X140100000Y-97700000D03*
X132550000Y-97315876D03*
%TO.N,Net-(U5-Q5)*%
X135800000Y-99800000D03*
X128000000Y-97700000D03*
%TO.N,Net-(U5-Q4)*%
X121900000Y-98300000D03*
X134100000Y-99800000D03*
%TO.N,Net-(U10-G2)*%
X131343125Y-99361555D03*
X117233945Y-98000399D03*
%TO.N,Net-(U10-G1)*%
X114700000Y-99300000D03*
X132674745Y-99627180D03*
%TO.N,Net-(U11-G2)*%
X106500000Y-97900000D03*
X100100000Y-98300000D03*
%TO.N,Net-(U12-G2)*%
X96800000Y-97900000D03*
X102500000Y-99600000D03*
%TO.N,Net-(U12-G1)*%
X101600000Y-100600000D03*
X93300000Y-99500000D03*
%TO.N,Net-(U13-G2)*%
X85265825Y-97962958D03*
X99200000Y-100500000D03*
%TO.N,Net-(U13-G1)*%
X82800000Y-101300000D03*
X96226907Y-101573144D03*
%TO.N,Net-(U14-G2)*%
X75700000Y-99800000D03*
X94545462Y-100400000D03*
%TO.N,Net-(U14-G1)*%
X74300000Y-99900000D03*
X95795351Y-100400000D03*
D45*
%TO.N,GND*%
X143100000Y-95800000D03*
X138700000Y-95800000D03*
X133600000Y-95800000D03*
X117700000Y-95800000D03*
X113400000Y-95800000D03*
X107600000Y-95800000D03*
X102300000Y-95800000D03*
X97100000Y-95800000D03*
X92500000Y-95800000D03*
X86000000Y-95800000D03*
X81500000Y-95800000D03*
X77700000Y-95800000D03*
X148800000Y-95800000D03*
X73300000Y-95800000D03*
%TD*%
D46*
%TO.N,Net-(J1-Pin_5)*%
X122650000Y-108825000D02*
X121625001Y-108825000D01*
X120621268Y-110287818D02*
X120621268Y-114412183D01*
X121625001Y-108825000D02*
X121200001Y-108400000D01*
X121200001Y-108400000D02*
X120433456Y-108400000D01*
X119700000Y-115333451D02*
X119700000Y-116545587D01*
X120433456Y-108400000D02*
X120050000Y-108783455D01*
X120050000Y-108783455D02*
X120050000Y-109716549D01*
X120050000Y-109716549D02*
X120621268Y-110287818D01*
X120621268Y-114412183D02*
X119700000Y-115333451D01*
X119700000Y-116545587D02*
X119300000Y-116945587D01*
X119300000Y-116945587D02*
X119300000Y-117700000D01*
%TO.N,Net-(U3-RC7)*%
X115235762Y-116445000D02*
X118314111Y-113366651D01*
%TO.N,Net-(U3-RB5)*%
X105655000Y-122268554D02*
X105673554Y-122250000D01*
%TO.N,Net-(U3-RC6)*%
X117100000Y-113179899D02*
X117100000Y-111841301D01*
%TO.N,Net-(U3-RC7)*%
X117350000Y-107547481D02*
X116950000Y-107147481D01*
%TO.N,Net-(J1-Pin_4)*%
X119550000Y-109923656D02*
X120121268Y-110494924D01*
%TO.N,Net-(J2-Pin_1)*%
X113350000Y-108825000D02*
X113817678Y-108825000D01*
%TO.N,Net-(U3-RC7)*%
X113350000Y-116445000D02*
X115235762Y-116445000D01*
%TO.N,Net-(U3-RC6)*%
X117242945Y-111749334D02*
X117251094Y-111757483D01*
%TO.N,K1*%
X118403493Y-104884255D02*
X118366015Y-104884255D01*
X116950000Y-116750000D02*
X118700000Y-115000000D01*
X119350000Y-108069239D02*
X119350000Y-105830762D01*
%TO.N,Net-(J1-Pin_4)*%
X120121268Y-114205076D02*
X119200000Y-115126344D01*
%TO.N,K1*%
X116950000Y-126550000D02*
X116950000Y-116750000D01*
%TO.N,Net-(J1-Pin_4)*%
X120571345Y-107555000D02*
X119550000Y-108576345D01*
%TO.N,K1*%
X119621268Y-110702030D02*
X119050000Y-110130762D01*
X119050000Y-108369239D02*
X119350000Y-108069239D01*
D47*
%TO.N,+5V*%
X118965111Y-111822465D02*
X118965111Y-113634889D01*
X111200000Y-123300000D02*
X110900000Y-123300000D01*
D46*
%TO.N,Net-(U3-RC6)*%
X115104899Y-115175000D02*
X117100000Y-113179899D01*
D47*
%TO.N,+5V*%
X118400000Y-106400000D02*
X118400000Y-110000000D01*
D46*
%TO.N,Net-(U3-RC6)*%
X117251094Y-111757483D02*
X117265851Y-111757483D01*
%TO.N,Net-(U3-RC3)*%
X116525727Y-112910268D02*
X116525727Y-112125634D01*
%TO.N,K1*%
X119050000Y-110130762D02*
X119050000Y-108369239D01*
%TO.N,Net-(U3-RC6)*%
X117265851Y-111757483D02*
X117273654Y-111749680D01*
X117191967Y-111749334D02*
X117242945Y-111749334D01*
%TO.N,K1*%
X115000000Y-128500000D02*
X116950000Y-126550000D01*
D47*
%TO.N,GND*%
X120465000Y-104100000D02*
X119066685Y-104100000D01*
%TO.N,+5V*%
X91300000Y-121395000D02*
X89750000Y-121395000D01*
D46*
%TO.N,K1*%
X118700000Y-114919238D02*
X119621268Y-113997970D01*
%TO.N,Net-(U3-RC6)*%
X117100000Y-111841301D02*
X117191967Y-111749334D01*
%TO.N,Net-(J1-Pin_4)*%
X120121268Y-110494924D02*
X120121268Y-114205076D01*
%TO.N,Net-(U3-RC3)*%
X116464443Y-111318764D02*
X116525727Y-111257480D01*
%TO.N,Net-(J2-Pin_3)*%
X114872614Y-108052615D02*
X114872614Y-108889112D01*
%TO.N,K1*%
X119350000Y-105830762D02*
X118403493Y-104884255D01*
D47*
%TO.N,+5V*%
X118500000Y-105900000D02*
X118700000Y-106100000D01*
D46*
%TO.N,Net-(J2-Pin_1)*%
X113817678Y-108825000D02*
X114726000Y-109733322D01*
%TO.N,Net-(U3-RC1)*%
X122650000Y-112635000D02*
X121625001Y-112635000D01*
D47*
%TO.N,+5V*%
X118398000Y-110508354D02*
X118965111Y-111075465D01*
X118965111Y-113634889D02*
X117600000Y-115000000D01*
D46*
%TO.N,Net-(J2-Pin_3)*%
X113350000Y-107555000D02*
X114374999Y-107555000D01*
D47*
%TO.N,GND*%
X117665345Y-104100000D02*
X115937500Y-104100000D01*
X117931090Y-103834255D02*
X117665345Y-104100000D01*
D46*
%TO.N,Net-(U3-RC6)*%
X117273654Y-111749680D02*
X117306320Y-111749680D01*
D47*
%TO.N,GND*%
X119066685Y-104100000D02*
X118800940Y-103834255D01*
D46*
%TO.N,Net-(U3-RC3)*%
X116525727Y-109269432D02*
X115727159Y-108470864D01*
D47*
%TO.N,GND*%
X118800940Y-103834255D02*
X117931090Y-103834255D01*
D46*
%TO.N,Net-(U3-RB5)*%
X105655000Y-123957500D02*
X105655000Y-122268554D01*
D47*
%TO.N,+5V*%
X118398000Y-110000000D02*
X118398000Y-110508354D01*
X115300000Y-119200000D02*
X111200000Y-123300000D01*
D46*
%TO.N,Net-(U3-RC7)*%
X117350000Y-110382422D02*
X117350000Y-107547481D01*
%TO.N,Net-(U3-RC3)*%
X116525727Y-111257480D02*
X116525727Y-109269432D01*
%TO.N,Net-(J2-Pin_1)*%
X114726000Y-109733322D02*
X114726000Y-112935794D01*
%TO.N,K1*%
X118700000Y-115000000D02*
X118700000Y-114919238D01*
%TO.N,Net-(J1-Pin_4)*%
X119200000Y-115126344D02*
X119200000Y-115772794D01*
D47*
%TO.N,+5V*%
X115300000Y-117300000D02*
X115300000Y-119200000D01*
X118700000Y-106100000D02*
X118400000Y-106400000D01*
D46*
%TO.N,Net-(U3-RC6)*%
X113350000Y-115175000D02*
X115104899Y-115175000D01*
%TO.N,Net-(J2-Pin_1)*%
X114726000Y-112935794D02*
X114976704Y-113186498D01*
%TO.N,Net-(J2-Pin_3)*%
X114374999Y-107555000D02*
X114872614Y-108052615D01*
%TO.N,Net-(U3-RC3)*%
X113649999Y-114204999D02*
X115230996Y-114204999D01*
%TO.N,Net-(U3-RC7)*%
X118314111Y-113366651D02*
X118314111Y-111346533D01*
%TO.N,Net-(J2-Pin_3)*%
X114872614Y-108889112D02*
X115615058Y-109631556D01*
%TO.N,Net-(U3-RC3)*%
X116464443Y-112064350D02*
X116464443Y-111318764D01*
%TO.N,Net-(J2-Pin_3)*%
X115615058Y-109631556D02*
X115615058Y-112133404D01*
D47*
%TO.N,+5V*%
X113862500Y-104362500D02*
X115400000Y-105900000D01*
D46*
%TO.N,Net-(U3-RC3)*%
X115230996Y-114204999D02*
X116525727Y-112910268D01*
%TO.N,K1*%
X119621268Y-113997970D02*
X119621268Y-110702030D01*
%TO.N,Net-(U3-RC3)*%
X116525727Y-112125634D02*
X116464443Y-112064350D01*
%TO.N,Net-(U3-RC1)*%
X121625001Y-112635000D02*
X121121268Y-112131267D01*
%TO.N,Net-(U3-RC6)*%
X117306320Y-111749680D02*
X117364443Y-111691557D01*
D47*
%TO.N,+5V*%
X118965111Y-111075465D02*
X118965111Y-111822465D01*
D46*
%TO.N,Net-(J1-Pin_4)*%
X119550000Y-108576345D02*
X119550000Y-109923656D01*
%TO.N,Net-(U3-RC3)*%
X113350000Y-113905000D02*
X113649999Y-114204999D01*
%TO.N,Net-(U3-RC1)*%
X121121268Y-112131267D02*
X121121268Y-109574392D01*
%TO.N,Net-(J1-Pin_4)*%
X119200000Y-115772794D02*
X118436397Y-116536397D01*
D47*
%TO.N,+5V*%
X113862500Y-104100000D02*
X113862500Y-104362500D01*
D46*
%TO.N,Net-(J1-Pin_4)*%
X122650000Y-107555000D02*
X120571345Y-107555000D01*
%TO.N,Net-(U3-RC7)*%
X118314111Y-111346533D02*
X117350000Y-110382422D01*
%TO.N,Net-(U3-RC1)*%
X121121268Y-109574392D02*
X120950000Y-109403124D01*
D47*
%TO.N,+5V*%
X115400000Y-105900000D02*
X118500000Y-105900000D01*
X117600000Y-115000000D02*
X115300000Y-117300000D01*
X147000000Y-104000000D02*
X147000000Y-112900000D01*
X147000000Y-112900000D02*
X146500000Y-113400000D01*
X133300000Y-113500000D02*
X133337500Y-113500000D01*
X133337500Y-113500000D02*
X133900000Y-114062500D01*
%TO.N,GND*%
X137037500Y-113000000D02*
X137037500Y-118537500D01*
X137037500Y-118537500D02*
X137500000Y-119000000D01*
X137500000Y-119000000D02*
X142900000Y-119000000D01*
X142900000Y-119000000D02*
X143100000Y-118800000D01*
D46*
%TO.N,Net-(U3-RC2)*%
X126083885Y-111496114D02*
X126083885Y-110606678D01*
X125750000Y-109877207D02*
X124800000Y-108927207D01*
X125750000Y-110272793D02*
X125750000Y-109877207D01*
%TO.N,Net-(U3-RA2)*%
X126800000Y-113500000D02*
X126800000Y-110050000D01*
X125900000Y-114400000D02*
X126800000Y-113500000D01*
%TO.N,Net-(U3-RC2)*%
X123674999Y-113905000D02*
X126083885Y-111496114D01*
%TO.N,Net-(U3-RC0)*%
X124539933Y-111365000D02*
X125049114Y-110855819D01*
X122650000Y-111365000D02*
X124539933Y-111365000D01*
%TO.N,Net-(U3-RA2)*%
X126800000Y-110050000D02*
X126650000Y-109900000D01*
%TO.N,Net-(U3-RC2)*%
X124800000Y-108927207D02*
X124800000Y-107300000D01*
X126083885Y-110606678D02*
X125750000Y-110272793D01*
D47*
%TO.N,+5V*%
X113862500Y-100537500D02*
X113900000Y-100500000D01*
X113862500Y-104100000D02*
X113862500Y-100537500D01*
X127700000Y-110560000D02*
X133900000Y-116760000D01*
D46*
%TO.N,Net-(U3-RC0)*%
X125049114Y-110855819D02*
X125049114Y-110837381D01*
%TO.N,Net-(U5-Q5)*%
X126330000Y-98000000D02*
X127700000Y-98000000D01*
%TO.N,Net-(U3-RC2)*%
X122650000Y-113905000D02*
X123674999Y-113905000D01*
%TO.N,Net-(U3-RA2)*%
X125900000Y-116760000D02*
X125900000Y-114400000D01*
%TO.N,Net-(U5-Q5)*%
X127700000Y-98000000D02*
X128000000Y-97700000D01*
D47*
%TO.N,+5V*%
X127700000Y-100500000D02*
X127700000Y-110560000D01*
D48*
%TO.N,GND*%
X112300000Y-124000000D02*
X111500000Y-124800000D01*
X112800000Y-123500000D02*
X112300000Y-124000000D01*
X115000000Y-123500000D02*
X112800000Y-123500000D01*
X111500000Y-124800000D02*
X111500000Y-131900000D01*
D47*
%TO.N,+5V*%
X98800000Y-121100000D02*
X98800000Y-129500000D01*
X98800000Y-129500000D02*
X98600000Y-129700000D01*
X106800000Y-129420000D02*
X107750000Y-128470000D01*
X106800000Y-129800000D02*
X106800000Y-129420000D01*
%TO.N,GND*%
X99800000Y-126862500D02*
X99800000Y-121380000D01*
X99800000Y-121380000D02*
X103480000Y-117700000D01*
X101845000Y-128907500D02*
X99800000Y-126862500D01*
%TO.N,+5V*%
X100940000Y-117700000D02*
X98800000Y-119840000D01*
X93005000Y-121395000D02*
X91300000Y-121395000D01*
X98800000Y-119840000D02*
X98800000Y-121100000D01*
X98800000Y-121100000D02*
X98700000Y-121200000D01*
X98700000Y-121200000D02*
X93200000Y-121200000D01*
X93200000Y-121200000D02*
X93005000Y-121395000D01*
%TO.N,GND*%
X159250000Y-106980000D02*
X158120000Y-106980000D01*
X146300000Y-118800000D02*
X143100000Y-118800000D01*
X158120000Y-106980000D02*
X146300000Y-118800000D01*
X143100000Y-118800000D02*
X143100000Y-118600000D01*
X143100000Y-118600000D02*
X143000000Y-118500000D01*
X143000000Y-118500000D02*
X143000000Y-117000000D01*
D46*
%TO.N,Net-(J2-Pin_1)*%
X149050000Y-100150000D02*
X152000000Y-97200000D01*
X152000000Y-97200000D02*
X152000000Y-97000000D01*
%TO.N,GND*%
X128750000Y-98650000D02*
X129400000Y-98000000D01*
X129400000Y-98000000D02*
X129400000Y-95800000D01*
X126330000Y-98650000D02*
X128750000Y-98650000D01*
X123670000Y-96570000D02*
X122900000Y-95800000D01*
X123670000Y-97350000D02*
X123670000Y-96570000D01*
D47*
X122650000Y-106285000D02*
X120465000Y-104100000D01*
D46*
%TO.N,Net-(J2-Pin_1)*%
X140460000Y-117000000D02*
X140460000Y-116640000D01*
X140460000Y-116640000D02*
X145400000Y-111700000D01*
X148700000Y-99800000D02*
X149050000Y-100150000D01*
X149050000Y-100450000D02*
X149000000Y-100500000D01*
X149000000Y-100500000D02*
X149000000Y-102000000D01*
X145400000Y-111700000D02*
X145400000Y-99800000D01*
X145400000Y-99800000D02*
X148700000Y-99800000D01*
X149050000Y-100150000D02*
X149050000Y-100450000D01*
D47*
%TO.N,+5V*%
X147000000Y-100700000D02*
X147000000Y-102000000D01*
D46*
%TO.N,GND*%
X147659999Y-98900000D02*
X147409999Y-98650000D01*
X149100000Y-97756870D02*
X149100000Y-98372793D01*
X148572793Y-98900000D02*
X147659999Y-98900000D01*
X149049000Y-97576207D02*
X149049000Y-97705870D01*
X148800000Y-97327207D02*
X149049000Y-97576207D01*
X147409999Y-98650000D02*
X146660000Y-98650000D01*
X149049000Y-97705870D02*
X149100000Y-97756870D01*
X149100000Y-98372793D02*
X148572793Y-98900000D01*
X148800000Y-95800000D02*
X148800000Y-97327207D01*
%TO.N,Net-(J2-Pin_3)*%
X145540000Y-117000000D02*
X145600000Y-117000000D01*
X145600000Y-117000000D02*
X151900000Y-110700000D01*
X151900000Y-110700000D02*
X151900000Y-108800000D01*
X151900000Y-108800000D02*
X152000000Y-108700000D01*
X152000000Y-108700000D02*
X152000000Y-108000000D01*
D47*
X154750000Y-106980000D02*
X154750000Y-102900000D01*
X150100000Y-102900000D02*
X154750000Y-102900000D01*
X149000000Y-104000000D02*
X150100000Y-102900000D01*
%TO.N,+5V*%
X151900000Y-100300000D02*
X151900000Y-99200000D01*
X151900000Y-99200000D02*
X153600000Y-97500000D01*
X153600000Y-97500000D02*
X156200000Y-97500000D01*
X156200000Y-97500000D02*
X156200000Y-86300000D01*
X156200000Y-86300000D02*
X156100000Y-86200000D01*
X156100000Y-86200000D02*
X152900000Y-86200000D01*
X152900000Y-86200000D02*
X152000000Y-87100000D01*
X152000000Y-87100000D02*
X152000000Y-90512500D01*
X151900000Y-101412500D02*
X152000000Y-101512500D01*
X151900000Y-100300000D02*
X151900000Y-101412500D01*
D46*
%TO.N,Net-(U14-G1)*%
X73400000Y-100800000D02*
X74300000Y-99900000D01*
%TO.N,K1*%
X73340000Y-98650000D02*
X73340000Y-99560000D01*
%TO.N,Net-(U14-G1)*%
X72627207Y-100800000D02*
X73400000Y-100800000D01*
X72239000Y-98351001D02*
X72239000Y-99288207D01*
X73340000Y-98000000D02*
X72590001Y-98000000D01*
%TO.N,K1*%
X73340000Y-99560000D02*
X73000000Y-99900000D01*
%TO.N,Net-(U14-G1)*%
X72590001Y-98000000D02*
X72239000Y-98351001D01*
X72100000Y-100272793D02*
X72627207Y-100800000D01*
X72239000Y-99288207D02*
X72100000Y-99427207D01*
X72100000Y-99427207D02*
X72100000Y-100272793D01*
%TO.N,Net-(J3-Pin_1)*%
X108000000Y-111000000D02*
X108000000Y-104900000D01*
X108000000Y-104900000D02*
X108100000Y-104800000D01*
D47*
%TO.N,GND*%
X100037500Y-113000000D02*
X100037500Y-114257500D01*
X100037500Y-114257500D02*
X103480000Y-117700000D01*
D46*
%TO.N,Net-(U11-G2)*%
X100100000Y-101227207D02*
X100100000Y-98300000D01*
X102700000Y-104980761D02*
X102700000Y-104392893D01*
X101000000Y-102692894D02*
X101000000Y-102127207D01*
D47*
%TO.N,GND*%
X102200000Y-106300000D02*
X100100000Y-104200000D01*
D46*
%TO.N,Net-(U11-G2)*%
X101000000Y-102127207D02*
X100100000Y-101227207D01*
X104250000Y-105365000D02*
X103084239Y-105365000D01*
D47*
%TO.N,GND*%
X100100000Y-104200000D02*
X100100000Y-102500000D01*
D46*
%TO.N,Net-(U11-G2)*%
X103084239Y-105365000D02*
X102700000Y-104980761D01*
X102700000Y-104392893D02*
X101000000Y-102692894D01*
D47*
%TO.N,GND*%
X102200000Y-110837500D02*
X102200000Y-106300000D01*
X100037500Y-113000000D02*
X102200000Y-110837500D01*
D46*
%TO.N,Net-(U12-G1)*%
X101600000Y-102585787D02*
X101600000Y-100600000D01*
X103109213Y-104095000D02*
X101600000Y-102585787D01*
%TO.N,Net-(U13-G2)*%
X97750000Y-102825000D02*
X98502207Y-102825000D01*
X98502207Y-102825000D02*
X99301000Y-102026207D01*
X99301000Y-102026207D02*
X99301000Y-100601000D01*
X99301000Y-100601000D02*
X99200000Y-100500000D01*
%TO.N,Net-(U12-G1)*%
X104250000Y-104095000D02*
X103109213Y-104095000D01*
%TO.N,Net-(U11-G1)*%
X103900000Y-98810001D02*
X103089999Y-98000000D01*
X107000000Y-101872793D02*
X107000000Y-101127207D01*
X106172793Y-100300000D02*
X103900000Y-100300000D01*
X106200000Y-102672793D02*
X107000000Y-101872793D01*
X105665000Y-106635000D02*
X106200000Y-106100000D01*
X106200000Y-106100000D02*
X106200000Y-102672793D01*
D47*
%TO.N,GND*%
X104250000Y-101555000D02*
X106045000Y-101555000D01*
X106045000Y-101555000D02*
X106100000Y-101500000D01*
D46*
%TO.N,Net-(U11-G1)*%
X107000000Y-101127207D02*
X106172793Y-100300000D01*
X104250000Y-106635000D02*
X105665000Y-106635000D01*
X103900000Y-100300000D02*
X103900000Y-98810001D01*
X103089999Y-98000000D02*
X102340000Y-98000000D01*
D47*
%TO.N,+5V*%
X97962500Y-113000000D02*
X97962500Y-113962500D01*
X97962500Y-113962500D02*
X99200000Y-115200000D01*
X99200000Y-115200000D02*
X99200000Y-115960000D01*
X99200000Y-115960000D02*
X100940000Y-117700000D01*
%TO.N,GND*%
X159250000Y-99020000D02*
X159250000Y-95980000D01*
X141250000Y-101555000D02*
X138545000Y-101555000D01*
X138545000Y-101555000D02*
X137037500Y-103062500D01*
X137037500Y-103062500D02*
X137037500Y-113000000D01*
D46*
%TO.N,Net-(U5-Q3)*%
X141250000Y-102825000D02*
X142449999Y-102825000D01*
X142449999Y-102825000D02*
X142800000Y-102474999D01*
%TO.N,Net-(U5-Q2)*%
X141892678Y-104095000D02*
X143301000Y-102686678D01*
%TO.N,Net-(U5-Q3)*%
X142800000Y-100990709D02*
X141316502Y-99507211D01*
%TO.N,Net-(U5-Q1)*%
X142400000Y-99147689D02*
X142400000Y-98029398D01*
%TO.N,Net-(U5-Q3)*%
X142800000Y-102474999D02*
X142800000Y-100990709D01*
%TO.N,Net-(U5-Q0)*%
X142900000Y-98940582D02*
X142900000Y-98300000D01*
%TO.N,Net-(U5-Q1)*%
X141892678Y-105365000D02*
X144100000Y-103157678D01*
X144100000Y-103157678D02*
X144100000Y-100847689D01*
X144100000Y-100847689D02*
X142400000Y-99147689D01*
%TO.N,Net-(U5-Q0)*%
X144600000Y-100640583D02*
X142900000Y-98940582D01*
X143200000Y-98000000D02*
X144000000Y-98000000D01*
X142900000Y-98300000D02*
X143200000Y-98000000D01*
X142449999Y-106635000D02*
X143301000Y-105783999D01*
%TO.N,Net-(U5-Q2)*%
X143301000Y-100758625D02*
X140242375Y-97700000D01*
%TO.N,Net-(U5-Q0)*%
X143301000Y-105783999D02*
X143301000Y-104663784D01*
X141250000Y-106635000D02*
X142449999Y-106635000D01*
%TO.N,Net-(U5-Q2)*%
X140242375Y-97700000D02*
X140100000Y-97700000D01*
%TO.N,Net-(U5-Q3)*%
X141316502Y-99507211D02*
X140776792Y-99507211D01*
%TO.N,Net-(U5-Q0)*%
X143301000Y-104663784D02*
X144600000Y-103364784D01*
%TO.N,Net-(U5-Q1)*%
X142400000Y-98029398D02*
X141771067Y-97400465D01*
X141250000Y-105365000D02*
X141892678Y-105365000D01*
%TO.N,Net-(U5-Q0)*%
X144600000Y-103364784D02*
X144600000Y-100640583D01*
%TO.N,Net-(U5-Q2)*%
X141250000Y-104095000D02*
X141892678Y-104095000D01*
X143301000Y-102686678D02*
X143301000Y-100758625D01*
%TO.N,Net-(U3-RC7)*%
X97750000Y-106635000D02*
X99635000Y-106635000D01*
%TO.N,Net-(J1-Pin_1)*%
X112325001Y-110095000D02*
X111100000Y-108869999D01*
X113350000Y-110095000D02*
X112325001Y-110095000D01*
X95300000Y-106200000D02*
X95300000Y-115700000D01*
X95300000Y-115700000D02*
X97300000Y-117700000D01*
X111100000Y-108869999D02*
X111100000Y-105800000D01*
%TO.N,Net-(U3-RC7)*%
X99635000Y-106635000D02*
X99700000Y-106700000D01*
%TO.N,Net-(J1-Pin_1)*%
X97300000Y-117700000D02*
X98400000Y-117700000D01*
%TO.N,Net-(U3-RB4)*%
X122650000Y-115175000D02*
X121625001Y-115175000D01*
X120100000Y-118172793D02*
X120100000Y-119400000D01*
X120200000Y-118072793D02*
X120100000Y-118172793D01*
X121625001Y-115175000D02*
X120200000Y-116600001D01*
X120200000Y-116600001D02*
X120200000Y-118072793D01*
%TO.N,Net-(U3-RA2)*%
X124105000Y-110095000D02*
X124400000Y-109800000D01*
X122650000Y-110095000D02*
X124105000Y-110095000D01*
%TO.N,Net-(U3-RB7)*%
X110691428Y-120373572D02*
X110691428Y-120578411D01*
X110691428Y-120578411D02*
X110603447Y-120666392D01*
X113350000Y-117715000D02*
X110691428Y-120373572D01*
X110603447Y-120666392D02*
X110603447Y-120800000D01*
%TO.N,Net-(U3-RB4)*%
X104800000Y-119700000D02*
X104385000Y-120115000D01*
X104385000Y-120115000D02*
X104385000Y-123957500D01*
%TO.N,Net-(U3-RB5)*%
X121100000Y-117100000D02*
X121100000Y-120900000D01*
X121755000Y-116445000D02*
X121100000Y-117100000D01*
X122650000Y-116445000D02*
X121755000Y-116445000D01*
%TO.N,Net-(U3-RB6)*%
X122650000Y-117715000D02*
X122650000Y-120150000D01*
X122650000Y-120150000D02*
X122600000Y-120200000D01*
X103500000Y-120200000D02*
X103500000Y-120900000D01*
X103500000Y-120900000D02*
X103115000Y-121285000D01*
X103115000Y-121285000D02*
X103115000Y-123957500D01*
%TO.N,Net-(U3-RB7)*%
X102200000Y-121000000D02*
X101845000Y-121355000D01*
X101845000Y-121355000D02*
X101845000Y-123957500D01*
%TO.N,Net-(U3-RC4)*%
X113350000Y-112635000D02*
X111765000Y-112635000D01*
X111765000Y-112635000D02*
X111500000Y-112900000D01*
X100200000Y-110100000D02*
X101500000Y-108800000D01*
X100200000Y-110800000D02*
X100200000Y-110100000D01*
X101500000Y-108800000D02*
X100605000Y-107905000D01*
X100605000Y-107905000D02*
X97750000Y-107905000D01*
%TO.N,Net-(U3-RC6)*%
X132588369Y-110100000D02*
X132588369Y-111300000D01*
%TO.N,Net-(U3-RC0)*%
X139145000Y-110445000D02*
X139100000Y-110400000D01*
%TO.N,Net-(U3-RC1)*%
X104475000Y-109400000D02*
X106552435Y-109400000D01*
X106552435Y-109400000D02*
X106627180Y-109325255D01*
%TO.N,Net-(U3-RC0)*%
X141250000Y-110445000D02*
X139145000Y-110445000D01*
X104305000Y-110500000D02*
X104250000Y-110445000D01*
%TO.N,Net-(U3-RC6)*%
X133513369Y-109175000D02*
X132588369Y-110100000D01*
%TO.N,Net-(U3-RC1)*%
X104250000Y-109175000D02*
X104475000Y-109400000D01*
%TO.N,Net-(U3-RC6)*%
X134750000Y-109175000D02*
X133513369Y-109175000D01*
%TO.N,Net-(U3-RC0)*%
X106200000Y-110500000D02*
X104305000Y-110500000D01*
%TO.N,Net-(U3-RC3)*%
X134750000Y-107905000D02*
X132467378Y-107905000D01*
%TO.N,Net-(U3-RC1)*%
X141250000Y-109175000D02*
X139075000Y-109175000D01*
%TO.N,Net-(U3-RC3)*%
X132057132Y-108315246D02*
X132050285Y-108315246D01*
X132050285Y-108315246D02*
X131935039Y-108200000D01*
%TO.N,Net-(U3-RC1)*%
X139075000Y-109175000D02*
X139000000Y-109100000D01*
%TO.N,Net-(U3-RC3)*%
X132467378Y-107905000D02*
X132057132Y-108315246D01*
%TO.N,Net-(U3-RC7)*%
X132719971Y-106425567D02*
X132657703Y-106363299D01*
X132657703Y-106363299D02*
X132657703Y-106300994D01*
X134750000Y-106635000D02*
X132835000Y-106635000D01*
X132835000Y-106635000D02*
X132719971Y-106519971D01*
%TO.N,Net-(U3-RC2)*%
X104345000Y-108000000D02*
X104250000Y-107905000D01*
X141250000Y-107905000D02*
X139105000Y-107905000D01*
X139105000Y-107905000D02*
X139000000Y-107800000D01*
%TO.N,Net-(U3-RC7)*%
X132719971Y-106519971D02*
X132719971Y-106425567D01*
%TO.N,Net-(U3-RC2)*%
X106800000Y-108000000D02*
X104345000Y-108000000D01*
%TO.N,Net-(U3-RC6)*%
X99800000Y-109100000D02*
X97825000Y-109100000D01*
X97825000Y-109100000D02*
X97750000Y-109175000D01*
%TO.N,Net-(U5-Q1)*%
X146660000Y-98000000D02*
X148200000Y-98000000D01*
%TO.N,GND*%
X138700000Y-97427207D02*
X138700000Y-95800000D01*
X138572793Y-99200000D02*
X139100000Y-98672793D01*
%TO.N,Net-(U5-Q3)*%
X137900000Y-98000000D02*
X138200000Y-98300000D01*
%TO.N,GND*%
X139100000Y-97827207D02*
X138700000Y-97427207D01*
X137210000Y-99200000D02*
X138572793Y-99200000D01*
X136660000Y-98650000D02*
X137210000Y-99200000D01*
X139100000Y-98672793D02*
X139100000Y-97827207D01*
%TO.N,Net-(U5-Q3)*%
X136660000Y-98000000D02*
X137900000Y-98000000D01*
%TO.N,Net-(U5-Q2)*%
X134000000Y-98000000D02*
X133234124Y-98000000D01*
%TO.N,Net-(U10-G2)*%
X134750000Y-105365000D02*
X133550001Y-105365000D01*
%TO.N,Net-(U8-D2)*%
X131300000Y-94320000D02*
X131300000Y-97450000D01*
%TO.N,Net-(U10-G2)*%
X131500000Y-103314999D02*
X131500000Y-99518430D01*
X131500000Y-99518430D02*
X131343125Y-99361555D01*
X133550001Y-105365000D02*
X131500000Y-103314999D01*
%TO.N,Net-(U8-D2)*%
X131300000Y-97450000D02*
X132500000Y-98650000D01*
X132000000Y-93620000D02*
X131300000Y-94320000D01*
X132500000Y-98650000D02*
X134000000Y-98650000D01*
%TO.N,Net-(U5-Q2)*%
X133234124Y-98000000D02*
X132550000Y-97315876D01*
%TO.N,Net-(U5-Q5)*%
X135800000Y-99800000D02*
X136301000Y-100301000D01*
X136301000Y-100301000D02*
X136301000Y-102473999D01*
X136301000Y-102473999D02*
X135949999Y-102825000D01*
X135949999Y-102825000D02*
X134750000Y-102825000D01*
%TO.N,Net-(U10-G1)*%
X133550001Y-104095000D02*
X132600000Y-103144999D01*
X132600000Y-103144999D02*
X132600000Y-99701925D01*
X132600000Y-99701925D02*
X132674745Y-99627180D01*
X134750000Y-104095000D02*
X133550001Y-104095000D01*
%TO.N,Net-(U5-Q4)*%
X123670000Y-98000000D02*
X122200000Y-98000000D01*
X122200000Y-98000000D02*
X121900000Y-98300000D01*
X134100000Y-100905000D02*
X134750000Y-101555000D01*
X134100000Y-99800000D02*
X134100000Y-100905000D01*
%TO.N,GND*%
X117586441Y-98851399D02*
X118084945Y-98352895D01*
X118084945Y-98352895D02*
X118084945Y-97578606D01*
X118084945Y-97578606D02*
X117700000Y-97193661D01*
%TO.N,Net-(U10-G2)*%
X116000399Y-98000399D02*
X116000000Y-98000000D01*
%TO.N,GND*%
X116000000Y-98650000D02*
X116201399Y-98851399D01*
X116201399Y-98851399D02*
X117586441Y-98851399D01*
%TO.N,Net-(U10-G2)*%
X117233945Y-98000399D02*
X116000399Y-98000399D01*
%TO.N,GND*%
X117700000Y-97193661D02*
X117700000Y-95800000D01*
%TO.N,Net-(U10-G1)*%
X114700000Y-98600000D02*
X114700000Y-99300000D01*
X113340000Y-98000000D02*
X114100000Y-98000000D01*
X114100000Y-98000000D02*
X114700000Y-98600000D01*
%TO.N,GND*%
X107600000Y-98072793D02*
X107600000Y-95800000D01*
X106822794Y-98849999D02*
X107600000Y-98072793D01*
%TO.N,Net-(U11-D2)*%
X101200000Y-94820000D02*
X100000000Y-93620000D01*
%TO.N,Net-(U11-G2)*%
X105100000Y-97900000D02*
X105000000Y-98000000D01*
%TO.N,GND*%
X105000000Y-98650000D02*
X105199999Y-98849999D01*
%TO.N,Net-(U11-G2)*%
X106500000Y-97900000D02*
X105100000Y-97900000D01*
%TO.N,GND*%
X105199999Y-98849999D02*
X106822794Y-98849999D01*
%TO.N,Net-(U11-D2)*%
X101200000Y-98259999D02*
X101200000Y-94820000D01*
X101590001Y-98650000D02*
X101200000Y-98259999D01*
X102340000Y-98650000D02*
X101590001Y-98650000D01*
%TO.N,GND*%
X97100000Y-96927207D02*
X97100000Y-95800000D01*
X97122794Y-98849999D02*
X97700000Y-98272793D01*
X97700000Y-98272793D02*
X97700000Y-97527207D01*
X95199999Y-98849999D02*
X97122794Y-98849999D01*
X97700000Y-97527207D02*
X97100000Y-96927207D01*
%TO.N,Net-(U12-G2)*%
X96700000Y-98000000D02*
X96800000Y-97900000D01*
X95000000Y-98000000D02*
X96700000Y-98000000D01*
X102500000Y-101717678D02*
X103607322Y-102825000D01*
%TO.N,GND*%
X95000000Y-98650000D02*
X95199999Y-98849999D01*
%TO.N,Net-(U12-G2)*%
X103607322Y-102825000D02*
X104250000Y-102825000D01*
X102500000Y-99600000D02*
X102500000Y-101717678D01*
%TO.N,Net-(U14-G2)*%
X94200000Y-103014999D02*
X94200000Y-100388521D01*
%TO.N,Net-(U12-G1)*%
X93080582Y-98000000D02*
X93441000Y-98360418D01*
%TO.N,Net-(U14-G2)*%
X97750000Y-105365000D02*
X96550001Y-105365000D01*
%TO.N,Net-(U12-G1)*%
X92340000Y-98000000D02*
X93080582Y-98000000D01*
%TO.N,Net-(U14-G2)*%
X94538541Y-100393079D02*
X94545462Y-100400000D01*
X94365377Y-100223144D02*
X94444000Y-100223144D01*
X94538541Y-100317685D02*
X94538541Y-100393079D01*
X96550001Y-105365000D02*
X94200000Y-103014999D01*
%TO.N,Net-(U14-G1)*%
X95300000Y-101872793D02*
X95300000Y-101127207D01*
%TO.N,Net-(U13-G1)*%
X97750000Y-101555000D02*
X97695000Y-101500000D01*
%TO.N,Net-(U14-G1)*%
X95300000Y-101127207D02*
X95400000Y-101027207D01*
X95400000Y-103100000D02*
X95400000Y-101972793D01*
X95400000Y-100576416D02*
X95642614Y-100333802D01*
X97750000Y-104095000D02*
X96395000Y-104095000D01*
X95400000Y-101027207D02*
X95400000Y-100576416D01*
X96395000Y-104095000D02*
X95400000Y-103100000D01*
X95400000Y-101972793D02*
X95300000Y-101872793D01*
%TO.N,Net-(U13-G1)*%
X97695000Y-101500000D02*
X96300051Y-101500000D01*
%TO.N,Net-(U12-G1)*%
X93441000Y-98360418D02*
X93441000Y-99359000D01*
%TO.N,Net-(U14-G2)*%
X94444000Y-100223144D02*
X94538541Y-100317685D01*
%TO.N,Net-(U13-G1)*%
X96300051Y-101500000D02*
X96226907Y-101573144D01*
%TO.N,Net-(U14-G1)*%
X95794644Y-100333802D02*
X95795351Y-100334509D01*
X95795351Y-100334509D02*
X95795351Y-100400000D01*
X95642614Y-100333802D02*
X95794644Y-100333802D01*
%TO.N,Net-(U12-G1)*%
X93441000Y-99359000D02*
X93300000Y-99500000D01*
%TO.N,Net-(U14-G2)*%
X94200000Y-100388521D02*
X94365377Y-100223144D01*
%TO.N,GND*%
X86000000Y-97424340D02*
X86000000Y-95800000D01*
%TO.N,Net-(U13-G2)*%
X84000000Y-98000000D02*
X85228783Y-98000000D01*
%TO.N,GND*%
X86165825Y-98335751D02*
X86165825Y-97590165D01*
%TO.N,Net-(U13-G2)*%
X85228783Y-98000000D02*
X85265825Y-97962958D01*
%TO.N,GND*%
X84000000Y-98650000D02*
X84212958Y-98862958D01*
X86165825Y-97590165D02*
X86000000Y-97424340D01*
X84212958Y-98862958D02*
X85638618Y-98862958D01*
X85638618Y-98862958D02*
X86165825Y-98335751D01*
%TO.N,Net-(U13-G1)*%
X82089999Y-98000000D02*
X82800000Y-98710001D01*
X81340000Y-98000000D02*
X82089999Y-98000000D01*
X82800000Y-98710001D02*
X82800000Y-101300000D01*
%TO.N,Net-(U14-G2)*%
X75700000Y-99800000D02*
X74899000Y-98999000D01*
X74899000Y-98999000D02*
X74899000Y-98351001D01*
X74899000Y-98351001D02*
X75250001Y-98000000D01*
X75250001Y-98000000D02*
X76000000Y-98000000D01*
%TO.N,GND*%
X144000000Y-97350000D02*
X144000000Y-96700000D01*
X144000000Y-96700000D02*
X143100000Y-95800000D01*
%TO.N,Net-(U8-D1)*%
X139010051Y-93620000D02*
X140000000Y-93620000D01*
X136660000Y-97350000D02*
X136660000Y-95970051D01*
X136660000Y-95970051D02*
X139010051Y-93620000D01*
%TO.N,GND*%
X134000000Y-97350000D02*
X134000000Y-96200000D01*
X134000000Y-96200000D02*
X133600000Y-95800000D01*
X113340000Y-97350000D02*
X113340000Y-95860000D01*
X113340000Y-95860000D02*
X113400000Y-95800000D01*
%TO.N,Net-(U11-D1)*%
X105000000Y-96620000D02*
X108000000Y-93620000D01*
X105000000Y-97350000D02*
X105000000Y-96620000D01*
%TO.N,GND*%
X102340000Y-95840000D02*
X102300000Y-95800000D01*
X102340000Y-97350000D02*
X102340000Y-95840000D01*
X92340000Y-97350000D02*
X92340000Y-95960000D01*
X92340000Y-95960000D02*
X92500000Y-95800000D01*
X81340000Y-97350000D02*
X81340000Y-95960000D01*
X81340000Y-95960000D02*
X81500000Y-95800000D01*
X76000000Y-98650000D02*
X77050000Y-98650000D01*
X77600000Y-95900000D02*
X77700000Y-95800000D01*
X77050000Y-98650000D02*
X77600000Y-98100000D01*
X77600000Y-98100000D02*
X77600000Y-95900000D01*
%TO.N,Net-(U7-D1)*%
X146660000Y-94960000D02*
X148000000Y-93620000D01*
X146660000Y-97350000D02*
X146660000Y-94960000D01*
%TO.N,GND*%
X73340000Y-95840000D02*
X73300000Y-95800000D01*
X73340000Y-97350000D02*
X73340000Y-95840000D01*
D47*
%TO.N,+5V*%
X133900000Y-116760000D02*
X133900000Y-114062500D01*
X133900000Y-114062500D02*
X134962500Y-113000000D01*
%TO.N,Net-(D3-K)*%
X127900000Y-116760000D02*
X130925000Y-116760000D01*
D48*
%TO.N,Net-(D2-K)*%
X85500000Y-116075000D02*
X89425000Y-116075000D01*
X89425000Y-116075000D02*
X89500000Y-116000000D01*
D47*
%TO.N,GND*%
X89750000Y-125395000D02*
X89750000Y-124400000D01*
X92887500Y-124432500D02*
X89782500Y-124432500D01*
X89782500Y-124432500D02*
X89750000Y-124400000D01*
%TO.N,+5V*%
X89750000Y-121395000D02*
X91262500Y-121395000D01*
X91262500Y-121395000D02*
X92800000Y-122932500D01*
%TO.N,GND*%
X89750000Y-124400000D02*
X89750000Y-123470000D01*
X85750000Y-125432500D02*
X89712500Y-125432500D01*
X89712500Y-125432500D02*
X89750000Y-125395000D01*
%TO.N,Net-(D1-K)*%
X89750000Y-127470000D02*
X85787500Y-127470000D01*
X85787500Y-127470000D02*
X85750000Y-127432500D01*
X89750000Y-127470000D02*
X91262500Y-127470000D01*
X91262500Y-127470000D02*
X92800000Y-125932500D01*
%TO.N,Net-(J4-Pin_5)*%
X103115000Y-128907500D02*
X103115000Y-134885000D01*
X103115000Y-134885000D02*
X101000000Y-137000000D01*
%TO.N,Net-(J4-Pin_7)*%
X104385000Y-128907500D02*
X104385000Y-135385000D01*
X104385000Y-135385000D02*
X106000000Y-137000000D01*
%TO.N,GND*%
X101845000Y-128907500D02*
X101845000Y-127755000D01*
X103205000Y-126395000D02*
X107750000Y-126395000D01*
X101845000Y-127755000D02*
X103205000Y-126395000D01*
%TO.N,+5V*%
X107750000Y-128470000D02*
X106092500Y-128470000D01*
X106092500Y-128470000D02*
X105655000Y-128907500D01*
D48*
%TO.N,+12V*%
X124122206Y-125250000D02*
X120750000Y-125250000D01*
X120750000Y-125250000D02*
X119000000Y-123500000D01*
%TO.N,K1*%
X119000000Y-128500000D02*
X115000000Y-128500000D01*
X124122206Y-132750000D02*
X123250000Y-132750000D01*
X123250000Y-132750000D02*
X119000000Y-128500000D01*
D47*
%TO.N,+5V*%
X113350000Y-106285000D02*
X113350000Y-104612500D01*
X113350000Y-104612500D02*
X113862500Y-104100000D01*
%TO.N,Servo*%
X113350000Y-111365000D02*
X110365000Y-111365000D01*
X110365000Y-111365000D02*
X110000000Y-111000000D01*
%TO.N,+5V*%
X97962500Y-113000000D02*
X97962500Y-110657500D01*
X97962500Y-110657500D02*
X97750000Y-110445000D01*
D48*
%TO.N,GND*%
X78445000Y-105000000D02*
X78445000Y-106205000D01*
X78445000Y-106205000D02*
X74425000Y-110225000D01*
%TO.N,+6V*%
X80985000Y-105000000D02*
X80985000Y-109225000D01*
X80985000Y-109225000D02*
X81685000Y-109925000D01*
X90500000Y-106500000D02*
X88925000Y-106500000D01*
X88925000Y-106500000D02*
X85500000Y-109925000D01*
%TO.N,GND*%
X89500000Y-114000000D02*
X89500000Y-110000000D01*
X89500000Y-110000000D02*
X90500000Y-109000000D01*
X85500000Y-113000000D02*
X86500000Y-114000000D01*
X86500000Y-114000000D02*
X89500000Y-114000000D01*
%TO.N,+6V*%
X85500000Y-109925000D02*
X81685000Y-109925000D01*
X81685000Y-109925000D02*
X81150000Y-110460000D01*
%TO.N,GND*%
X85500000Y-114000000D02*
X85500000Y-113000000D01*
X85500000Y-113000000D02*
X77200000Y-113000000D01*
X77200000Y-113000000D02*
X74425000Y-110225000D01*
X85500000Y-113000000D02*
X85500000Y-112000000D01*
%TO.N,Net-(D2-K)*%
X85500000Y-116075000D02*
X81685000Y-116075000D01*
X81685000Y-116075000D02*
X81150000Y-115540000D01*
X77200000Y-123900000D02*
X77200000Y-122000000D01*
X77200000Y-122000000D02*
X81150000Y-118050000D01*
X81150000Y-118050000D02*
X81150000Y-115540000D01*
%TO.N,Net-(D1-K)*%
X85750000Y-127432500D02*
X84732500Y-127432500D01*
X84732500Y-127432500D02*
X82600000Y-125300000D01*
X82600000Y-125300000D02*
X82400000Y-125300000D01*
X82400000Y-125300000D02*
X81000000Y-123900000D01*
D49*
%TO.N,+12V*%
X81000000Y-137000000D02*
X81000000Y-128900000D01*
X76000000Y-137000000D02*
X76000000Y-130100000D01*
X76000000Y-130100000D02*
X77200000Y-128900000D01*
D46*
%TO.N,Net-(U14-D1)*%
X76000000Y-97350000D02*
X76000000Y-93620000D01*
%TO.N,Net-(U13-D2)*%
X80000000Y-93620000D02*
X80000000Y-98550000D01*
X80000000Y-98550000D02*
X80100000Y-98650000D01*
X80100000Y-98650000D02*
X81340000Y-98650000D01*
%TO.N,Net-(U13-D1)*%
X84000000Y-97350000D02*
X84000000Y-93620000D01*
%TO.N,Net-(U12-D2)*%
X92340000Y-98650000D02*
X91150000Y-98650000D01*
X91150000Y-98650000D02*
X91000000Y-98500000D01*
X91000000Y-98500000D02*
X91000000Y-94620000D01*
X91000000Y-94620000D02*
X92000000Y-93620000D01*
%TO.N,Net-(U12-D1)*%
X95000000Y-97350000D02*
X96000000Y-96350000D01*
X96000000Y-96350000D02*
X96000000Y-93620000D01*
%TO.N,Net-(U10-D2)*%
X112000000Y-93620000D02*
X112000000Y-98600000D01*
X112000000Y-98600000D02*
X112050000Y-98650000D01*
X112050000Y-98650000D02*
X113340000Y-98650000D01*
%TO.N,Net-(U10-D1)*%
X116000000Y-97350000D02*
X116000000Y-93620000D01*
%TO.N,Net-(U9-D2)*%
X123670000Y-98650000D02*
X124650000Y-98650000D01*
X124900000Y-94520000D02*
X124000000Y-93620000D01*
X124650000Y-98650000D02*
X124900000Y-98400000D01*
X124900000Y-98400000D02*
X124900000Y-94520000D01*
%TO.N,Net-(U9-D1)*%
X126330000Y-97350000D02*
X128000000Y-95680000D01*
X128000000Y-95680000D02*
X128000000Y-93620000D01*
%TO.N,Net-(U7-D2)*%
X144000000Y-98650000D02*
X144749999Y-98650000D01*
X144749999Y-98650000D02*
X145400000Y-97999999D01*
X145400000Y-97999999D02*
X145400000Y-95020000D01*
X145400000Y-95020000D02*
X144000000Y-93620000D01*
D47*
%TO.N,+5V*%
X134750000Y-110445000D02*
X134750000Y-112787500D01*
X134750000Y-112787500D02*
X134962500Y-113000000D01*
X147000000Y-104000000D02*
X147000000Y-102000000D01*
%TO.N,Net-(D4-K)*%
X152000000Y-93487500D02*
X151812500Y-93487500D01*
X150000000Y-95300000D02*
X150000000Y-97000000D01*
X151812500Y-93487500D02*
X150000000Y-95300000D01*
%TO.N,Net-(J2-Pin_1)*%
X154750000Y-95980000D02*
X153020000Y-95980000D01*
X153020000Y-95980000D02*
X152000000Y-97000000D01*
%TO.N,Net-(D5-K)*%
X152000000Y-104487500D02*
X151812500Y-104487500D01*
X150000000Y-106300000D02*
X150000000Y-108000000D01*
X151812500Y-104487500D02*
X150000000Y-106300000D01*
%TO.N,Net-(J2-Pin_3)*%
X154750000Y-106980000D02*
X153020000Y-106980000D01*
X153020000Y-106980000D02*
X152000000Y-108000000D01*
X154750000Y-102900000D02*
X154750000Y-99020000D01*
%TO.N,Net-(J2-Pin_1)*%
X154750000Y-95980000D02*
X154750000Y-88020000D01*
%TO.N,GND*%
X159250000Y-95980000D02*
X159250000Y-88020000D01*
X159250000Y-106980000D02*
X159250000Y-99020000D01*
D50*
%TO.N,2R*%
X157000000Y-113500000D02*
X154500000Y-113500000D01*
X149122206Y-118877794D02*
X149122206Y-125250000D01*
X154500000Y-113500000D02*
X149122206Y-118877794D01*
%TO.N,1R*%
X157000000Y-124000000D02*
X155000000Y-124000000D01*
X155000000Y-124000000D02*
X149122206Y-129877794D01*
X149122206Y-129877794D02*
X149122206Y-132750000D01*
%TD*%
M02*
