%TF.GenerationSoftware,KiCad,Pcbnew,9.0.0*%
%TF.CreationDate,2025-03-26T17:15:45-07:00*%
%TF.ProjectId,SMRRC_SwitchAndSignal,534d5252-435f-4537-9769-746368416e64,n/c*%
%TF.SameCoordinates,Original*%
%TF.FileFunction,Soldermask,Top*%
%TF.FilePolarity,Negative*%
%FSLAX46Y46*%
G04 Gerber Fmt 4.6, Leading zero omitted, Abs format (unit mm)*
G04 Created by KiCad (PCBNEW 9.0.0) date 2025-03-26 17:15:45*
%MOMM*%
%LPD*%
G01*
G04 APERTURE LIST*
G04 Aperture macros list*
%AMRoundRect*
0 Rectangle with rounded corners*
0 $1 Rounding radius*
0 $2 $3 $4 $5 $6 $7 $8 $9 X,Y pos of 4 corners*
0 Add a 4 corners polygon primitive as box body*
4,1,4,$2,$3,$4,$5,$6,$7,$8,$9,$2,$3,0*
0 Add four circle primitives for the rounded corners*
1,1,$1+$1,$2,$3*
1,1,$1+$1,$4,$5*
1,1,$1+$1,$6,$7*
1,1,$1+$1,$8,$9*
0 Add four rect primitives between the rounded corners*
20,1,$1+$1,$2,$3,$4,$5,0*
20,1,$1+$1,$4,$5,$6,$7,0*
20,1,$1+$1,$6,$7,$8,$9,0*
20,1,$1+$1,$8,$9,$2,$3,0*%
%AMFreePoly0*
4,1,9,3.862500,-0.866500,0.737500,-0.866500,0.737500,-0.450000,-0.737500,-0.450000,-0.737500,0.450000,0.737500,0.450000,0.737500,0.866500,3.862500,0.866500,3.862500,-0.866500,3.862500,-0.866500,$1*%
G04 Aperture macros list end*
%ADD10RoundRect,0.100000X-0.650000X-0.100000X0.650000X-0.100000X0.650000X0.100000X-0.650000X0.100000X0*%
%ADD11RoundRect,0.150000X1.050000X0.150000X-1.050000X0.150000X-1.050000X-0.150000X1.050000X-0.150000X0*%
%ADD12RoundRect,0.150000X-0.150000X0.825000X-0.150000X-0.825000X0.150000X-0.825000X0.150000X0.825000X0*%
%ADD13RoundRect,0.150000X-0.875000X-0.150000X0.875000X-0.150000X0.875000X0.150000X-0.875000X0.150000X0*%
%ADD14RoundRect,0.250000X2.050000X0.300000X-2.050000X0.300000X-2.050000X-0.300000X2.050000X-0.300000X0*%
%ADD15RoundRect,0.250002X4.449998X5.149998X-4.449998X5.149998X-4.449998X-5.149998X4.449998X-5.149998X0*%
%ADD16RoundRect,0.225000X-0.425000X-0.225000X0.425000X-0.225000X0.425000X0.225000X-0.425000X0.225000X0*%
%ADD17FreePoly0,0.000000*%
%ADD18R,1.300000X1.550000*%
%ADD19C,1.400000*%
%ADD20O,1.400000X1.400000*%
%ADD21RoundRect,0.250000X-0.350000X-0.450000X0.350000X-0.450000X0.350000X0.450000X-0.350000X0.450000X0*%
%ADD22RoundRect,0.250000X0.350000X0.450000X-0.350000X0.450000X-0.350000X-0.450000X0.350000X-0.450000X0*%
%ADD23C,2.800000*%
%ADD24RoundRect,0.250000X-1.150000X-1.150000X1.150000X-1.150000X1.150000X1.150000X-1.150000X1.150000X0*%
%ADD25RoundRect,0.250001X0.949999X0.949999X-0.949999X0.949999X-0.949999X-0.949999X0.949999X-0.949999X0*%
%ADD26C,2.400000*%
%ADD27RoundRect,0.250001X0.899999X-0.899999X0.899999X0.899999X-0.899999X0.899999X-0.899999X-0.899999X0*%
%ADD28C,2.300000*%
%ADD29RoundRect,0.250001X-1.149999X-1.149999X1.149999X-1.149999X1.149999X1.149999X-1.149999X1.149999X0*%
%ADD30R,1.700000X1.700000*%
%ADD31O,1.700000X1.700000*%
%ADD32C,3.200000*%
%ADD33RoundRect,0.250000X0.650000X-1.500000X0.650000X1.500000X-0.650000X1.500000X-0.650000X-1.500000X0*%
%ADD34RoundRect,0.250000X-0.650000X1.500000X-0.650000X-1.500000X0.650000X-1.500000X0.650000X1.500000X0*%
%ADD35RoundRect,0.250001X0.624999X-0.462499X0.624999X0.462499X-0.624999X0.462499X-0.624999X-0.462499X0*%
%ADD36RoundRect,0.250001X-0.462499X-0.624999X0.462499X-0.624999X0.462499X0.624999X-0.462499X0.624999X0*%
%ADD37RoundRect,0.250000X-0.337500X-0.475000X0.337500X-0.475000X0.337500X0.475000X-0.337500X0.475000X0*%
%ADD38R,1.600000X1.600000*%
%ADD39C,1.600000*%
%ADD40RoundRect,0.250000X0.475000X-0.337500X0.475000X0.337500X-0.475000X0.337500X-0.475000X-0.337500X0*%
%ADD41RoundRect,0.250000X-0.475000X0.337500X-0.475000X-0.337500X0.475000X-0.337500X0.475000X0.337500X0*%
%ADD42R,1.200000X1.200000*%
%ADD43C,1.200000*%
G04 APERTURE END LIST*
D10*
%TO.C,U14*%
X73340000Y-97350000D03*
X73340000Y-98000000D03*
X73340000Y-98650000D03*
X76000000Y-98650000D03*
X76000000Y-98000000D03*
X76000000Y-97350000D03*
%TD*%
%TO.C,U13*%
X81340000Y-97350000D03*
X81340000Y-98000000D03*
X81340000Y-98650000D03*
X84000000Y-98650000D03*
X84000000Y-98000000D03*
X84000000Y-97350000D03*
%TD*%
%TO.C,U12*%
X92340000Y-97350000D03*
X92340000Y-98000000D03*
X92340000Y-98650000D03*
X95000000Y-98650000D03*
X95000000Y-98000000D03*
X95000000Y-97350000D03*
%TD*%
%TO.C,U11*%
X102340000Y-97350000D03*
X102340000Y-98000000D03*
X102340000Y-98650000D03*
X105000000Y-98650000D03*
X105000000Y-98000000D03*
X105000000Y-97350000D03*
%TD*%
%TO.C,U10*%
X113340000Y-97350000D03*
X113340000Y-98000000D03*
X113340000Y-98650000D03*
X116000000Y-98650000D03*
X116000000Y-98000000D03*
X116000000Y-97350000D03*
%TD*%
%TO.C,U9*%
X123670000Y-97350000D03*
X123670000Y-98000000D03*
X123670000Y-98650000D03*
X126330000Y-98650000D03*
X126330000Y-98000000D03*
X126330000Y-97350000D03*
%TD*%
%TO.C,U8*%
X134000000Y-97350000D03*
X134000000Y-98000000D03*
X134000000Y-98650000D03*
X136660000Y-98650000D03*
X136660000Y-98000000D03*
X136660000Y-97350000D03*
%TD*%
%TO.C,U7*%
X144000000Y-97350000D03*
X144000000Y-98000000D03*
X144000000Y-98650000D03*
X146660000Y-98650000D03*
X146660000Y-98000000D03*
X146660000Y-97350000D03*
%TD*%
D11*
%TO.C,U6*%
X104250000Y-110445000D03*
X104250000Y-109175000D03*
X104250000Y-107905000D03*
X104250000Y-106635000D03*
X104250000Y-105365000D03*
X104250000Y-104095000D03*
X104250000Y-102825000D03*
X104250000Y-101555000D03*
X97750000Y-101555000D03*
X97750000Y-102825000D03*
X97750000Y-104095000D03*
X97750000Y-105365000D03*
X97750000Y-106635000D03*
X97750000Y-107905000D03*
X97750000Y-109175000D03*
X97750000Y-110445000D03*
%TD*%
%TO.C,U5*%
X141250000Y-110445000D03*
X141250000Y-109175000D03*
X141250000Y-107905000D03*
X141250000Y-106635000D03*
X141250000Y-105365000D03*
X141250000Y-104095000D03*
X141250000Y-102825000D03*
X141250000Y-101555000D03*
X134750000Y-101555000D03*
X134750000Y-102825000D03*
X134750000Y-104095000D03*
X134750000Y-105365000D03*
X134750000Y-106635000D03*
X134750000Y-107905000D03*
X134750000Y-109175000D03*
X134750000Y-110445000D03*
%TD*%
D12*
%TO.C,U4*%
X105655000Y-123957500D03*
X104385000Y-123957500D03*
X103115000Y-123957500D03*
X101845000Y-123957500D03*
X101845000Y-128907500D03*
X103115000Y-128907500D03*
X104385000Y-128907500D03*
X105655000Y-128907500D03*
%TD*%
D13*
%TO.C,U3*%
X113350000Y-106285000D03*
X113350000Y-107555000D03*
X113350000Y-108825000D03*
X113350000Y-110095000D03*
X113350000Y-111365000D03*
X113350000Y-112635000D03*
X113350000Y-113905000D03*
X113350000Y-115175000D03*
X113350000Y-116445000D03*
X113350000Y-117715000D03*
X122650000Y-117715000D03*
X122650000Y-116445000D03*
X122650000Y-115175000D03*
X122650000Y-113905000D03*
X122650000Y-112635000D03*
X122650000Y-111365000D03*
X122650000Y-110095000D03*
X122650000Y-108825000D03*
X122650000Y-107555000D03*
X122650000Y-106285000D03*
%TD*%
D14*
%TO.C,U2*%
X81150000Y-115540000D03*
D15*
X72000000Y-113000000D03*
D14*
X81150000Y-110460000D03*
%TD*%
D16*
%TO.C,U1*%
X92800000Y-122932500D03*
D17*
X92887500Y-124432500D03*
D16*
X92800000Y-125932500D03*
%TD*%
D18*
%TO.C,SW2*%
X159250000Y-99020000D03*
X159250000Y-106980000D03*
X154750000Y-99020000D03*
X154750000Y-106980000D03*
%TD*%
%TO.C,SW1*%
X159250000Y-88020000D03*
X159250000Y-95980000D03*
X154750000Y-88020000D03*
X154750000Y-95980000D03*
%TD*%
D19*
%TO.C,R21*%
X76000000Y-93620000D03*
D20*
X76000000Y-86000000D03*
%TD*%
D19*
%TO.C,R20*%
X80000000Y-93620000D03*
D20*
X80000000Y-86000000D03*
%TD*%
D19*
%TO.C,R19*%
X84000000Y-93620000D03*
D20*
X84000000Y-86000000D03*
%TD*%
D19*
%TO.C,R18*%
X92000000Y-93620000D03*
D20*
X92000000Y-86000000D03*
%TD*%
D19*
%TO.C,R17*%
X96000000Y-93620000D03*
D20*
X96000000Y-86000000D03*
%TD*%
D19*
%TO.C,R16*%
X100000000Y-93620000D03*
D20*
X100000000Y-86000000D03*
%TD*%
D19*
%TO.C,R15*%
X108000000Y-93620000D03*
D20*
X108000000Y-86000000D03*
%TD*%
D19*
%TO.C,R14*%
X112000000Y-93620000D03*
D20*
X112000000Y-86000000D03*
%TD*%
D19*
%TO.C,R13*%
X116000000Y-93620000D03*
D20*
X116000000Y-86000000D03*
%TD*%
D19*
%TO.C,R12*%
X124000000Y-93620000D03*
D20*
X124000000Y-86000000D03*
%TD*%
D19*
%TO.C,R11*%
X128000000Y-93620000D03*
D20*
X128000000Y-86000000D03*
%TD*%
D19*
%TO.C,R10*%
X132000000Y-93620000D03*
D20*
X132000000Y-86000000D03*
%TD*%
D19*
%TO.C,R9*%
X140000000Y-93620000D03*
D20*
X140000000Y-86000000D03*
%TD*%
D19*
%TO.C,R8*%
X144000000Y-93620000D03*
D20*
X144000000Y-86000000D03*
%TD*%
D19*
%TO.C,R7*%
X148000000Y-93620000D03*
D20*
X148000000Y-86000000D03*
%TD*%
D21*
%TO.C,R6*%
X108000000Y-111000000D03*
X110000000Y-111000000D03*
%TD*%
%TO.C,R5*%
X150000000Y-108000000D03*
X152000000Y-108000000D03*
%TD*%
%TO.C,R4*%
X147000000Y-104000000D03*
X149000000Y-104000000D03*
%TD*%
%TO.C,R3*%
X150000000Y-97000000D03*
X152000000Y-97000000D03*
%TD*%
%TO.C,R2*%
X147000000Y-102000000D03*
X149000000Y-102000000D03*
%TD*%
D22*
%TO.C,R1*%
X127900000Y-116760000D03*
X125900000Y-116760000D03*
%TD*%
D23*
%TO.C,K1*%
X144122206Y-125250000D03*
X139122206Y-125250000D03*
X149122206Y-125250000D03*
X144122206Y-132750000D03*
X139122206Y-132750000D03*
X149122206Y-132750000D03*
D24*
X124122206Y-125250000D03*
D23*
X124122206Y-132750000D03*
%TD*%
D25*
%TO.C,J10*%
X86000000Y-80000000D03*
D26*
X82500000Y-80000000D03*
X79000000Y-80000000D03*
X75500000Y-80000000D03*
%TD*%
D25*
%TO.C,J9*%
X102000000Y-80000000D03*
D26*
X98500000Y-80000000D03*
X95000000Y-80000000D03*
X91500000Y-80000000D03*
%TD*%
D25*
%TO.C,J8*%
X118000000Y-80000000D03*
D26*
X114500000Y-80000000D03*
X111000000Y-80000000D03*
X107500000Y-80000000D03*
%TD*%
D25*
%TO.C,J7*%
X134000000Y-80000000D03*
D26*
X130500000Y-80000000D03*
X127000000Y-80000000D03*
X123500000Y-80000000D03*
%TD*%
D25*
%TO.C,J6*%
X150000000Y-80000000D03*
D26*
X146500000Y-80000000D03*
X143000000Y-80000000D03*
X139500000Y-80000000D03*
%TD*%
D27*
%TO.C,J5*%
X157000000Y-131000000D03*
D28*
X157000000Y-127500000D03*
X157000000Y-124000000D03*
X157000000Y-120500000D03*
X157000000Y-117000000D03*
X157000000Y-113500000D03*
%TD*%
D29*
%TO.C,J4*%
X76000000Y-137000000D03*
D23*
X81000000Y-137000000D03*
X86000000Y-137000000D03*
X91000000Y-137000000D03*
X96000000Y-137000000D03*
X101000000Y-137000000D03*
X106000000Y-137000000D03*
X111000000Y-137000000D03*
%TD*%
D30*
%TO.C,J3*%
X83525000Y-105000000D03*
D31*
X80985000Y-105000000D03*
X78445000Y-105000000D03*
%TD*%
D30*
%TO.C,J2*%
X140460000Y-117000000D03*
D31*
X143000000Y-117000000D03*
X145540000Y-117000000D03*
%TD*%
D30*
%TO.C,J1*%
X98400000Y-117700000D03*
D31*
X100940000Y-117700000D03*
X103480000Y-117700000D03*
X106020000Y-117700000D03*
X108560000Y-117700000D03*
%TD*%
D32*
%TO.C,H4*%
X68000000Y-138000000D03*
%TD*%
%TO.C,H3*%
X158000000Y-138000000D03*
%TD*%
%TO.C,H2*%
X158000000Y-78000000D03*
%TD*%
%TO.C,H1*%
X68000000Y-78000000D03*
%TD*%
D33*
%TO.C,D7*%
X115000000Y-128500000D03*
X115000000Y-123500000D03*
%TD*%
D34*
%TO.C,D6*%
X119000000Y-123500000D03*
X119000000Y-128500000D03*
%TD*%
D35*
%TO.C,D5*%
X152000000Y-104487500D03*
X152000000Y-101512500D03*
%TD*%
%TO.C,D4*%
X152000000Y-93487500D03*
X152000000Y-90512500D03*
%TD*%
D36*
%TO.C,D3*%
X130925000Y-116760000D03*
X133900000Y-116760000D03*
%TD*%
D34*
%TO.C,D2*%
X77200000Y-123900000D03*
X77200000Y-128900000D03*
%TD*%
%TO.C,D1*%
X81000000Y-123900000D03*
X81000000Y-128900000D03*
%TD*%
D37*
%TO.C,C11*%
X97962500Y-113000000D03*
X100037500Y-113000000D03*
%TD*%
%TO.C,C10*%
X134962500Y-113000000D03*
X137037500Y-113000000D03*
%TD*%
D38*
%TO.C,C9*%
X90500000Y-106500000D03*
D39*
X90500000Y-109000000D03*
%TD*%
D40*
%TO.C,C8*%
X107750000Y-128470000D03*
X107750000Y-126395000D03*
%TD*%
D37*
%TO.C,C7*%
X113862500Y-104100000D03*
X115937500Y-104100000D03*
%TD*%
D41*
%TO.C,C6*%
X85500000Y-109925000D03*
X85500000Y-112000000D03*
%TD*%
%TO.C,C5*%
X89750000Y-121395000D03*
X89750000Y-123470000D03*
%TD*%
D40*
%TO.C,C4*%
X85500000Y-116075000D03*
X85500000Y-114000000D03*
%TD*%
%TO.C,C3*%
X89750000Y-127470000D03*
X89750000Y-125395000D03*
%TD*%
D38*
%TO.C,C2*%
X89500000Y-116000000D03*
D39*
X89500000Y-114000000D03*
%TD*%
D42*
%TO.C,C1*%
X85750000Y-127432500D03*
D43*
X85750000Y-125432500D03*
%TD*%
M02*
