M48
; DRILL file {KiCad 9.0.0} date 2025-03-26T17:15:53-0700
; FORMAT={-:-/ absolute / inch / decimal}
; #@! TF.CreationDate,2025-03-26T17:15:53-07:00
; #@! TF.GenerationSoftware,Kicad,Pcbnew,9.0.0
; #@! TF.FileFunction,MixedPlating,1,2
FMAT,2
INCH
; #@! TA.AperFunction,Plated,PTH,ViaDrill
T1C0.0197
; #@! TA.AperFunction,Plated,PTH,ComponentDrill
T2C0.0236
; #@! TA.AperFunction,Plated,PTH,ComponentDrill
T3C0.0276
; #@! TA.AperFunction,Plated,PTH,ComponentDrill
T4C0.0315
; #@! TA.AperFunction,Plated,PTH,ComponentDrill
T5C0.0394
; #@! TA.AperFunction,Plated,PTH,ComponentDrill
T6C0.0472
; #@! TA.AperFunction,Plated,PTH,ComponentDrill
T7C0.0512
; #@! TA.AperFunction,Plated,PTH,ComponentDrill
T8C0.0591
; #@! TA.AperFunction,NonPlated,NPTH,ComponentDrill
T9C0.1260
%
G90
G05
T1
X2.874Y-3.9331
X2.8858Y-3.7717
X2.9252Y-3.9331
X2.9803Y-3.9291
X3.0591Y-3.7717
X3.2087Y-3.7717
X3.2598Y-3.9882
X3.3569Y-3.8568
X3.3858Y-3.7717
X3.5945Y-4.7793
X3.6417Y-3.7717
X3.6732Y-3.9173
X3.7223Y-3.9528
X3.752Y-4.1811
X3.7715Y-3.9528
X3.7885Y-3.9989
X3.811Y-3.8543
X3.8228Y-3.7717
X3.8819Y-5.1063
X3.9055Y-3.9567
X3.9252Y-4.2008
X3.9291Y-4.2953
X3.9409Y-3.8701
X3.9409Y-4.0354
X3.9449Y-4.3622
X4.0Y-3.9606
X4.0236Y-4.7638
X4.0276Y-3.7717
X4.0354Y-3.9213
X4.0748Y-4.7323
X4.126Y-4.7126
X4.1604Y-4.813
X4.1772Y-3.9961
X4.1811Y-4.3504
X4.1929Y-3.8543
X4.1979Y-4.3041
X4.2047Y-4.252
X4.2047Y-5.1102
X4.2362Y-3.7717
X4.2559Y-4.126
X4.3545Y-4.7559
X4.3661Y-4.8543
X4.374Y-4.1654
X4.3898Y-4.4449
X4.3898Y-5.1929
X4.4646Y-3.7717
X4.4843Y-3.9567
X4.5157Y-3.9094
X4.5266Y-4.4562
X4.5518Y-4.4147
X4.5562Y-4.2705
X4.6043Y-4.2184
X4.6155Y-3.8583
X4.6206Y-4.3973
X4.6339Y-3.7717
X4.6601Y-4.1293
X4.6629Y-4.588
X4.6969Y-4.6339
X4.7283Y-4.7008
X4.7427Y-4.0984
X4.7618Y-4.3072
X4.7677Y-4.7598
X4.7992Y-3.8701
X4.8268Y-4.7323
X4.8386Y-3.7717
X4.8976Y-4.3228
X4.9134Y-4.2244
X4.9232Y-4.3637
X4.9862Y-4.3268
X5.0276Y-3.9567
X5.0394Y-3.8465
X5.0945Y-3.7717
X5.171Y-3.9119
X5.1943Y-4.2598
X5.2185Y-3.8313
X5.22Y-4.3819
X5.2227Y-4.1851
X5.2234Y-3.9223
X5.248Y-4.4685
X5.2598Y-3.7717
X5.2795Y-3.9291
X5.3465Y-3.9291
X5.4409Y-3.8701
X5.4545Y-3.9982
X5.4606Y-3.7717
X5.4724Y-4.2441
X5.4724Y-4.2953
X5.4764Y-4.3465
X5.5157Y-3.8465
X5.5424Y-3.9176
X5.5815Y-3.8347
X5.6339Y-3.7717
X5.7677Y-4.4646
X5.7874Y-3.9646
X5.8346Y-3.8583
X5.8583Y-3.7717
X5.9803Y-3.9488
T2
X3.376Y-4.9383
X3.376Y-5.017
T3
X2.9921Y-3.3858
X2.9921Y-3.6858
X3.1496Y-3.3858
X3.1496Y-3.6858
X3.3071Y-3.3858
X3.3071Y-3.6858
X3.622Y-3.3858
X3.622Y-3.6858
X3.7795Y-3.3858
X3.7795Y-3.6858
X3.937Y-3.3858
X3.937Y-3.6858
X4.252Y-3.3858
X4.252Y-3.6858
X4.4094Y-3.3858
X4.4094Y-3.6858
X4.5669Y-3.3858
X4.5669Y-3.6858
X4.8819Y-3.3858
X4.8819Y-3.6858
X5.0394Y-3.3858
X5.0394Y-3.6858
X5.1969Y-3.3858
X5.1969Y-3.6858
X5.5118Y-3.3858
X5.5118Y-3.6858
X5.6693Y-3.3858
X5.6693Y-3.6858
X5.8268Y-3.3858
X5.8268Y-3.6858
T4
X3.5236Y-4.4882
X3.5236Y-4.5669
X3.563Y-4.1929
X3.563Y-4.2913
T5
X3.0884Y-4.1339
X3.1884Y-4.1339
X3.2884Y-4.1339
X3.874Y-4.6339
X3.974Y-4.6339
X4.074Y-4.6339
X4.174Y-4.6339
X4.274Y-4.6339
X5.5299Y-4.6063
X5.6299Y-4.6063
X5.7299Y-4.6063
T6
X2.9724Y-3.1496
X3.1102Y-3.1496
X3.248Y-3.1496
X3.3858Y-3.1496
X3.6024Y-3.1496
X3.7402Y-3.1496
X3.878Y-3.1496
X4.0157Y-3.1496
X4.2323Y-3.1496
X4.3701Y-3.1496
X4.5079Y-3.1496
X4.6457Y-3.1496
X4.8622Y-3.1496
X5.0Y-3.1496
X5.1378Y-3.1496
X5.2756Y-3.1496
X5.4921Y-3.1496
X5.6299Y-3.1496
X5.7677Y-3.1496
X5.9055Y-3.1496
X6.1811Y-4.4685
X6.1811Y-4.6063
X6.1811Y-4.7441
X6.1811Y-4.8819
X6.1811Y-5.0197
X6.1811Y-5.1575
T7
X2.9921Y-5.3937
X3.189Y-5.3937
X3.3858Y-5.3937
X3.5827Y-5.3937
X3.7795Y-5.3937
X3.9764Y-5.3937
X4.1732Y-5.3937
X4.3701Y-5.3937
T8
X4.8867Y-4.9311
X4.8867Y-5.2264
X5.4773Y-4.9311
X5.4773Y-5.2264
X5.6741Y-4.9311
X5.6741Y-5.2264
X5.871Y-4.9311
X5.871Y-5.2264
T9
X2.6772Y-3.0709
X2.6772Y-5.4331
X6.2205Y-3.0709
X6.2205Y-5.4331
M30
