%TF.GenerationSoftware,KiCad,Pcbnew,9.0.0*%
%TF.CreationDate,2025-03-23T19:11:54-07:00*%
%TF.ProjectId,SMRRC_USB,534d5252-435f-4555-9342-2e6b69636164,n/c*%
%TF.SameCoordinates,Original*%
%TF.FileFunction,Legend,Top*%
%TF.FilePolarity,Positive*%
%FSLAX46Y46*%
G04 Gerber Fmt 4.6, Leading zero omitted, Abs format (unit mm)*
G04 Created by KiCad (PCBNEW 9.0.0) date 2025-03-23 19:11:54*
%MOMM*%
%LPD*%
G01*
G04 APERTURE LIST*
%ADD10C,0.100000*%
%ADD11C,0.150000*%
%ADD12C,0.120000*%
G04 APERTURE END LIST*
D10*
X133103884Y-104672419D02*
X133103884Y-105481942D01*
X133103884Y-105481942D02*
X133151503Y-105577180D01*
X133151503Y-105577180D02*
X133199122Y-105624800D01*
X133199122Y-105624800D02*
X133294360Y-105672419D01*
X133294360Y-105672419D02*
X133484836Y-105672419D01*
X133484836Y-105672419D02*
X133580074Y-105624800D01*
X133580074Y-105624800D02*
X133627693Y-105577180D01*
X133627693Y-105577180D02*
X133675312Y-105481942D01*
X133675312Y-105481942D02*
X133675312Y-104672419D01*
X134103884Y-105624800D02*
X134246741Y-105672419D01*
X134246741Y-105672419D02*
X134484836Y-105672419D01*
X134484836Y-105672419D02*
X134580074Y-105624800D01*
X134580074Y-105624800D02*
X134627693Y-105577180D01*
X134627693Y-105577180D02*
X134675312Y-105481942D01*
X134675312Y-105481942D02*
X134675312Y-105386704D01*
X134675312Y-105386704D02*
X134627693Y-105291466D01*
X134627693Y-105291466D02*
X134580074Y-105243847D01*
X134580074Y-105243847D02*
X134484836Y-105196228D01*
X134484836Y-105196228D02*
X134294360Y-105148609D01*
X134294360Y-105148609D02*
X134199122Y-105100990D01*
X134199122Y-105100990D02*
X134151503Y-105053371D01*
X134151503Y-105053371D02*
X134103884Y-104958133D01*
X134103884Y-104958133D02*
X134103884Y-104862895D01*
X134103884Y-104862895D02*
X134151503Y-104767657D01*
X134151503Y-104767657D02*
X134199122Y-104720038D01*
X134199122Y-104720038D02*
X134294360Y-104672419D01*
X134294360Y-104672419D02*
X134532455Y-104672419D01*
X134532455Y-104672419D02*
X134675312Y-104720038D01*
X135437217Y-105148609D02*
X135580074Y-105196228D01*
X135580074Y-105196228D02*
X135627693Y-105243847D01*
X135627693Y-105243847D02*
X135675312Y-105339085D01*
X135675312Y-105339085D02*
X135675312Y-105481942D01*
X135675312Y-105481942D02*
X135627693Y-105577180D01*
X135627693Y-105577180D02*
X135580074Y-105624800D01*
X135580074Y-105624800D02*
X135484836Y-105672419D01*
X135484836Y-105672419D02*
X135103884Y-105672419D01*
X135103884Y-105672419D02*
X135103884Y-104672419D01*
X135103884Y-104672419D02*
X135437217Y-104672419D01*
X135437217Y-104672419D02*
X135532455Y-104720038D01*
X135532455Y-104720038D02*
X135580074Y-104767657D01*
X135580074Y-104767657D02*
X135627693Y-104862895D01*
X135627693Y-104862895D02*
X135627693Y-104958133D01*
X135627693Y-104958133D02*
X135580074Y-105053371D01*
X135580074Y-105053371D02*
X135532455Y-105100990D01*
X135532455Y-105100990D02*
X135437217Y-105148609D01*
X135437217Y-105148609D02*
X135103884Y-105148609D01*
X136865789Y-105672419D02*
X136865789Y-104672419D01*
X136865789Y-104672419D02*
X137103884Y-104672419D01*
X137103884Y-104672419D02*
X137246741Y-104720038D01*
X137246741Y-104720038D02*
X137341979Y-104815276D01*
X137341979Y-104815276D02*
X137389598Y-104910514D01*
X137389598Y-104910514D02*
X137437217Y-105100990D01*
X137437217Y-105100990D02*
X137437217Y-105243847D01*
X137437217Y-105243847D02*
X137389598Y-105434323D01*
X137389598Y-105434323D02*
X137341979Y-105529561D01*
X137341979Y-105529561D02*
X137246741Y-105624800D01*
X137246741Y-105624800D02*
X137103884Y-105672419D01*
X137103884Y-105672419D02*
X136865789Y-105672419D01*
X138294360Y-105672419D02*
X138294360Y-105148609D01*
X138294360Y-105148609D02*
X138246741Y-105053371D01*
X138246741Y-105053371D02*
X138151503Y-105005752D01*
X138151503Y-105005752D02*
X137961027Y-105005752D01*
X137961027Y-105005752D02*
X137865789Y-105053371D01*
X138294360Y-105624800D02*
X138199122Y-105672419D01*
X138199122Y-105672419D02*
X137961027Y-105672419D01*
X137961027Y-105672419D02*
X137865789Y-105624800D01*
X137865789Y-105624800D02*
X137818170Y-105529561D01*
X137818170Y-105529561D02*
X137818170Y-105434323D01*
X137818170Y-105434323D02*
X137865789Y-105339085D01*
X137865789Y-105339085D02*
X137961027Y-105291466D01*
X137961027Y-105291466D02*
X138199122Y-105291466D01*
X138199122Y-105291466D02*
X138294360Y-105243847D01*
X139199122Y-105005752D02*
X139199122Y-105672419D01*
X138770551Y-105005752D02*
X138770551Y-105529561D01*
X138770551Y-105529561D02*
X138818170Y-105624800D01*
X138818170Y-105624800D02*
X138913408Y-105672419D01*
X138913408Y-105672419D02*
X139056265Y-105672419D01*
X139056265Y-105672419D02*
X139151503Y-105624800D01*
X139151503Y-105624800D02*
X139199122Y-105577180D01*
X140103884Y-105005752D02*
X140103884Y-105815276D01*
X140103884Y-105815276D02*
X140056265Y-105910514D01*
X140056265Y-105910514D02*
X140008646Y-105958133D01*
X140008646Y-105958133D02*
X139913408Y-106005752D01*
X139913408Y-106005752D02*
X139770551Y-106005752D01*
X139770551Y-106005752D02*
X139675313Y-105958133D01*
X140103884Y-105624800D02*
X140008646Y-105672419D01*
X140008646Y-105672419D02*
X139818170Y-105672419D01*
X139818170Y-105672419D02*
X139722932Y-105624800D01*
X139722932Y-105624800D02*
X139675313Y-105577180D01*
X139675313Y-105577180D02*
X139627694Y-105481942D01*
X139627694Y-105481942D02*
X139627694Y-105196228D01*
X139627694Y-105196228D02*
X139675313Y-105100990D01*
X139675313Y-105100990D02*
X139722932Y-105053371D01*
X139722932Y-105053371D02*
X139818170Y-105005752D01*
X139818170Y-105005752D02*
X140008646Y-105005752D01*
X140008646Y-105005752D02*
X140103884Y-105053371D01*
X140580075Y-105672419D02*
X140580075Y-104672419D01*
X141008646Y-105672419D02*
X141008646Y-105148609D01*
X141008646Y-105148609D02*
X140961027Y-105053371D01*
X140961027Y-105053371D02*
X140865789Y-105005752D01*
X140865789Y-105005752D02*
X140722932Y-105005752D01*
X140722932Y-105005752D02*
X140627694Y-105053371D01*
X140627694Y-105053371D02*
X140580075Y-105100990D01*
X141341980Y-105005752D02*
X141722932Y-105005752D01*
X141484837Y-104672419D02*
X141484837Y-105529561D01*
X141484837Y-105529561D02*
X141532456Y-105624800D01*
X141532456Y-105624800D02*
X141627694Y-105672419D01*
X141627694Y-105672419D02*
X141722932Y-105672419D01*
X142437218Y-105624800D02*
X142341980Y-105672419D01*
X142341980Y-105672419D02*
X142151504Y-105672419D01*
X142151504Y-105672419D02*
X142056266Y-105624800D01*
X142056266Y-105624800D02*
X142008647Y-105529561D01*
X142008647Y-105529561D02*
X142008647Y-105148609D01*
X142008647Y-105148609D02*
X142056266Y-105053371D01*
X142056266Y-105053371D02*
X142151504Y-105005752D01*
X142151504Y-105005752D02*
X142341980Y-105005752D01*
X142341980Y-105005752D02*
X142437218Y-105053371D01*
X142437218Y-105053371D02*
X142484837Y-105148609D01*
X142484837Y-105148609D02*
X142484837Y-105243847D01*
X142484837Y-105243847D02*
X142008647Y-105339085D01*
X142913409Y-105672419D02*
X142913409Y-105005752D01*
X142913409Y-105196228D02*
X142961028Y-105100990D01*
X142961028Y-105100990D02*
X143008647Y-105053371D01*
X143008647Y-105053371D02*
X143103885Y-105005752D01*
X143103885Y-105005752D02*
X143199123Y-105005752D01*
X144627695Y-105148609D02*
X144770552Y-105196228D01*
X144770552Y-105196228D02*
X144818171Y-105243847D01*
X144818171Y-105243847D02*
X144865790Y-105339085D01*
X144865790Y-105339085D02*
X144865790Y-105481942D01*
X144865790Y-105481942D02*
X144818171Y-105577180D01*
X144818171Y-105577180D02*
X144770552Y-105624800D01*
X144770552Y-105624800D02*
X144675314Y-105672419D01*
X144675314Y-105672419D02*
X144294362Y-105672419D01*
X144294362Y-105672419D02*
X144294362Y-104672419D01*
X144294362Y-104672419D02*
X144627695Y-104672419D01*
X144627695Y-104672419D02*
X144722933Y-104720038D01*
X144722933Y-104720038D02*
X144770552Y-104767657D01*
X144770552Y-104767657D02*
X144818171Y-104862895D01*
X144818171Y-104862895D02*
X144818171Y-104958133D01*
X144818171Y-104958133D02*
X144770552Y-105053371D01*
X144770552Y-105053371D02*
X144722933Y-105100990D01*
X144722933Y-105100990D02*
X144627695Y-105148609D01*
X144627695Y-105148609D02*
X144294362Y-105148609D01*
X145437219Y-105672419D02*
X145341981Y-105624800D01*
X145341981Y-105624800D02*
X145294362Y-105577180D01*
X145294362Y-105577180D02*
X145246743Y-105481942D01*
X145246743Y-105481942D02*
X145246743Y-105196228D01*
X145246743Y-105196228D02*
X145294362Y-105100990D01*
X145294362Y-105100990D02*
X145341981Y-105053371D01*
X145341981Y-105053371D02*
X145437219Y-105005752D01*
X145437219Y-105005752D02*
X145580076Y-105005752D01*
X145580076Y-105005752D02*
X145675314Y-105053371D01*
X145675314Y-105053371D02*
X145722933Y-105100990D01*
X145722933Y-105100990D02*
X145770552Y-105196228D01*
X145770552Y-105196228D02*
X145770552Y-105481942D01*
X145770552Y-105481942D02*
X145722933Y-105577180D01*
X145722933Y-105577180D02*
X145675314Y-105624800D01*
X145675314Y-105624800D02*
X145580076Y-105672419D01*
X145580076Y-105672419D02*
X145437219Y-105672419D01*
X146627695Y-105672419D02*
X146627695Y-105148609D01*
X146627695Y-105148609D02*
X146580076Y-105053371D01*
X146580076Y-105053371D02*
X146484838Y-105005752D01*
X146484838Y-105005752D02*
X146294362Y-105005752D01*
X146294362Y-105005752D02*
X146199124Y-105053371D01*
X146627695Y-105624800D02*
X146532457Y-105672419D01*
X146532457Y-105672419D02*
X146294362Y-105672419D01*
X146294362Y-105672419D02*
X146199124Y-105624800D01*
X146199124Y-105624800D02*
X146151505Y-105529561D01*
X146151505Y-105529561D02*
X146151505Y-105434323D01*
X146151505Y-105434323D02*
X146199124Y-105339085D01*
X146199124Y-105339085D02*
X146294362Y-105291466D01*
X146294362Y-105291466D02*
X146532457Y-105291466D01*
X146532457Y-105291466D02*
X146627695Y-105243847D01*
X147103886Y-105672419D02*
X147103886Y-105005752D01*
X147103886Y-105196228D02*
X147151505Y-105100990D01*
X147151505Y-105100990D02*
X147199124Y-105053371D01*
X147199124Y-105053371D02*
X147294362Y-105005752D01*
X147294362Y-105005752D02*
X147389600Y-105005752D01*
X148151505Y-105672419D02*
X148151505Y-104672419D01*
X148151505Y-105624800D02*
X148056267Y-105672419D01*
X148056267Y-105672419D02*
X147865791Y-105672419D01*
X147865791Y-105672419D02*
X147770553Y-105624800D01*
X147770553Y-105624800D02*
X147722934Y-105577180D01*
X147722934Y-105577180D02*
X147675315Y-105481942D01*
X147675315Y-105481942D02*
X147675315Y-105196228D01*
X147675315Y-105196228D02*
X147722934Y-105100990D01*
X147722934Y-105100990D02*
X147770553Y-105053371D01*
X147770553Y-105053371D02*
X147865791Y-105005752D01*
X147865791Y-105005752D02*
X148056267Y-105005752D01*
X148056267Y-105005752D02*
X148151505Y-105053371D01*
X132956265Y-109114856D02*
X133099122Y-109162475D01*
X133099122Y-109162475D02*
X133337217Y-109162475D01*
X133337217Y-109162475D02*
X133432455Y-109114856D01*
X133432455Y-109114856D02*
X133480074Y-109067236D01*
X133480074Y-109067236D02*
X133527693Y-108971998D01*
X133527693Y-108971998D02*
X133527693Y-108876760D01*
X133527693Y-108876760D02*
X133480074Y-108781522D01*
X133480074Y-108781522D02*
X133432455Y-108733903D01*
X133432455Y-108733903D02*
X133337217Y-108686284D01*
X133337217Y-108686284D02*
X133146741Y-108638665D01*
X133146741Y-108638665D02*
X133051503Y-108591046D01*
X133051503Y-108591046D02*
X133003884Y-108543427D01*
X133003884Y-108543427D02*
X132956265Y-108448189D01*
X132956265Y-108448189D02*
X132956265Y-108352951D01*
X132956265Y-108352951D02*
X133003884Y-108257713D01*
X133003884Y-108257713D02*
X133051503Y-108210094D01*
X133051503Y-108210094D02*
X133146741Y-108162475D01*
X133146741Y-108162475D02*
X133384836Y-108162475D01*
X133384836Y-108162475D02*
X133527693Y-108210094D01*
X134337217Y-109114856D02*
X134241979Y-109162475D01*
X134241979Y-109162475D02*
X134051503Y-109162475D01*
X134051503Y-109162475D02*
X133956265Y-109114856D01*
X133956265Y-109114856D02*
X133908646Y-109019617D01*
X133908646Y-109019617D02*
X133908646Y-108638665D01*
X133908646Y-108638665D02*
X133956265Y-108543427D01*
X133956265Y-108543427D02*
X134051503Y-108495808D01*
X134051503Y-108495808D02*
X134241979Y-108495808D01*
X134241979Y-108495808D02*
X134337217Y-108543427D01*
X134337217Y-108543427D02*
X134384836Y-108638665D01*
X134384836Y-108638665D02*
X134384836Y-108733903D01*
X134384836Y-108733903D02*
X133908646Y-108829141D01*
X134813408Y-109162475D02*
X134813408Y-108495808D01*
X134813408Y-108686284D02*
X134861027Y-108591046D01*
X134861027Y-108591046D02*
X134908646Y-108543427D01*
X134908646Y-108543427D02*
X135003884Y-108495808D01*
X135003884Y-108495808D02*
X135099122Y-108495808D01*
X135432456Y-109162475D02*
X135432456Y-108495808D01*
X135432456Y-108162475D02*
X135384837Y-108210094D01*
X135384837Y-108210094D02*
X135432456Y-108257713D01*
X135432456Y-108257713D02*
X135480075Y-108210094D01*
X135480075Y-108210094D02*
X135432456Y-108162475D01*
X135432456Y-108162475D02*
X135432456Y-108257713D01*
X136337217Y-109162475D02*
X136337217Y-108638665D01*
X136337217Y-108638665D02*
X136289598Y-108543427D01*
X136289598Y-108543427D02*
X136194360Y-108495808D01*
X136194360Y-108495808D02*
X136003884Y-108495808D01*
X136003884Y-108495808D02*
X135908646Y-108543427D01*
X136337217Y-109114856D02*
X136241979Y-109162475D01*
X136241979Y-109162475D02*
X136003884Y-109162475D01*
X136003884Y-109162475D02*
X135908646Y-109114856D01*
X135908646Y-109114856D02*
X135861027Y-109019617D01*
X135861027Y-109019617D02*
X135861027Y-108924379D01*
X135861027Y-108924379D02*
X135908646Y-108829141D01*
X135908646Y-108829141D02*
X136003884Y-108781522D01*
X136003884Y-108781522D02*
X136241979Y-108781522D01*
X136241979Y-108781522D02*
X136337217Y-108733903D01*
X136956265Y-109162475D02*
X136861027Y-109114856D01*
X136861027Y-109114856D02*
X136813408Y-109019617D01*
X136813408Y-109019617D02*
X136813408Y-108162475D01*
X138099123Y-109162475D02*
X138099123Y-108162475D01*
X138099123Y-108162475D02*
X138432456Y-108876760D01*
X138432456Y-108876760D02*
X138765789Y-108162475D01*
X138765789Y-108162475D02*
X138765789Y-109162475D01*
X139384837Y-109162475D02*
X139289599Y-109114856D01*
X139289599Y-109114856D02*
X139241980Y-109067236D01*
X139241980Y-109067236D02*
X139194361Y-108971998D01*
X139194361Y-108971998D02*
X139194361Y-108686284D01*
X139194361Y-108686284D02*
X139241980Y-108591046D01*
X139241980Y-108591046D02*
X139289599Y-108543427D01*
X139289599Y-108543427D02*
X139384837Y-108495808D01*
X139384837Y-108495808D02*
X139527694Y-108495808D01*
X139527694Y-108495808D02*
X139622932Y-108543427D01*
X139622932Y-108543427D02*
X139670551Y-108591046D01*
X139670551Y-108591046D02*
X139718170Y-108686284D01*
X139718170Y-108686284D02*
X139718170Y-108971998D01*
X139718170Y-108971998D02*
X139670551Y-109067236D01*
X139670551Y-109067236D02*
X139622932Y-109114856D01*
X139622932Y-109114856D02*
X139527694Y-109162475D01*
X139527694Y-109162475D02*
X139384837Y-109162475D01*
X140575313Y-109162475D02*
X140575313Y-108162475D01*
X140575313Y-109114856D02*
X140480075Y-109162475D01*
X140480075Y-109162475D02*
X140289599Y-109162475D01*
X140289599Y-109162475D02*
X140194361Y-109114856D01*
X140194361Y-109114856D02*
X140146742Y-109067236D01*
X140146742Y-109067236D02*
X140099123Y-108971998D01*
X140099123Y-108971998D02*
X140099123Y-108686284D01*
X140099123Y-108686284D02*
X140146742Y-108591046D01*
X140146742Y-108591046D02*
X140194361Y-108543427D01*
X140194361Y-108543427D02*
X140289599Y-108495808D01*
X140289599Y-108495808D02*
X140480075Y-108495808D01*
X140480075Y-108495808D02*
X140575313Y-108543427D01*
X141432456Y-109114856D02*
X141337218Y-109162475D01*
X141337218Y-109162475D02*
X141146742Y-109162475D01*
X141146742Y-109162475D02*
X141051504Y-109114856D01*
X141051504Y-109114856D02*
X141003885Y-109019617D01*
X141003885Y-109019617D02*
X141003885Y-108638665D01*
X141003885Y-108638665D02*
X141051504Y-108543427D01*
X141051504Y-108543427D02*
X141146742Y-108495808D01*
X141146742Y-108495808D02*
X141337218Y-108495808D01*
X141337218Y-108495808D02*
X141432456Y-108543427D01*
X141432456Y-108543427D02*
X141480075Y-108638665D01*
X141480075Y-108638665D02*
X141480075Y-108733903D01*
X141480075Y-108733903D02*
X141003885Y-108829141D01*
X142051504Y-109162475D02*
X141956266Y-109114856D01*
X141956266Y-109114856D02*
X141908647Y-109019617D01*
X141908647Y-109019617D02*
X141908647Y-108162475D01*
X143765790Y-109162475D02*
X143432457Y-108686284D01*
X143194362Y-109162475D02*
X143194362Y-108162475D01*
X143194362Y-108162475D02*
X143575314Y-108162475D01*
X143575314Y-108162475D02*
X143670552Y-108210094D01*
X143670552Y-108210094D02*
X143718171Y-108257713D01*
X143718171Y-108257713D02*
X143765790Y-108352951D01*
X143765790Y-108352951D02*
X143765790Y-108495808D01*
X143765790Y-108495808D02*
X143718171Y-108591046D01*
X143718171Y-108591046D02*
X143670552Y-108638665D01*
X143670552Y-108638665D02*
X143575314Y-108686284D01*
X143575314Y-108686284D02*
X143194362Y-108686284D01*
X144622933Y-109162475D02*
X144622933Y-108638665D01*
X144622933Y-108638665D02*
X144575314Y-108543427D01*
X144575314Y-108543427D02*
X144480076Y-108495808D01*
X144480076Y-108495808D02*
X144289600Y-108495808D01*
X144289600Y-108495808D02*
X144194362Y-108543427D01*
X144622933Y-109114856D02*
X144527695Y-109162475D01*
X144527695Y-109162475D02*
X144289600Y-109162475D01*
X144289600Y-109162475D02*
X144194362Y-109114856D01*
X144194362Y-109114856D02*
X144146743Y-109019617D01*
X144146743Y-109019617D02*
X144146743Y-108924379D01*
X144146743Y-108924379D02*
X144194362Y-108829141D01*
X144194362Y-108829141D02*
X144289600Y-108781522D01*
X144289600Y-108781522D02*
X144527695Y-108781522D01*
X144527695Y-108781522D02*
X144622933Y-108733903D01*
X145099124Y-109162475D02*
X145099124Y-108495808D01*
X145099124Y-108162475D02*
X145051505Y-108210094D01*
X145051505Y-108210094D02*
X145099124Y-108257713D01*
X145099124Y-108257713D02*
X145146743Y-108210094D01*
X145146743Y-108210094D02*
X145099124Y-108162475D01*
X145099124Y-108162475D02*
X145099124Y-108257713D01*
X145718171Y-109162475D02*
X145622933Y-109114856D01*
X145622933Y-109114856D02*
X145575314Y-109019617D01*
X145575314Y-109019617D02*
X145575314Y-108162475D01*
X146099124Y-109162475D02*
X146099124Y-108495808D01*
X146099124Y-108686284D02*
X146146743Y-108591046D01*
X146146743Y-108591046D02*
X146194362Y-108543427D01*
X146194362Y-108543427D02*
X146289600Y-108495808D01*
X146289600Y-108495808D02*
X146384838Y-108495808D01*
X146861029Y-109162475D02*
X146765791Y-109114856D01*
X146765791Y-109114856D02*
X146718172Y-109067236D01*
X146718172Y-109067236D02*
X146670553Y-108971998D01*
X146670553Y-108971998D02*
X146670553Y-108686284D01*
X146670553Y-108686284D02*
X146718172Y-108591046D01*
X146718172Y-108591046D02*
X146765791Y-108543427D01*
X146765791Y-108543427D02*
X146861029Y-108495808D01*
X146861029Y-108495808D02*
X147003886Y-108495808D01*
X147003886Y-108495808D02*
X147099124Y-108543427D01*
X147099124Y-108543427D02*
X147146743Y-108591046D01*
X147146743Y-108591046D02*
X147194362Y-108686284D01*
X147194362Y-108686284D02*
X147194362Y-108971998D01*
X147194362Y-108971998D02*
X147146743Y-109067236D01*
X147146743Y-109067236D02*
X147099124Y-109114856D01*
X147099124Y-109114856D02*
X147003886Y-109162475D01*
X147003886Y-109162475D02*
X146861029Y-109162475D01*
X148051505Y-109162475D02*
X148051505Y-108638665D01*
X148051505Y-108638665D02*
X148003886Y-108543427D01*
X148003886Y-108543427D02*
X147908648Y-108495808D01*
X147908648Y-108495808D02*
X147718172Y-108495808D01*
X147718172Y-108495808D02*
X147622934Y-108543427D01*
X148051505Y-109114856D02*
X147956267Y-109162475D01*
X147956267Y-109162475D02*
X147718172Y-109162475D01*
X147718172Y-109162475D02*
X147622934Y-109114856D01*
X147622934Y-109114856D02*
X147575315Y-109019617D01*
X147575315Y-109019617D02*
X147575315Y-108924379D01*
X147575315Y-108924379D02*
X147622934Y-108829141D01*
X147622934Y-108829141D02*
X147718172Y-108781522D01*
X147718172Y-108781522D02*
X147956267Y-108781522D01*
X147956267Y-108781522D02*
X148051505Y-108733903D01*
X148956267Y-109162475D02*
X148956267Y-108162475D01*
X148956267Y-109114856D02*
X148861029Y-109162475D01*
X148861029Y-109162475D02*
X148670553Y-109162475D01*
X148670553Y-109162475D02*
X148575315Y-109114856D01*
X148575315Y-109114856D02*
X148527696Y-109067236D01*
X148527696Y-109067236D02*
X148480077Y-108971998D01*
X148480077Y-108971998D02*
X148480077Y-108686284D01*
X148480077Y-108686284D02*
X148527696Y-108591046D01*
X148527696Y-108591046D02*
X148575315Y-108543427D01*
X148575315Y-108543427D02*
X148670553Y-108495808D01*
X148670553Y-108495808D02*
X148861029Y-108495808D01*
X148861029Y-108495808D02*
X148956267Y-108543427D01*
X150765791Y-109067236D02*
X150718172Y-109114856D01*
X150718172Y-109114856D02*
X150575315Y-109162475D01*
X150575315Y-109162475D02*
X150480077Y-109162475D01*
X150480077Y-109162475D02*
X150337220Y-109114856D01*
X150337220Y-109114856D02*
X150241982Y-109019617D01*
X150241982Y-109019617D02*
X150194363Y-108924379D01*
X150194363Y-108924379D02*
X150146744Y-108733903D01*
X150146744Y-108733903D02*
X150146744Y-108591046D01*
X150146744Y-108591046D02*
X150194363Y-108400570D01*
X150194363Y-108400570D02*
X150241982Y-108305332D01*
X150241982Y-108305332D02*
X150337220Y-108210094D01*
X150337220Y-108210094D02*
X150480077Y-108162475D01*
X150480077Y-108162475D02*
X150575315Y-108162475D01*
X150575315Y-108162475D02*
X150718172Y-108210094D01*
X150718172Y-108210094D02*
X150765791Y-108257713D01*
X151337220Y-109162475D02*
X151241982Y-109114856D01*
X151241982Y-109114856D02*
X151194363Y-109067236D01*
X151194363Y-109067236D02*
X151146744Y-108971998D01*
X151146744Y-108971998D02*
X151146744Y-108686284D01*
X151146744Y-108686284D02*
X151194363Y-108591046D01*
X151194363Y-108591046D02*
X151241982Y-108543427D01*
X151241982Y-108543427D02*
X151337220Y-108495808D01*
X151337220Y-108495808D02*
X151480077Y-108495808D01*
X151480077Y-108495808D02*
X151575315Y-108543427D01*
X151575315Y-108543427D02*
X151622934Y-108591046D01*
X151622934Y-108591046D02*
X151670553Y-108686284D01*
X151670553Y-108686284D02*
X151670553Y-108971998D01*
X151670553Y-108971998D02*
X151622934Y-109067236D01*
X151622934Y-109067236D02*
X151575315Y-109114856D01*
X151575315Y-109114856D02*
X151480077Y-109162475D01*
X151480077Y-109162475D02*
X151337220Y-109162475D01*
X152099125Y-108495808D02*
X152099125Y-109162475D01*
X152099125Y-108591046D02*
X152146744Y-108543427D01*
X152146744Y-108543427D02*
X152241982Y-108495808D01*
X152241982Y-108495808D02*
X152384839Y-108495808D01*
X152384839Y-108495808D02*
X152480077Y-108543427D01*
X152480077Y-108543427D02*
X152527696Y-108638665D01*
X152527696Y-108638665D02*
X152527696Y-109162475D01*
X152861030Y-108495808D02*
X153241982Y-108495808D01*
X153003887Y-108162475D02*
X153003887Y-109019617D01*
X153003887Y-109019617D02*
X153051506Y-109114856D01*
X153051506Y-109114856D02*
X153146744Y-109162475D01*
X153146744Y-109162475D02*
X153241982Y-109162475D01*
X153575316Y-109162475D02*
X153575316Y-108495808D01*
X153575316Y-108686284D02*
X153622935Y-108591046D01*
X153622935Y-108591046D02*
X153670554Y-108543427D01*
X153670554Y-108543427D02*
X153765792Y-108495808D01*
X153765792Y-108495808D02*
X153861030Y-108495808D01*
X154337221Y-109162475D02*
X154241983Y-109114856D01*
X154241983Y-109114856D02*
X154194364Y-109067236D01*
X154194364Y-109067236D02*
X154146745Y-108971998D01*
X154146745Y-108971998D02*
X154146745Y-108686284D01*
X154146745Y-108686284D02*
X154194364Y-108591046D01*
X154194364Y-108591046D02*
X154241983Y-108543427D01*
X154241983Y-108543427D02*
X154337221Y-108495808D01*
X154337221Y-108495808D02*
X154480078Y-108495808D01*
X154480078Y-108495808D02*
X154575316Y-108543427D01*
X154575316Y-108543427D02*
X154622935Y-108591046D01*
X154622935Y-108591046D02*
X154670554Y-108686284D01*
X154670554Y-108686284D02*
X154670554Y-108971998D01*
X154670554Y-108971998D02*
X154622935Y-109067236D01*
X154622935Y-109067236D02*
X154575316Y-109114856D01*
X154575316Y-109114856D02*
X154480078Y-109162475D01*
X154480078Y-109162475D02*
X154337221Y-109162475D01*
X155241983Y-109162475D02*
X155146745Y-109114856D01*
X155146745Y-109114856D02*
X155099126Y-109019617D01*
X155099126Y-109019617D02*
X155099126Y-108162475D01*
X133003884Y-110772419D02*
X133003884Y-109772419D01*
X133003884Y-109772419D02*
X133241979Y-109772419D01*
X133241979Y-109772419D02*
X133384836Y-109820038D01*
X133384836Y-109820038D02*
X133480074Y-109915276D01*
X133480074Y-109915276D02*
X133527693Y-110010514D01*
X133527693Y-110010514D02*
X133575312Y-110200990D01*
X133575312Y-110200990D02*
X133575312Y-110343847D01*
X133575312Y-110343847D02*
X133527693Y-110534323D01*
X133527693Y-110534323D02*
X133480074Y-110629561D01*
X133480074Y-110629561D02*
X133384836Y-110724800D01*
X133384836Y-110724800D02*
X133241979Y-110772419D01*
X133241979Y-110772419D02*
X133003884Y-110772419D01*
X134003884Y-110772419D02*
X134003884Y-109772419D01*
X134003884Y-109772419D02*
X134337217Y-110486704D01*
X134337217Y-110486704D02*
X134670550Y-109772419D01*
X134670550Y-109772419D02*
X134670550Y-110772419D01*
X135480074Y-110248609D02*
X135146741Y-110248609D01*
X135146741Y-110772419D02*
X135146741Y-109772419D01*
X135146741Y-109772419D02*
X135622931Y-109772419D01*
X136003884Y-110248609D02*
X136337217Y-110248609D01*
X136480074Y-110772419D02*
X136003884Y-110772419D01*
X136003884Y-110772419D02*
X136003884Y-109772419D01*
X136003884Y-109772419D02*
X136480074Y-109772419D01*
X137622932Y-109867657D02*
X137670551Y-109820038D01*
X137670551Y-109820038D02*
X137765789Y-109772419D01*
X137765789Y-109772419D02*
X138003884Y-109772419D01*
X138003884Y-109772419D02*
X138099122Y-109820038D01*
X138099122Y-109820038D02*
X138146741Y-109867657D01*
X138146741Y-109867657D02*
X138194360Y-109962895D01*
X138194360Y-109962895D02*
X138194360Y-110058133D01*
X138194360Y-110058133D02*
X138146741Y-110200990D01*
X138146741Y-110200990D02*
X137575313Y-110772419D01*
X137575313Y-110772419D02*
X138194360Y-110772419D01*
X138813408Y-109772419D02*
X138908646Y-109772419D01*
X138908646Y-109772419D02*
X139003884Y-109820038D01*
X139003884Y-109820038D02*
X139051503Y-109867657D01*
X139051503Y-109867657D02*
X139099122Y-109962895D01*
X139099122Y-109962895D02*
X139146741Y-110153371D01*
X139146741Y-110153371D02*
X139146741Y-110391466D01*
X139146741Y-110391466D02*
X139099122Y-110581942D01*
X139099122Y-110581942D02*
X139051503Y-110677180D01*
X139051503Y-110677180D02*
X139003884Y-110724800D01*
X139003884Y-110724800D02*
X138908646Y-110772419D01*
X138908646Y-110772419D02*
X138813408Y-110772419D01*
X138813408Y-110772419D02*
X138718170Y-110724800D01*
X138718170Y-110724800D02*
X138670551Y-110677180D01*
X138670551Y-110677180D02*
X138622932Y-110581942D01*
X138622932Y-110581942D02*
X138575313Y-110391466D01*
X138575313Y-110391466D02*
X138575313Y-110153371D01*
X138575313Y-110153371D02*
X138622932Y-109962895D01*
X138622932Y-109962895D02*
X138670551Y-109867657D01*
X138670551Y-109867657D02*
X138718170Y-109820038D01*
X138718170Y-109820038D02*
X138813408Y-109772419D01*
X139527694Y-109867657D02*
X139575313Y-109820038D01*
X139575313Y-109820038D02*
X139670551Y-109772419D01*
X139670551Y-109772419D02*
X139908646Y-109772419D01*
X139908646Y-109772419D02*
X140003884Y-109820038D01*
X140003884Y-109820038D02*
X140051503Y-109867657D01*
X140051503Y-109867657D02*
X140099122Y-109962895D01*
X140099122Y-109962895D02*
X140099122Y-110058133D01*
X140099122Y-110058133D02*
X140051503Y-110200990D01*
X140051503Y-110200990D02*
X139480075Y-110772419D01*
X139480075Y-110772419D02*
X140099122Y-110772419D01*
X141003884Y-109772419D02*
X140527694Y-109772419D01*
X140527694Y-109772419D02*
X140480075Y-110248609D01*
X140480075Y-110248609D02*
X140527694Y-110200990D01*
X140527694Y-110200990D02*
X140622932Y-110153371D01*
X140622932Y-110153371D02*
X140861027Y-110153371D01*
X140861027Y-110153371D02*
X140956265Y-110200990D01*
X140956265Y-110200990D02*
X141003884Y-110248609D01*
X141003884Y-110248609D02*
X141051503Y-110343847D01*
X141051503Y-110343847D02*
X141051503Y-110581942D01*
X141051503Y-110581942D02*
X141003884Y-110677180D01*
X141003884Y-110677180D02*
X140956265Y-110724800D01*
X140956265Y-110724800D02*
X140861027Y-110772419D01*
X140861027Y-110772419D02*
X140622932Y-110772419D01*
X140622932Y-110772419D02*
X140527694Y-110724800D01*
X140527694Y-110724800D02*
X140480075Y-110677180D01*
X142813408Y-110772419D02*
X142480075Y-110296228D01*
X142241980Y-110772419D02*
X142241980Y-109772419D01*
X142241980Y-109772419D02*
X142622932Y-109772419D01*
X142622932Y-109772419D02*
X142718170Y-109820038D01*
X142718170Y-109820038D02*
X142765789Y-109867657D01*
X142765789Y-109867657D02*
X142813408Y-109962895D01*
X142813408Y-109962895D02*
X142813408Y-110105752D01*
X142813408Y-110105752D02*
X142765789Y-110200990D01*
X142765789Y-110200990D02*
X142718170Y-110248609D01*
X142718170Y-110248609D02*
X142622932Y-110296228D01*
X142622932Y-110296228D02*
X142241980Y-110296228D01*
X143622932Y-110724800D02*
X143527694Y-110772419D01*
X143527694Y-110772419D02*
X143337218Y-110772419D01*
X143337218Y-110772419D02*
X143241980Y-110724800D01*
X143241980Y-110724800D02*
X143194361Y-110629561D01*
X143194361Y-110629561D02*
X143194361Y-110248609D01*
X143194361Y-110248609D02*
X143241980Y-110153371D01*
X143241980Y-110153371D02*
X143337218Y-110105752D01*
X143337218Y-110105752D02*
X143527694Y-110105752D01*
X143527694Y-110105752D02*
X143622932Y-110153371D01*
X143622932Y-110153371D02*
X143670551Y-110248609D01*
X143670551Y-110248609D02*
X143670551Y-110343847D01*
X143670551Y-110343847D02*
X143194361Y-110439085D01*
X144003885Y-110105752D02*
X144241980Y-110772419D01*
X144241980Y-110772419D02*
X144480075Y-110105752D01*
X144861028Y-110677180D02*
X144908647Y-110724800D01*
X144908647Y-110724800D02*
X144861028Y-110772419D01*
X144861028Y-110772419D02*
X144813409Y-110724800D01*
X144813409Y-110724800D02*
X144861028Y-110677180D01*
X144861028Y-110677180D02*
X144861028Y-110772419D01*
X146099123Y-110105752D02*
X146099123Y-110772419D01*
X146099123Y-110200990D02*
X146146742Y-110153371D01*
X146146742Y-110153371D02*
X146241980Y-110105752D01*
X146241980Y-110105752D02*
X146384837Y-110105752D01*
X146384837Y-110105752D02*
X146480075Y-110153371D01*
X146480075Y-110153371D02*
X146527694Y-110248609D01*
X146527694Y-110248609D02*
X146527694Y-110772419D01*
X147718170Y-109724800D02*
X146861028Y-111010514D01*
X148480075Y-110724800D02*
X148384837Y-110772419D01*
X148384837Y-110772419D02*
X148194361Y-110772419D01*
X148194361Y-110772419D02*
X148099123Y-110724800D01*
X148099123Y-110724800D02*
X148051504Y-110677180D01*
X148051504Y-110677180D02*
X148003885Y-110581942D01*
X148003885Y-110581942D02*
X148003885Y-110296228D01*
X148003885Y-110296228D02*
X148051504Y-110200990D01*
X148051504Y-110200990D02*
X148099123Y-110153371D01*
X148099123Y-110153371D02*
X148194361Y-110105752D01*
X148194361Y-110105752D02*
X148384837Y-110105752D01*
X148384837Y-110105752D02*
X148480075Y-110153371D01*
D11*
X146523809Y-100978628D02*
X146523809Y-101454819D01*
X146190476Y-100454819D02*
X146523809Y-100978628D01*
X146523809Y-100978628D02*
X146857142Y-100454819D01*
X147714285Y-101454819D02*
X147142857Y-101454819D01*
X147428571Y-101454819D02*
X147428571Y-100454819D01*
X147428571Y-100454819D02*
X147333333Y-100597676D01*
X147333333Y-100597676D02*
X147238095Y-100692914D01*
X147238095Y-100692914D02*
X147142857Y-100740533D01*
X145238095Y-90054819D02*
X145238095Y-90864342D01*
X145238095Y-90864342D02*
X145285714Y-90959580D01*
X145285714Y-90959580D02*
X145333333Y-91007200D01*
X145333333Y-91007200D02*
X145428571Y-91054819D01*
X145428571Y-91054819D02*
X145619047Y-91054819D01*
X145619047Y-91054819D02*
X145714285Y-91007200D01*
X145714285Y-91007200D02*
X145761904Y-90959580D01*
X145761904Y-90959580D02*
X145809523Y-90864342D01*
X145809523Y-90864342D02*
X145809523Y-90054819D01*
X146809523Y-91054819D02*
X146238095Y-91054819D01*
X146523809Y-91054819D02*
X146523809Y-90054819D01*
X146523809Y-90054819D02*
X146428571Y-90197676D01*
X146428571Y-90197676D02*
X146333333Y-90292914D01*
X146333333Y-90292914D02*
X146238095Y-90340533D01*
X146833333Y-83454819D02*
X146500000Y-82978628D01*
X146261905Y-83454819D02*
X146261905Y-82454819D01*
X146261905Y-82454819D02*
X146642857Y-82454819D01*
X146642857Y-82454819D02*
X146738095Y-82502438D01*
X146738095Y-82502438D02*
X146785714Y-82550057D01*
X146785714Y-82550057D02*
X146833333Y-82645295D01*
X146833333Y-82645295D02*
X146833333Y-82788152D01*
X146833333Y-82788152D02*
X146785714Y-82883390D01*
X146785714Y-82883390D02*
X146738095Y-82931009D01*
X146738095Y-82931009D02*
X146642857Y-82978628D01*
X146642857Y-82978628D02*
X146261905Y-82978628D01*
X147166667Y-82454819D02*
X147785714Y-82454819D01*
X147785714Y-82454819D02*
X147452381Y-82835771D01*
X147452381Y-82835771D02*
X147595238Y-82835771D01*
X147595238Y-82835771D02*
X147690476Y-82883390D01*
X147690476Y-82883390D02*
X147738095Y-82931009D01*
X147738095Y-82931009D02*
X147785714Y-83026247D01*
X147785714Y-83026247D02*
X147785714Y-83264342D01*
X147785714Y-83264342D02*
X147738095Y-83359580D01*
X147738095Y-83359580D02*
X147690476Y-83407200D01*
X147690476Y-83407200D02*
X147595238Y-83454819D01*
X147595238Y-83454819D02*
X147309524Y-83454819D01*
X147309524Y-83454819D02*
X147214286Y-83407200D01*
X147214286Y-83407200D02*
X147166667Y-83359580D01*
X125833333Y-75104819D02*
X125500000Y-74628628D01*
X125261905Y-75104819D02*
X125261905Y-74104819D01*
X125261905Y-74104819D02*
X125642857Y-74104819D01*
X125642857Y-74104819D02*
X125738095Y-74152438D01*
X125738095Y-74152438D02*
X125785714Y-74200057D01*
X125785714Y-74200057D02*
X125833333Y-74295295D01*
X125833333Y-74295295D02*
X125833333Y-74438152D01*
X125833333Y-74438152D02*
X125785714Y-74533390D01*
X125785714Y-74533390D02*
X125738095Y-74581009D01*
X125738095Y-74581009D02*
X125642857Y-74628628D01*
X125642857Y-74628628D02*
X125261905Y-74628628D01*
X126214286Y-74200057D02*
X126261905Y-74152438D01*
X126261905Y-74152438D02*
X126357143Y-74104819D01*
X126357143Y-74104819D02*
X126595238Y-74104819D01*
X126595238Y-74104819D02*
X126690476Y-74152438D01*
X126690476Y-74152438D02*
X126738095Y-74200057D01*
X126738095Y-74200057D02*
X126785714Y-74295295D01*
X126785714Y-74295295D02*
X126785714Y-74390533D01*
X126785714Y-74390533D02*
X126738095Y-74533390D01*
X126738095Y-74533390D02*
X126166667Y-75104819D01*
X126166667Y-75104819D02*
X126785714Y-75104819D01*
X125833333Y-98104819D02*
X125500000Y-97628628D01*
X125261905Y-98104819D02*
X125261905Y-97104819D01*
X125261905Y-97104819D02*
X125642857Y-97104819D01*
X125642857Y-97104819D02*
X125738095Y-97152438D01*
X125738095Y-97152438D02*
X125785714Y-97200057D01*
X125785714Y-97200057D02*
X125833333Y-97295295D01*
X125833333Y-97295295D02*
X125833333Y-97438152D01*
X125833333Y-97438152D02*
X125785714Y-97533390D01*
X125785714Y-97533390D02*
X125738095Y-97581009D01*
X125738095Y-97581009D02*
X125642857Y-97628628D01*
X125642857Y-97628628D02*
X125261905Y-97628628D01*
X126785714Y-98104819D02*
X126214286Y-98104819D01*
X126500000Y-98104819D02*
X126500000Y-97104819D01*
X126500000Y-97104819D02*
X126404762Y-97247676D01*
X126404762Y-97247676D02*
X126309524Y-97342914D01*
X126309524Y-97342914D02*
X126214286Y-97390533D01*
X153936666Y-74124819D02*
X153936666Y-74839104D01*
X153936666Y-74839104D02*
X153889047Y-74981961D01*
X153889047Y-74981961D02*
X153793809Y-75077200D01*
X153793809Y-75077200D02*
X153650952Y-75124819D01*
X153650952Y-75124819D02*
X153555714Y-75124819D01*
X154365238Y-74220057D02*
X154412857Y-74172438D01*
X154412857Y-74172438D02*
X154508095Y-74124819D01*
X154508095Y-74124819D02*
X154746190Y-74124819D01*
X154746190Y-74124819D02*
X154841428Y-74172438D01*
X154841428Y-74172438D02*
X154889047Y-74220057D01*
X154889047Y-74220057D02*
X154936666Y-74315295D01*
X154936666Y-74315295D02*
X154936666Y-74410533D01*
X154936666Y-74410533D02*
X154889047Y-74553390D01*
X154889047Y-74553390D02*
X154317619Y-75124819D01*
X154317619Y-75124819D02*
X154936666Y-75124819D01*
X117484166Y-92974819D02*
X117484166Y-93689104D01*
X117484166Y-93689104D02*
X117436547Y-93831961D01*
X117436547Y-93831961D02*
X117341309Y-93927200D01*
X117341309Y-93927200D02*
X117198452Y-93974819D01*
X117198452Y-93974819D02*
X117103214Y-93974819D01*
X118484166Y-93974819D02*
X117912738Y-93974819D01*
X118198452Y-93974819D02*
X118198452Y-92974819D01*
X118198452Y-92974819D02*
X118103214Y-93117676D01*
X118103214Y-93117676D02*
X118007976Y-93212914D01*
X118007976Y-93212914D02*
X117912738Y-93260533D01*
X119749405Y-75274819D02*
X119749405Y-74274819D01*
X119749405Y-74274819D02*
X119987500Y-74274819D01*
X119987500Y-74274819D02*
X120130357Y-74322438D01*
X120130357Y-74322438D02*
X120225595Y-74417676D01*
X120225595Y-74417676D02*
X120273214Y-74512914D01*
X120273214Y-74512914D02*
X120320833Y-74703390D01*
X120320833Y-74703390D02*
X120320833Y-74846247D01*
X120320833Y-74846247D02*
X120273214Y-75036723D01*
X120273214Y-75036723D02*
X120225595Y-75131961D01*
X120225595Y-75131961D02*
X120130357Y-75227200D01*
X120130357Y-75227200D02*
X119987500Y-75274819D01*
X119987500Y-75274819D02*
X119749405Y-75274819D01*
X120701786Y-74370057D02*
X120749405Y-74322438D01*
X120749405Y-74322438D02*
X120844643Y-74274819D01*
X120844643Y-74274819D02*
X121082738Y-74274819D01*
X121082738Y-74274819D02*
X121177976Y-74322438D01*
X121177976Y-74322438D02*
X121225595Y-74370057D01*
X121225595Y-74370057D02*
X121273214Y-74465295D01*
X121273214Y-74465295D02*
X121273214Y-74560533D01*
X121273214Y-74560533D02*
X121225595Y-74703390D01*
X121225595Y-74703390D02*
X120654167Y-75274819D01*
X120654167Y-75274819D02*
X121273214Y-75274819D01*
X119774405Y-98274819D02*
X119774405Y-97274819D01*
X119774405Y-97274819D02*
X120012500Y-97274819D01*
X120012500Y-97274819D02*
X120155357Y-97322438D01*
X120155357Y-97322438D02*
X120250595Y-97417676D01*
X120250595Y-97417676D02*
X120298214Y-97512914D01*
X120298214Y-97512914D02*
X120345833Y-97703390D01*
X120345833Y-97703390D02*
X120345833Y-97846247D01*
X120345833Y-97846247D02*
X120298214Y-98036723D01*
X120298214Y-98036723D02*
X120250595Y-98131961D01*
X120250595Y-98131961D02*
X120155357Y-98227200D01*
X120155357Y-98227200D02*
X120012500Y-98274819D01*
X120012500Y-98274819D02*
X119774405Y-98274819D01*
X121298214Y-98274819D02*
X120726786Y-98274819D01*
X121012500Y-98274819D02*
X121012500Y-97274819D01*
X121012500Y-97274819D02*
X120917262Y-97417676D01*
X120917262Y-97417676D02*
X120822024Y-97512914D01*
X120822024Y-97512914D02*
X120726786Y-97560533D01*
X134833333Y-94359580D02*
X134785714Y-94407200D01*
X134785714Y-94407200D02*
X134642857Y-94454819D01*
X134642857Y-94454819D02*
X134547619Y-94454819D01*
X134547619Y-94454819D02*
X134404762Y-94407200D01*
X134404762Y-94407200D02*
X134309524Y-94311961D01*
X134309524Y-94311961D02*
X134261905Y-94216723D01*
X134261905Y-94216723D02*
X134214286Y-94026247D01*
X134214286Y-94026247D02*
X134214286Y-93883390D01*
X134214286Y-93883390D02*
X134261905Y-93692914D01*
X134261905Y-93692914D02*
X134309524Y-93597676D01*
X134309524Y-93597676D02*
X134404762Y-93502438D01*
X134404762Y-93502438D02*
X134547619Y-93454819D01*
X134547619Y-93454819D02*
X134642857Y-93454819D01*
X134642857Y-93454819D02*
X134785714Y-93502438D01*
X134785714Y-93502438D02*
X134833333Y-93550057D01*
X135690476Y-93454819D02*
X135500000Y-93454819D01*
X135500000Y-93454819D02*
X135404762Y-93502438D01*
X135404762Y-93502438D02*
X135357143Y-93550057D01*
X135357143Y-93550057D02*
X135261905Y-93692914D01*
X135261905Y-93692914D02*
X135214286Y-93883390D01*
X135214286Y-93883390D02*
X135214286Y-94264342D01*
X135214286Y-94264342D02*
X135261905Y-94359580D01*
X135261905Y-94359580D02*
X135309524Y-94407200D01*
X135309524Y-94407200D02*
X135404762Y-94454819D01*
X135404762Y-94454819D02*
X135595238Y-94454819D01*
X135595238Y-94454819D02*
X135690476Y-94407200D01*
X135690476Y-94407200D02*
X135738095Y-94359580D01*
X135738095Y-94359580D02*
X135785714Y-94264342D01*
X135785714Y-94264342D02*
X135785714Y-94026247D01*
X135785714Y-94026247D02*
X135738095Y-93931009D01*
X135738095Y-93931009D02*
X135690476Y-93883390D01*
X135690476Y-93883390D02*
X135595238Y-93835771D01*
X135595238Y-93835771D02*
X135404762Y-93835771D01*
X135404762Y-93835771D02*
X135309524Y-93883390D01*
X135309524Y-93883390D02*
X135261905Y-93931009D01*
X135261905Y-93931009D02*
X135214286Y-94026247D01*
X128833333Y-90359580D02*
X128785714Y-90407200D01*
X128785714Y-90407200D02*
X128642857Y-90454819D01*
X128642857Y-90454819D02*
X128547619Y-90454819D01*
X128547619Y-90454819D02*
X128404762Y-90407200D01*
X128404762Y-90407200D02*
X128309524Y-90311961D01*
X128309524Y-90311961D02*
X128261905Y-90216723D01*
X128261905Y-90216723D02*
X128214286Y-90026247D01*
X128214286Y-90026247D02*
X128214286Y-89883390D01*
X128214286Y-89883390D02*
X128261905Y-89692914D01*
X128261905Y-89692914D02*
X128309524Y-89597676D01*
X128309524Y-89597676D02*
X128404762Y-89502438D01*
X128404762Y-89502438D02*
X128547619Y-89454819D01*
X128547619Y-89454819D02*
X128642857Y-89454819D01*
X128642857Y-89454819D02*
X128785714Y-89502438D01*
X128785714Y-89502438D02*
X128833333Y-89550057D01*
X129738095Y-89454819D02*
X129261905Y-89454819D01*
X129261905Y-89454819D02*
X129214286Y-89931009D01*
X129214286Y-89931009D02*
X129261905Y-89883390D01*
X129261905Y-89883390D02*
X129357143Y-89835771D01*
X129357143Y-89835771D02*
X129595238Y-89835771D01*
X129595238Y-89835771D02*
X129690476Y-89883390D01*
X129690476Y-89883390D02*
X129738095Y-89931009D01*
X129738095Y-89931009D02*
X129785714Y-90026247D01*
X129785714Y-90026247D02*
X129785714Y-90264342D01*
X129785714Y-90264342D02*
X129738095Y-90359580D01*
X129738095Y-90359580D02*
X129690476Y-90407200D01*
X129690476Y-90407200D02*
X129595238Y-90454819D01*
X129595238Y-90454819D02*
X129357143Y-90454819D01*
X129357143Y-90454819D02*
X129261905Y-90407200D01*
X129261905Y-90407200D02*
X129214286Y-90359580D01*
X127833333Y-83359580D02*
X127785714Y-83407200D01*
X127785714Y-83407200D02*
X127642857Y-83454819D01*
X127642857Y-83454819D02*
X127547619Y-83454819D01*
X127547619Y-83454819D02*
X127404762Y-83407200D01*
X127404762Y-83407200D02*
X127309524Y-83311961D01*
X127309524Y-83311961D02*
X127261905Y-83216723D01*
X127261905Y-83216723D02*
X127214286Y-83026247D01*
X127214286Y-83026247D02*
X127214286Y-82883390D01*
X127214286Y-82883390D02*
X127261905Y-82692914D01*
X127261905Y-82692914D02*
X127309524Y-82597676D01*
X127309524Y-82597676D02*
X127404762Y-82502438D01*
X127404762Y-82502438D02*
X127547619Y-82454819D01*
X127547619Y-82454819D02*
X127642857Y-82454819D01*
X127642857Y-82454819D02*
X127785714Y-82502438D01*
X127785714Y-82502438D02*
X127833333Y-82550057D01*
X128690476Y-82788152D02*
X128690476Y-83454819D01*
X128452381Y-82407200D02*
X128214286Y-83121485D01*
X128214286Y-83121485D02*
X128833333Y-83121485D01*
X134795833Y-92359580D02*
X134748214Y-92407200D01*
X134748214Y-92407200D02*
X134605357Y-92454819D01*
X134605357Y-92454819D02*
X134510119Y-92454819D01*
X134510119Y-92454819D02*
X134367262Y-92407200D01*
X134367262Y-92407200D02*
X134272024Y-92311961D01*
X134272024Y-92311961D02*
X134224405Y-92216723D01*
X134224405Y-92216723D02*
X134176786Y-92026247D01*
X134176786Y-92026247D02*
X134176786Y-91883390D01*
X134176786Y-91883390D02*
X134224405Y-91692914D01*
X134224405Y-91692914D02*
X134272024Y-91597676D01*
X134272024Y-91597676D02*
X134367262Y-91502438D01*
X134367262Y-91502438D02*
X134510119Y-91454819D01*
X134510119Y-91454819D02*
X134605357Y-91454819D01*
X134605357Y-91454819D02*
X134748214Y-91502438D01*
X134748214Y-91502438D02*
X134795833Y-91550057D01*
X135129167Y-91454819D02*
X135748214Y-91454819D01*
X135748214Y-91454819D02*
X135414881Y-91835771D01*
X135414881Y-91835771D02*
X135557738Y-91835771D01*
X135557738Y-91835771D02*
X135652976Y-91883390D01*
X135652976Y-91883390D02*
X135700595Y-91931009D01*
X135700595Y-91931009D02*
X135748214Y-92026247D01*
X135748214Y-92026247D02*
X135748214Y-92264342D01*
X135748214Y-92264342D02*
X135700595Y-92359580D01*
X135700595Y-92359580D02*
X135652976Y-92407200D01*
X135652976Y-92407200D02*
X135557738Y-92454819D01*
X135557738Y-92454819D02*
X135272024Y-92454819D01*
X135272024Y-92454819D02*
X135176786Y-92407200D01*
X135176786Y-92407200D02*
X135129167Y-92359580D01*
X141870833Y-93359580D02*
X141823214Y-93407200D01*
X141823214Y-93407200D02*
X141680357Y-93454819D01*
X141680357Y-93454819D02*
X141585119Y-93454819D01*
X141585119Y-93454819D02*
X141442262Y-93407200D01*
X141442262Y-93407200D02*
X141347024Y-93311961D01*
X141347024Y-93311961D02*
X141299405Y-93216723D01*
X141299405Y-93216723D02*
X141251786Y-93026247D01*
X141251786Y-93026247D02*
X141251786Y-92883390D01*
X141251786Y-92883390D02*
X141299405Y-92692914D01*
X141299405Y-92692914D02*
X141347024Y-92597676D01*
X141347024Y-92597676D02*
X141442262Y-92502438D01*
X141442262Y-92502438D02*
X141585119Y-92454819D01*
X141585119Y-92454819D02*
X141680357Y-92454819D01*
X141680357Y-92454819D02*
X141823214Y-92502438D01*
X141823214Y-92502438D02*
X141870833Y-92550057D01*
X142251786Y-92550057D02*
X142299405Y-92502438D01*
X142299405Y-92502438D02*
X142394643Y-92454819D01*
X142394643Y-92454819D02*
X142632738Y-92454819D01*
X142632738Y-92454819D02*
X142727976Y-92502438D01*
X142727976Y-92502438D02*
X142775595Y-92550057D01*
X142775595Y-92550057D02*
X142823214Y-92645295D01*
X142823214Y-92645295D02*
X142823214Y-92740533D01*
X142823214Y-92740533D02*
X142775595Y-92883390D01*
X142775595Y-92883390D02*
X142204167Y-93454819D01*
X142204167Y-93454819D02*
X142823214Y-93454819D01*
X151795833Y-93359580D02*
X151748214Y-93407200D01*
X151748214Y-93407200D02*
X151605357Y-93454819D01*
X151605357Y-93454819D02*
X151510119Y-93454819D01*
X151510119Y-93454819D02*
X151367262Y-93407200D01*
X151367262Y-93407200D02*
X151272024Y-93311961D01*
X151272024Y-93311961D02*
X151224405Y-93216723D01*
X151224405Y-93216723D02*
X151176786Y-93026247D01*
X151176786Y-93026247D02*
X151176786Y-92883390D01*
X151176786Y-92883390D02*
X151224405Y-92692914D01*
X151224405Y-92692914D02*
X151272024Y-92597676D01*
X151272024Y-92597676D02*
X151367262Y-92502438D01*
X151367262Y-92502438D02*
X151510119Y-92454819D01*
X151510119Y-92454819D02*
X151605357Y-92454819D01*
X151605357Y-92454819D02*
X151748214Y-92502438D01*
X151748214Y-92502438D02*
X151795833Y-92550057D01*
X152748214Y-93454819D02*
X152176786Y-93454819D01*
X152462500Y-93454819D02*
X152462500Y-92454819D01*
X152462500Y-92454819D02*
X152367262Y-92597676D01*
X152367262Y-92597676D02*
X152272024Y-92692914D01*
X152272024Y-92692914D02*
X152176786Y-92740533D01*
D12*
%TO.C,Y1*%
X150210000Y-99525000D02*
X143810000Y-99525000D01*
X150210000Y-94475000D02*
X143810000Y-94475000D01*
X150210000Y-94475000D02*
G75*
G02*
X150210000Y-99525000I0J-2525000D01*
G01*
X143810000Y-99525000D02*
G75*
G02*
X143810000Y-94475000I0J2525000D01*
G01*
%TO.C,U1*%
X142860000Y-90510000D02*
X142860000Y-90275000D01*
X142860000Y-77490000D02*
X142860000Y-77725000D01*
X139000000Y-90510000D02*
X142860000Y-90510000D01*
X139000000Y-90510000D02*
X135140000Y-90510000D01*
X139000000Y-77490000D02*
X142860000Y-77490000D01*
X139000000Y-77490000D02*
X135140000Y-77490000D01*
X135140000Y-90510000D02*
X135140000Y-90275000D01*
X135140000Y-77490000D02*
X135140000Y-77725000D01*
X144052500Y-90745000D02*
X143372500Y-90745000D01*
X143712500Y-90275000D01*
X144052500Y-90745000D01*
G36*
X144052500Y-90745000D02*
G01*
X143372500Y-90745000D01*
X143712500Y-90275000D01*
X144052500Y-90745000D01*
G37*
%TO.C,R3*%
X147735000Y-85772936D02*
X147735000Y-86227064D01*
X146265000Y-85772936D02*
X146265000Y-86227064D01*
%TO.C,R2*%
X126227064Y-73735000D02*
X125772936Y-73735000D01*
X126227064Y-72265000D02*
X125772936Y-72265000D01*
%TO.C,R1*%
X126227064Y-96735000D02*
X125772936Y-96735000D01*
X126227064Y-95265000D02*
X125772936Y-95265000D01*
%TO.C,J2*%
X151670000Y-75670000D02*
X153000000Y-75670000D01*
X151670000Y-77000000D02*
X151670000Y-75670000D01*
X151670000Y-78270000D02*
X151670000Y-91030000D01*
X151670000Y-78270000D02*
X154270000Y-78270000D01*
X151670000Y-91030000D02*
X156870000Y-91030000D01*
X154270000Y-75670000D02*
X156870000Y-75670000D01*
X154270000Y-78270000D02*
X154270000Y-75670000D01*
X156870000Y-75670000D02*
X156870000Y-91030000D01*
%TO.C,J1*%
X126897500Y-86250000D02*
X126897500Y-85250000D01*
X126897500Y-85250000D02*
X126397500Y-85750000D01*
X126397500Y-85750000D02*
X126897500Y-86250000D01*
X126177500Y-90660000D02*
X126177500Y-78340000D01*
X126177500Y-78340000D02*
X121917500Y-78340000D01*
X121917500Y-90660000D02*
X126177500Y-90660000D01*
X117817500Y-90660000D02*
X109457500Y-90660000D01*
X109457500Y-90660000D02*
X109457500Y-78340000D01*
X109457500Y-78340000D02*
X117817500Y-78340000D01*
%TO.C,D2*%
X122947500Y-74135000D02*
X122947500Y-71865000D01*
X122947500Y-71865000D02*
X118887500Y-71865000D01*
X118887500Y-74135000D02*
X122947500Y-74135000D01*
%TO.C,D1*%
X122972500Y-97135000D02*
X122972500Y-94865000D01*
X122972500Y-94865000D02*
X118912500Y-94865000D01*
X118912500Y-97135000D02*
X122972500Y-97135000D01*
%TO.C,C6*%
X138261252Y-94735000D02*
X137738748Y-94735000D01*
X138261252Y-93265000D02*
X137738748Y-93265000D01*
%TO.C,C5*%
X129738748Y-87265000D02*
X130261252Y-87265000D01*
X129738748Y-88735000D02*
X130261252Y-88735000D01*
%TO.C,C4*%
X131261252Y-83735000D02*
X130738748Y-83735000D01*
X131261252Y-82265000D02*
X130738748Y-82265000D01*
%TO.C,C3*%
X138261252Y-92735000D02*
X137738748Y-92735000D01*
X138261252Y-91265000D02*
X137738748Y-91265000D01*
%TO.C,C2*%
X144738748Y-92265000D02*
X145261252Y-92265000D01*
X144738748Y-93735000D02*
X145261252Y-93735000D01*
%TO.C,C1*%
X149261252Y-93735000D02*
X148738748Y-93735000D01*
X149261252Y-92265000D02*
X148738748Y-92265000D01*
%TD*%
M02*
