%TF.GenerationSoftware,KiCad,Pcbnew,9.0.0*%
%TF.CreationDate,2025-03-23T19:11:54-07:00*%
%TF.ProjectId,SMRRC_USB,534d5252-435f-4555-9342-2e6b69636164,n/c*%
%TF.SameCoordinates,Original*%
%TF.FileFunction,Soldermask,Top*%
%TF.FilePolarity,Negative*%
%FSLAX46Y46*%
G04 Gerber Fmt 4.6, Leading zero omitted, Abs format (unit mm)*
G04 Created by KiCad (PCBNEW 9.0.0) date 2025-03-23 19:11:54*
%MOMM*%
%LPD*%
G01*
G04 APERTURE LIST*
G04 Aperture macros list*
%AMRoundRect*
0 Rectangle with rounded corners*
0 $1 Rounding radius*
0 $2 $3 $4 $5 $6 $7 $8 $9 X,Y pos of 4 corners*
0 Add a 4 corners polygon primitive as box body*
4,1,4,$2,$3,$4,$5,$6,$7,$8,$9,$2,$3,0*
0 Add four circle primitives for the rounded corners*
1,1,$1+$1,$2,$3*
1,1,$1+$1,$4,$5*
1,1,$1+$1,$6,$7*
1,1,$1+$1,$8,$9*
0 Add four rect primitives between the rounded corners*
20,1,$1+$1,$2,$3,$4,$5,0*
20,1,$1+$1,$4,$5,$6,$7,0*
20,1,$1+$1,$6,$7,$8,$9,0*
20,1,$1+$1,$8,$9,$2,$3,0*%
G04 Aperture macros list end*
%ADD10C,1.500000*%
%ADD11RoundRect,0.150000X0.875000X0.150000X-0.875000X0.150000X-0.875000X-0.150000X0.875000X-0.150000X0*%
%ADD12RoundRect,0.250000X-0.450000X0.350000X-0.450000X-0.350000X0.450000X-0.350000X0.450000X0.350000X0*%
%ADD13RoundRect,0.250000X0.350000X0.450000X-0.350000X0.450000X-0.350000X-0.450000X0.350000X-0.450000X0*%
%ADD14R,1.700000X1.700000*%
%ADD15O,1.700000X1.700000*%
%ADD16C,1.700000*%
%ADD17C,3.500000*%
%ADD18C,3.200000*%
%ADD19RoundRect,0.250001X0.462499X0.624999X-0.462499X0.624999X-0.462499X-0.624999X0.462499X-0.624999X0*%
%ADD20RoundRect,0.250000X0.337500X0.475000X-0.337500X0.475000X-0.337500X-0.475000X0.337500X-0.475000X0*%
%ADD21RoundRect,0.250000X-0.337500X-0.475000X0.337500X-0.475000X0.337500X0.475000X-0.337500X0.475000X0*%
G04 APERTURE END LIST*
D10*
%TO.C,Y1*%
X149450000Y-97000000D03*
X144570000Y-97000000D03*
%TD*%
D11*
%TO.C,U1*%
X143650000Y-89715000D03*
X143650000Y-88445000D03*
X143650000Y-87175000D03*
X143650000Y-85905000D03*
X143650000Y-84635000D03*
X143650000Y-83365000D03*
X143650000Y-82095000D03*
X143650000Y-80825000D03*
X143650000Y-79555000D03*
X143650000Y-78285000D03*
X134350000Y-78285000D03*
X134350000Y-79555000D03*
X134350000Y-80825000D03*
X134350000Y-82095000D03*
X134350000Y-83365000D03*
X134350000Y-84635000D03*
X134350000Y-85905000D03*
X134350000Y-87175000D03*
X134350000Y-88445000D03*
X134350000Y-89715000D03*
%TD*%
D12*
%TO.C,R3*%
X147000000Y-85000000D03*
X147000000Y-87000000D03*
%TD*%
D13*
%TO.C,R2*%
X127000000Y-73000000D03*
X125000000Y-73000000D03*
%TD*%
%TO.C,R1*%
X127000000Y-96000000D03*
X125000000Y-96000000D03*
%TD*%
D14*
%TO.C,J2*%
X153000000Y-77000000D03*
D15*
X155540000Y-77000000D03*
X153000000Y-79540000D03*
X155540000Y-79540000D03*
X153000000Y-82080000D03*
X155540000Y-82080000D03*
X153000000Y-84620000D03*
X155540000Y-84620000D03*
X153000000Y-87160000D03*
X155540000Y-87160000D03*
X153000000Y-89700000D03*
X155540000Y-89700000D03*
%TD*%
D14*
%TO.C,J1*%
X124577500Y-85750000D03*
D16*
X124577500Y-83250000D03*
X122577500Y-83250000D03*
X122577500Y-85750000D03*
D17*
X119867500Y-90520000D03*
X119867500Y-78480000D03*
%TD*%
D18*
%TO.C,H4*%
X120000000Y-60000000D03*
%TD*%
%TO.C,H3*%
X170000000Y-60000000D03*
%TD*%
%TO.C,H2*%
X170000000Y-110000000D03*
%TD*%
%TO.C,H1*%
X120000000Y-110000000D03*
%TD*%
D19*
%TO.C,D2*%
X121975000Y-73000000D03*
X119000000Y-73000000D03*
%TD*%
%TO.C,D1*%
X122000000Y-96000000D03*
X119025000Y-96000000D03*
%TD*%
D20*
%TO.C,C6*%
X139037500Y-94000000D03*
X136962500Y-94000000D03*
%TD*%
D21*
%TO.C,C5*%
X128962500Y-88000000D03*
X131037500Y-88000000D03*
%TD*%
D20*
%TO.C,C4*%
X132037500Y-83000000D03*
X129962500Y-83000000D03*
%TD*%
%TO.C,C3*%
X139037500Y-92000000D03*
X136962500Y-92000000D03*
%TD*%
D21*
%TO.C,C2*%
X143962500Y-93000000D03*
X146037500Y-93000000D03*
%TD*%
D20*
%TO.C,C1*%
X150037500Y-93000000D03*
X147962500Y-93000000D03*
%TD*%
M02*
