M48
; DRILL file {KiCad 9.0.0} date 2025-03-23T19:11:59-0700
; FORMAT={-:-/ absolute / inch / decimal}
; #@! TF.CreationDate,2025-03-23T19:11:59-07:00
; #@! TF.GenerationSoftware,Kicad,Pcbnew,9.0.0
; #@! TF.FileFunction,MixedPlating,1,2
FMAT,2
INCH
; #@! TA.AperFunction,Plated,PTH,ViaDrill
T1C0.0118
; #@! TA.AperFunction,Plated,PTH,ComponentDrill
T2C0.0315
; #@! TA.AperFunction,Plated,PTH,ComponentDrill
T3C0.0362
; #@! TA.AperFunction,Plated,PTH,ComponentDrill
T4C0.0394
; #@! TA.AperFunction,Plated,PTH,ComponentDrill
T5C0.0917
; #@! TA.AperFunction,NonPlated,NPTH,ComponentDrill
T6C0.1260
%
G90
G05
T1
X5.374Y-3.1299
X5.4739Y-3.5517
X5.502Y-3.8583
X5.5945Y-3.5321
X5.6004Y-3.2821
X5.748Y-3.4094
T2
X5.6917Y-3.8189
X5.8839Y-3.8189
T3
X4.8259Y-3.2776
X4.8259Y-3.376
X4.9046Y-3.2776
X4.9046Y-3.376
T4
X6.0236Y-3.0315
X6.0236Y-3.1315
X6.0236Y-3.2315
X6.0236Y-3.3315
X6.0236Y-3.4315
X6.0236Y-3.5315
X6.1236Y-3.0315
X6.1236Y-3.1315
X6.1236Y-3.2315
X6.1236Y-3.3315
X6.1236Y-3.4315
X6.1236Y-3.5315
T5
X4.7192Y-3.0898
X4.7192Y-3.5638
T6
X4.7244Y-2.3622
X4.7244Y-4.3307
X6.6929Y-2.3622
X6.6929Y-4.3307
M30
