%TF.GenerationSoftware,KiCad,Pcbnew,9.0.0*%
%TF.CreationDate,2025-03-23T19:11:54-07:00*%
%TF.ProjectId,SMRRC_USB,534d5252-435f-4555-9342-2e6b69636164,n/c*%
%TF.SameCoordinates,Original*%
%TF.FileFunction,Copper,L2,Bot*%
%TF.FilePolarity,Positive*%
%FSLAX46Y46*%
G04 Gerber Fmt 4.6, Leading zero omitted, Abs format (unit mm)*
G04 Created by KiCad (PCBNEW 9.0.0) date 2025-03-23 19:11:54*
%MOMM*%
%LPD*%
G01*
G04 APERTURE LIST*
%TA.AperFunction,ComponentPad*%
%ADD10C,1.500000*%
%TD*%
%TA.AperFunction,ComponentPad*%
%ADD11R,1.700000X1.700000*%
%TD*%
%TA.AperFunction,ComponentPad*%
%ADD12O,1.700000X1.700000*%
%TD*%
%TA.AperFunction,ComponentPad*%
%ADD13C,1.700000*%
%TD*%
%TA.AperFunction,ComponentPad*%
%ADD14C,3.500000*%
%TD*%
%TA.AperFunction,ViaPad*%
%ADD15C,0.600000*%
%TD*%
%TA.AperFunction,Conductor*%
%ADD16C,0.600000*%
%TD*%
%TA.AperFunction,Conductor*%
%ADD17C,1.000000*%
%TD*%
%TA.AperFunction,Conductor*%
%ADD18C,0.300000*%
%TD*%
G04 APERTURE END LIST*
D10*
%TO.P,Y1,1,1*%
%TO.N,Net-(U1-OSC2)*%
X149450000Y-97000000D03*
%TO.P,Y1,2,2*%
%TO.N,Net-(U1-OSC1)*%
X144570000Y-97000000D03*
%TD*%
D11*
%TO.P,J2,1,Pin_1*%
%TO.N,unconnected-(J2-Pin_1-Pad1)*%
X153000000Y-77000000D03*
D12*
%TO.P,J2,2,Pin_2*%
%TO.N,unconnected-(J2-Pin_2-Pad2)*%
X155540000Y-77000000D03*
%TO.P,J2,3,Pin_3*%
%TO.N,GND*%
X153000000Y-79540000D03*
%TO.P,J2,4,Pin_4*%
X155540000Y-79540000D03*
%TO.P,J2,5,Pin_5*%
%TO.N,Net-(J2-Pin_5)*%
X153000000Y-82080000D03*
%TO.P,J2,6,Pin_6*%
%TO.N,Net-(J2-Pin_6)*%
X155540000Y-82080000D03*
%TO.P,J2,7,Pin_7*%
%TO.N,unconnected-(J2-Pin_7-Pad7)*%
X153000000Y-84620000D03*
%TO.P,J2,8,Pin_8*%
%TO.N,unconnected-(J2-Pin_8-Pad8)*%
X155540000Y-84620000D03*
%TO.P,J2,9,Pin_9*%
%TO.N,unconnected-(J2-Pin_9-Pad9)*%
X153000000Y-87160000D03*
%TO.P,J2,10,Pin_10*%
%TO.N,unconnected-(J2-Pin_10-Pad10)*%
X155540000Y-87160000D03*
%TO.P,J2,11,Pin_11*%
%TO.N,unconnected-(J2-Pin_11-Pad11)*%
X153000000Y-89700000D03*
%TO.P,J2,12,Pin_12*%
%TO.N,unconnected-(J2-Pin_12-Pad12)*%
X155540000Y-89700000D03*
%TD*%
D11*
%TO.P,J1,1,VBUS*%
%TO.N,+5V*%
X124577500Y-85750000D03*
D13*
%TO.P,J1,2,D-*%
%TO.N,Net-(J1-D-)*%
X124577500Y-83250000D03*
%TO.P,J1,3,D+*%
%TO.N,Net-(J1-D+)*%
X122577500Y-83250000D03*
%TO.P,J1,4,GND*%
%TO.N,GND*%
X122577500Y-85750000D03*
D14*
%TO.P,J1,5,Shield*%
X119867500Y-90520000D03*
X119867500Y-78480000D03*
%TD*%
D15*
%TO.N,+5V*%
X146000000Y-86600000D03*
X142100000Y-89715000D03*
X139037500Y-90212500D03*
%TO.N,Net-(D1-A)*%
X142250000Y-83365000D03*
X139750000Y-98000000D03*
%TO.N,Net-(J2-Pin_5)*%
X136500000Y-79500000D03*
%TD*%
D16*
%TO.N,+5V*%
X145215000Y-86600000D02*
X142100000Y-89715000D01*
X146000000Y-86600000D02*
X145215000Y-86600000D01*
D17*
X130750000Y-85750000D02*
X135000000Y-90000000D01*
X138825000Y-90000000D02*
X139037500Y-90212500D01*
X124577500Y-85750000D02*
X130750000Y-85750000D01*
X135000000Y-90000000D02*
X138825000Y-90000000D01*
D18*
%TO.N,Net-(D1-A)*%
X140500000Y-97250000D02*
X140500000Y-84000000D01*
X140500000Y-84000000D02*
X141135000Y-83365000D01*
X139750000Y-98000000D02*
X140500000Y-97250000D01*
X141135000Y-83365000D02*
X142250000Y-83365000D01*
%TO.N,Net-(J2-Pin_5)*%
X153000000Y-82080000D02*
X149420000Y-82080000D01*
X149420000Y-82080000D02*
X146840000Y-79500000D01*
X146840000Y-79500000D02*
X136500000Y-79500000D01*
%TD*%
M02*
