M48
; DRILL file {KiCad 9.0.0} date 2025-03-24T14:11:55-0700
; FORMAT={-:-/ absolute / inch / decimal}
; #@! TF.CreationDate,2025-03-24T14:11:55-07:00
; #@! TF.GenerationSoftware,Kicad,Pcbnew,9.0.0
; #@! TF.FileFunction,MixedPlating,1,2
FMAT,2
INCH
; #@! TA.AperFunction,Plated,PTH,ViaDrill
T1C0.0197
; #@! TA.AperFunction,Plated,PTH,ComponentDrill
T2C0.0394
; #@! TA.AperFunction,NonPlated,NPTH,ComponentDrill
T3C0.1260
%
G90
G05
T1
X4.3307Y-2.8346
X4.5669Y-2.4409
X5.0394Y-2.3228
X5.8268Y-2.5197
X5.8268Y-3.189
T2
X4.1339Y-2.4165
X4.1339Y-2.5165
X4.1339Y-2.6165
X4.1339Y-2.7165
X4.1339Y-3.2039
X4.1339Y-3.3039
X4.1339Y-3.4039
X4.1339Y-3.5039
X4.3701Y-2.1654
X4.4701Y-2.1654
X4.5701Y-2.1654
X4.6701Y-2.1654
X5.1575Y-2.1654
X5.2362Y-2.6378
X5.2362Y-2.7378
X5.2362Y-2.8378
X5.2362Y-2.9378
X5.2362Y-3.0378
X5.2362Y-3.1378
X5.2575Y-2.1654
X5.3362Y-2.6378
X5.3362Y-2.7378
X5.3362Y-2.8378
X5.3362Y-2.9378
X5.3362Y-3.0378
X5.3362Y-3.1378
X5.3575Y-2.1654
X5.4575Y-2.1654
T3
X3.937Y-1.9685
X3.937Y-3.937
X5.9055Y-1.9685
X5.9055Y-3.937
M30
