%TF.GenerationSoftware,KiCad,Pcbnew,9.0.0*%
%TF.CreationDate,2025-03-24T14:11:43-07:00*%
%TF.ProjectId,SMRRC_PacketSerial,534d5252-435f-4506-9163-6b6574536572,n/c*%
%TF.SameCoordinates,Original*%
%TF.FileFunction,Legend,Top*%
%TF.FilePolarity,Positive*%
%FSLAX46Y46*%
G04 Gerber Fmt 4.6, Leading zero omitted, Abs format (unit mm)*
G04 Created by KiCad (PCBNEW 9.0.0) date 2025-03-24 14:11:43*
%MOMM*%
%LPD*%
G01*
G04 APERTURE LIST*
%ADD10C,0.187500*%
%ADD11C,0.150000*%
%ADD12C,0.120000*%
G04 APERTURE END LIST*
D10*
X113480497Y-93806678D02*
X113480497Y-92306678D01*
X113480497Y-92306678D02*
X114051926Y-92306678D01*
X114051926Y-92306678D02*
X114194783Y-92378107D01*
X114194783Y-92378107D02*
X114266212Y-92449535D01*
X114266212Y-92449535D02*
X114337640Y-92592392D01*
X114337640Y-92592392D02*
X114337640Y-92806678D01*
X114337640Y-92806678D02*
X114266212Y-92949535D01*
X114266212Y-92949535D02*
X114194783Y-93020964D01*
X114194783Y-93020964D02*
X114051926Y-93092392D01*
X114051926Y-93092392D02*
X113480497Y-93092392D01*
X115623355Y-93806678D02*
X115623355Y-93020964D01*
X115623355Y-93020964D02*
X115551926Y-92878107D01*
X115551926Y-92878107D02*
X115409069Y-92806678D01*
X115409069Y-92806678D02*
X115123355Y-92806678D01*
X115123355Y-92806678D02*
X114980497Y-92878107D01*
X115623355Y-93735250D02*
X115480497Y-93806678D01*
X115480497Y-93806678D02*
X115123355Y-93806678D01*
X115123355Y-93806678D02*
X114980497Y-93735250D01*
X114980497Y-93735250D02*
X114909069Y-93592392D01*
X114909069Y-93592392D02*
X114909069Y-93449535D01*
X114909069Y-93449535D02*
X114980497Y-93306678D01*
X114980497Y-93306678D02*
X115123355Y-93235250D01*
X115123355Y-93235250D02*
X115480497Y-93235250D01*
X115480497Y-93235250D02*
X115623355Y-93163821D01*
X116980498Y-93735250D02*
X116837640Y-93806678D01*
X116837640Y-93806678D02*
X116551926Y-93806678D01*
X116551926Y-93806678D02*
X116409069Y-93735250D01*
X116409069Y-93735250D02*
X116337640Y-93663821D01*
X116337640Y-93663821D02*
X116266212Y-93520964D01*
X116266212Y-93520964D02*
X116266212Y-93092392D01*
X116266212Y-93092392D02*
X116337640Y-92949535D01*
X116337640Y-92949535D02*
X116409069Y-92878107D01*
X116409069Y-92878107D02*
X116551926Y-92806678D01*
X116551926Y-92806678D02*
X116837640Y-92806678D01*
X116837640Y-92806678D02*
X116980498Y-92878107D01*
X117623354Y-93806678D02*
X117623354Y-92306678D01*
X117766212Y-93235250D02*
X118194783Y-93806678D01*
X118194783Y-92806678D02*
X117623354Y-93378107D01*
X119409069Y-93735250D02*
X119266212Y-93806678D01*
X119266212Y-93806678D02*
X118980498Y-93806678D01*
X118980498Y-93806678D02*
X118837640Y-93735250D01*
X118837640Y-93735250D02*
X118766212Y-93592392D01*
X118766212Y-93592392D02*
X118766212Y-93020964D01*
X118766212Y-93020964D02*
X118837640Y-92878107D01*
X118837640Y-92878107D02*
X118980498Y-92806678D01*
X118980498Y-92806678D02*
X119266212Y-92806678D01*
X119266212Y-92806678D02*
X119409069Y-92878107D01*
X119409069Y-92878107D02*
X119480498Y-93020964D01*
X119480498Y-93020964D02*
X119480498Y-93163821D01*
X119480498Y-93163821D02*
X118766212Y-93306678D01*
X119909069Y-92806678D02*
X120480497Y-92806678D01*
X120123354Y-92306678D02*
X120123354Y-93592392D01*
X120123354Y-93592392D02*
X120194783Y-93735250D01*
X120194783Y-93735250D02*
X120337640Y-93806678D01*
X120337640Y-93806678D02*
X120480497Y-93806678D01*
X122051926Y-93735250D02*
X122266212Y-93806678D01*
X122266212Y-93806678D02*
X122623354Y-93806678D01*
X122623354Y-93806678D02*
X122766212Y-93735250D01*
X122766212Y-93735250D02*
X122837640Y-93663821D01*
X122837640Y-93663821D02*
X122909069Y-93520964D01*
X122909069Y-93520964D02*
X122909069Y-93378107D01*
X122909069Y-93378107D02*
X122837640Y-93235250D01*
X122837640Y-93235250D02*
X122766212Y-93163821D01*
X122766212Y-93163821D02*
X122623354Y-93092392D01*
X122623354Y-93092392D02*
X122337640Y-93020964D01*
X122337640Y-93020964D02*
X122194783Y-92949535D01*
X122194783Y-92949535D02*
X122123354Y-92878107D01*
X122123354Y-92878107D02*
X122051926Y-92735250D01*
X122051926Y-92735250D02*
X122051926Y-92592392D01*
X122051926Y-92592392D02*
X122123354Y-92449535D01*
X122123354Y-92449535D02*
X122194783Y-92378107D01*
X122194783Y-92378107D02*
X122337640Y-92306678D01*
X122337640Y-92306678D02*
X122694783Y-92306678D01*
X122694783Y-92306678D02*
X122909069Y-92378107D01*
X124123354Y-93735250D02*
X123980497Y-93806678D01*
X123980497Y-93806678D02*
X123694783Y-93806678D01*
X123694783Y-93806678D02*
X123551925Y-93735250D01*
X123551925Y-93735250D02*
X123480497Y-93592392D01*
X123480497Y-93592392D02*
X123480497Y-93020964D01*
X123480497Y-93020964D02*
X123551925Y-92878107D01*
X123551925Y-92878107D02*
X123694783Y-92806678D01*
X123694783Y-92806678D02*
X123980497Y-92806678D01*
X123980497Y-92806678D02*
X124123354Y-92878107D01*
X124123354Y-92878107D02*
X124194783Y-93020964D01*
X124194783Y-93020964D02*
X124194783Y-93163821D01*
X124194783Y-93163821D02*
X123480497Y-93306678D01*
X124837639Y-93806678D02*
X124837639Y-92806678D01*
X124837639Y-93092392D02*
X124909068Y-92949535D01*
X124909068Y-92949535D02*
X124980497Y-92878107D01*
X124980497Y-92878107D02*
X125123354Y-92806678D01*
X125123354Y-92806678D02*
X125266211Y-92806678D01*
X125766210Y-93806678D02*
X125766210Y-92806678D01*
X125766210Y-92306678D02*
X125694782Y-92378107D01*
X125694782Y-92378107D02*
X125766210Y-92449535D01*
X125766210Y-92449535D02*
X125837639Y-92378107D01*
X125837639Y-92378107D02*
X125766210Y-92306678D01*
X125766210Y-92306678D02*
X125766210Y-92449535D01*
X127123354Y-93806678D02*
X127123354Y-93020964D01*
X127123354Y-93020964D02*
X127051925Y-92878107D01*
X127051925Y-92878107D02*
X126909068Y-92806678D01*
X126909068Y-92806678D02*
X126623354Y-92806678D01*
X126623354Y-92806678D02*
X126480496Y-92878107D01*
X127123354Y-93735250D02*
X126980496Y-93806678D01*
X126980496Y-93806678D02*
X126623354Y-93806678D01*
X126623354Y-93806678D02*
X126480496Y-93735250D01*
X126480496Y-93735250D02*
X126409068Y-93592392D01*
X126409068Y-93592392D02*
X126409068Y-93449535D01*
X126409068Y-93449535D02*
X126480496Y-93306678D01*
X126480496Y-93306678D02*
X126623354Y-93235250D01*
X126623354Y-93235250D02*
X126980496Y-93235250D01*
X126980496Y-93235250D02*
X127123354Y-93163821D01*
X128051925Y-93806678D02*
X127909068Y-93735250D01*
X127909068Y-93735250D02*
X127837639Y-93592392D01*
X127837639Y-93592392D02*
X127837639Y-92306678D01*
X129766210Y-93806678D02*
X129766210Y-92306678D01*
X130480496Y-92806678D02*
X130480496Y-93806678D01*
X130480496Y-92949535D02*
X130551925Y-92878107D01*
X130551925Y-92878107D02*
X130694782Y-92806678D01*
X130694782Y-92806678D02*
X130909068Y-92806678D01*
X130909068Y-92806678D02*
X131051925Y-92878107D01*
X131051925Y-92878107D02*
X131123354Y-93020964D01*
X131123354Y-93020964D02*
X131123354Y-93806678D01*
X131623354Y-92806678D02*
X132194782Y-92806678D01*
X131837639Y-92306678D02*
X131837639Y-93592392D01*
X131837639Y-93592392D02*
X131909068Y-93735250D01*
X131909068Y-93735250D02*
X132051925Y-93806678D01*
X132051925Y-93806678D02*
X132194782Y-93806678D01*
X133266211Y-93735250D02*
X133123354Y-93806678D01*
X133123354Y-93806678D02*
X132837640Y-93806678D01*
X132837640Y-93806678D02*
X132694782Y-93735250D01*
X132694782Y-93735250D02*
X132623354Y-93592392D01*
X132623354Y-93592392D02*
X132623354Y-93020964D01*
X132623354Y-93020964D02*
X132694782Y-92878107D01*
X132694782Y-92878107D02*
X132837640Y-92806678D01*
X132837640Y-92806678D02*
X133123354Y-92806678D01*
X133123354Y-92806678D02*
X133266211Y-92878107D01*
X133266211Y-92878107D02*
X133337640Y-93020964D01*
X133337640Y-93020964D02*
X133337640Y-93163821D01*
X133337640Y-93163821D02*
X132623354Y-93306678D01*
X133980496Y-93806678D02*
X133980496Y-92806678D01*
X133980496Y-93092392D02*
X134051925Y-92949535D01*
X134051925Y-92949535D02*
X134123354Y-92878107D01*
X134123354Y-92878107D02*
X134266211Y-92806678D01*
X134266211Y-92806678D02*
X134409068Y-92806678D01*
X134694782Y-92806678D02*
X135266210Y-92806678D01*
X134909067Y-93806678D02*
X134909067Y-92520964D01*
X134909067Y-92520964D02*
X134980496Y-92378107D01*
X134980496Y-92378107D02*
X135123353Y-92306678D01*
X135123353Y-92306678D02*
X135266210Y-92306678D01*
X136409068Y-93806678D02*
X136409068Y-93020964D01*
X136409068Y-93020964D02*
X136337639Y-92878107D01*
X136337639Y-92878107D02*
X136194782Y-92806678D01*
X136194782Y-92806678D02*
X135909068Y-92806678D01*
X135909068Y-92806678D02*
X135766210Y-92878107D01*
X136409068Y-93735250D02*
X136266210Y-93806678D01*
X136266210Y-93806678D02*
X135909068Y-93806678D01*
X135909068Y-93806678D02*
X135766210Y-93735250D01*
X135766210Y-93735250D02*
X135694782Y-93592392D01*
X135694782Y-93592392D02*
X135694782Y-93449535D01*
X135694782Y-93449535D02*
X135766210Y-93306678D01*
X135766210Y-93306678D02*
X135909068Y-93235250D01*
X135909068Y-93235250D02*
X136266210Y-93235250D01*
X136266210Y-93235250D02*
X136409068Y-93163821D01*
X137766211Y-93735250D02*
X137623353Y-93806678D01*
X137623353Y-93806678D02*
X137337639Y-93806678D01*
X137337639Y-93806678D02*
X137194782Y-93735250D01*
X137194782Y-93735250D02*
X137123353Y-93663821D01*
X137123353Y-93663821D02*
X137051925Y-93520964D01*
X137051925Y-93520964D02*
X137051925Y-93092392D01*
X137051925Y-93092392D02*
X137123353Y-92949535D01*
X137123353Y-92949535D02*
X137194782Y-92878107D01*
X137194782Y-92878107D02*
X137337639Y-92806678D01*
X137337639Y-92806678D02*
X137623353Y-92806678D01*
X137623353Y-92806678D02*
X137766211Y-92878107D01*
X138980496Y-93735250D02*
X138837639Y-93806678D01*
X138837639Y-93806678D02*
X138551925Y-93806678D01*
X138551925Y-93806678D02*
X138409067Y-93735250D01*
X138409067Y-93735250D02*
X138337639Y-93592392D01*
X138337639Y-93592392D02*
X138337639Y-93020964D01*
X138337639Y-93020964D02*
X138409067Y-92878107D01*
X138409067Y-92878107D02*
X138551925Y-92806678D01*
X138551925Y-92806678D02*
X138837639Y-92806678D01*
X138837639Y-92806678D02*
X138980496Y-92878107D01*
X138980496Y-92878107D02*
X139051925Y-93020964D01*
X139051925Y-93020964D02*
X139051925Y-93163821D01*
X139051925Y-93163821D02*
X138337639Y-93306678D01*
X109409069Y-97320334D02*
X109623355Y-97391762D01*
X109623355Y-97391762D02*
X109980497Y-97391762D01*
X109980497Y-97391762D02*
X110123355Y-97320334D01*
X110123355Y-97320334D02*
X110194783Y-97248905D01*
X110194783Y-97248905D02*
X110266212Y-97106048D01*
X110266212Y-97106048D02*
X110266212Y-96963191D01*
X110266212Y-96963191D02*
X110194783Y-96820334D01*
X110194783Y-96820334D02*
X110123355Y-96748905D01*
X110123355Y-96748905D02*
X109980497Y-96677476D01*
X109980497Y-96677476D02*
X109694783Y-96606048D01*
X109694783Y-96606048D02*
X109551926Y-96534619D01*
X109551926Y-96534619D02*
X109480497Y-96463191D01*
X109480497Y-96463191D02*
X109409069Y-96320334D01*
X109409069Y-96320334D02*
X109409069Y-96177476D01*
X109409069Y-96177476D02*
X109480497Y-96034619D01*
X109480497Y-96034619D02*
X109551926Y-95963191D01*
X109551926Y-95963191D02*
X109694783Y-95891762D01*
X109694783Y-95891762D02*
X110051926Y-95891762D01*
X110051926Y-95891762D02*
X110266212Y-95963191D01*
X111480497Y-97320334D02*
X111337640Y-97391762D01*
X111337640Y-97391762D02*
X111051926Y-97391762D01*
X111051926Y-97391762D02*
X110909068Y-97320334D01*
X110909068Y-97320334D02*
X110837640Y-97177476D01*
X110837640Y-97177476D02*
X110837640Y-96606048D01*
X110837640Y-96606048D02*
X110909068Y-96463191D01*
X110909068Y-96463191D02*
X111051926Y-96391762D01*
X111051926Y-96391762D02*
X111337640Y-96391762D01*
X111337640Y-96391762D02*
X111480497Y-96463191D01*
X111480497Y-96463191D02*
X111551926Y-96606048D01*
X111551926Y-96606048D02*
X111551926Y-96748905D01*
X111551926Y-96748905D02*
X110837640Y-96891762D01*
X112194782Y-97391762D02*
X112194782Y-96391762D01*
X112194782Y-96677476D02*
X112266211Y-96534619D01*
X112266211Y-96534619D02*
X112337640Y-96463191D01*
X112337640Y-96463191D02*
X112480497Y-96391762D01*
X112480497Y-96391762D02*
X112623354Y-96391762D01*
X113123353Y-97391762D02*
X113123353Y-96391762D01*
X113123353Y-95891762D02*
X113051925Y-95963191D01*
X113051925Y-95963191D02*
X113123353Y-96034619D01*
X113123353Y-96034619D02*
X113194782Y-95963191D01*
X113194782Y-95963191D02*
X113123353Y-95891762D01*
X113123353Y-95891762D02*
X113123353Y-96034619D01*
X114480497Y-97391762D02*
X114480497Y-96606048D01*
X114480497Y-96606048D02*
X114409068Y-96463191D01*
X114409068Y-96463191D02*
X114266211Y-96391762D01*
X114266211Y-96391762D02*
X113980497Y-96391762D01*
X113980497Y-96391762D02*
X113837639Y-96463191D01*
X114480497Y-97320334D02*
X114337639Y-97391762D01*
X114337639Y-97391762D02*
X113980497Y-97391762D01*
X113980497Y-97391762D02*
X113837639Y-97320334D01*
X113837639Y-97320334D02*
X113766211Y-97177476D01*
X113766211Y-97177476D02*
X113766211Y-97034619D01*
X113766211Y-97034619D02*
X113837639Y-96891762D01*
X113837639Y-96891762D02*
X113980497Y-96820334D01*
X113980497Y-96820334D02*
X114337639Y-96820334D01*
X114337639Y-96820334D02*
X114480497Y-96748905D01*
X115409068Y-97391762D02*
X115266211Y-97320334D01*
X115266211Y-97320334D02*
X115194782Y-97177476D01*
X115194782Y-97177476D02*
X115194782Y-95891762D01*
X117123353Y-97391762D02*
X117123353Y-95891762D01*
X117123353Y-95891762D02*
X117623353Y-96963191D01*
X117623353Y-96963191D02*
X118123353Y-95891762D01*
X118123353Y-95891762D02*
X118123353Y-97391762D01*
X119051925Y-97391762D02*
X118909068Y-97320334D01*
X118909068Y-97320334D02*
X118837639Y-97248905D01*
X118837639Y-97248905D02*
X118766211Y-97106048D01*
X118766211Y-97106048D02*
X118766211Y-96677476D01*
X118766211Y-96677476D02*
X118837639Y-96534619D01*
X118837639Y-96534619D02*
X118909068Y-96463191D01*
X118909068Y-96463191D02*
X119051925Y-96391762D01*
X119051925Y-96391762D02*
X119266211Y-96391762D01*
X119266211Y-96391762D02*
X119409068Y-96463191D01*
X119409068Y-96463191D02*
X119480497Y-96534619D01*
X119480497Y-96534619D02*
X119551925Y-96677476D01*
X119551925Y-96677476D02*
X119551925Y-97106048D01*
X119551925Y-97106048D02*
X119480497Y-97248905D01*
X119480497Y-97248905D02*
X119409068Y-97320334D01*
X119409068Y-97320334D02*
X119266211Y-97391762D01*
X119266211Y-97391762D02*
X119051925Y-97391762D01*
X120837640Y-97391762D02*
X120837640Y-95891762D01*
X120837640Y-97320334D02*
X120694782Y-97391762D01*
X120694782Y-97391762D02*
X120409068Y-97391762D01*
X120409068Y-97391762D02*
X120266211Y-97320334D01*
X120266211Y-97320334D02*
X120194782Y-97248905D01*
X120194782Y-97248905D02*
X120123354Y-97106048D01*
X120123354Y-97106048D02*
X120123354Y-96677476D01*
X120123354Y-96677476D02*
X120194782Y-96534619D01*
X120194782Y-96534619D02*
X120266211Y-96463191D01*
X120266211Y-96463191D02*
X120409068Y-96391762D01*
X120409068Y-96391762D02*
X120694782Y-96391762D01*
X120694782Y-96391762D02*
X120837640Y-96463191D01*
X122123354Y-97320334D02*
X121980497Y-97391762D01*
X121980497Y-97391762D02*
X121694783Y-97391762D01*
X121694783Y-97391762D02*
X121551925Y-97320334D01*
X121551925Y-97320334D02*
X121480497Y-97177476D01*
X121480497Y-97177476D02*
X121480497Y-96606048D01*
X121480497Y-96606048D02*
X121551925Y-96463191D01*
X121551925Y-96463191D02*
X121694783Y-96391762D01*
X121694783Y-96391762D02*
X121980497Y-96391762D01*
X121980497Y-96391762D02*
X122123354Y-96463191D01*
X122123354Y-96463191D02*
X122194783Y-96606048D01*
X122194783Y-96606048D02*
X122194783Y-96748905D01*
X122194783Y-96748905D02*
X121480497Y-96891762D01*
X123051925Y-97391762D02*
X122909068Y-97320334D01*
X122909068Y-97320334D02*
X122837639Y-97177476D01*
X122837639Y-97177476D02*
X122837639Y-95891762D01*
X125623353Y-97391762D02*
X125123353Y-96677476D01*
X124766210Y-97391762D02*
X124766210Y-95891762D01*
X124766210Y-95891762D02*
X125337639Y-95891762D01*
X125337639Y-95891762D02*
X125480496Y-95963191D01*
X125480496Y-95963191D02*
X125551925Y-96034619D01*
X125551925Y-96034619D02*
X125623353Y-96177476D01*
X125623353Y-96177476D02*
X125623353Y-96391762D01*
X125623353Y-96391762D02*
X125551925Y-96534619D01*
X125551925Y-96534619D02*
X125480496Y-96606048D01*
X125480496Y-96606048D02*
X125337639Y-96677476D01*
X125337639Y-96677476D02*
X124766210Y-96677476D01*
X126909068Y-97391762D02*
X126909068Y-96606048D01*
X126909068Y-96606048D02*
X126837639Y-96463191D01*
X126837639Y-96463191D02*
X126694782Y-96391762D01*
X126694782Y-96391762D02*
X126409068Y-96391762D01*
X126409068Y-96391762D02*
X126266210Y-96463191D01*
X126909068Y-97320334D02*
X126766210Y-97391762D01*
X126766210Y-97391762D02*
X126409068Y-97391762D01*
X126409068Y-97391762D02*
X126266210Y-97320334D01*
X126266210Y-97320334D02*
X126194782Y-97177476D01*
X126194782Y-97177476D02*
X126194782Y-97034619D01*
X126194782Y-97034619D02*
X126266210Y-96891762D01*
X126266210Y-96891762D02*
X126409068Y-96820334D01*
X126409068Y-96820334D02*
X126766210Y-96820334D01*
X126766210Y-96820334D02*
X126909068Y-96748905D01*
X127623353Y-97391762D02*
X127623353Y-96391762D01*
X127623353Y-95891762D02*
X127551925Y-95963191D01*
X127551925Y-95963191D02*
X127623353Y-96034619D01*
X127623353Y-96034619D02*
X127694782Y-95963191D01*
X127694782Y-95963191D02*
X127623353Y-95891762D01*
X127623353Y-95891762D02*
X127623353Y-96034619D01*
X128551925Y-97391762D02*
X128409068Y-97320334D01*
X128409068Y-97320334D02*
X128337639Y-97177476D01*
X128337639Y-97177476D02*
X128337639Y-95891762D01*
X129123353Y-97391762D02*
X129123353Y-96391762D01*
X129123353Y-96677476D02*
X129194782Y-96534619D01*
X129194782Y-96534619D02*
X129266211Y-96463191D01*
X129266211Y-96463191D02*
X129409068Y-96391762D01*
X129409068Y-96391762D02*
X129551925Y-96391762D01*
X130266210Y-97391762D02*
X130123353Y-97320334D01*
X130123353Y-97320334D02*
X130051924Y-97248905D01*
X130051924Y-97248905D02*
X129980496Y-97106048D01*
X129980496Y-97106048D02*
X129980496Y-96677476D01*
X129980496Y-96677476D02*
X130051924Y-96534619D01*
X130051924Y-96534619D02*
X130123353Y-96463191D01*
X130123353Y-96463191D02*
X130266210Y-96391762D01*
X130266210Y-96391762D02*
X130480496Y-96391762D01*
X130480496Y-96391762D02*
X130623353Y-96463191D01*
X130623353Y-96463191D02*
X130694782Y-96534619D01*
X130694782Y-96534619D02*
X130766210Y-96677476D01*
X130766210Y-96677476D02*
X130766210Y-97106048D01*
X130766210Y-97106048D02*
X130694782Y-97248905D01*
X130694782Y-97248905D02*
X130623353Y-97320334D01*
X130623353Y-97320334D02*
X130480496Y-97391762D01*
X130480496Y-97391762D02*
X130266210Y-97391762D01*
X132051925Y-97391762D02*
X132051925Y-96606048D01*
X132051925Y-96606048D02*
X131980496Y-96463191D01*
X131980496Y-96463191D02*
X131837639Y-96391762D01*
X131837639Y-96391762D02*
X131551925Y-96391762D01*
X131551925Y-96391762D02*
X131409067Y-96463191D01*
X132051925Y-97320334D02*
X131909067Y-97391762D01*
X131909067Y-97391762D02*
X131551925Y-97391762D01*
X131551925Y-97391762D02*
X131409067Y-97320334D01*
X131409067Y-97320334D02*
X131337639Y-97177476D01*
X131337639Y-97177476D02*
X131337639Y-97034619D01*
X131337639Y-97034619D02*
X131409067Y-96891762D01*
X131409067Y-96891762D02*
X131551925Y-96820334D01*
X131551925Y-96820334D02*
X131909067Y-96820334D01*
X131909067Y-96820334D02*
X132051925Y-96748905D01*
X133409068Y-97391762D02*
X133409068Y-95891762D01*
X133409068Y-97320334D02*
X133266210Y-97391762D01*
X133266210Y-97391762D02*
X132980496Y-97391762D01*
X132980496Y-97391762D02*
X132837639Y-97320334D01*
X132837639Y-97320334D02*
X132766210Y-97248905D01*
X132766210Y-97248905D02*
X132694782Y-97106048D01*
X132694782Y-97106048D02*
X132694782Y-96677476D01*
X132694782Y-96677476D02*
X132766210Y-96534619D01*
X132766210Y-96534619D02*
X132837639Y-96463191D01*
X132837639Y-96463191D02*
X132980496Y-96391762D01*
X132980496Y-96391762D02*
X133266210Y-96391762D01*
X133266210Y-96391762D02*
X133409068Y-96463191D01*
X136123353Y-97248905D02*
X136051925Y-97320334D01*
X136051925Y-97320334D02*
X135837639Y-97391762D01*
X135837639Y-97391762D02*
X135694782Y-97391762D01*
X135694782Y-97391762D02*
X135480496Y-97320334D01*
X135480496Y-97320334D02*
X135337639Y-97177476D01*
X135337639Y-97177476D02*
X135266210Y-97034619D01*
X135266210Y-97034619D02*
X135194782Y-96748905D01*
X135194782Y-96748905D02*
X135194782Y-96534619D01*
X135194782Y-96534619D02*
X135266210Y-96248905D01*
X135266210Y-96248905D02*
X135337639Y-96106048D01*
X135337639Y-96106048D02*
X135480496Y-95963191D01*
X135480496Y-95963191D02*
X135694782Y-95891762D01*
X135694782Y-95891762D02*
X135837639Y-95891762D01*
X135837639Y-95891762D02*
X136051925Y-95963191D01*
X136051925Y-95963191D02*
X136123353Y-96034619D01*
X136980496Y-97391762D02*
X136837639Y-97320334D01*
X136837639Y-97320334D02*
X136766210Y-97248905D01*
X136766210Y-97248905D02*
X136694782Y-97106048D01*
X136694782Y-97106048D02*
X136694782Y-96677476D01*
X136694782Y-96677476D02*
X136766210Y-96534619D01*
X136766210Y-96534619D02*
X136837639Y-96463191D01*
X136837639Y-96463191D02*
X136980496Y-96391762D01*
X136980496Y-96391762D02*
X137194782Y-96391762D01*
X137194782Y-96391762D02*
X137337639Y-96463191D01*
X137337639Y-96463191D02*
X137409068Y-96534619D01*
X137409068Y-96534619D02*
X137480496Y-96677476D01*
X137480496Y-96677476D02*
X137480496Y-97106048D01*
X137480496Y-97106048D02*
X137409068Y-97248905D01*
X137409068Y-97248905D02*
X137337639Y-97320334D01*
X137337639Y-97320334D02*
X137194782Y-97391762D01*
X137194782Y-97391762D02*
X136980496Y-97391762D01*
X138123353Y-96391762D02*
X138123353Y-97391762D01*
X138123353Y-96534619D02*
X138194782Y-96463191D01*
X138194782Y-96463191D02*
X138337639Y-96391762D01*
X138337639Y-96391762D02*
X138551925Y-96391762D01*
X138551925Y-96391762D02*
X138694782Y-96463191D01*
X138694782Y-96463191D02*
X138766211Y-96606048D01*
X138766211Y-96606048D02*
X138766211Y-97391762D01*
X139266211Y-96391762D02*
X139837639Y-96391762D01*
X139480496Y-95891762D02*
X139480496Y-97177476D01*
X139480496Y-97177476D02*
X139551925Y-97320334D01*
X139551925Y-97320334D02*
X139694782Y-97391762D01*
X139694782Y-97391762D02*
X139837639Y-97391762D01*
X140337639Y-97391762D02*
X140337639Y-96391762D01*
X140337639Y-96677476D02*
X140409068Y-96534619D01*
X140409068Y-96534619D02*
X140480497Y-96463191D01*
X140480497Y-96463191D02*
X140623354Y-96391762D01*
X140623354Y-96391762D02*
X140766211Y-96391762D01*
X141480496Y-97391762D02*
X141337639Y-97320334D01*
X141337639Y-97320334D02*
X141266210Y-97248905D01*
X141266210Y-97248905D02*
X141194782Y-97106048D01*
X141194782Y-97106048D02*
X141194782Y-96677476D01*
X141194782Y-96677476D02*
X141266210Y-96534619D01*
X141266210Y-96534619D02*
X141337639Y-96463191D01*
X141337639Y-96463191D02*
X141480496Y-96391762D01*
X141480496Y-96391762D02*
X141694782Y-96391762D01*
X141694782Y-96391762D02*
X141837639Y-96463191D01*
X141837639Y-96463191D02*
X141909068Y-96534619D01*
X141909068Y-96534619D02*
X141980496Y-96677476D01*
X141980496Y-96677476D02*
X141980496Y-97106048D01*
X141980496Y-97106048D02*
X141909068Y-97248905D01*
X141909068Y-97248905D02*
X141837639Y-97320334D01*
X141837639Y-97320334D02*
X141694782Y-97391762D01*
X141694782Y-97391762D02*
X141480496Y-97391762D01*
X142837639Y-97391762D02*
X142694782Y-97320334D01*
X142694782Y-97320334D02*
X142623353Y-97177476D01*
X142623353Y-97177476D02*
X142623353Y-95891762D01*
X109480497Y-99806678D02*
X109480497Y-98306678D01*
X109480497Y-98306678D02*
X109837640Y-98306678D01*
X109837640Y-98306678D02*
X110051926Y-98378107D01*
X110051926Y-98378107D02*
X110194783Y-98520964D01*
X110194783Y-98520964D02*
X110266212Y-98663821D01*
X110266212Y-98663821D02*
X110337640Y-98949535D01*
X110337640Y-98949535D02*
X110337640Y-99163821D01*
X110337640Y-99163821D02*
X110266212Y-99449535D01*
X110266212Y-99449535D02*
X110194783Y-99592392D01*
X110194783Y-99592392D02*
X110051926Y-99735250D01*
X110051926Y-99735250D02*
X109837640Y-99806678D01*
X109837640Y-99806678D02*
X109480497Y-99806678D01*
X110980497Y-99806678D02*
X110980497Y-98306678D01*
X110980497Y-98306678D02*
X111480497Y-99378107D01*
X111480497Y-99378107D02*
X111980497Y-98306678D01*
X111980497Y-98306678D02*
X111980497Y-99806678D01*
X113194783Y-99020964D02*
X112694783Y-99020964D01*
X112694783Y-99806678D02*
X112694783Y-98306678D01*
X112694783Y-98306678D02*
X113409069Y-98306678D01*
X113980497Y-99020964D02*
X114480497Y-99020964D01*
X114694783Y-99806678D02*
X113980497Y-99806678D01*
X113980497Y-99806678D02*
X113980497Y-98306678D01*
X113980497Y-98306678D02*
X114694783Y-98306678D01*
X116409069Y-98449535D02*
X116480497Y-98378107D01*
X116480497Y-98378107D02*
X116623355Y-98306678D01*
X116623355Y-98306678D02*
X116980497Y-98306678D01*
X116980497Y-98306678D02*
X117123355Y-98378107D01*
X117123355Y-98378107D02*
X117194783Y-98449535D01*
X117194783Y-98449535D02*
X117266212Y-98592392D01*
X117266212Y-98592392D02*
X117266212Y-98735250D01*
X117266212Y-98735250D02*
X117194783Y-98949535D01*
X117194783Y-98949535D02*
X116337640Y-99806678D01*
X116337640Y-99806678D02*
X117266212Y-99806678D01*
X118194783Y-98306678D02*
X118337640Y-98306678D01*
X118337640Y-98306678D02*
X118480497Y-98378107D01*
X118480497Y-98378107D02*
X118551926Y-98449535D01*
X118551926Y-98449535D02*
X118623354Y-98592392D01*
X118623354Y-98592392D02*
X118694783Y-98878107D01*
X118694783Y-98878107D02*
X118694783Y-99235250D01*
X118694783Y-99235250D02*
X118623354Y-99520964D01*
X118623354Y-99520964D02*
X118551926Y-99663821D01*
X118551926Y-99663821D02*
X118480497Y-99735250D01*
X118480497Y-99735250D02*
X118337640Y-99806678D01*
X118337640Y-99806678D02*
X118194783Y-99806678D01*
X118194783Y-99806678D02*
X118051926Y-99735250D01*
X118051926Y-99735250D02*
X117980497Y-99663821D01*
X117980497Y-99663821D02*
X117909068Y-99520964D01*
X117909068Y-99520964D02*
X117837640Y-99235250D01*
X117837640Y-99235250D02*
X117837640Y-98878107D01*
X117837640Y-98878107D02*
X117909068Y-98592392D01*
X117909068Y-98592392D02*
X117980497Y-98449535D01*
X117980497Y-98449535D02*
X118051926Y-98378107D01*
X118051926Y-98378107D02*
X118194783Y-98306678D01*
X119266211Y-98449535D02*
X119337639Y-98378107D01*
X119337639Y-98378107D02*
X119480497Y-98306678D01*
X119480497Y-98306678D02*
X119837639Y-98306678D01*
X119837639Y-98306678D02*
X119980497Y-98378107D01*
X119980497Y-98378107D02*
X120051925Y-98449535D01*
X120051925Y-98449535D02*
X120123354Y-98592392D01*
X120123354Y-98592392D02*
X120123354Y-98735250D01*
X120123354Y-98735250D02*
X120051925Y-98949535D01*
X120051925Y-98949535D02*
X119194782Y-99806678D01*
X119194782Y-99806678D02*
X120123354Y-99806678D01*
X121480496Y-98306678D02*
X120766210Y-98306678D01*
X120766210Y-98306678D02*
X120694782Y-99020964D01*
X120694782Y-99020964D02*
X120766210Y-98949535D01*
X120766210Y-98949535D02*
X120909068Y-98878107D01*
X120909068Y-98878107D02*
X121266210Y-98878107D01*
X121266210Y-98878107D02*
X121409068Y-98949535D01*
X121409068Y-98949535D02*
X121480496Y-99020964D01*
X121480496Y-99020964D02*
X121551925Y-99163821D01*
X121551925Y-99163821D02*
X121551925Y-99520964D01*
X121551925Y-99520964D02*
X121480496Y-99663821D01*
X121480496Y-99663821D02*
X121409068Y-99735250D01*
X121409068Y-99735250D02*
X121266210Y-99806678D01*
X121266210Y-99806678D02*
X120909068Y-99806678D01*
X120909068Y-99806678D02*
X120766210Y-99735250D01*
X120766210Y-99735250D02*
X120694782Y-99663821D01*
X125337638Y-99806678D02*
X124837638Y-99092392D01*
X124480495Y-99806678D02*
X124480495Y-98306678D01*
X124480495Y-98306678D02*
X125051924Y-98306678D01*
X125051924Y-98306678D02*
X125194781Y-98378107D01*
X125194781Y-98378107D02*
X125266210Y-98449535D01*
X125266210Y-98449535D02*
X125337638Y-98592392D01*
X125337638Y-98592392D02*
X125337638Y-98806678D01*
X125337638Y-98806678D02*
X125266210Y-98949535D01*
X125266210Y-98949535D02*
X125194781Y-99020964D01*
X125194781Y-99020964D02*
X125051924Y-99092392D01*
X125051924Y-99092392D02*
X124480495Y-99092392D01*
X126551924Y-99735250D02*
X126409067Y-99806678D01*
X126409067Y-99806678D02*
X126123353Y-99806678D01*
X126123353Y-99806678D02*
X125980495Y-99735250D01*
X125980495Y-99735250D02*
X125909067Y-99592392D01*
X125909067Y-99592392D02*
X125909067Y-99020964D01*
X125909067Y-99020964D02*
X125980495Y-98878107D01*
X125980495Y-98878107D02*
X126123353Y-98806678D01*
X126123353Y-98806678D02*
X126409067Y-98806678D01*
X126409067Y-98806678D02*
X126551924Y-98878107D01*
X126551924Y-98878107D02*
X126623353Y-99020964D01*
X126623353Y-99020964D02*
X126623353Y-99163821D01*
X126623353Y-99163821D02*
X125909067Y-99306678D01*
X127123352Y-98806678D02*
X127480495Y-99806678D01*
X127480495Y-99806678D02*
X127837638Y-98806678D01*
X128409066Y-99663821D02*
X128480495Y-99735250D01*
X128480495Y-99735250D02*
X128409066Y-99806678D01*
X128409066Y-99806678D02*
X128337638Y-99735250D01*
X128337638Y-99735250D02*
X128409066Y-99663821D01*
X128409066Y-99663821D02*
X128409066Y-99806678D01*
X130266209Y-98806678D02*
X130266209Y-99806678D01*
X130266209Y-98949535D02*
X130337638Y-98878107D01*
X130337638Y-98878107D02*
X130480495Y-98806678D01*
X130480495Y-98806678D02*
X130694781Y-98806678D01*
X130694781Y-98806678D02*
X130837638Y-98878107D01*
X130837638Y-98878107D02*
X130909067Y-99020964D01*
X130909067Y-99020964D02*
X130909067Y-99806678D01*
X132694781Y-98235250D02*
X131409067Y-100163821D01*
X133837639Y-99735250D02*
X133694781Y-99806678D01*
X133694781Y-99806678D02*
X133409067Y-99806678D01*
X133409067Y-99806678D02*
X133266210Y-99735250D01*
X133266210Y-99735250D02*
X133194781Y-99663821D01*
X133194781Y-99663821D02*
X133123353Y-99520964D01*
X133123353Y-99520964D02*
X133123353Y-99092392D01*
X133123353Y-99092392D02*
X133194781Y-98949535D01*
X133194781Y-98949535D02*
X133266210Y-98878107D01*
X133266210Y-98878107D02*
X133409067Y-98806678D01*
X133409067Y-98806678D02*
X133694781Y-98806678D01*
X133694781Y-98806678D02*
X133837639Y-98878107D01*
D11*
X133936666Y-64124819D02*
X133936666Y-64839104D01*
X133936666Y-64839104D02*
X133889047Y-64981961D01*
X133889047Y-64981961D02*
X133793809Y-65077200D01*
X133793809Y-65077200D02*
X133650952Y-65124819D01*
X133650952Y-65124819D02*
X133555714Y-65124819D01*
X134889047Y-64124819D02*
X134412857Y-64124819D01*
X134412857Y-64124819D02*
X134365238Y-64601009D01*
X134365238Y-64601009D02*
X134412857Y-64553390D01*
X134412857Y-64553390D02*
X134508095Y-64505771D01*
X134508095Y-64505771D02*
X134746190Y-64505771D01*
X134746190Y-64505771D02*
X134841428Y-64553390D01*
X134841428Y-64553390D02*
X134889047Y-64601009D01*
X134889047Y-64601009D02*
X134936666Y-64696247D01*
X134936666Y-64696247D02*
X134936666Y-64934342D01*
X134936666Y-64934342D02*
X134889047Y-65029580D01*
X134889047Y-65029580D02*
X134841428Y-65077200D01*
X134841428Y-65077200D02*
X134746190Y-65124819D01*
X134746190Y-65124819D02*
X134508095Y-65124819D01*
X134508095Y-65124819D02*
X134412857Y-65077200D01*
X134412857Y-65077200D02*
X134365238Y-65029580D01*
X100281666Y-70724819D02*
X100281666Y-71439104D01*
X100281666Y-71439104D02*
X100234047Y-71581961D01*
X100234047Y-71581961D02*
X100138809Y-71677200D01*
X100138809Y-71677200D02*
X99995952Y-71724819D01*
X99995952Y-71724819D02*
X99900714Y-71724819D01*
X101186428Y-71058152D02*
X101186428Y-71724819D01*
X100948333Y-70677200D02*
X100710238Y-71391485D01*
X100710238Y-71391485D02*
X101329285Y-71391485D01*
X100281666Y-90724819D02*
X100281666Y-91439104D01*
X100281666Y-91439104D02*
X100234047Y-91581961D01*
X100234047Y-91581961D02*
X100138809Y-91677200D01*
X100138809Y-91677200D02*
X99995952Y-91724819D01*
X99995952Y-91724819D02*
X99900714Y-91724819D01*
X100662619Y-90724819D02*
X101281666Y-90724819D01*
X101281666Y-90724819D02*
X100948333Y-91105771D01*
X100948333Y-91105771D02*
X101091190Y-91105771D01*
X101091190Y-91105771D02*
X101186428Y-91153390D01*
X101186428Y-91153390D02*
X101234047Y-91201009D01*
X101234047Y-91201009D02*
X101281666Y-91296247D01*
X101281666Y-91296247D02*
X101281666Y-91534342D01*
X101281666Y-91534342D02*
X101234047Y-91629580D01*
X101234047Y-91629580D02*
X101186428Y-91677200D01*
X101186428Y-91677200D02*
X101091190Y-91724819D01*
X101091190Y-91724819D02*
X100805476Y-91724819D01*
X100805476Y-91724819D02*
X100710238Y-91677200D01*
X100710238Y-91677200D02*
X100662619Y-91629580D01*
X128184819Y-50948333D02*
X128899104Y-50948333D01*
X128899104Y-50948333D02*
X129041961Y-50995952D01*
X129041961Y-50995952D02*
X129137200Y-51091190D01*
X129137200Y-51091190D02*
X129184819Y-51234047D01*
X129184819Y-51234047D02*
X129184819Y-51329285D01*
X128280057Y-50519761D02*
X128232438Y-50472142D01*
X128232438Y-50472142D02*
X128184819Y-50376904D01*
X128184819Y-50376904D02*
X128184819Y-50138809D01*
X128184819Y-50138809D02*
X128232438Y-50043571D01*
X128232438Y-50043571D02*
X128280057Y-49995952D01*
X128280057Y-49995952D02*
X128375295Y-49948333D01*
X128375295Y-49948333D02*
X128470533Y-49948333D01*
X128470533Y-49948333D02*
X128613390Y-49995952D01*
X128613390Y-49995952D02*
X129184819Y-50567380D01*
X129184819Y-50567380D02*
X129184819Y-49948333D01*
X108184819Y-50948333D02*
X108899104Y-50948333D01*
X108899104Y-50948333D02*
X109041961Y-50995952D01*
X109041961Y-50995952D02*
X109137200Y-51091190D01*
X109137200Y-51091190D02*
X109184819Y-51234047D01*
X109184819Y-51234047D02*
X109184819Y-51329285D01*
X109184819Y-49948333D02*
X109184819Y-50519761D01*
X109184819Y-50234047D02*
X108184819Y-50234047D01*
X108184819Y-50234047D02*
X108327676Y-50329285D01*
X108327676Y-50329285D02*
X108422914Y-50424523D01*
X108422914Y-50424523D02*
X108470533Y-50519761D01*
X144911905Y-81454819D02*
X144911905Y-80454819D01*
X144911905Y-80454819D02*
X145150000Y-80454819D01*
X145150000Y-80454819D02*
X145292857Y-80502438D01*
X145292857Y-80502438D02*
X145388095Y-80597676D01*
X145388095Y-80597676D02*
X145435714Y-80692914D01*
X145435714Y-80692914D02*
X145483333Y-80883390D01*
X145483333Y-80883390D02*
X145483333Y-81026247D01*
X145483333Y-81026247D02*
X145435714Y-81216723D01*
X145435714Y-81216723D02*
X145388095Y-81311961D01*
X145388095Y-81311961D02*
X145292857Y-81407200D01*
X145292857Y-81407200D02*
X145150000Y-81454819D01*
X145150000Y-81454819D02*
X144911905Y-81454819D01*
X146340476Y-80788152D02*
X146340476Y-81454819D01*
X146102381Y-80407200D02*
X145864286Y-81121485D01*
X145864286Y-81121485D02*
X146483333Y-81121485D01*
X144561905Y-78454819D02*
X144561905Y-77454819D01*
X144561905Y-77454819D02*
X144800000Y-77454819D01*
X144800000Y-77454819D02*
X144942857Y-77502438D01*
X144942857Y-77502438D02*
X145038095Y-77597676D01*
X145038095Y-77597676D02*
X145085714Y-77692914D01*
X145085714Y-77692914D02*
X145133333Y-77883390D01*
X145133333Y-77883390D02*
X145133333Y-78026247D01*
X145133333Y-78026247D02*
X145085714Y-78216723D01*
X145085714Y-78216723D02*
X145038095Y-78311961D01*
X145038095Y-78311961D02*
X144942857Y-78407200D01*
X144942857Y-78407200D02*
X144800000Y-78454819D01*
X144800000Y-78454819D02*
X144561905Y-78454819D01*
X145466667Y-77454819D02*
X146085714Y-77454819D01*
X146085714Y-77454819D02*
X145752381Y-77835771D01*
X145752381Y-77835771D02*
X145895238Y-77835771D01*
X145895238Y-77835771D02*
X145990476Y-77883390D01*
X145990476Y-77883390D02*
X146038095Y-77931009D01*
X146038095Y-77931009D02*
X146085714Y-78026247D01*
X146085714Y-78026247D02*
X146085714Y-78264342D01*
X146085714Y-78264342D02*
X146038095Y-78359580D01*
X146038095Y-78359580D02*
X145990476Y-78407200D01*
X145990476Y-78407200D02*
X145895238Y-78454819D01*
X145895238Y-78454819D02*
X145609524Y-78454819D01*
X145609524Y-78454819D02*
X145514286Y-78407200D01*
X145514286Y-78407200D02*
X145466667Y-78359580D01*
X144561905Y-75454819D02*
X144561905Y-74454819D01*
X144561905Y-74454819D02*
X144800000Y-74454819D01*
X144800000Y-74454819D02*
X144942857Y-74502438D01*
X144942857Y-74502438D02*
X145038095Y-74597676D01*
X145038095Y-74597676D02*
X145085714Y-74692914D01*
X145085714Y-74692914D02*
X145133333Y-74883390D01*
X145133333Y-74883390D02*
X145133333Y-75026247D01*
X145133333Y-75026247D02*
X145085714Y-75216723D01*
X145085714Y-75216723D02*
X145038095Y-75311961D01*
X145038095Y-75311961D02*
X144942857Y-75407200D01*
X144942857Y-75407200D02*
X144800000Y-75454819D01*
X144800000Y-75454819D02*
X144561905Y-75454819D01*
X145514286Y-74550057D02*
X145561905Y-74502438D01*
X145561905Y-74502438D02*
X145657143Y-74454819D01*
X145657143Y-74454819D02*
X145895238Y-74454819D01*
X145895238Y-74454819D02*
X145990476Y-74502438D01*
X145990476Y-74502438D02*
X146038095Y-74550057D01*
X146038095Y-74550057D02*
X146085714Y-74645295D01*
X146085714Y-74645295D02*
X146085714Y-74740533D01*
X146085714Y-74740533D02*
X146038095Y-74883390D01*
X146038095Y-74883390D02*
X145466667Y-75454819D01*
X145466667Y-75454819D02*
X146085714Y-75454819D01*
X144911905Y-72454819D02*
X144911905Y-71454819D01*
X144911905Y-71454819D02*
X145150000Y-71454819D01*
X145150000Y-71454819D02*
X145292857Y-71502438D01*
X145292857Y-71502438D02*
X145388095Y-71597676D01*
X145388095Y-71597676D02*
X145435714Y-71692914D01*
X145435714Y-71692914D02*
X145483333Y-71883390D01*
X145483333Y-71883390D02*
X145483333Y-72026247D01*
X145483333Y-72026247D02*
X145435714Y-72216723D01*
X145435714Y-72216723D02*
X145388095Y-72311961D01*
X145388095Y-72311961D02*
X145292857Y-72407200D01*
X145292857Y-72407200D02*
X145150000Y-72454819D01*
X145150000Y-72454819D02*
X144911905Y-72454819D01*
X146435714Y-72454819D02*
X145864286Y-72454819D01*
X146150000Y-72454819D02*
X146150000Y-71454819D01*
X146150000Y-71454819D02*
X146054762Y-71597676D01*
X146054762Y-71597676D02*
X145959524Y-71692914D01*
X145959524Y-71692914D02*
X145864286Y-71740533D01*
D12*
%TO.C,J5*%
X131670000Y-65670000D02*
X133000000Y-65670000D01*
X131670000Y-67000000D02*
X131670000Y-65670000D01*
X131670000Y-68270000D02*
X131670000Y-81030000D01*
X131670000Y-68270000D02*
X134270000Y-68270000D01*
X131670000Y-81030000D02*
X136870000Y-81030000D01*
X134270000Y-65670000D02*
X136870000Y-65670000D01*
X134270000Y-68270000D02*
X134270000Y-65670000D01*
X136870000Y-65670000D02*
X136870000Y-81030000D01*
%TO.C,J4*%
X106270000Y-70270000D02*
X105000000Y-70270000D01*
X106270000Y-69000000D02*
X106270000Y-70270000D01*
X103957071Y-66840000D02*
X103560000Y-66840000D01*
X103957071Y-66080000D02*
X103560000Y-66080000D01*
X103957071Y-64300000D02*
X103560000Y-64300000D01*
X103957071Y-63540000D02*
X103560000Y-63540000D01*
X103957071Y-61760000D02*
X103560000Y-61760000D01*
X103957071Y-61000000D02*
X103560000Y-61000000D01*
X103890000Y-69380000D02*
X103560000Y-69380000D01*
X103890000Y-68620000D02*
X103560000Y-68620000D01*
X103560000Y-70330000D02*
X103560000Y-60050000D01*
X103560000Y-67730000D02*
X100900000Y-67730000D01*
X103560000Y-65190000D02*
X100900000Y-65190000D01*
X103560000Y-62650000D02*
X100900000Y-62650000D01*
X103560000Y-60050000D02*
X100900000Y-60050000D01*
X100900000Y-70330000D02*
X103560000Y-70330000D01*
X100900000Y-69380000D02*
X94900000Y-69380000D01*
X100900000Y-69320000D02*
X94900000Y-69320000D01*
X100900000Y-69200000D02*
X94900000Y-69200000D01*
X100900000Y-69080000D02*
X94900000Y-69080000D01*
X100900000Y-68960000D02*
X94900000Y-68960000D01*
X100900000Y-68840000D02*
X94900000Y-68840000D01*
X100900000Y-68720000D02*
X94900000Y-68720000D01*
X100900000Y-66840000D02*
X94900000Y-66840000D01*
X100900000Y-64300000D02*
X94900000Y-64300000D01*
X100900000Y-61760000D02*
X94900000Y-61760000D01*
X100900000Y-60050000D02*
X100900000Y-70330000D01*
X94900000Y-69380000D02*
X94900000Y-68620000D01*
X94900000Y-68620000D02*
X100900000Y-68620000D01*
X94900000Y-66840000D02*
X94900000Y-66080000D01*
X94900000Y-66080000D02*
X100900000Y-66080000D01*
X94900000Y-64300000D02*
X94900000Y-63540000D01*
X94900000Y-63540000D02*
X100900000Y-63540000D01*
X94900000Y-61760000D02*
X94900000Y-61000000D01*
X94900000Y-61000000D02*
X100900000Y-61000000D01*
%TO.C,J3*%
X106270000Y-90270000D02*
X105000000Y-90270000D01*
X106270000Y-89000000D02*
X106270000Y-90270000D01*
X103957071Y-86840000D02*
X103560000Y-86840000D01*
X103957071Y-86080000D02*
X103560000Y-86080000D01*
X103957071Y-84300000D02*
X103560000Y-84300000D01*
X103957071Y-83540000D02*
X103560000Y-83540000D01*
X103957071Y-81760000D02*
X103560000Y-81760000D01*
X103957071Y-81000000D02*
X103560000Y-81000000D01*
X103890000Y-89380000D02*
X103560000Y-89380000D01*
X103890000Y-88620000D02*
X103560000Y-88620000D01*
X103560000Y-90330000D02*
X103560000Y-80050000D01*
X103560000Y-87730000D02*
X100900000Y-87730000D01*
X103560000Y-85190000D02*
X100900000Y-85190000D01*
X103560000Y-82650000D02*
X100900000Y-82650000D01*
X103560000Y-80050000D02*
X100900000Y-80050000D01*
X100900000Y-90330000D02*
X103560000Y-90330000D01*
X100900000Y-89380000D02*
X94900000Y-89380000D01*
X100900000Y-89320000D02*
X94900000Y-89320000D01*
X100900000Y-89200000D02*
X94900000Y-89200000D01*
X100900000Y-89080000D02*
X94900000Y-89080000D01*
X100900000Y-88960000D02*
X94900000Y-88960000D01*
X100900000Y-88840000D02*
X94900000Y-88840000D01*
X100900000Y-88720000D02*
X94900000Y-88720000D01*
X100900000Y-86840000D02*
X94900000Y-86840000D01*
X100900000Y-84300000D02*
X94900000Y-84300000D01*
X100900000Y-81760000D02*
X94900000Y-81760000D01*
X100900000Y-80050000D02*
X100900000Y-90330000D01*
X94900000Y-89380000D02*
X94900000Y-88620000D01*
X94900000Y-88620000D02*
X100900000Y-88620000D01*
X94900000Y-86840000D02*
X94900000Y-86080000D01*
X94900000Y-86080000D02*
X100900000Y-86080000D01*
X94900000Y-84300000D02*
X94900000Y-83540000D01*
X94900000Y-83540000D02*
X100900000Y-83540000D01*
X94900000Y-81760000D02*
X94900000Y-81000000D01*
X94900000Y-81000000D02*
X100900000Y-81000000D01*
%TO.C,J2*%
X129730000Y-56270000D02*
X129730000Y-55000000D01*
X131000000Y-56270000D02*
X129730000Y-56270000D01*
X133160000Y-53957071D02*
X133160000Y-53560000D01*
X133920000Y-53957071D02*
X133920000Y-53560000D01*
X135700000Y-53957071D02*
X135700000Y-53560000D01*
X136460000Y-53957071D02*
X136460000Y-53560000D01*
X138240000Y-53957071D02*
X138240000Y-53560000D01*
X139000000Y-53957071D02*
X139000000Y-53560000D01*
X130620000Y-53890000D02*
X130620000Y-53560000D01*
X131380000Y-53890000D02*
X131380000Y-53560000D01*
X129670000Y-53560000D02*
X139950000Y-53560000D01*
X132270000Y-53560000D02*
X132270000Y-50900000D01*
X134810000Y-53560000D02*
X134810000Y-50900000D01*
X137350000Y-53560000D02*
X137350000Y-50900000D01*
X139950000Y-53560000D02*
X139950000Y-50900000D01*
X129670000Y-50900000D02*
X129670000Y-53560000D01*
X130620000Y-50900000D02*
X130620000Y-44900000D01*
X130680000Y-50900000D02*
X130680000Y-44900000D01*
X130800000Y-50900000D02*
X130800000Y-44900000D01*
X130920000Y-50900000D02*
X130920000Y-44900000D01*
X131040000Y-50900000D02*
X131040000Y-44900000D01*
X131160000Y-50900000D02*
X131160000Y-44900000D01*
X131280000Y-50900000D02*
X131280000Y-44900000D01*
X133160000Y-50900000D02*
X133160000Y-44900000D01*
X135700000Y-50900000D02*
X135700000Y-44900000D01*
X138240000Y-50900000D02*
X138240000Y-44900000D01*
X139950000Y-50900000D02*
X129670000Y-50900000D01*
X130620000Y-44900000D02*
X131380000Y-44900000D01*
X131380000Y-44900000D02*
X131380000Y-50900000D01*
X133160000Y-44900000D02*
X133920000Y-44900000D01*
X133920000Y-44900000D02*
X133920000Y-50900000D01*
X135700000Y-44900000D02*
X136460000Y-44900000D01*
X136460000Y-44900000D02*
X136460000Y-50900000D01*
X138240000Y-44900000D02*
X139000000Y-44900000D01*
X139000000Y-44900000D02*
X139000000Y-50900000D01*
%TO.C,J1*%
X109730000Y-56270000D02*
X109730000Y-55000000D01*
X111000000Y-56270000D02*
X109730000Y-56270000D01*
X113160000Y-53957071D02*
X113160000Y-53560000D01*
X113920000Y-53957071D02*
X113920000Y-53560000D01*
X115700000Y-53957071D02*
X115700000Y-53560000D01*
X116460000Y-53957071D02*
X116460000Y-53560000D01*
X118240000Y-53957071D02*
X118240000Y-53560000D01*
X119000000Y-53957071D02*
X119000000Y-53560000D01*
X110620000Y-53890000D02*
X110620000Y-53560000D01*
X111380000Y-53890000D02*
X111380000Y-53560000D01*
X109670000Y-53560000D02*
X119950000Y-53560000D01*
X112270000Y-53560000D02*
X112270000Y-50900000D01*
X114810000Y-53560000D02*
X114810000Y-50900000D01*
X117350000Y-53560000D02*
X117350000Y-50900000D01*
X119950000Y-53560000D02*
X119950000Y-50900000D01*
X109670000Y-50900000D02*
X109670000Y-53560000D01*
X110620000Y-50900000D02*
X110620000Y-44900000D01*
X110680000Y-50900000D02*
X110680000Y-44900000D01*
X110800000Y-50900000D02*
X110800000Y-44900000D01*
X110920000Y-50900000D02*
X110920000Y-44900000D01*
X111040000Y-50900000D02*
X111040000Y-44900000D01*
X111160000Y-50900000D02*
X111160000Y-44900000D01*
X111280000Y-50900000D02*
X111280000Y-44900000D01*
X113160000Y-50900000D02*
X113160000Y-44900000D01*
X115700000Y-50900000D02*
X115700000Y-44900000D01*
X118240000Y-50900000D02*
X118240000Y-44900000D01*
X119950000Y-50900000D02*
X109670000Y-50900000D01*
X110620000Y-44900000D02*
X111380000Y-44900000D01*
X111380000Y-44900000D02*
X111380000Y-50900000D01*
X113160000Y-44900000D02*
X113920000Y-44900000D01*
X113920000Y-44900000D02*
X113920000Y-50900000D01*
X115700000Y-44900000D02*
X116460000Y-44900000D01*
X116460000Y-44900000D02*
X116460000Y-50900000D01*
X118240000Y-44900000D02*
X119000000Y-44900000D01*
X119000000Y-44900000D02*
X119000000Y-50900000D01*
%TO.C,D4*%
X144010000Y-82000000D02*
X144010000Y-80000000D01*
X144010000Y-82000000D02*
X140000000Y-82000000D01*
X144010000Y-80000000D02*
X140000000Y-80000000D01*
%TO.C,D3*%
X144010000Y-79000000D02*
X144010000Y-77000000D01*
X144010000Y-79000000D02*
X140000000Y-79000000D01*
X144010000Y-77000000D02*
X140000000Y-77000000D01*
%TO.C,D2*%
X144010000Y-76000000D02*
X144010000Y-74000000D01*
X144010000Y-76000000D02*
X140000000Y-76000000D01*
X144010000Y-74000000D02*
X140000000Y-74000000D01*
%TO.C,D1*%
X144010000Y-73000000D02*
X144010000Y-71000000D01*
X144010000Y-73000000D02*
X140000000Y-73000000D01*
X144010000Y-71000000D02*
X140000000Y-71000000D01*
%TD*%
M02*
