%TF.GenerationSoftware,KiCad,Pcbnew,9.0.0*%
%TF.CreationDate,2025-03-23T16:41:57-07:00*%
%TF.ProjectId,Lights,4c696768-7473-42e6-9b69-6361645f7063,n/c*%
%TF.SameCoordinates,Original*%
%TF.FileFunction,Copper,L1,Top*%
%TF.FilePolarity,Positive*%
%FSLAX46Y46*%
G04 Gerber Fmt 4.6, Leading zero omitted, Abs format (unit mm)*
G04 Created by KiCad (PCBNEW 9.0.0) date 2025-03-23 16:41:57*
%MOMM*%
%LPD*%
G01*
G04 APERTURE LIST*
G04 Aperture macros list*
%AMRoundRect*
0 Rectangle with rounded corners*
0 $1 Rounding radius*
0 $2 $3 $4 $5 $6 $7 $8 $9 X,Y pos of 4 corners*
0 Add a 4 corners polygon primitive as box body*
4,1,4,$2,$3,$4,$5,$6,$7,$8,$9,$2,$3,0*
0 Add four circle primitives for the rounded corners*
1,1,$1+$1,$2,$3*
1,1,$1+$1,$4,$5*
1,1,$1+$1,$6,$7*
1,1,$1+$1,$8,$9*
0 Add four rect primitives between the rounded corners*
20,1,$1+$1,$2,$3,$4,$5,0*
20,1,$1+$1,$4,$5,$6,$7,0*
20,1,$1+$1,$6,$7,$8,$9,0*
20,1,$1+$1,$8,$9,$2,$3,0*%
G04 Aperture macros list end*
%TA.AperFunction,ComponentPad*%
%ADD10C,1.600000*%
%TD*%
%TA.AperFunction,ComponentPad*%
%ADD11O,1.600000X1.600000*%
%TD*%
%TA.AperFunction,SMDPad,CuDef*%
%ADD12RoundRect,0.250000X0.350000X0.450000X-0.350000X0.450000X-0.350000X-0.450000X0.350000X-0.450000X0*%
%TD*%
%TA.AperFunction,ComponentPad*%
%ADD13R,1.050000X1.500000*%
%TD*%
%TA.AperFunction,ComponentPad*%
%ADD14O,1.050000X1.500000*%
%TD*%
%TA.AperFunction,ComponentPad*%
%ADD15RoundRect,0.250001X-0.949999X0.949999X-0.949999X-0.949999X0.949999X-0.949999X0.949999X0.949999X0*%
%TD*%
%TA.AperFunction,ComponentPad*%
%ADD16C,2.400000*%
%TD*%
%TA.AperFunction,ComponentPad*%
%ADD17R,1.700000X1.700000*%
%TD*%
%TA.AperFunction,ComponentPad*%
%ADD18O,1.700000X1.700000*%
%TD*%
%TA.AperFunction,SMDPad,CuDef*%
%ADD19RoundRect,0.250000X-1.500000X-0.650000X1.500000X-0.650000X1.500000X0.650000X-1.500000X0.650000X0*%
%TD*%
%TA.AperFunction,ViaPad*%
%ADD20C,0.600000*%
%TD*%
%TA.AperFunction,Conductor*%
%ADD21C,0.300000*%
%TD*%
%TA.AperFunction,Conductor*%
%ADD22C,1.500000*%
%TD*%
%TA.AperFunction,Conductor*%
%ADD23C,1.000000*%
%TD*%
%TA.AperFunction,Conductor*%
%ADD24C,0.600000*%
%TD*%
G04 APERTURE END LIST*
D10*
%TO.P,R24,1*%
%TO.N,+12V*%
X179920000Y-80000000D03*
D11*
%TO.P,R24,2*%
%TO.N,Net-(J2-Pin_15)*%
X190080000Y-80000000D03*
%TD*%
D10*
%TO.P,R23,1*%
%TO.N,+12V*%
X179920000Y-75000000D03*
D11*
%TO.P,R23,2*%
%TO.N,Net-(J2-Pin_13)*%
X190080000Y-75000000D03*
%TD*%
D10*
%TO.P,R22,1*%
%TO.N,+12V*%
X179920000Y-70000000D03*
D11*
%TO.P,R22,2*%
%TO.N,Net-(J2-Pin_11)*%
X190080000Y-70000000D03*
%TD*%
D10*
%TO.P,R21,1*%
%TO.N,+12V*%
X179920000Y-65000000D03*
D11*
%TO.P,R21,2*%
%TO.N,Net-(J2-Pin_9)*%
X190080000Y-65000000D03*
%TD*%
D10*
%TO.P,R20,1*%
%TO.N,+12V*%
X179920000Y-60000000D03*
D11*
%TO.P,R20,2*%
%TO.N,Net-(J2-Pin_7)*%
X190080000Y-60000000D03*
%TD*%
D10*
%TO.P,R19,1*%
%TO.N,+12V*%
X179920000Y-55000000D03*
D11*
%TO.P,R19,2*%
%TO.N,Net-(J2-Pin_5)*%
X190080000Y-55000000D03*
%TD*%
D10*
%TO.P,R18,1*%
%TO.N,+12V*%
X179920000Y-50000000D03*
D11*
%TO.P,R18,2*%
%TO.N,Net-(J2-Pin_3)*%
X190080000Y-50000000D03*
%TD*%
D10*
%TO.P,R17,1*%
%TO.N,+12V*%
X179920000Y-45000000D03*
D11*
%TO.P,R17,2*%
%TO.N,Net-(J2-Pin_1)*%
X190080000Y-45000000D03*
%TD*%
D12*
%TO.P,R16,1*%
%TO.N,Net-(Q8-B)*%
X162000000Y-76000000D03*
%TO.P,R16,2*%
%TO.N,GND*%
X160000000Y-76000000D03*
%TD*%
%TO.P,R15,1*%
%TO.N,Net-(Q7-B)*%
X162000000Y-74000000D03*
%TO.P,R15,2*%
%TO.N,GND*%
X160000000Y-74000000D03*
%TD*%
%TO.P,R14,1*%
%TO.N,Net-(Q6-B)*%
X162000000Y-72000000D03*
%TO.P,R14,2*%
%TO.N,GND*%
X160000000Y-72000000D03*
%TD*%
%TO.P,R13,1*%
%TO.N,Net-(Q5-B)*%
X162000000Y-70000000D03*
%TO.P,R13,2*%
%TO.N,GND*%
X160000000Y-70000000D03*
%TD*%
%TO.P,R12,1*%
%TO.N,Net-(Q4-B)*%
X162000000Y-68000000D03*
%TO.P,R12,2*%
%TO.N,GND*%
X160000000Y-68000000D03*
%TD*%
%TO.P,R11,1*%
%TO.N,Net-(Q3-B)*%
X162000000Y-66000000D03*
%TO.P,R11,2*%
%TO.N,GND*%
X160000000Y-66000000D03*
%TD*%
%TO.P,R10,1*%
%TO.N,Net-(Q2-B)*%
X162000000Y-64000000D03*
%TO.P,R10,2*%
%TO.N,GND*%
X160000000Y-64000000D03*
%TD*%
%TO.P,R9,1*%
%TO.N,Net-(Q1-B)*%
X162000000Y-62000000D03*
%TO.P,R9,2*%
%TO.N,GND*%
X160000000Y-62000000D03*
%TD*%
%TO.P,R8,1*%
%TO.N,Net-(J1-Pin_12)*%
X166000000Y-76000000D03*
%TO.P,R8,2*%
%TO.N,Net-(Q8-B)*%
X164000000Y-76000000D03*
%TD*%
%TO.P,R7,1*%
%TO.N,Net-(J1-Pin_11)*%
X166000000Y-74000000D03*
%TO.P,R7,2*%
%TO.N,Net-(Q7-B)*%
X164000000Y-74000000D03*
%TD*%
%TO.P,R6,1*%
%TO.N,Net-(J1-Pin_10)*%
X166000000Y-72000000D03*
%TO.P,R6,2*%
%TO.N,Net-(Q6-B)*%
X164000000Y-72000000D03*
%TD*%
%TO.P,R5,1*%
%TO.N,Net-(J1-Pin_9)*%
X166000000Y-70000000D03*
%TO.P,R5,2*%
%TO.N,Net-(Q5-B)*%
X164000000Y-70000000D03*
%TD*%
%TO.P,R4,1*%
%TO.N,Net-(J1-Pin_8)*%
X166000000Y-68000000D03*
%TO.P,R4,2*%
%TO.N,Net-(Q4-B)*%
X164000000Y-68000000D03*
%TD*%
%TO.P,R3,1*%
%TO.N,Net-(J1-Pin_7)*%
X166000000Y-66000000D03*
%TO.P,R3,2*%
%TO.N,Net-(Q3-B)*%
X164000000Y-66000000D03*
%TD*%
%TO.P,R2,1*%
%TO.N,Net-(J1-Pin_6)*%
X166000000Y-64000000D03*
%TO.P,R2,2*%
%TO.N,Net-(Q2-B)*%
X164000000Y-64000000D03*
%TD*%
%TO.P,R1,1*%
%TO.N,Net-(J1-Pin_5)*%
X166000000Y-62000000D03*
%TO.P,R1,2*%
%TO.N,Net-(Q1-B)*%
X164000000Y-62000000D03*
%TD*%
D13*
%TO.P,Q8,1,E*%
%TO.N,GND*%
X193460000Y-83000000D03*
D14*
%TO.P,Q8,2,B*%
%TO.N,Net-(Q8-B)*%
X194730000Y-83000000D03*
%TO.P,Q8,3,C*%
%TO.N,Net-(J2-Pin_16)*%
X196000000Y-83000000D03*
%TD*%
D13*
%TO.P,Q7,1,E*%
%TO.N,GND*%
X193460000Y-78000000D03*
D14*
%TO.P,Q7,2,B*%
%TO.N,Net-(Q7-B)*%
X194730000Y-78000000D03*
%TO.P,Q7,3,C*%
%TO.N,Net-(J2-Pin_14)*%
X196000000Y-78000000D03*
%TD*%
D13*
%TO.P,Q6,1,E*%
%TO.N,GND*%
X193460000Y-73000000D03*
D14*
%TO.P,Q6,2,B*%
%TO.N,Net-(Q6-B)*%
X194730000Y-73000000D03*
%TO.P,Q6,3,C*%
%TO.N,Net-(J2-Pin_12)*%
X196000000Y-73000000D03*
%TD*%
D13*
%TO.P,Q5,1,E*%
%TO.N,GND*%
X193460000Y-68000000D03*
D14*
%TO.P,Q5,2,B*%
%TO.N,Net-(Q5-B)*%
X194730000Y-68000000D03*
%TO.P,Q5,3,C*%
%TO.N,Net-(J2-Pin_10)*%
X196000000Y-68000000D03*
%TD*%
D13*
%TO.P,Q4,1,E*%
%TO.N,GND*%
X193460000Y-63000000D03*
D14*
%TO.P,Q4,2,B*%
%TO.N,Net-(Q4-B)*%
X194730000Y-63000000D03*
%TO.P,Q4,3,C*%
%TO.N,Net-(J2-Pin_8)*%
X196000000Y-63000000D03*
%TD*%
D13*
%TO.P,Q3,1,E*%
%TO.N,GND*%
X193460000Y-58000000D03*
D14*
%TO.P,Q3,2,B*%
%TO.N,Net-(Q3-B)*%
X194730000Y-58000000D03*
%TO.P,Q3,3,C*%
%TO.N,Net-(J2-Pin_6)*%
X196000000Y-58000000D03*
%TD*%
D13*
%TO.P,Q2,1,E*%
%TO.N,GND*%
X193460000Y-53000000D03*
D14*
%TO.P,Q2,2,B*%
%TO.N,Net-(Q2-B)*%
X194730000Y-53000000D03*
%TO.P,Q2,3,C*%
%TO.N,Net-(J2-Pin_4)*%
X196000000Y-53000000D03*
%TD*%
D13*
%TO.P,Q1,1,E*%
%TO.N,GND*%
X193460000Y-48000000D03*
D14*
%TO.P,Q1,2,B*%
%TO.N,Net-(Q1-B)*%
X194730000Y-48000000D03*
%TO.P,Q1,3,C*%
%TO.N,Net-(J2-Pin_2)*%
X196000000Y-48000000D03*
%TD*%
D15*
%TO.P,J2,1,Pin_1*%
%TO.N,Net-(J2-Pin_1)*%
X205000000Y-38500000D03*
D16*
%TO.P,J2,2,Pin_2*%
%TO.N,Net-(J2-Pin_2)*%
X205000000Y-42000000D03*
%TO.P,J2,3,Pin_3*%
%TO.N,Net-(J2-Pin_3)*%
X205000000Y-45500000D03*
%TO.P,J2,4,Pin_4*%
%TO.N,Net-(J2-Pin_4)*%
X205000000Y-49000000D03*
%TO.P,J2,5,Pin_5*%
%TO.N,Net-(J2-Pin_5)*%
X205000000Y-52500000D03*
%TO.P,J2,6,Pin_6*%
%TO.N,Net-(J2-Pin_6)*%
X205000000Y-56000000D03*
%TO.P,J2,7,Pin_7*%
%TO.N,Net-(J2-Pin_7)*%
X205000000Y-59500000D03*
%TO.P,J2,8,Pin_8*%
%TO.N,Net-(J2-Pin_8)*%
X205000000Y-63000000D03*
%TO.P,J2,9,Pin_9*%
%TO.N,Net-(J2-Pin_9)*%
X205000000Y-66500000D03*
%TO.P,J2,10,Pin_10*%
%TO.N,Net-(J2-Pin_10)*%
X205000000Y-70000000D03*
%TO.P,J2,11,Pin_11*%
%TO.N,Net-(J2-Pin_11)*%
X205000000Y-73500000D03*
%TO.P,J2,12,Pin_12*%
%TO.N,Net-(J2-Pin_12)*%
X205000000Y-77000000D03*
%TO.P,J2,13,Pin_13*%
%TO.N,Net-(J2-Pin_13)*%
X205000000Y-80500000D03*
%TO.P,J2,14,Pin_14*%
%TO.N,Net-(J2-Pin_14)*%
X205000000Y-84000000D03*
%TO.P,J2,15,Pin_15*%
%TO.N,Net-(J2-Pin_15)*%
X205000000Y-87500000D03*
%TO.P,J2,16,Pin_16*%
%TO.N,Net-(J2-Pin_16)*%
X205000000Y-91000000D03*
%TD*%
D17*
%TO.P,J1,1,Pin_1*%
%TO.N,Net-(D1-A)*%
X173000000Y-57000000D03*
D18*
%TO.P,J1,2,Pin_2*%
X175540000Y-57000000D03*
%TO.P,J1,3,Pin_3*%
%TO.N,GND*%
X173000000Y-59540000D03*
%TO.P,J1,4,Pin_4*%
X175540000Y-59540000D03*
%TO.P,J1,5,Pin_5*%
%TO.N,Net-(J1-Pin_5)*%
X173000000Y-62080000D03*
%TO.P,J1,6,Pin_6*%
%TO.N,Net-(J1-Pin_6)*%
X175540000Y-62080000D03*
%TO.P,J1,7,Pin_7*%
%TO.N,Net-(J1-Pin_7)*%
X173000000Y-64620000D03*
%TO.P,J1,8,Pin_8*%
%TO.N,Net-(J1-Pin_8)*%
X175540000Y-64620000D03*
%TO.P,J1,9,Pin_9*%
%TO.N,Net-(J1-Pin_9)*%
X173000000Y-67160000D03*
%TO.P,J1,10,Pin_10*%
%TO.N,Net-(J1-Pin_10)*%
X175540000Y-67160000D03*
%TO.P,J1,11,Pin_11*%
%TO.N,Net-(J1-Pin_11)*%
X173000000Y-69700000D03*
%TO.P,J1,12,Pin_12*%
%TO.N,Net-(J1-Pin_12)*%
X175540000Y-69700000D03*
%TD*%
D19*
%TO.P,D1,1,K*%
%TO.N,+12V*%
X163500000Y-57000000D03*
%TO.P,D1,2,A*%
%TO.N,Net-(D1-A)*%
X168500000Y-57000000D03*
%TD*%
D20*
%TO.N,Net-(Q8-B)*%
X163000000Y-76000000D03*
X161000000Y-87000000D03*
%TO.N,Net-(Q7-B)*%
X163000000Y-74000000D03*
X162000000Y-86000000D03*
%TO.N,Net-(Q6-B)*%
X163000000Y-85000000D03*
X163000000Y-72000000D03*
%TO.N,Net-(Q5-B)*%
X164000000Y-84000000D03*
X163000000Y-70000000D03*
%TO.N,Net-(Q4-B)*%
X165000000Y-80000000D03*
X163000000Y-68000000D03*
%TO.N,Net-(Q3-B)*%
X163000000Y-66000000D03*
X157000000Y-56000000D03*
%TO.N,Net-(Q2-B)*%
X160000000Y-53000000D03*
X163000000Y-64000000D03*
%TO.N,Net-(Q1-B)*%
X159000000Y-55000000D03*
X163000000Y-62000000D03*
%TD*%
D21*
%TO.N,Net-(Q3-B)*%
X176000000Y-54000000D02*
X161000000Y-54000000D01*
X193780000Y-56000000D02*
X192000000Y-56000000D01*
X159000000Y-56000000D02*
X157000000Y-56000000D01*
D22*
%TO.N,GND*%
X175540000Y-59540000D02*
X176460000Y-59540000D01*
D21*
%TO.N,Net-(Q3-B)*%
X194730000Y-56950000D02*
X193780000Y-56000000D01*
D22*
%TO.N,GND*%
X178000000Y-58000000D02*
X193254000Y-58000000D01*
D21*
%TO.N,Net-(Q3-B)*%
X192000000Y-56000000D02*
X191100000Y-56900000D01*
D22*
%TO.N,GND*%
X176460000Y-59540000D02*
X178000000Y-58000000D01*
D21*
%TO.N,Net-(Q3-B)*%
X194730000Y-58000000D02*
X194730000Y-56950000D01*
X191100000Y-56900000D02*
X178900000Y-56900000D01*
X161000000Y-54000000D02*
X159000000Y-56000000D01*
X178900000Y-56900000D02*
X176000000Y-54000000D01*
%TO.N,Net-(Q8-B)*%
X193849000Y-81151000D02*
X187849000Y-81151000D01*
X194000000Y-81000000D02*
X193849000Y-81151000D01*
X163000000Y-76000000D02*
X164000000Y-76000000D01*
X182000000Y-87000000D02*
X161000000Y-87000000D01*
X194730000Y-81730000D02*
X194000000Y-81000000D01*
X187849000Y-81151000D02*
X182000000Y-87000000D01*
X194730000Y-83000000D02*
X194730000Y-81730000D01*
%TO.N,Net-(Q7-B)*%
X185000000Y-83000000D02*
X182000000Y-86000000D01*
X182000000Y-86000000D02*
X162000000Y-86000000D01*
X194000000Y-76000000D02*
X192000000Y-76000000D01*
X162000000Y-74000000D02*
X163000000Y-74000000D01*
X194730000Y-78000000D02*
X194730000Y-76730000D01*
X185000000Y-78000000D02*
X185000000Y-83000000D01*
X186000000Y-77000000D02*
X185000000Y-78000000D01*
X194730000Y-76730000D02*
X194000000Y-76000000D01*
X192000000Y-76000000D02*
X191000000Y-77000000D01*
X191000000Y-77000000D02*
X186000000Y-77000000D01*
%TO.N,Net-(Q6-B)*%
X193849000Y-71151000D02*
X184849000Y-71151000D01*
X194730000Y-73000000D02*
X194730000Y-71730000D01*
X184849000Y-71151000D02*
X184000000Y-72000000D01*
X194000000Y-71000000D02*
X193849000Y-71151000D01*
X182000000Y-85000000D02*
X163000000Y-85000000D01*
X184000000Y-72000000D02*
X184000000Y-83000000D01*
X194730000Y-71730000D02*
X194000000Y-71000000D01*
X184000000Y-83000000D02*
X182000000Y-85000000D01*
X163000000Y-72000000D02*
X164000000Y-72000000D01*
%TO.N,Net-(Q5-B)*%
X184000000Y-68000000D02*
X183000000Y-69000000D01*
X183000000Y-83000000D02*
X182000000Y-84000000D01*
X194730000Y-67293000D02*
X194336000Y-66899000D01*
X162000000Y-70000000D02*
X163000000Y-70000000D01*
X185000000Y-67000000D02*
X184000000Y-68000000D01*
X191000000Y-67000000D02*
X185000000Y-67000000D01*
X194336000Y-66899000D02*
X191101000Y-66899000D01*
X183000000Y-69000000D02*
X183000000Y-83000000D01*
X191101000Y-66899000D02*
X191000000Y-67000000D01*
X194730000Y-68000000D02*
X194730000Y-67293000D01*
X182000000Y-84000000D02*
X164000000Y-84000000D01*
%TO.N,Net-(Q4-B)*%
X168000000Y-83000000D02*
X165000000Y-80000000D01*
X182000000Y-62000000D02*
X182000000Y-82000000D01*
X192000000Y-61000000D02*
X191000000Y-62000000D01*
X194730000Y-63000000D02*
X194730000Y-62293000D01*
X194730000Y-62293000D02*
X193437000Y-61000000D01*
X191000000Y-62000000D02*
X182000000Y-62000000D01*
X182000000Y-82000000D02*
X181000000Y-83000000D01*
X163000000Y-68000000D02*
X164000000Y-68000000D01*
X181000000Y-83000000D02*
X168000000Y-83000000D01*
X193437000Y-61000000D02*
X192000000Y-61000000D01*
%TO.N,Net-(Q3-B)*%
X163000000Y-66000000D02*
X164000000Y-66000000D01*
%TO.N,Net-(Q2-B)*%
X194730000Y-53000000D02*
X194730000Y-51950000D01*
X192000000Y-51000000D02*
X191000000Y-52000000D01*
X191000000Y-52000000D02*
X190000000Y-53000000D01*
X163000000Y-64000000D02*
X164000000Y-64000000D01*
X194730000Y-51950000D02*
X193780000Y-51000000D01*
X193780000Y-51000000D02*
X192000000Y-51000000D01*
X190000000Y-53000000D02*
X160000000Y-53000000D01*
%TO.N,Net-(Q1-B)*%
X194730000Y-48000000D02*
X194730000Y-46950000D01*
X161000000Y-47000000D02*
X159000000Y-49000000D01*
X194730000Y-46950000D02*
X193780000Y-46000000D01*
X193780000Y-46000000D02*
X191000000Y-46000000D01*
X191000000Y-46000000D02*
X190000000Y-47000000D01*
X190000000Y-47000000D02*
X161000000Y-47000000D01*
X162000000Y-62000000D02*
X163000000Y-62000000D01*
X159000000Y-49000000D02*
X159000000Y-55000000D01*
D23*
%TO.N,GND*%
X160000000Y-62000000D02*
X160000000Y-61000000D01*
X161460000Y-59540000D02*
X173000000Y-59540000D01*
X160000000Y-61000000D02*
X161460000Y-59540000D01*
D22*
X173000000Y-59540000D02*
X175540000Y-59540000D01*
%TO.N,Net-(D1-A)*%
X173000000Y-57000000D02*
X168500000Y-57000000D01*
X173000000Y-57000000D02*
X175540000Y-57000000D01*
D21*
%TO.N,GND*%
X160000000Y-64000000D02*
X160000000Y-62000000D01*
X160000000Y-66000000D02*
X160000000Y-64000000D01*
X160000000Y-68000000D02*
X160000000Y-66000000D01*
X160000000Y-70000000D02*
X160000000Y-68000000D01*
X160000000Y-72000000D02*
X160000000Y-70000000D01*
X160000000Y-74000000D02*
X160000000Y-72000000D01*
X160000000Y-76000000D02*
X160000000Y-74000000D01*
%TO.N,Net-(Q8-B)*%
X162000000Y-76000000D02*
X163000000Y-76000000D01*
%TO.N,Net-(Q7-B)*%
X163000000Y-74000000D02*
X164000000Y-74000000D01*
%TO.N,Net-(Q6-B)*%
X162000000Y-72000000D02*
X163000000Y-72000000D01*
%TO.N,Net-(Q5-B)*%
X163000000Y-70000000D02*
X164000000Y-70000000D01*
%TO.N,Net-(Q4-B)*%
X162000000Y-68000000D02*
X163000000Y-68000000D01*
%TO.N,Net-(Q3-B)*%
X162000000Y-66000000D02*
X163000000Y-66000000D01*
%TO.N,Net-(Q2-B)*%
X162000000Y-64000000D02*
X163000000Y-64000000D01*
%TO.N,Net-(Q1-B)*%
X163000000Y-62000000D02*
X164000000Y-62000000D01*
%TO.N,Net-(J1-Pin_12)*%
X166000000Y-76000000D02*
X169240000Y-76000000D01*
X169240000Y-76000000D02*
X175540000Y-69700000D01*
%TO.N,Net-(J1-Pin_11)*%
X166000000Y-74000000D02*
X168700000Y-74000000D01*
X168700000Y-74000000D02*
X173000000Y-69700000D01*
%TO.N,Net-(J1-Pin_10)*%
X166000000Y-72000000D02*
X169000000Y-72000000D01*
X169000000Y-72000000D02*
X172639000Y-68361000D01*
X174339000Y-68361000D02*
X175540000Y-67160000D01*
X172639000Y-68361000D02*
X174339000Y-68361000D01*
%TO.N,Net-(J1-Pin_9)*%
X166000000Y-70000000D02*
X170160000Y-70000000D01*
X170160000Y-70000000D02*
X173000000Y-67160000D01*
%TO.N,Net-(J1-Pin_8)*%
X166000000Y-68000000D02*
X170461529Y-68000000D01*
X170461529Y-68000000D02*
X172502529Y-65959000D01*
X172502529Y-65959000D02*
X174201000Y-65959000D01*
X174201000Y-65959000D02*
X175540000Y-64620000D01*
%TO.N,Net-(J1-Pin_7)*%
X166000000Y-66000000D02*
X171620000Y-66000000D01*
X171620000Y-66000000D02*
X173000000Y-64620000D01*
%TO.N,Net-(J1-Pin_6)*%
X166000000Y-64000000D02*
X166581000Y-63419000D01*
X166581000Y-63419000D02*
X174201000Y-63419000D01*
X174201000Y-63419000D02*
X175540000Y-62080000D01*
%TO.N,Net-(J1-Pin_5)*%
X166000000Y-62000000D02*
X167000000Y-62000000D01*
X167000000Y-62000000D02*
X167080000Y-62080000D01*
X167080000Y-62080000D02*
X173000000Y-62080000D01*
D24*
%TO.N,Net-(J2-Pin_16)*%
X196000000Y-83000000D02*
X202000000Y-89000000D01*
X202000000Y-89000000D02*
X202000000Y-90000000D01*
X202000000Y-90000000D02*
X203000000Y-91000000D01*
X203000000Y-91000000D02*
X205000000Y-91000000D01*
%TO.N,Net-(J2-Pin_15)*%
X190080000Y-80000000D02*
X198000000Y-80000000D01*
X198000000Y-80000000D02*
X200000000Y-82000000D01*
X200000000Y-82500000D02*
X205000000Y-87500000D01*
X200000000Y-82000000D02*
X200000000Y-82500000D01*
%TO.N,Net-(J2-Pin_14)*%
X196000000Y-78000000D02*
X199000000Y-78000000D01*
X199000000Y-78000000D02*
X205000000Y-84000000D01*
%TO.N,Net-(J2-Pin_13)*%
X190080000Y-75000000D02*
X198000000Y-75000000D01*
X198000000Y-75000000D02*
X203500000Y-80500000D01*
X203500000Y-80500000D02*
X205000000Y-80500000D01*
%TO.N,Net-(J2-Pin_12)*%
X196000000Y-73000000D02*
X199000000Y-73000000D01*
X199000000Y-73000000D02*
X203000000Y-77000000D01*
X203000000Y-77000000D02*
X205000000Y-77000000D01*
%TO.N,Net-(J2-Pin_11)*%
X190080000Y-70000000D02*
X198000000Y-70000000D01*
X198000000Y-70000000D02*
X201500000Y-73500000D01*
X201500000Y-73500000D02*
X205000000Y-73500000D01*
%TO.N,Net-(J2-Pin_10)*%
X196000000Y-68000000D02*
X199000000Y-68000000D01*
X201000000Y-70000000D02*
X205000000Y-70000000D01*
X199000000Y-68000000D02*
X201000000Y-70000000D01*
%TO.N,Net-(J2-Pin_9)*%
X190080000Y-65000000D02*
X201000000Y-65000000D01*
X201000000Y-65000000D02*
X202500000Y-66500000D01*
X202500000Y-66500000D02*
X205000000Y-66500000D01*
%TO.N,Net-(J2-Pin_8)*%
X196000000Y-63000000D02*
X205000000Y-63000000D01*
%TO.N,Net-(J2-Pin_7)*%
X190080000Y-60000000D02*
X204500000Y-60000000D01*
X204500000Y-60000000D02*
X205000000Y-59500000D01*
%TO.N,Net-(J2-Pin_6)*%
X196000000Y-58000000D02*
X201000000Y-58000000D01*
X201000000Y-58000000D02*
X203000000Y-56000000D01*
X203000000Y-56000000D02*
X205000000Y-56000000D01*
%TO.N,Net-(J2-Pin_5)*%
X190080000Y-55000000D02*
X200000000Y-55000000D01*
X200000000Y-55000000D02*
X202500000Y-52500000D01*
X202500000Y-52500000D02*
X205000000Y-52500000D01*
%TO.N,Net-(J2-Pin_4)*%
X196000000Y-53000000D02*
X199000000Y-53000000D01*
X199000000Y-53000000D02*
X203000000Y-49000000D01*
X203000000Y-49000000D02*
X205000000Y-49000000D01*
%TO.N,Net-(J2-Pin_3)*%
X190080000Y-50000000D02*
X197000000Y-50000000D01*
X201500000Y-45500000D02*
X205000000Y-45500000D01*
X197000000Y-50000000D02*
X201500000Y-45500000D01*
%TO.N,Net-(J2-Pin_2)*%
X196000000Y-48000000D02*
X202000000Y-42000000D01*
X202000000Y-42000000D02*
X205000000Y-42000000D01*
%TO.N,Net-(J2-Pin_1)*%
X190080000Y-45000000D02*
X195000000Y-45000000D01*
X201500000Y-38500000D02*
X205000000Y-38500000D01*
X195000000Y-45000000D02*
X201500000Y-38500000D01*
%TD*%
M02*
