%TF.GenerationSoftware,KiCad,Pcbnew,9.0.0*%
%TF.CreationDate,2025-03-23T16:41:57-07:00*%
%TF.ProjectId,Lights,4c696768-7473-42e6-9b69-6361645f7063,n/c*%
%TF.SameCoordinates,Original*%
%TF.FileFunction,Legend,Top*%
%TF.FilePolarity,Positive*%
%FSLAX46Y46*%
G04 Gerber Fmt 4.6, Leading zero omitted, Abs format (unit mm)*
G04 Created by KiCad (PCBNEW 9.0.0) date 2025-03-23 16:41:57*
%MOMM*%
%LPD*%
G01*
G04 APERTURE LIST*
%ADD10C,0.100000*%
%ADD11C,0.150000*%
%ADD12C,0.120000*%
G04 APERTURE END LIST*
D10*
X164780074Y-85872419D02*
X164303884Y-85872419D01*
X164303884Y-85872419D02*
X164303884Y-84872419D01*
X165113408Y-85872419D02*
X165113408Y-85205752D01*
X165113408Y-84872419D02*
X165065789Y-84920038D01*
X165065789Y-84920038D02*
X165113408Y-84967657D01*
X165113408Y-84967657D02*
X165161027Y-84920038D01*
X165161027Y-84920038D02*
X165113408Y-84872419D01*
X165113408Y-84872419D02*
X165113408Y-84967657D01*
X166018169Y-85205752D02*
X166018169Y-86015276D01*
X166018169Y-86015276D02*
X165970550Y-86110514D01*
X165970550Y-86110514D02*
X165922931Y-86158133D01*
X165922931Y-86158133D02*
X165827693Y-86205752D01*
X165827693Y-86205752D02*
X165684836Y-86205752D01*
X165684836Y-86205752D02*
X165589598Y-86158133D01*
X166018169Y-85824800D02*
X165922931Y-85872419D01*
X165922931Y-85872419D02*
X165732455Y-85872419D01*
X165732455Y-85872419D02*
X165637217Y-85824800D01*
X165637217Y-85824800D02*
X165589598Y-85777180D01*
X165589598Y-85777180D02*
X165541979Y-85681942D01*
X165541979Y-85681942D02*
X165541979Y-85396228D01*
X165541979Y-85396228D02*
X165589598Y-85300990D01*
X165589598Y-85300990D02*
X165637217Y-85253371D01*
X165637217Y-85253371D02*
X165732455Y-85205752D01*
X165732455Y-85205752D02*
X165922931Y-85205752D01*
X165922931Y-85205752D02*
X166018169Y-85253371D01*
X166494360Y-85872419D02*
X166494360Y-84872419D01*
X166922931Y-85872419D02*
X166922931Y-85348609D01*
X166922931Y-85348609D02*
X166875312Y-85253371D01*
X166875312Y-85253371D02*
X166780074Y-85205752D01*
X166780074Y-85205752D02*
X166637217Y-85205752D01*
X166637217Y-85205752D02*
X166541979Y-85253371D01*
X166541979Y-85253371D02*
X166494360Y-85300990D01*
X167256265Y-85205752D02*
X167637217Y-85205752D01*
X167399122Y-84872419D02*
X167399122Y-85729561D01*
X167399122Y-85729561D02*
X167446741Y-85824800D01*
X167446741Y-85824800D02*
X167541979Y-85872419D01*
X167541979Y-85872419D02*
X167637217Y-85872419D01*
X167922932Y-85824800D02*
X168018170Y-85872419D01*
X168018170Y-85872419D02*
X168208646Y-85872419D01*
X168208646Y-85872419D02*
X168303884Y-85824800D01*
X168303884Y-85824800D02*
X168351503Y-85729561D01*
X168351503Y-85729561D02*
X168351503Y-85681942D01*
X168351503Y-85681942D02*
X168303884Y-85586704D01*
X168303884Y-85586704D02*
X168208646Y-85539085D01*
X168208646Y-85539085D02*
X168065789Y-85539085D01*
X168065789Y-85539085D02*
X167970551Y-85491466D01*
X167970551Y-85491466D02*
X167922932Y-85396228D01*
X167922932Y-85396228D02*
X167922932Y-85348609D01*
X167922932Y-85348609D02*
X167970551Y-85253371D01*
X167970551Y-85253371D02*
X168065789Y-85205752D01*
X168065789Y-85205752D02*
X168208646Y-85205752D01*
X168208646Y-85205752D02*
X168303884Y-85253371D01*
X168827694Y-85824800D02*
X168827694Y-85872419D01*
X168827694Y-85872419D02*
X168780075Y-85967657D01*
X168780075Y-85967657D02*
X168732456Y-86015276D01*
X170161027Y-85300990D02*
X170065789Y-85253371D01*
X170065789Y-85253371D02*
X170018170Y-85205752D01*
X170018170Y-85205752D02*
X169970551Y-85110514D01*
X169970551Y-85110514D02*
X169970551Y-85062895D01*
X169970551Y-85062895D02*
X170018170Y-84967657D01*
X170018170Y-84967657D02*
X170065789Y-84920038D01*
X170065789Y-84920038D02*
X170161027Y-84872419D01*
X170161027Y-84872419D02*
X170351503Y-84872419D01*
X170351503Y-84872419D02*
X170446741Y-84920038D01*
X170446741Y-84920038D02*
X170494360Y-84967657D01*
X170494360Y-84967657D02*
X170541979Y-85062895D01*
X170541979Y-85062895D02*
X170541979Y-85110514D01*
X170541979Y-85110514D02*
X170494360Y-85205752D01*
X170494360Y-85205752D02*
X170446741Y-85253371D01*
X170446741Y-85253371D02*
X170351503Y-85300990D01*
X170351503Y-85300990D02*
X170161027Y-85300990D01*
X170161027Y-85300990D02*
X170065789Y-85348609D01*
X170065789Y-85348609D02*
X170018170Y-85396228D01*
X170018170Y-85396228D02*
X169970551Y-85491466D01*
X169970551Y-85491466D02*
X169970551Y-85681942D01*
X169970551Y-85681942D02*
X170018170Y-85777180D01*
X170018170Y-85777180D02*
X170065789Y-85824800D01*
X170065789Y-85824800D02*
X170161027Y-85872419D01*
X170161027Y-85872419D02*
X170351503Y-85872419D01*
X170351503Y-85872419D02*
X170446741Y-85824800D01*
X170446741Y-85824800D02*
X170494360Y-85777180D01*
X170494360Y-85777180D02*
X170541979Y-85681942D01*
X170541979Y-85681942D02*
X170541979Y-85491466D01*
X170541979Y-85491466D02*
X170494360Y-85396228D01*
X170494360Y-85396228D02*
X170446741Y-85348609D01*
X170446741Y-85348609D02*
X170351503Y-85300990D01*
X170875313Y-85872419D02*
X171399122Y-85205752D01*
X170875313Y-85205752D02*
X171399122Y-85872419D01*
X172399123Y-84872419D02*
X172970551Y-84872419D01*
X172684837Y-85872419D02*
X172684837Y-84872419D01*
X173303885Y-85872419D02*
X173303885Y-85205752D01*
X173303885Y-85396228D02*
X173351504Y-85300990D01*
X173351504Y-85300990D02*
X173399123Y-85253371D01*
X173399123Y-85253371D02*
X173494361Y-85205752D01*
X173494361Y-85205752D02*
X173589599Y-85205752D01*
X174351504Y-85872419D02*
X174351504Y-85348609D01*
X174351504Y-85348609D02*
X174303885Y-85253371D01*
X174303885Y-85253371D02*
X174208647Y-85205752D01*
X174208647Y-85205752D02*
X174018171Y-85205752D01*
X174018171Y-85205752D02*
X173922933Y-85253371D01*
X174351504Y-85824800D02*
X174256266Y-85872419D01*
X174256266Y-85872419D02*
X174018171Y-85872419D01*
X174018171Y-85872419D02*
X173922933Y-85824800D01*
X173922933Y-85824800D02*
X173875314Y-85729561D01*
X173875314Y-85729561D02*
X173875314Y-85634323D01*
X173875314Y-85634323D02*
X173922933Y-85539085D01*
X173922933Y-85539085D02*
X174018171Y-85491466D01*
X174018171Y-85491466D02*
X174256266Y-85491466D01*
X174256266Y-85491466D02*
X174351504Y-85443847D01*
X174827695Y-85205752D02*
X174827695Y-85872419D01*
X174827695Y-85300990D02*
X174875314Y-85253371D01*
X174875314Y-85253371D02*
X174970552Y-85205752D01*
X174970552Y-85205752D02*
X175113409Y-85205752D01*
X175113409Y-85205752D02*
X175208647Y-85253371D01*
X175208647Y-85253371D02*
X175256266Y-85348609D01*
X175256266Y-85348609D02*
X175256266Y-85872419D01*
X175684838Y-85824800D02*
X175780076Y-85872419D01*
X175780076Y-85872419D02*
X175970552Y-85872419D01*
X175970552Y-85872419D02*
X176065790Y-85824800D01*
X176065790Y-85824800D02*
X176113409Y-85729561D01*
X176113409Y-85729561D02*
X176113409Y-85681942D01*
X176113409Y-85681942D02*
X176065790Y-85586704D01*
X176065790Y-85586704D02*
X175970552Y-85539085D01*
X175970552Y-85539085D02*
X175827695Y-85539085D01*
X175827695Y-85539085D02*
X175732457Y-85491466D01*
X175732457Y-85491466D02*
X175684838Y-85396228D01*
X175684838Y-85396228D02*
X175684838Y-85348609D01*
X175684838Y-85348609D02*
X175732457Y-85253371D01*
X175732457Y-85253371D02*
X175827695Y-85205752D01*
X175827695Y-85205752D02*
X175970552Y-85205752D01*
X175970552Y-85205752D02*
X176065790Y-85253371D01*
X176541981Y-85872419D02*
X176541981Y-85205752D01*
X176541981Y-84872419D02*
X176494362Y-84920038D01*
X176494362Y-84920038D02*
X176541981Y-84967657D01*
X176541981Y-84967657D02*
X176589600Y-84920038D01*
X176589600Y-84920038D02*
X176541981Y-84872419D01*
X176541981Y-84872419D02*
X176541981Y-84967657D01*
X176970552Y-85824800D02*
X177065790Y-85872419D01*
X177065790Y-85872419D02*
X177256266Y-85872419D01*
X177256266Y-85872419D02*
X177351504Y-85824800D01*
X177351504Y-85824800D02*
X177399123Y-85729561D01*
X177399123Y-85729561D02*
X177399123Y-85681942D01*
X177399123Y-85681942D02*
X177351504Y-85586704D01*
X177351504Y-85586704D02*
X177256266Y-85539085D01*
X177256266Y-85539085D02*
X177113409Y-85539085D01*
X177113409Y-85539085D02*
X177018171Y-85491466D01*
X177018171Y-85491466D02*
X176970552Y-85396228D01*
X176970552Y-85396228D02*
X176970552Y-85348609D01*
X176970552Y-85348609D02*
X177018171Y-85253371D01*
X177018171Y-85253371D02*
X177113409Y-85205752D01*
X177113409Y-85205752D02*
X177256266Y-85205752D01*
X177256266Y-85205752D02*
X177351504Y-85253371D01*
X177684838Y-85205752D02*
X178065790Y-85205752D01*
X177827695Y-84872419D02*
X177827695Y-85729561D01*
X177827695Y-85729561D02*
X177875314Y-85824800D01*
X177875314Y-85824800D02*
X177970552Y-85872419D01*
X177970552Y-85872419D02*
X178065790Y-85872419D01*
X178541981Y-85872419D02*
X178446743Y-85824800D01*
X178446743Y-85824800D02*
X178399124Y-85777180D01*
X178399124Y-85777180D02*
X178351505Y-85681942D01*
X178351505Y-85681942D02*
X178351505Y-85396228D01*
X178351505Y-85396228D02*
X178399124Y-85300990D01*
X178399124Y-85300990D02*
X178446743Y-85253371D01*
X178446743Y-85253371D02*
X178541981Y-85205752D01*
X178541981Y-85205752D02*
X178684838Y-85205752D01*
X178684838Y-85205752D02*
X178780076Y-85253371D01*
X178780076Y-85253371D02*
X178827695Y-85300990D01*
X178827695Y-85300990D02*
X178875314Y-85396228D01*
X178875314Y-85396228D02*
X178875314Y-85681942D01*
X178875314Y-85681942D02*
X178827695Y-85777180D01*
X178827695Y-85777180D02*
X178780076Y-85824800D01*
X178780076Y-85824800D02*
X178684838Y-85872419D01*
X178684838Y-85872419D02*
X178541981Y-85872419D01*
X179303886Y-85872419D02*
X179303886Y-85205752D01*
X179303886Y-85396228D02*
X179351505Y-85300990D01*
X179351505Y-85300990D02*
X179399124Y-85253371D01*
X179399124Y-85253371D02*
X179494362Y-85205752D01*
X179494362Y-85205752D02*
X179589600Y-85205752D01*
X180875315Y-84872419D02*
X181065791Y-84872419D01*
X181065791Y-84872419D02*
X181161029Y-84920038D01*
X181161029Y-84920038D02*
X181256267Y-85015276D01*
X181256267Y-85015276D02*
X181303886Y-85205752D01*
X181303886Y-85205752D02*
X181303886Y-85539085D01*
X181303886Y-85539085D02*
X181256267Y-85729561D01*
X181256267Y-85729561D02*
X181161029Y-85824800D01*
X181161029Y-85824800D02*
X181065791Y-85872419D01*
X181065791Y-85872419D02*
X180875315Y-85872419D01*
X180875315Y-85872419D02*
X180780077Y-85824800D01*
X180780077Y-85824800D02*
X180684839Y-85729561D01*
X180684839Y-85729561D02*
X180637220Y-85539085D01*
X180637220Y-85539085D02*
X180637220Y-85205752D01*
X180637220Y-85205752D02*
X180684839Y-85015276D01*
X180684839Y-85015276D02*
X180780077Y-84920038D01*
X180780077Y-84920038D02*
X180875315Y-84872419D01*
X182161029Y-85205752D02*
X182161029Y-85872419D01*
X181732458Y-85205752D02*
X181732458Y-85729561D01*
X181732458Y-85729561D02*
X181780077Y-85824800D01*
X181780077Y-85824800D02*
X181875315Y-85872419D01*
X181875315Y-85872419D02*
X182018172Y-85872419D01*
X182018172Y-85872419D02*
X182113410Y-85824800D01*
X182113410Y-85824800D02*
X182161029Y-85777180D01*
X182494363Y-85205752D02*
X182875315Y-85205752D01*
X182637220Y-84872419D02*
X182637220Y-85729561D01*
X182637220Y-85729561D02*
X182684839Y-85824800D01*
X182684839Y-85824800D02*
X182780077Y-85872419D01*
X182780077Y-85872419D02*
X182875315Y-85872419D01*
X183208649Y-85205752D02*
X183208649Y-86205752D01*
X183208649Y-85253371D02*
X183303887Y-85205752D01*
X183303887Y-85205752D02*
X183494363Y-85205752D01*
X183494363Y-85205752D02*
X183589601Y-85253371D01*
X183589601Y-85253371D02*
X183637220Y-85300990D01*
X183637220Y-85300990D02*
X183684839Y-85396228D01*
X183684839Y-85396228D02*
X183684839Y-85681942D01*
X183684839Y-85681942D02*
X183637220Y-85777180D01*
X183637220Y-85777180D02*
X183589601Y-85824800D01*
X183589601Y-85824800D02*
X183494363Y-85872419D01*
X183494363Y-85872419D02*
X183303887Y-85872419D01*
X183303887Y-85872419D02*
X183208649Y-85824800D01*
X184541982Y-85205752D02*
X184541982Y-85872419D01*
X184113411Y-85205752D02*
X184113411Y-85729561D01*
X184113411Y-85729561D02*
X184161030Y-85824800D01*
X184161030Y-85824800D02*
X184256268Y-85872419D01*
X184256268Y-85872419D02*
X184399125Y-85872419D01*
X184399125Y-85872419D02*
X184494363Y-85824800D01*
X184494363Y-85824800D02*
X184541982Y-85777180D01*
X184875316Y-85205752D02*
X185256268Y-85205752D01*
X185018173Y-84872419D02*
X185018173Y-85729561D01*
X185018173Y-85729561D02*
X185065792Y-85824800D01*
X185065792Y-85824800D02*
X185161030Y-85872419D01*
X185161030Y-85872419D02*
X185256268Y-85872419D01*
X162256265Y-89214856D02*
X162399122Y-89262475D01*
X162399122Y-89262475D02*
X162637217Y-89262475D01*
X162637217Y-89262475D02*
X162732455Y-89214856D01*
X162732455Y-89214856D02*
X162780074Y-89167236D01*
X162780074Y-89167236D02*
X162827693Y-89071998D01*
X162827693Y-89071998D02*
X162827693Y-88976760D01*
X162827693Y-88976760D02*
X162780074Y-88881522D01*
X162780074Y-88881522D02*
X162732455Y-88833903D01*
X162732455Y-88833903D02*
X162637217Y-88786284D01*
X162637217Y-88786284D02*
X162446741Y-88738665D01*
X162446741Y-88738665D02*
X162351503Y-88691046D01*
X162351503Y-88691046D02*
X162303884Y-88643427D01*
X162303884Y-88643427D02*
X162256265Y-88548189D01*
X162256265Y-88548189D02*
X162256265Y-88452951D01*
X162256265Y-88452951D02*
X162303884Y-88357713D01*
X162303884Y-88357713D02*
X162351503Y-88310094D01*
X162351503Y-88310094D02*
X162446741Y-88262475D01*
X162446741Y-88262475D02*
X162684836Y-88262475D01*
X162684836Y-88262475D02*
X162827693Y-88310094D01*
X163637217Y-89214856D02*
X163541979Y-89262475D01*
X163541979Y-89262475D02*
X163351503Y-89262475D01*
X163351503Y-89262475D02*
X163256265Y-89214856D01*
X163256265Y-89214856D02*
X163208646Y-89119617D01*
X163208646Y-89119617D02*
X163208646Y-88738665D01*
X163208646Y-88738665D02*
X163256265Y-88643427D01*
X163256265Y-88643427D02*
X163351503Y-88595808D01*
X163351503Y-88595808D02*
X163541979Y-88595808D01*
X163541979Y-88595808D02*
X163637217Y-88643427D01*
X163637217Y-88643427D02*
X163684836Y-88738665D01*
X163684836Y-88738665D02*
X163684836Y-88833903D01*
X163684836Y-88833903D02*
X163208646Y-88929141D01*
X164113408Y-89262475D02*
X164113408Y-88595808D01*
X164113408Y-88786284D02*
X164161027Y-88691046D01*
X164161027Y-88691046D02*
X164208646Y-88643427D01*
X164208646Y-88643427D02*
X164303884Y-88595808D01*
X164303884Y-88595808D02*
X164399122Y-88595808D01*
X164732456Y-89262475D02*
X164732456Y-88595808D01*
X164732456Y-88262475D02*
X164684837Y-88310094D01*
X164684837Y-88310094D02*
X164732456Y-88357713D01*
X164732456Y-88357713D02*
X164780075Y-88310094D01*
X164780075Y-88310094D02*
X164732456Y-88262475D01*
X164732456Y-88262475D02*
X164732456Y-88357713D01*
X165637217Y-89262475D02*
X165637217Y-88738665D01*
X165637217Y-88738665D02*
X165589598Y-88643427D01*
X165589598Y-88643427D02*
X165494360Y-88595808D01*
X165494360Y-88595808D02*
X165303884Y-88595808D01*
X165303884Y-88595808D02*
X165208646Y-88643427D01*
X165637217Y-89214856D02*
X165541979Y-89262475D01*
X165541979Y-89262475D02*
X165303884Y-89262475D01*
X165303884Y-89262475D02*
X165208646Y-89214856D01*
X165208646Y-89214856D02*
X165161027Y-89119617D01*
X165161027Y-89119617D02*
X165161027Y-89024379D01*
X165161027Y-89024379D02*
X165208646Y-88929141D01*
X165208646Y-88929141D02*
X165303884Y-88881522D01*
X165303884Y-88881522D02*
X165541979Y-88881522D01*
X165541979Y-88881522D02*
X165637217Y-88833903D01*
X166256265Y-89262475D02*
X166161027Y-89214856D01*
X166161027Y-89214856D02*
X166113408Y-89119617D01*
X166113408Y-89119617D02*
X166113408Y-88262475D01*
X167399123Y-89262475D02*
X167399123Y-88262475D01*
X167399123Y-88262475D02*
X167732456Y-88976760D01*
X167732456Y-88976760D02*
X168065789Y-88262475D01*
X168065789Y-88262475D02*
X168065789Y-89262475D01*
X168684837Y-89262475D02*
X168589599Y-89214856D01*
X168589599Y-89214856D02*
X168541980Y-89167236D01*
X168541980Y-89167236D02*
X168494361Y-89071998D01*
X168494361Y-89071998D02*
X168494361Y-88786284D01*
X168494361Y-88786284D02*
X168541980Y-88691046D01*
X168541980Y-88691046D02*
X168589599Y-88643427D01*
X168589599Y-88643427D02*
X168684837Y-88595808D01*
X168684837Y-88595808D02*
X168827694Y-88595808D01*
X168827694Y-88595808D02*
X168922932Y-88643427D01*
X168922932Y-88643427D02*
X168970551Y-88691046D01*
X168970551Y-88691046D02*
X169018170Y-88786284D01*
X169018170Y-88786284D02*
X169018170Y-89071998D01*
X169018170Y-89071998D02*
X168970551Y-89167236D01*
X168970551Y-89167236D02*
X168922932Y-89214856D01*
X168922932Y-89214856D02*
X168827694Y-89262475D01*
X168827694Y-89262475D02*
X168684837Y-89262475D01*
X169875313Y-89262475D02*
X169875313Y-88262475D01*
X169875313Y-89214856D02*
X169780075Y-89262475D01*
X169780075Y-89262475D02*
X169589599Y-89262475D01*
X169589599Y-89262475D02*
X169494361Y-89214856D01*
X169494361Y-89214856D02*
X169446742Y-89167236D01*
X169446742Y-89167236D02*
X169399123Y-89071998D01*
X169399123Y-89071998D02*
X169399123Y-88786284D01*
X169399123Y-88786284D02*
X169446742Y-88691046D01*
X169446742Y-88691046D02*
X169494361Y-88643427D01*
X169494361Y-88643427D02*
X169589599Y-88595808D01*
X169589599Y-88595808D02*
X169780075Y-88595808D01*
X169780075Y-88595808D02*
X169875313Y-88643427D01*
X170732456Y-89214856D02*
X170637218Y-89262475D01*
X170637218Y-89262475D02*
X170446742Y-89262475D01*
X170446742Y-89262475D02*
X170351504Y-89214856D01*
X170351504Y-89214856D02*
X170303885Y-89119617D01*
X170303885Y-89119617D02*
X170303885Y-88738665D01*
X170303885Y-88738665D02*
X170351504Y-88643427D01*
X170351504Y-88643427D02*
X170446742Y-88595808D01*
X170446742Y-88595808D02*
X170637218Y-88595808D01*
X170637218Y-88595808D02*
X170732456Y-88643427D01*
X170732456Y-88643427D02*
X170780075Y-88738665D01*
X170780075Y-88738665D02*
X170780075Y-88833903D01*
X170780075Y-88833903D02*
X170303885Y-88929141D01*
X171351504Y-89262475D02*
X171256266Y-89214856D01*
X171256266Y-89214856D02*
X171208647Y-89119617D01*
X171208647Y-89119617D02*
X171208647Y-88262475D01*
X173065790Y-89262475D02*
X172732457Y-88786284D01*
X172494362Y-89262475D02*
X172494362Y-88262475D01*
X172494362Y-88262475D02*
X172875314Y-88262475D01*
X172875314Y-88262475D02*
X172970552Y-88310094D01*
X172970552Y-88310094D02*
X173018171Y-88357713D01*
X173018171Y-88357713D02*
X173065790Y-88452951D01*
X173065790Y-88452951D02*
X173065790Y-88595808D01*
X173065790Y-88595808D02*
X173018171Y-88691046D01*
X173018171Y-88691046D02*
X172970552Y-88738665D01*
X172970552Y-88738665D02*
X172875314Y-88786284D01*
X172875314Y-88786284D02*
X172494362Y-88786284D01*
X173922933Y-89262475D02*
X173922933Y-88738665D01*
X173922933Y-88738665D02*
X173875314Y-88643427D01*
X173875314Y-88643427D02*
X173780076Y-88595808D01*
X173780076Y-88595808D02*
X173589600Y-88595808D01*
X173589600Y-88595808D02*
X173494362Y-88643427D01*
X173922933Y-89214856D02*
X173827695Y-89262475D01*
X173827695Y-89262475D02*
X173589600Y-89262475D01*
X173589600Y-89262475D02*
X173494362Y-89214856D01*
X173494362Y-89214856D02*
X173446743Y-89119617D01*
X173446743Y-89119617D02*
X173446743Y-89024379D01*
X173446743Y-89024379D02*
X173494362Y-88929141D01*
X173494362Y-88929141D02*
X173589600Y-88881522D01*
X173589600Y-88881522D02*
X173827695Y-88881522D01*
X173827695Y-88881522D02*
X173922933Y-88833903D01*
X174399124Y-89262475D02*
X174399124Y-88595808D01*
X174399124Y-88262475D02*
X174351505Y-88310094D01*
X174351505Y-88310094D02*
X174399124Y-88357713D01*
X174399124Y-88357713D02*
X174446743Y-88310094D01*
X174446743Y-88310094D02*
X174399124Y-88262475D01*
X174399124Y-88262475D02*
X174399124Y-88357713D01*
X175018171Y-89262475D02*
X174922933Y-89214856D01*
X174922933Y-89214856D02*
X174875314Y-89119617D01*
X174875314Y-89119617D02*
X174875314Y-88262475D01*
X175399124Y-89262475D02*
X175399124Y-88595808D01*
X175399124Y-88786284D02*
X175446743Y-88691046D01*
X175446743Y-88691046D02*
X175494362Y-88643427D01*
X175494362Y-88643427D02*
X175589600Y-88595808D01*
X175589600Y-88595808D02*
X175684838Y-88595808D01*
X176161029Y-89262475D02*
X176065791Y-89214856D01*
X176065791Y-89214856D02*
X176018172Y-89167236D01*
X176018172Y-89167236D02*
X175970553Y-89071998D01*
X175970553Y-89071998D02*
X175970553Y-88786284D01*
X175970553Y-88786284D02*
X176018172Y-88691046D01*
X176018172Y-88691046D02*
X176065791Y-88643427D01*
X176065791Y-88643427D02*
X176161029Y-88595808D01*
X176161029Y-88595808D02*
X176303886Y-88595808D01*
X176303886Y-88595808D02*
X176399124Y-88643427D01*
X176399124Y-88643427D02*
X176446743Y-88691046D01*
X176446743Y-88691046D02*
X176494362Y-88786284D01*
X176494362Y-88786284D02*
X176494362Y-89071998D01*
X176494362Y-89071998D02*
X176446743Y-89167236D01*
X176446743Y-89167236D02*
X176399124Y-89214856D01*
X176399124Y-89214856D02*
X176303886Y-89262475D01*
X176303886Y-89262475D02*
X176161029Y-89262475D01*
X177351505Y-89262475D02*
X177351505Y-88738665D01*
X177351505Y-88738665D02*
X177303886Y-88643427D01*
X177303886Y-88643427D02*
X177208648Y-88595808D01*
X177208648Y-88595808D02*
X177018172Y-88595808D01*
X177018172Y-88595808D02*
X176922934Y-88643427D01*
X177351505Y-89214856D02*
X177256267Y-89262475D01*
X177256267Y-89262475D02*
X177018172Y-89262475D01*
X177018172Y-89262475D02*
X176922934Y-89214856D01*
X176922934Y-89214856D02*
X176875315Y-89119617D01*
X176875315Y-89119617D02*
X176875315Y-89024379D01*
X176875315Y-89024379D02*
X176922934Y-88929141D01*
X176922934Y-88929141D02*
X177018172Y-88881522D01*
X177018172Y-88881522D02*
X177256267Y-88881522D01*
X177256267Y-88881522D02*
X177351505Y-88833903D01*
X178256267Y-89262475D02*
X178256267Y-88262475D01*
X178256267Y-89214856D02*
X178161029Y-89262475D01*
X178161029Y-89262475D02*
X177970553Y-89262475D01*
X177970553Y-89262475D02*
X177875315Y-89214856D01*
X177875315Y-89214856D02*
X177827696Y-89167236D01*
X177827696Y-89167236D02*
X177780077Y-89071998D01*
X177780077Y-89071998D02*
X177780077Y-88786284D01*
X177780077Y-88786284D02*
X177827696Y-88691046D01*
X177827696Y-88691046D02*
X177875315Y-88643427D01*
X177875315Y-88643427D02*
X177970553Y-88595808D01*
X177970553Y-88595808D02*
X178161029Y-88595808D01*
X178161029Y-88595808D02*
X178256267Y-88643427D01*
X180065791Y-89167236D02*
X180018172Y-89214856D01*
X180018172Y-89214856D02*
X179875315Y-89262475D01*
X179875315Y-89262475D02*
X179780077Y-89262475D01*
X179780077Y-89262475D02*
X179637220Y-89214856D01*
X179637220Y-89214856D02*
X179541982Y-89119617D01*
X179541982Y-89119617D02*
X179494363Y-89024379D01*
X179494363Y-89024379D02*
X179446744Y-88833903D01*
X179446744Y-88833903D02*
X179446744Y-88691046D01*
X179446744Y-88691046D02*
X179494363Y-88500570D01*
X179494363Y-88500570D02*
X179541982Y-88405332D01*
X179541982Y-88405332D02*
X179637220Y-88310094D01*
X179637220Y-88310094D02*
X179780077Y-88262475D01*
X179780077Y-88262475D02*
X179875315Y-88262475D01*
X179875315Y-88262475D02*
X180018172Y-88310094D01*
X180018172Y-88310094D02*
X180065791Y-88357713D01*
X180637220Y-89262475D02*
X180541982Y-89214856D01*
X180541982Y-89214856D02*
X180494363Y-89167236D01*
X180494363Y-89167236D02*
X180446744Y-89071998D01*
X180446744Y-89071998D02*
X180446744Y-88786284D01*
X180446744Y-88786284D02*
X180494363Y-88691046D01*
X180494363Y-88691046D02*
X180541982Y-88643427D01*
X180541982Y-88643427D02*
X180637220Y-88595808D01*
X180637220Y-88595808D02*
X180780077Y-88595808D01*
X180780077Y-88595808D02*
X180875315Y-88643427D01*
X180875315Y-88643427D02*
X180922934Y-88691046D01*
X180922934Y-88691046D02*
X180970553Y-88786284D01*
X180970553Y-88786284D02*
X180970553Y-89071998D01*
X180970553Y-89071998D02*
X180922934Y-89167236D01*
X180922934Y-89167236D02*
X180875315Y-89214856D01*
X180875315Y-89214856D02*
X180780077Y-89262475D01*
X180780077Y-89262475D02*
X180637220Y-89262475D01*
X181399125Y-88595808D02*
X181399125Y-89262475D01*
X181399125Y-88691046D02*
X181446744Y-88643427D01*
X181446744Y-88643427D02*
X181541982Y-88595808D01*
X181541982Y-88595808D02*
X181684839Y-88595808D01*
X181684839Y-88595808D02*
X181780077Y-88643427D01*
X181780077Y-88643427D02*
X181827696Y-88738665D01*
X181827696Y-88738665D02*
X181827696Y-89262475D01*
X182161030Y-88595808D02*
X182541982Y-88595808D01*
X182303887Y-88262475D02*
X182303887Y-89119617D01*
X182303887Y-89119617D02*
X182351506Y-89214856D01*
X182351506Y-89214856D02*
X182446744Y-89262475D01*
X182446744Y-89262475D02*
X182541982Y-89262475D01*
X182875316Y-89262475D02*
X182875316Y-88595808D01*
X182875316Y-88786284D02*
X182922935Y-88691046D01*
X182922935Y-88691046D02*
X182970554Y-88643427D01*
X182970554Y-88643427D02*
X183065792Y-88595808D01*
X183065792Y-88595808D02*
X183161030Y-88595808D01*
X183637221Y-89262475D02*
X183541983Y-89214856D01*
X183541983Y-89214856D02*
X183494364Y-89167236D01*
X183494364Y-89167236D02*
X183446745Y-89071998D01*
X183446745Y-89071998D02*
X183446745Y-88786284D01*
X183446745Y-88786284D02*
X183494364Y-88691046D01*
X183494364Y-88691046D02*
X183541983Y-88643427D01*
X183541983Y-88643427D02*
X183637221Y-88595808D01*
X183637221Y-88595808D02*
X183780078Y-88595808D01*
X183780078Y-88595808D02*
X183875316Y-88643427D01*
X183875316Y-88643427D02*
X183922935Y-88691046D01*
X183922935Y-88691046D02*
X183970554Y-88786284D01*
X183970554Y-88786284D02*
X183970554Y-89071998D01*
X183970554Y-89071998D02*
X183922935Y-89167236D01*
X183922935Y-89167236D02*
X183875316Y-89214856D01*
X183875316Y-89214856D02*
X183780078Y-89262475D01*
X183780078Y-89262475D02*
X183637221Y-89262475D01*
X184541983Y-89262475D02*
X184446745Y-89214856D01*
X184446745Y-89214856D02*
X184399126Y-89119617D01*
X184399126Y-89119617D02*
X184399126Y-88262475D01*
X162303884Y-90872419D02*
X162303884Y-89872419D01*
X162303884Y-89872419D02*
X162541979Y-89872419D01*
X162541979Y-89872419D02*
X162684836Y-89920038D01*
X162684836Y-89920038D02*
X162780074Y-90015276D01*
X162780074Y-90015276D02*
X162827693Y-90110514D01*
X162827693Y-90110514D02*
X162875312Y-90300990D01*
X162875312Y-90300990D02*
X162875312Y-90443847D01*
X162875312Y-90443847D02*
X162827693Y-90634323D01*
X162827693Y-90634323D02*
X162780074Y-90729561D01*
X162780074Y-90729561D02*
X162684836Y-90824800D01*
X162684836Y-90824800D02*
X162541979Y-90872419D01*
X162541979Y-90872419D02*
X162303884Y-90872419D01*
X163303884Y-90872419D02*
X163303884Y-89872419D01*
X163303884Y-89872419D02*
X163637217Y-90586704D01*
X163637217Y-90586704D02*
X163970550Y-89872419D01*
X163970550Y-89872419D02*
X163970550Y-90872419D01*
X164780074Y-90348609D02*
X164446741Y-90348609D01*
X164446741Y-90872419D02*
X164446741Y-89872419D01*
X164446741Y-89872419D02*
X164922931Y-89872419D01*
X165303884Y-90348609D02*
X165637217Y-90348609D01*
X165780074Y-90872419D02*
X165303884Y-90872419D01*
X165303884Y-90872419D02*
X165303884Y-89872419D01*
X165303884Y-89872419D02*
X165780074Y-89872419D01*
X166922932Y-89967657D02*
X166970551Y-89920038D01*
X166970551Y-89920038D02*
X167065789Y-89872419D01*
X167065789Y-89872419D02*
X167303884Y-89872419D01*
X167303884Y-89872419D02*
X167399122Y-89920038D01*
X167399122Y-89920038D02*
X167446741Y-89967657D01*
X167446741Y-89967657D02*
X167494360Y-90062895D01*
X167494360Y-90062895D02*
X167494360Y-90158133D01*
X167494360Y-90158133D02*
X167446741Y-90300990D01*
X167446741Y-90300990D02*
X166875313Y-90872419D01*
X166875313Y-90872419D02*
X167494360Y-90872419D01*
X168113408Y-89872419D02*
X168208646Y-89872419D01*
X168208646Y-89872419D02*
X168303884Y-89920038D01*
X168303884Y-89920038D02*
X168351503Y-89967657D01*
X168351503Y-89967657D02*
X168399122Y-90062895D01*
X168399122Y-90062895D02*
X168446741Y-90253371D01*
X168446741Y-90253371D02*
X168446741Y-90491466D01*
X168446741Y-90491466D02*
X168399122Y-90681942D01*
X168399122Y-90681942D02*
X168351503Y-90777180D01*
X168351503Y-90777180D02*
X168303884Y-90824800D01*
X168303884Y-90824800D02*
X168208646Y-90872419D01*
X168208646Y-90872419D02*
X168113408Y-90872419D01*
X168113408Y-90872419D02*
X168018170Y-90824800D01*
X168018170Y-90824800D02*
X167970551Y-90777180D01*
X167970551Y-90777180D02*
X167922932Y-90681942D01*
X167922932Y-90681942D02*
X167875313Y-90491466D01*
X167875313Y-90491466D02*
X167875313Y-90253371D01*
X167875313Y-90253371D02*
X167922932Y-90062895D01*
X167922932Y-90062895D02*
X167970551Y-89967657D01*
X167970551Y-89967657D02*
X168018170Y-89920038D01*
X168018170Y-89920038D02*
X168113408Y-89872419D01*
X168827694Y-89967657D02*
X168875313Y-89920038D01*
X168875313Y-89920038D02*
X168970551Y-89872419D01*
X168970551Y-89872419D02*
X169208646Y-89872419D01*
X169208646Y-89872419D02*
X169303884Y-89920038D01*
X169303884Y-89920038D02*
X169351503Y-89967657D01*
X169351503Y-89967657D02*
X169399122Y-90062895D01*
X169399122Y-90062895D02*
X169399122Y-90158133D01*
X169399122Y-90158133D02*
X169351503Y-90300990D01*
X169351503Y-90300990D02*
X168780075Y-90872419D01*
X168780075Y-90872419D02*
X169399122Y-90872419D01*
X170303884Y-89872419D02*
X169827694Y-89872419D01*
X169827694Y-89872419D02*
X169780075Y-90348609D01*
X169780075Y-90348609D02*
X169827694Y-90300990D01*
X169827694Y-90300990D02*
X169922932Y-90253371D01*
X169922932Y-90253371D02*
X170161027Y-90253371D01*
X170161027Y-90253371D02*
X170256265Y-90300990D01*
X170256265Y-90300990D02*
X170303884Y-90348609D01*
X170303884Y-90348609D02*
X170351503Y-90443847D01*
X170351503Y-90443847D02*
X170351503Y-90681942D01*
X170351503Y-90681942D02*
X170303884Y-90777180D01*
X170303884Y-90777180D02*
X170256265Y-90824800D01*
X170256265Y-90824800D02*
X170161027Y-90872419D01*
X170161027Y-90872419D02*
X169922932Y-90872419D01*
X169922932Y-90872419D02*
X169827694Y-90824800D01*
X169827694Y-90824800D02*
X169780075Y-90777180D01*
X172875313Y-90872419D02*
X172541980Y-90396228D01*
X172303885Y-90872419D02*
X172303885Y-89872419D01*
X172303885Y-89872419D02*
X172684837Y-89872419D01*
X172684837Y-89872419D02*
X172780075Y-89920038D01*
X172780075Y-89920038D02*
X172827694Y-89967657D01*
X172827694Y-89967657D02*
X172875313Y-90062895D01*
X172875313Y-90062895D02*
X172875313Y-90205752D01*
X172875313Y-90205752D02*
X172827694Y-90300990D01*
X172827694Y-90300990D02*
X172780075Y-90348609D01*
X172780075Y-90348609D02*
X172684837Y-90396228D01*
X172684837Y-90396228D02*
X172303885Y-90396228D01*
X173684837Y-90824800D02*
X173589599Y-90872419D01*
X173589599Y-90872419D02*
X173399123Y-90872419D01*
X173399123Y-90872419D02*
X173303885Y-90824800D01*
X173303885Y-90824800D02*
X173256266Y-90729561D01*
X173256266Y-90729561D02*
X173256266Y-90348609D01*
X173256266Y-90348609D02*
X173303885Y-90253371D01*
X173303885Y-90253371D02*
X173399123Y-90205752D01*
X173399123Y-90205752D02*
X173589599Y-90205752D01*
X173589599Y-90205752D02*
X173684837Y-90253371D01*
X173684837Y-90253371D02*
X173732456Y-90348609D01*
X173732456Y-90348609D02*
X173732456Y-90443847D01*
X173732456Y-90443847D02*
X173256266Y-90539085D01*
X174065790Y-90205752D02*
X174303885Y-90872419D01*
X174303885Y-90872419D02*
X174541980Y-90205752D01*
X174922933Y-90777180D02*
X174970552Y-90824800D01*
X174970552Y-90824800D02*
X174922933Y-90872419D01*
X174922933Y-90872419D02*
X174875314Y-90824800D01*
X174875314Y-90824800D02*
X174922933Y-90777180D01*
X174922933Y-90777180D02*
X174922933Y-90872419D01*
X176161028Y-90205752D02*
X176161028Y-90872419D01*
X176161028Y-90300990D02*
X176208647Y-90253371D01*
X176208647Y-90253371D02*
X176303885Y-90205752D01*
X176303885Y-90205752D02*
X176446742Y-90205752D01*
X176446742Y-90205752D02*
X176541980Y-90253371D01*
X176541980Y-90253371D02*
X176589599Y-90348609D01*
X176589599Y-90348609D02*
X176589599Y-90872419D01*
X177780075Y-89824800D02*
X176922933Y-91110514D01*
X178541980Y-90824800D02*
X178446742Y-90872419D01*
X178446742Y-90872419D02*
X178256266Y-90872419D01*
X178256266Y-90872419D02*
X178161028Y-90824800D01*
X178161028Y-90824800D02*
X178113409Y-90777180D01*
X178113409Y-90777180D02*
X178065790Y-90681942D01*
X178065790Y-90681942D02*
X178065790Y-90396228D01*
X178065790Y-90396228D02*
X178113409Y-90300990D01*
X178113409Y-90300990D02*
X178161028Y-90253371D01*
X178161028Y-90253371D02*
X178256266Y-90205752D01*
X178256266Y-90205752D02*
X178446742Y-90205752D01*
X178446742Y-90205752D02*
X178541980Y-90253371D01*
D11*
X184357142Y-80454819D02*
X184023809Y-79978628D01*
X183785714Y-80454819D02*
X183785714Y-79454819D01*
X183785714Y-79454819D02*
X184166666Y-79454819D01*
X184166666Y-79454819D02*
X184261904Y-79502438D01*
X184261904Y-79502438D02*
X184309523Y-79550057D01*
X184309523Y-79550057D02*
X184357142Y-79645295D01*
X184357142Y-79645295D02*
X184357142Y-79788152D01*
X184357142Y-79788152D02*
X184309523Y-79883390D01*
X184309523Y-79883390D02*
X184261904Y-79931009D01*
X184261904Y-79931009D02*
X184166666Y-79978628D01*
X184166666Y-79978628D02*
X183785714Y-79978628D01*
X184738095Y-79550057D02*
X184785714Y-79502438D01*
X184785714Y-79502438D02*
X184880952Y-79454819D01*
X184880952Y-79454819D02*
X185119047Y-79454819D01*
X185119047Y-79454819D02*
X185214285Y-79502438D01*
X185214285Y-79502438D02*
X185261904Y-79550057D01*
X185261904Y-79550057D02*
X185309523Y-79645295D01*
X185309523Y-79645295D02*
X185309523Y-79740533D01*
X185309523Y-79740533D02*
X185261904Y-79883390D01*
X185261904Y-79883390D02*
X184690476Y-80454819D01*
X184690476Y-80454819D02*
X185309523Y-80454819D01*
X186166666Y-79788152D02*
X186166666Y-80454819D01*
X185928571Y-79407200D02*
X185690476Y-80121485D01*
X185690476Y-80121485D02*
X186309523Y-80121485D01*
X184357142Y-75454819D02*
X184023809Y-74978628D01*
X183785714Y-75454819D02*
X183785714Y-74454819D01*
X183785714Y-74454819D02*
X184166666Y-74454819D01*
X184166666Y-74454819D02*
X184261904Y-74502438D01*
X184261904Y-74502438D02*
X184309523Y-74550057D01*
X184309523Y-74550057D02*
X184357142Y-74645295D01*
X184357142Y-74645295D02*
X184357142Y-74788152D01*
X184357142Y-74788152D02*
X184309523Y-74883390D01*
X184309523Y-74883390D02*
X184261904Y-74931009D01*
X184261904Y-74931009D02*
X184166666Y-74978628D01*
X184166666Y-74978628D02*
X183785714Y-74978628D01*
X184738095Y-74550057D02*
X184785714Y-74502438D01*
X184785714Y-74502438D02*
X184880952Y-74454819D01*
X184880952Y-74454819D02*
X185119047Y-74454819D01*
X185119047Y-74454819D02*
X185214285Y-74502438D01*
X185214285Y-74502438D02*
X185261904Y-74550057D01*
X185261904Y-74550057D02*
X185309523Y-74645295D01*
X185309523Y-74645295D02*
X185309523Y-74740533D01*
X185309523Y-74740533D02*
X185261904Y-74883390D01*
X185261904Y-74883390D02*
X184690476Y-75454819D01*
X184690476Y-75454819D02*
X185309523Y-75454819D01*
X185642857Y-74454819D02*
X186261904Y-74454819D01*
X186261904Y-74454819D02*
X185928571Y-74835771D01*
X185928571Y-74835771D02*
X186071428Y-74835771D01*
X186071428Y-74835771D02*
X186166666Y-74883390D01*
X186166666Y-74883390D02*
X186214285Y-74931009D01*
X186214285Y-74931009D02*
X186261904Y-75026247D01*
X186261904Y-75026247D02*
X186261904Y-75264342D01*
X186261904Y-75264342D02*
X186214285Y-75359580D01*
X186214285Y-75359580D02*
X186166666Y-75407200D01*
X186166666Y-75407200D02*
X186071428Y-75454819D01*
X186071428Y-75454819D02*
X185785714Y-75454819D01*
X185785714Y-75454819D02*
X185690476Y-75407200D01*
X185690476Y-75407200D02*
X185642857Y-75359580D01*
X184357142Y-70454819D02*
X184023809Y-69978628D01*
X183785714Y-70454819D02*
X183785714Y-69454819D01*
X183785714Y-69454819D02*
X184166666Y-69454819D01*
X184166666Y-69454819D02*
X184261904Y-69502438D01*
X184261904Y-69502438D02*
X184309523Y-69550057D01*
X184309523Y-69550057D02*
X184357142Y-69645295D01*
X184357142Y-69645295D02*
X184357142Y-69788152D01*
X184357142Y-69788152D02*
X184309523Y-69883390D01*
X184309523Y-69883390D02*
X184261904Y-69931009D01*
X184261904Y-69931009D02*
X184166666Y-69978628D01*
X184166666Y-69978628D02*
X183785714Y-69978628D01*
X184738095Y-69550057D02*
X184785714Y-69502438D01*
X184785714Y-69502438D02*
X184880952Y-69454819D01*
X184880952Y-69454819D02*
X185119047Y-69454819D01*
X185119047Y-69454819D02*
X185214285Y-69502438D01*
X185214285Y-69502438D02*
X185261904Y-69550057D01*
X185261904Y-69550057D02*
X185309523Y-69645295D01*
X185309523Y-69645295D02*
X185309523Y-69740533D01*
X185309523Y-69740533D02*
X185261904Y-69883390D01*
X185261904Y-69883390D02*
X184690476Y-70454819D01*
X184690476Y-70454819D02*
X185309523Y-70454819D01*
X185690476Y-69550057D02*
X185738095Y-69502438D01*
X185738095Y-69502438D02*
X185833333Y-69454819D01*
X185833333Y-69454819D02*
X186071428Y-69454819D01*
X186071428Y-69454819D02*
X186166666Y-69502438D01*
X186166666Y-69502438D02*
X186214285Y-69550057D01*
X186214285Y-69550057D02*
X186261904Y-69645295D01*
X186261904Y-69645295D02*
X186261904Y-69740533D01*
X186261904Y-69740533D02*
X186214285Y-69883390D01*
X186214285Y-69883390D02*
X185642857Y-70454819D01*
X185642857Y-70454819D02*
X186261904Y-70454819D01*
X184357142Y-65454819D02*
X184023809Y-64978628D01*
X183785714Y-65454819D02*
X183785714Y-64454819D01*
X183785714Y-64454819D02*
X184166666Y-64454819D01*
X184166666Y-64454819D02*
X184261904Y-64502438D01*
X184261904Y-64502438D02*
X184309523Y-64550057D01*
X184309523Y-64550057D02*
X184357142Y-64645295D01*
X184357142Y-64645295D02*
X184357142Y-64788152D01*
X184357142Y-64788152D02*
X184309523Y-64883390D01*
X184309523Y-64883390D02*
X184261904Y-64931009D01*
X184261904Y-64931009D02*
X184166666Y-64978628D01*
X184166666Y-64978628D02*
X183785714Y-64978628D01*
X184738095Y-64550057D02*
X184785714Y-64502438D01*
X184785714Y-64502438D02*
X184880952Y-64454819D01*
X184880952Y-64454819D02*
X185119047Y-64454819D01*
X185119047Y-64454819D02*
X185214285Y-64502438D01*
X185214285Y-64502438D02*
X185261904Y-64550057D01*
X185261904Y-64550057D02*
X185309523Y-64645295D01*
X185309523Y-64645295D02*
X185309523Y-64740533D01*
X185309523Y-64740533D02*
X185261904Y-64883390D01*
X185261904Y-64883390D02*
X184690476Y-65454819D01*
X184690476Y-65454819D02*
X185309523Y-65454819D01*
X186261904Y-65454819D02*
X185690476Y-65454819D01*
X185976190Y-65454819D02*
X185976190Y-64454819D01*
X185976190Y-64454819D02*
X185880952Y-64597676D01*
X185880952Y-64597676D02*
X185785714Y-64692914D01*
X185785714Y-64692914D02*
X185690476Y-64740533D01*
X184357142Y-60454819D02*
X184023809Y-59978628D01*
X183785714Y-60454819D02*
X183785714Y-59454819D01*
X183785714Y-59454819D02*
X184166666Y-59454819D01*
X184166666Y-59454819D02*
X184261904Y-59502438D01*
X184261904Y-59502438D02*
X184309523Y-59550057D01*
X184309523Y-59550057D02*
X184357142Y-59645295D01*
X184357142Y-59645295D02*
X184357142Y-59788152D01*
X184357142Y-59788152D02*
X184309523Y-59883390D01*
X184309523Y-59883390D02*
X184261904Y-59931009D01*
X184261904Y-59931009D02*
X184166666Y-59978628D01*
X184166666Y-59978628D02*
X183785714Y-59978628D01*
X184738095Y-59550057D02*
X184785714Y-59502438D01*
X184785714Y-59502438D02*
X184880952Y-59454819D01*
X184880952Y-59454819D02*
X185119047Y-59454819D01*
X185119047Y-59454819D02*
X185214285Y-59502438D01*
X185214285Y-59502438D02*
X185261904Y-59550057D01*
X185261904Y-59550057D02*
X185309523Y-59645295D01*
X185309523Y-59645295D02*
X185309523Y-59740533D01*
X185309523Y-59740533D02*
X185261904Y-59883390D01*
X185261904Y-59883390D02*
X184690476Y-60454819D01*
X184690476Y-60454819D02*
X185309523Y-60454819D01*
X185928571Y-59454819D02*
X186023809Y-59454819D01*
X186023809Y-59454819D02*
X186119047Y-59502438D01*
X186119047Y-59502438D02*
X186166666Y-59550057D01*
X186166666Y-59550057D02*
X186214285Y-59645295D01*
X186214285Y-59645295D02*
X186261904Y-59835771D01*
X186261904Y-59835771D02*
X186261904Y-60073866D01*
X186261904Y-60073866D02*
X186214285Y-60264342D01*
X186214285Y-60264342D02*
X186166666Y-60359580D01*
X186166666Y-60359580D02*
X186119047Y-60407200D01*
X186119047Y-60407200D02*
X186023809Y-60454819D01*
X186023809Y-60454819D02*
X185928571Y-60454819D01*
X185928571Y-60454819D02*
X185833333Y-60407200D01*
X185833333Y-60407200D02*
X185785714Y-60359580D01*
X185785714Y-60359580D02*
X185738095Y-60264342D01*
X185738095Y-60264342D02*
X185690476Y-60073866D01*
X185690476Y-60073866D02*
X185690476Y-59835771D01*
X185690476Y-59835771D02*
X185738095Y-59645295D01*
X185738095Y-59645295D02*
X185785714Y-59550057D01*
X185785714Y-59550057D02*
X185833333Y-59502438D01*
X185833333Y-59502438D02*
X185928571Y-59454819D01*
X184357142Y-55454819D02*
X184023809Y-54978628D01*
X183785714Y-55454819D02*
X183785714Y-54454819D01*
X183785714Y-54454819D02*
X184166666Y-54454819D01*
X184166666Y-54454819D02*
X184261904Y-54502438D01*
X184261904Y-54502438D02*
X184309523Y-54550057D01*
X184309523Y-54550057D02*
X184357142Y-54645295D01*
X184357142Y-54645295D02*
X184357142Y-54788152D01*
X184357142Y-54788152D02*
X184309523Y-54883390D01*
X184309523Y-54883390D02*
X184261904Y-54931009D01*
X184261904Y-54931009D02*
X184166666Y-54978628D01*
X184166666Y-54978628D02*
X183785714Y-54978628D01*
X185309523Y-55454819D02*
X184738095Y-55454819D01*
X185023809Y-55454819D02*
X185023809Y-54454819D01*
X185023809Y-54454819D02*
X184928571Y-54597676D01*
X184928571Y-54597676D02*
X184833333Y-54692914D01*
X184833333Y-54692914D02*
X184738095Y-54740533D01*
X185785714Y-55454819D02*
X185976190Y-55454819D01*
X185976190Y-55454819D02*
X186071428Y-55407200D01*
X186071428Y-55407200D02*
X186119047Y-55359580D01*
X186119047Y-55359580D02*
X186214285Y-55216723D01*
X186214285Y-55216723D02*
X186261904Y-55026247D01*
X186261904Y-55026247D02*
X186261904Y-54645295D01*
X186261904Y-54645295D02*
X186214285Y-54550057D01*
X186214285Y-54550057D02*
X186166666Y-54502438D01*
X186166666Y-54502438D02*
X186071428Y-54454819D01*
X186071428Y-54454819D02*
X185880952Y-54454819D01*
X185880952Y-54454819D02*
X185785714Y-54502438D01*
X185785714Y-54502438D02*
X185738095Y-54550057D01*
X185738095Y-54550057D02*
X185690476Y-54645295D01*
X185690476Y-54645295D02*
X185690476Y-54883390D01*
X185690476Y-54883390D02*
X185738095Y-54978628D01*
X185738095Y-54978628D02*
X185785714Y-55026247D01*
X185785714Y-55026247D02*
X185880952Y-55073866D01*
X185880952Y-55073866D02*
X186071428Y-55073866D01*
X186071428Y-55073866D02*
X186166666Y-55026247D01*
X186166666Y-55026247D02*
X186214285Y-54978628D01*
X186214285Y-54978628D02*
X186261904Y-54883390D01*
X184357142Y-50454819D02*
X184023809Y-49978628D01*
X183785714Y-50454819D02*
X183785714Y-49454819D01*
X183785714Y-49454819D02*
X184166666Y-49454819D01*
X184166666Y-49454819D02*
X184261904Y-49502438D01*
X184261904Y-49502438D02*
X184309523Y-49550057D01*
X184309523Y-49550057D02*
X184357142Y-49645295D01*
X184357142Y-49645295D02*
X184357142Y-49788152D01*
X184357142Y-49788152D02*
X184309523Y-49883390D01*
X184309523Y-49883390D02*
X184261904Y-49931009D01*
X184261904Y-49931009D02*
X184166666Y-49978628D01*
X184166666Y-49978628D02*
X183785714Y-49978628D01*
X185309523Y-50454819D02*
X184738095Y-50454819D01*
X185023809Y-50454819D02*
X185023809Y-49454819D01*
X185023809Y-49454819D02*
X184928571Y-49597676D01*
X184928571Y-49597676D02*
X184833333Y-49692914D01*
X184833333Y-49692914D02*
X184738095Y-49740533D01*
X185880952Y-49883390D02*
X185785714Y-49835771D01*
X185785714Y-49835771D02*
X185738095Y-49788152D01*
X185738095Y-49788152D02*
X185690476Y-49692914D01*
X185690476Y-49692914D02*
X185690476Y-49645295D01*
X185690476Y-49645295D02*
X185738095Y-49550057D01*
X185738095Y-49550057D02*
X185785714Y-49502438D01*
X185785714Y-49502438D02*
X185880952Y-49454819D01*
X185880952Y-49454819D02*
X186071428Y-49454819D01*
X186071428Y-49454819D02*
X186166666Y-49502438D01*
X186166666Y-49502438D02*
X186214285Y-49550057D01*
X186214285Y-49550057D02*
X186261904Y-49645295D01*
X186261904Y-49645295D02*
X186261904Y-49692914D01*
X186261904Y-49692914D02*
X186214285Y-49788152D01*
X186214285Y-49788152D02*
X186166666Y-49835771D01*
X186166666Y-49835771D02*
X186071428Y-49883390D01*
X186071428Y-49883390D02*
X185880952Y-49883390D01*
X185880952Y-49883390D02*
X185785714Y-49931009D01*
X185785714Y-49931009D02*
X185738095Y-49978628D01*
X185738095Y-49978628D02*
X185690476Y-50073866D01*
X185690476Y-50073866D02*
X185690476Y-50264342D01*
X185690476Y-50264342D02*
X185738095Y-50359580D01*
X185738095Y-50359580D02*
X185785714Y-50407200D01*
X185785714Y-50407200D02*
X185880952Y-50454819D01*
X185880952Y-50454819D02*
X186071428Y-50454819D01*
X186071428Y-50454819D02*
X186166666Y-50407200D01*
X186166666Y-50407200D02*
X186214285Y-50359580D01*
X186214285Y-50359580D02*
X186261904Y-50264342D01*
X186261904Y-50264342D02*
X186261904Y-50073866D01*
X186261904Y-50073866D02*
X186214285Y-49978628D01*
X186214285Y-49978628D02*
X186166666Y-49931009D01*
X186166666Y-49931009D02*
X186071428Y-49883390D01*
X184357142Y-45454819D02*
X184023809Y-44978628D01*
X183785714Y-45454819D02*
X183785714Y-44454819D01*
X183785714Y-44454819D02*
X184166666Y-44454819D01*
X184166666Y-44454819D02*
X184261904Y-44502438D01*
X184261904Y-44502438D02*
X184309523Y-44550057D01*
X184309523Y-44550057D02*
X184357142Y-44645295D01*
X184357142Y-44645295D02*
X184357142Y-44788152D01*
X184357142Y-44788152D02*
X184309523Y-44883390D01*
X184309523Y-44883390D02*
X184261904Y-44931009D01*
X184261904Y-44931009D02*
X184166666Y-44978628D01*
X184166666Y-44978628D02*
X183785714Y-44978628D01*
X185309523Y-45454819D02*
X184738095Y-45454819D01*
X185023809Y-45454819D02*
X185023809Y-44454819D01*
X185023809Y-44454819D02*
X184928571Y-44597676D01*
X184928571Y-44597676D02*
X184833333Y-44692914D01*
X184833333Y-44692914D02*
X184738095Y-44740533D01*
X185642857Y-44454819D02*
X186309523Y-44454819D01*
X186309523Y-44454819D02*
X185880952Y-45454819D01*
X156357142Y-76454819D02*
X156023809Y-75978628D01*
X155785714Y-76454819D02*
X155785714Y-75454819D01*
X155785714Y-75454819D02*
X156166666Y-75454819D01*
X156166666Y-75454819D02*
X156261904Y-75502438D01*
X156261904Y-75502438D02*
X156309523Y-75550057D01*
X156309523Y-75550057D02*
X156357142Y-75645295D01*
X156357142Y-75645295D02*
X156357142Y-75788152D01*
X156357142Y-75788152D02*
X156309523Y-75883390D01*
X156309523Y-75883390D02*
X156261904Y-75931009D01*
X156261904Y-75931009D02*
X156166666Y-75978628D01*
X156166666Y-75978628D02*
X155785714Y-75978628D01*
X157309523Y-76454819D02*
X156738095Y-76454819D01*
X157023809Y-76454819D02*
X157023809Y-75454819D01*
X157023809Y-75454819D02*
X156928571Y-75597676D01*
X156928571Y-75597676D02*
X156833333Y-75692914D01*
X156833333Y-75692914D02*
X156738095Y-75740533D01*
X158166666Y-75454819D02*
X157976190Y-75454819D01*
X157976190Y-75454819D02*
X157880952Y-75502438D01*
X157880952Y-75502438D02*
X157833333Y-75550057D01*
X157833333Y-75550057D02*
X157738095Y-75692914D01*
X157738095Y-75692914D02*
X157690476Y-75883390D01*
X157690476Y-75883390D02*
X157690476Y-76264342D01*
X157690476Y-76264342D02*
X157738095Y-76359580D01*
X157738095Y-76359580D02*
X157785714Y-76407200D01*
X157785714Y-76407200D02*
X157880952Y-76454819D01*
X157880952Y-76454819D02*
X158071428Y-76454819D01*
X158071428Y-76454819D02*
X158166666Y-76407200D01*
X158166666Y-76407200D02*
X158214285Y-76359580D01*
X158214285Y-76359580D02*
X158261904Y-76264342D01*
X158261904Y-76264342D02*
X158261904Y-76026247D01*
X158261904Y-76026247D02*
X158214285Y-75931009D01*
X158214285Y-75931009D02*
X158166666Y-75883390D01*
X158166666Y-75883390D02*
X158071428Y-75835771D01*
X158071428Y-75835771D02*
X157880952Y-75835771D01*
X157880952Y-75835771D02*
X157785714Y-75883390D01*
X157785714Y-75883390D02*
X157738095Y-75931009D01*
X157738095Y-75931009D02*
X157690476Y-76026247D01*
X156357142Y-74454819D02*
X156023809Y-73978628D01*
X155785714Y-74454819D02*
X155785714Y-73454819D01*
X155785714Y-73454819D02*
X156166666Y-73454819D01*
X156166666Y-73454819D02*
X156261904Y-73502438D01*
X156261904Y-73502438D02*
X156309523Y-73550057D01*
X156309523Y-73550057D02*
X156357142Y-73645295D01*
X156357142Y-73645295D02*
X156357142Y-73788152D01*
X156357142Y-73788152D02*
X156309523Y-73883390D01*
X156309523Y-73883390D02*
X156261904Y-73931009D01*
X156261904Y-73931009D02*
X156166666Y-73978628D01*
X156166666Y-73978628D02*
X155785714Y-73978628D01*
X157309523Y-74454819D02*
X156738095Y-74454819D01*
X157023809Y-74454819D02*
X157023809Y-73454819D01*
X157023809Y-73454819D02*
X156928571Y-73597676D01*
X156928571Y-73597676D02*
X156833333Y-73692914D01*
X156833333Y-73692914D02*
X156738095Y-73740533D01*
X158214285Y-73454819D02*
X157738095Y-73454819D01*
X157738095Y-73454819D02*
X157690476Y-73931009D01*
X157690476Y-73931009D02*
X157738095Y-73883390D01*
X157738095Y-73883390D02*
X157833333Y-73835771D01*
X157833333Y-73835771D02*
X158071428Y-73835771D01*
X158071428Y-73835771D02*
X158166666Y-73883390D01*
X158166666Y-73883390D02*
X158214285Y-73931009D01*
X158214285Y-73931009D02*
X158261904Y-74026247D01*
X158261904Y-74026247D02*
X158261904Y-74264342D01*
X158261904Y-74264342D02*
X158214285Y-74359580D01*
X158214285Y-74359580D02*
X158166666Y-74407200D01*
X158166666Y-74407200D02*
X158071428Y-74454819D01*
X158071428Y-74454819D02*
X157833333Y-74454819D01*
X157833333Y-74454819D02*
X157738095Y-74407200D01*
X157738095Y-74407200D02*
X157690476Y-74359580D01*
X156357142Y-72454819D02*
X156023809Y-71978628D01*
X155785714Y-72454819D02*
X155785714Y-71454819D01*
X155785714Y-71454819D02*
X156166666Y-71454819D01*
X156166666Y-71454819D02*
X156261904Y-71502438D01*
X156261904Y-71502438D02*
X156309523Y-71550057D01*
X156309523Y-71550057D02*
X156357142Y-71645295D01*
X156357142Y-71645295D02*
X156357142Y-71788152D01*
X156357142Y-71788152D02*
X156309523Y-71883390D01*
X156309523Y-71883390D02*
X156261904Y-71931009D01*
X156261904Y-71931009D02*
X156166666Y-71978628D01*
X156166666Y-71978628D02*
X155785714Y-71978628D01*
X157309523Y-72454819D02*
X156738095Y-72454819D01*
X157023809Y-72454819D02*
X157023809Y-71454819D01*
X157023809Y-71454819D02*
X156928571Y-71597676D01*
X156928571Y-71597676D02*
X156833333Y-71692914D01*
X156833333Y-71692914D02*
X156738095Y-71740533D01*
X158166666Y-71788152D02*
X158166666Y-72454819D01*
X157928571Y-71407200D02*
X157690476Y-72121485D01*
X157690476Y-72121485D02*
X158309523Y-72121485D01*
X156357142Y-70454819D02*
X156023809Y-69978628D01*
X155785714Y-70454819D02*
X155785714Y-69454819D01*
X155785714Y-69454819D02*
X156166666Y-69454819D01*
X156166666Y-69454819D02*
X156261904Y-69502438D01*
X156261904Y-69502438D02*
X156309523Y-69550057D01*
X156309523Y-69550057D02*
X156357142Y-69645295D01*
X156357142Y-69645295D02*
X156357142Y-69788152D01*
X156357142Y-69788152D02*
X156309523Y-69883390D01*
X156309523Y-69883390D02*
X156261904Y-69931009D01*
X156261904Y-69931009D02*
X156166666Y-69978628D01*
X156166666Y-69978628D02*
X155785714Y-69978628D01*
X157309523Y-70454819D02*
X156738095Y-70454819D01*
X157023809Y-70454819D02*
X157023809Y-69454819D01*
X157023809Y-69454819D02*
X156928571Y-69597676D01*
X156928571Y-69597676D02*
X156833333Y-69692914D01*
X156833333Y-69692914D02*
X156738095Y-69740533D01*
X157642857Y-69454819D02*
X158261904Y-69454819D01*
X158261904Y-69454819D02*
X157928571Y-69835771D01*
X157928571Y-69835771D02*
X158071428Y-69835771D01*
X158071428Y-69835771D02*
X158166666Y-69883390D01*
X158166666Y-69883390D02*
X158214285Y-69931009D01*
X158214285Y-69931009D02*
X158261904Y-70026247D01*
X158261904Y-70026247D02*
X158261904Y-70264342D01*
X158261904Y-70264342D02*
X158214285Y-70359580D01*
X158214285Y-70359580D02*
X158166666Y-70407200D01*
X158166666Y-70407200D02*
X158071428Y-70454819D01*
X158071428Y-70454819D02*
X157785714Y-70454819D01*
X157785714Y-70454819D02*
X157690476Y-70407200D01*
X157690476Y-70407200D02*
X157642857Y-70359580D01*
X156357142Y-68454819D02*
X156023809Y-67978628D01*
X155785714Y-68454819D02*
X155785714Y-67454819D01*
X155785714Y-67454819D02*
X156166666Y-67454819D01*
X156166666Y-67454819D02*
X156261904Y-67502438D01*
X156261904Y-67502438D02*
X156309523Y-67550057D01*
X156309523Y-67550057D02*
X156357142Y-67645295D01*
X156357142Y-67645295D02*
X156357142Y-67788152D01*
X156357142Y-67788152D02*
X156309523Y-67883390D01*
X156309523Y-67883390D02*
X156261904Y-67931009D01*
X156261904Y-67931009D02*
X156166666Y-67978628D01*
X156166666Y-67978628D02*
X155785714Y-67978628D01*
X157309523Y-68454819D02*
X156738095Y-68454819D01*
X157023809Y-68454819D02*
X157023809Y-67454819D01*
X157023809Y-67454819D02*
X156928571Y-67597676D01*
X156928571Y-67597676D02*
X156833333Y-67692914D01*
X156833333Y-67692914D02*
X156738095Y-67740533D01*
X157690476Y-67550057D02*
X157738095Y-67502438D01*
X157738095Y-67502438D02*
X157833333Y-67454819D01*
X157833333Y-67454819D02*
X158071428Y-67454819D01*
X158071428Y-67454819D02*
X158166666Y-67502438D01*
X158166666Y-67502438D02*
X158214285Y-67550057D01*
X158214285Y-67550057D02*
X158261904Y-67645295D01*
X158261904Y-67645295D02*
X158261904Y-67740533D01*
X158261904Y-67740533D02*
X158214285Y-67883390D01*
X158214285Y-67883390D02*
X157642857Y-68454819D01*
X157642857Y-68454819D02*
X158261904Y-68454819D01*
X156357142Y-66454819D02*
X156023809Y-65978628D01*
X155785714Y-66454819D02*
X155785714Y-65454819D01*
X155785714Y-65454819D02*
X156166666Y-65454819D01*
X156166666Y-65454819D02*
X156261904Y-65502438D01*
X156261904Y-65502438D02*
X156309523Y-65550057D01*
X156309523Y-65550057D02*
X156357142Y-65645295D01*
X156357142Y-65645295D02*
X156357142Y-65788152D01*
X156357142Y-65788152D02*
X156309523Y-65883390D01*
X156309523Y-65883390D02*
X156261904Y-65931009D01*
X156261904Y-65931009D02*
X156166666Y-65978628D01*
X156166666Y-65978628D02*
X155785714Y-65978628D01*
X157309523Y-66454819D02*
X156738095Y-66454819D01*
X157023809Y-66454819D02*
X157023809Y-65454819D01*
X157023809Y-65454819D02*
X156928571Y-65597676D01*
X156928571Y-65597676D02*
X156833333Y-65692914D01*
X156833333Y-65692914D02*
X156738095Y-65740533D01*
X158261904Y-66454819D02*
X157690476Y-66454819D01*
X157976190Y-66454819D02*
X157976190Y-65454819D01*
X157976190Y-65454819D02*
X157880952Y-65597676D01*
X157880952Y-65597676D02*
X157785714Y-65692914D01*
X157785714Y-65692914D02*
X157690476Y-65740533D01*
X156357142Y-64604819D02*
X156023809Y-64128628D01*
X155785714Y-64604819D02*
X155785714Y-63604819D01*
X155785714Y-63604819D02*
X156166666Y-63604819D01*
X156166666Y-63604819D02*
X156261904Y-63652438D01*
X156261904Y-63652438D02*
X156309523Y-63700057D01*
X156309523Y-63700057D02*
X156357142Y-63795295D01*
X156357142Y-63795295D02*
X156357142Y-63938152D01*
X156357142Y-63938152D02*
X156309523Y-64033390D01*
X156309523Y-64033390D02*
X156261904Y-64081009D01*
X156261904Y-64081009D02*
X156166666Y-64128628D01*
X156166666Y-64128628D02*
X155785714Y-64128628D01*
X157309523Y-64604819D02*
X156738095Y-64604819D01*
X157023809Y-64604819D02*
X157023809Y-63604819D01*
X157023809Y-63604819D02*
X156928571Y-63747676D01*
X156928571Y-63747676D02*
X156833333Y-63842914D01*
X156833333Y-63842914D02*
X156738095Y-63890533D01*
X157928571Y-63604819D02*
X158023809Y-63604819D01*
X158023809Y-63604819D02*
X158119047Y-63652438D01*
X158119047Y-63652438D02*
X158166666Y-63700057D01*
X158166666Y-63700057D02*
X158214285Y-63795295D01*
X158214285Y-63795295D02*
X158261904Y-63985771D01*
X158261904Y-63985771D02*
X158261904Y-64223866D01*
X158261904Y-64223866D02*
X158214285Y-64414342D01*
X158214285Y-64414342D02*
X158166666Y-64509580D01*
X158166666Y-64509580D02*
X158119047Y-64557200D01*
X158119047Y-64557200D02*
X158023809Y-64604819D01*
X158023809Y-64604819D02*
X157928571Y-64604819D01*
X157928571Y-64604819D02*
X157833333Y-64557200D01*
X157833333Y-64557200D02*
X157785714Y-64509580D01*
X157785714Y-64509580D02*
X157738095Y-64414342D01*
X157738095Y-64414342D02*
X157690476Y-64223866D01*
X157690476Y-64223866D02*
X157690476Y-63985771D01*
X157690476Y-63985771D02*
X157738095Y-63795295D01*
X157738095Y-63795295D02*
X157785714Y-63700057D01*
X157785714Y-63700057D02*
X157833333Y-63652438D01*
X157833333Y-63652438D02*
X157928571Y-63604819D01*
X156833333Y-62454819D02*
X156500000Y-61978628D01*
X156261905Y-62454819D02*
X156261905Y-61454819D01*
X156261905Y-61454819D02*
X156642857Y-61454819D01*
X156642857Y-61454819D02*
X156738095Y-61502438D01*
X156738095Y-61502438D02*
X156785714Y-61550057D01*
X156785714Y-61550057D02*
X156833333Y-61645295D01*
X156833333Y-61645295D02*
X156833333Y-61788152D01*
X156833333Y-61788152D02*
X156785714Y-61883390D01*
X156785714Y-61883390D02*
X156738095Y-61931009D01*
X156738095Y-61931009D02*
X156642857Y-61978628D01*
X156642857Y-61978628D02*
X156261905Y-61978628D01*
X157309524Y-62454819D02*
X157500000Y-62454819D01*
X157500000Y-62454819D02*
X157595238Y-62407200D01*
X157595238Y-62407200D02*
X157642857Y-62359580D01*
X157642857Y-62359580D02*
X157738095Y-62216723D01*
X157738095Y-62216723D02*
X157785714Y-62026247D01*
X157785714Y-62026247D02*
X157785714Y-61645295D01*
X157785714Y-61645295D02*
X157738095Y-61550057D01*
X157738095Y-61550057D02*
X157690476Y-61502438D01*
X157690476Y-61502438D02*
X157595238Y-61454819D01*
X157595238Y-61454819D02*
X157404762Y-61454819D01*
X157404762Y-61454819D02*
X157309524Y-61502438D01*
X157309524Y-61502438D02*
X157261905Y-61550057D01*
X157261905Y-61550057D02*
X157214286Y-61645295D01*
X157214286Y-61645295D02*
X157214286Y-61883390D01*
X157214286Y-61883390D02*
X157261905Y-61978628D01*
X157261905Y-61978628D02*
X157309524Y-62026247D01*
X157309524Y-62026247D02*
X157404762Y-62073866D01*
X157404762Y-62073866D02*
X157595238Y-62073866D01*
X157595238Y-62073866D02*
X157690476Y-62026247D01*
X157690476Y-62026247D02*
X157738095Y-61978628D01*
X157738095Y-61978628D02*
X157785714Y-61883390D01*
X167833333Y-76454819D02*
X167500000Y-75978628D01*
X167261905Y-76454819D02*
X167261905Y-75454819D01*
X167261905Y-75454819D02*
X167642857Y-75454819D01*
X167642857Y-75454819D02*
X167738095Y-75502438D01*
X167738095Y-75502438D02*
X167785714Y-75550057D01*
X167785714Y-75550057D02*
X167833333Y-75645295D01*
X167833333Y-75645295D02*
X167833333Y-75788152D01*
X167833333Y-75788152D02*
X167785714Y-75883390D01*
X167785714Y-75883390D02*
X167738095Y-75931009D01*
X167738095Y-75931009D02*
X167642857Y-75978628D01*
X167642857Y-75978628D02*
X167261905Y-75978628D01*
X168404762Y-75883390D02*
X168309524Y-75835771D01*
X168309524Y-75835771D02*
X168261905Y-75788152D01*
X168261905Y-75788152D02*
X168214286Y-75692914D01*
X168214286Y-75692914D02*
X168214286Y-75645295D01*
X168214286Y-75645295D02*
X168261905Y-75550057D01*
X168261905Y-75550057D02*
X168309524Y-75502438D01*
X168309524Y-75502438D02*
X168404762Y-75454819D01*
X168404762Y-75454819D02*
X168595238Y-75454819D01*
X168595238Y-75454819D02*
X168690476Y-75502438D01*
X168690476Y-75502438D02*
X168738095Y-75550057D01*
X168738095Y-75550057D02*
X168785714Y-75645295D01*
X168785714Y-75645295D02*
X168785714Y-75692914D01*
X168785714Y-75692914D02*
X168738095Y-75788152D01*
X168738095Y-75788152D02*
X168690476Y-75835771D01*
X168690476Y-75835771D02*
X168595238Y-75883390D01*
X168595238Y-75883390D02*
X168404762Y-75883390D01*
X168404762Y-75883390D02*
X168309524Y-75931009D01*
X168309524Y-75931009D02*
X168261905Y-75978628D01*
X168261905Y-75978628D02*
X168214286Y-76073866D01*
X168214286Y-76073866D02*
X168214286Y-76264342D01*
X168214286Y-76264342D02*
X168261905Y-76359580D01*
X168261905Y-76359580D02*
X168309524Y-76407200D01*
X168309524Y-76407200D02*
X168404762Y-76454819D01*
X168404762Y-76454819D02*
X168595238Y-76454819D01*
X168595238Y-76454819D02*
X168690476Y-76407200D01*
X168690476Y-76407200D02*
X168738095Y-76359580D01*
X168738095Y-76359580D02*
X168785714Y-76264342D01*
X168785714Y-76264342D02*
X168785714Y-76073866D01*
X168785714Y-76073866D02*
X168738095Y-75978628D01*
X168738095Y-75978628D02*
X168690476Y-75931009D01*
X168690476Y-75931009D02*
X168595238Y-75883390D01*
X167833333Y-74454819D02*
X167500000Y-73978628D01*
X167261905Y-74454819D02*
X167261905Y-73454819D01*
X167261905Y-73454819D02*
X167642857Y-73454819D01*
X167642857Y-73454819D02*
X167738095Y-73502438D01*
X167738095Y-73502438D02*
X167785714Y-73550057D01*
X167785714Y-73550057D02*
X167833333Y-73645295D01*
X167833333Y-73645295D02*
X167833333Y-73788152D01*
X167833333Y-73788152D02*
X167785714Y-73883390D01*
X167785714Y-73883390D02*
X167738095Y-73931009D01*
X167738095Y-73931009D02*
X167642857Y-73978628D01*
X167642857Y-73978628D02*
X167261905Y-73978628D01*
X168166667Y-73454819D02*
X168833333Y-73454819D01*
X168833333Y-73454819D02*
X168404762Y-74454819D01*
X167833333Y-72454819D02*
X167500000Y-71978628D01*
X167261905Y-72454819D02*
X167261905Y-71454819D01*
X167261905Y-71454819D02*
X167642857Y-71454819D01*
X167642857Y-71454819D02*
X167738095Y-71502438D01*
X167738095Y-71502438D02*
X167785714Y-71550057D01*
X167785714Y-71550057D02*
X167833333Y-71645295D01*
X167833333Y-71645295D02*
X167833333Y-71788152D01*
X167833333Y-71788152D02*
X167785714Y-71883390D01*
X167785714Y-71883390D02*
X167738095Y-71931009D01*
X167738095Y-71931009D02*
X167642857Y-71978628D01*
X167642857Y-71978628D02*
X167261905Y-71978628D01*
X168690476Y-71454819D02*
X168500000Y-71454819D01*
X168500000Y-71454819D02*
X168404762Y-71502438D01*
X168404762Y-71502438D02*
X168357143Y-71550057D01*
X168357143Y-71550057D02*
X168261905Y-71692914D01*
X168261905Y-71692914D02*
X168214286Y-71883390D01*
X168214286Y-71883390D02*
X168214286Y-72264342D01*
X168214286Y-72264342D02*
X168261905Y-72359580D01*
X168261905Y-72359580D02*
X168309524Y-72407200D01*
X168309524Y-72407200D02*
X168404762Y-72454819D01*
X168404762Y-72454819D02*
X168595238Y-72454819D01*
X168595238Y-72454819D02*
X168690476Y-72407200D01*
X168690476Y-72407200D02*
X168738095Y-72359580D01*
X168738095Y-72359580D02*
X168785714Y-72264342D01*
X168785714Y-72264342D02*
X168785714Y-72026247D01*
X168785714Y-72026247D02*
X168738095Y-71931009D01*
X168738095Y-71931009D02*
X168690476Y-71883390D01*
X168690476Y-71883390D02*
X168595238Y-71835771D01*
X168595238Y-71835771D02*
X168404762Y-71835771D01*
X168404762Y-71835771D02*
X168309524Y-71883390D01*
X168309524Y-71883390D02*
X168261905Y-71931009D01*
X168261905Y-71931009D02*
X168214286Y-72026247D01*
X167833333Y-70454819D02*
X167500000Y-69978628D01*
X167261905Y-70454819D02*
X167261905Y-69454819D01*
X167261905Y-69454819D02*
X167642857Y-69454819D01*
X167642857Y-69454819D02*
X167738095Y-69502438D01*
X167738095Y-69502438D02*
X167785714Y-69550057D01*
X167785714Y-69550057D02*
X167833333Y-69645295D01*
X167833333Y-69645295D02*
X167833333Y-69788152D01*
X167833333Y-69788152D02*
X167785714Y-69883390D01*
X167785714Y-69883390D02*
X167738095Y-69931009D01*
X167738095Y-69931009D02*
X167642857Y-69978628D01*
X167642857Y-69978628D02*
X167261905Y-69978628D01*
X168738095Y-69454819D02*
X168261905Y-69454819D01*
X168261905Y-69454819D02*
X168214286Y-69931009D01*
X168214286Y-69931009D02*
X168261905Y-69883390D01*
X168261905Y-69883390D02*
X168357143Y-69835771D01*
X168357143Y-69835771D02*
X168595238Y-69835771D01*
X168595238Y-69835771D02*
X168690476Y-69883390D01*
X168690476Y-69883390D02*
X168738095Y-69931009D01*
X168738095Y-69931009D02*
X168785714Y-70026247D01*
X168785714Y-70026247D02*
X168785714Y-70264342D01*
X168785714Y-70264342D02*
X168738095Y-70359580D01*
X168738095Y-70359580D02*
X168690476Y-70407200D01*
X168690476Y-70407200D02*
X168595238Y-70454819D01*
X168595238Y-70454819D02*
X168357143Y-70454819D01*
X168357143Y-70454819D02*
X168261905Y-70407200D01*
X168261905Y-70407200D02*
X168214286Y-70359580D01*
X167833333Y-68454819D02*
X167500000Y-67978628D01*
X167261905Y-68454819D02*
X167261905Y-67454819D01*
X167261905Y-67454819D02*
X167642857Y-67454819D01*
X167642857Y-67454819D02*
X167738095Y-67502438D01*
X167738095Y-67502438D02*
X167785714Y-67550057D01*
X167785714Y-67550057D02*
X167833333Y-67645295D01*
X167833333Y-67645295D02*
X167833333Y-67788152D01*
X167833333Y-67788152D02*
X167785714Y-67883390D01*
X167785714Y-67883390D02*
X167738095Y-67931009D01*
X167738095Y-67931009D02*
X167642857Y-67978628D01*
X167642857Y-67978628D02*
X167261905Y-67978628D01*
X168690476Y-67788152D02*
X168690476Y-68454819D01*
X168452381Y-67407200D02*
X168214286Y-68121485D01*
X168214286Y-68121485D02*
X168833333Y-68121485D01*
X167833333Y-66454819D02*
X167500000Y-65978628D01*
X167261905Y-66454819D02*
X167261905Y-65454819D01*
X167261905Y-65454819D02*
X167642857Y-65454819D01*
X167642857Y-65454819D02*
X167738095Y-65502438D01*
X167738095Y-65502438D02*
X167785714Y-65550057D01*
X167785714Y-65550057D02*
X167833333Y-65645295D01*
X167833333Y-65645295D02*
X167833333Y-65788152D01*
X167833333Y-65788152D02*
X167785714Y-65883390D01*
X167785714Y-65883390D02*
X167738095Y-65931009D01*
X167738095Y-65931009D02*
X167642857Y-65978628D01*
X167642857Y-65978628D02*
X167261905Y-65978628D01*
X168166667Y-65454819D02*
X168785714Y-65454819D01*
X168785714Y-65454819D02*
X168452381Y-65835771D01*
X168452381Y-65835771D02*
X168595238Y-65835771D01*
X168595238Y-65835771D02*
X168690476Y-65883390D01*
X168690476Y-65883390D02*
X168738095Y-65931009D01*
X168738095Y-65931009D02*
X168785714Y-66026247D01*
X168785714Y-66026247D02*
X168785714Y-66264342D01*
X168785714Y-66264342D02*
X168738095Y-66359580D01*
X168738095Y-66359580D02*
X168690476Y-66407200D01*
X168690476Y-66407200D02*
X168595238Y-66454819D01*
X168595238Y-66454819D02*
X168309524Y-66454819D01*
X168309524Y-66454819D02*
X168214286Y-66407200D01*
X168214286Y-66407200D02*
X168166667Y-66359580D01*
X167833333Y-64454819D02*
X167500000Y-63978628D01*
X167261905Y-64454819D02*
X167261905Y-63454819D01*
X167261905Y-63454819D02*
X167642857Y-63454819D01*
X167642857Y-63454819D02*
X167738095Y-63502438D01*
X167738095Y-63502438D02*
X167785714Y-63550057D01*
X167785714Y-63550057D02*
X167833333Y-63645295D01*
X167833333Y-63645295D02*
X167833333Y-63788152D01*
X167833333Y-63788152D02*
X167785714Y-63883390D01*
X167785714Y-63883390D02*
X167738095Y-63931009D01*
X167738095Y-63931009D02*
X167642857Y-63978628D01*
X167642857Y-63978628D02*
X167261905Y-63978628D01*
X168214286Y-63550057D02*
X168261905Y-63502438D01*
X168261905Y-63502438D02*
X168357143Y-63454819D01*
X168357143Y-63454819D02*
X168595238Y-63454819D01*
X168595238Y-63454819D02*
X168690476Y-63502438D01*
X168690476Y-63502438D02*
X168738095Y-63550057D01*
X168738095Y-63550057D02*
X168785714Y-63645295D01*
X168785714Y-63645295D02*
X168785714Y-63740533D01*
X168785714Y-63740533D02*
X168738095Y-63883390D01*
X168738095Y-63883390D02*
X168166667Y-64454819D01*
X168166667Y-64454819D02*
X168785714Y-64454819D01*
X167833333Y-62454819D02*
X167500000Y-61978628D01*
X167261905Y-62454819D02*
X167261905Y-61454819D01*
X167261905Y-61454819D02*
X167642857Y-61454819D01*
X167642857Y-61454819D02*
X167738095Y-61502438D01*
X167738095Y-61502438D02*
X167785714Y-61550057D01*
X167785714Y-61550057D02*
X167833333Y-61645295D01*
X167833333Y-61645295D02*
X167833333Y-61788152D01*
X167833333Y-61788152D02*
X167785714Y-61883390D01*
X167785714Y-61883390D02*
X167738095Y-61931009D01*
X167738095Y-61931009D02*
X167642857Y-61978628D01*
X167642857Y-61978628D02*
X167261905Y-61978628D01*
X168785714Y-62454819D02*
X168214286Y-62454819D01*
X168500000Y-62454819D02*
X168500000Y-61454819D01*
X168500000Y-61454819D02*
X168404762Y-61597676D01*
X168404762Y-61597676D02*
X168309524Y-61692914D01*
X168309524Y-61692914D02*
X168214286Y-61740533D01*
X198904761Y-83550057D02*
X198809523Y-83502438D01*
X198809523Y-83502438D02*
X198714285Y-83407200D01*
X198714285Y-83407200D02*
X198571428Y-83264342D01*
X198571428Y-83264342D02*
X198476190Y-83216723D01*
X198476190Y-83216723D02*
X198380952Y-83216723D01*
X198428571Y-83454819D02*
X198333333Y-83407200D01*
X198333333Y-83407200D02*
X198238095Y-83311961D01*
X198238095Y-83311961D02*
X198190476Y-83121485D01*
X198190476Y-83121485D02*
X198190476Y-82788152D01*
X198190476Y-82788152D02*
X198238095Y-82597676D01*
X198238095Y-82597676D02*
X198333333Y-82502438D01*
X198333333Y-82502438D02*
X198428571Y-82454819D01*
X198428571Y-82454819D02*
X198619047Y-82454819D01*
X198619047Y-82454819D02*
X198714285Y-82502438D01*
X198714285Y-82502438D02*
X198809523Y-82597676D01*
X198809523Y-82597676D02*
X198857142Y-82788152D01*
X198857142Y-82788152D02*
X198857142Y-83121485D01*
X198857142Y-83121485D02*
X198809523Y-83311961D01*
X198809523Y-83311961D02*
X198714285Y-83407200D01*
X198714285Y-83407200D02*
X198619047Y-83454819D01*
X198619047Y-83454819D02*
X198428571Y-83454819D01*
X199428571Y-82883390D02*
X199333333Y-82835771D01*
X199333333Y-82835771D02*
X199285714Y-82788152D01*
X199285714Y-82788152D02*
X199238095Y-82692914D01*
X199238095Y-82692914D02*
X199238095Y-82645295D01*
X199238095Y-82645295D02*
X199285714Y-82550057D01*
X199285714Y-82550057D02*
X199333333Y-82502438D01*
X199333333Y-82502438D02*
X199428571Y-82454819D01*
X199428571Y-82454819D02*
X199619047Y-82454819D01*
X199619047Y-82454819D02*
X199714285Y-82502438D01*
X199714285Y-82502438D02*
X199761904Y-82550057D01*
X199761904Y-82550057D02*
X199809523Y-82645295D01*
X199809523Y-82645295D02*
X199809523Y-82692914D01*
X199809523Y-82692914D02*
X199761904Y-82788152D01*
X199761904Y-82788152D02*
X199714285Y-82835771D01*
X199714285Y-82835771D02*
X199619047Y-82883390D01*
X199619047Y-82883390D02*
X199428571Y-82883390D01*
X199428571Y-82883390D02*
X199333333Y-82931009D01*
X199333333Y-82931009D02*
X199285714Y-82978628D01*
X199285714Y-82978628D02*
X199238095Y-83073866D01*
X199238095Y-83073866D02*
X199238095Y-83264342D01*
X199238095Y-83264342D02*
X199285714Y-83359580D01*
X199285714Y-83359580D02*
X199333333Y-83407200D01*
X199333333Y-83407200D02*
X199428571Y-83454819D01*
X199428571Y-83454819D02*
X199619047Y-83454819D01*
X199619047Y-83454819D02*
X199714285Y-83407200D01*
X199714285Y-83407200D02*
X199761904Y-83359580D01*
X199761904Y-83359580D02*
X199809523Y-83264342D01*
X199809523Y-83264342D02*
X199809523Y-83073866D01*
X199809523Y-83073866D02*
X199761904Y-82978628D01*
X199761904Y-82978628D02*
X199714285Y-82931009D01*
X199714285Y-82931009D02*
X199619047Y-82883390D01*
X198904761Y-78550057D02*
X198809523Y-78502438D01*
X198809523Y-78502438D02*
X198714285Y-78407200D01*
X198714285Y-78407200D02*
X198571428Y-78264342D01*
X198571428Y-78264342D02*
X198476190Y-78216723D01*
X198476190Y-78216723D02*
X198380952Y-78216723D01*
X198428571Y-78454819D02*
X198333333Y-78407200D01*
X198333333Y-78407200D02*
X198238095Y-78311961D01*
X198238095Y-78311961D02*
X198190476Y-78121485D01*
X198190476Y-78121485D02*
X198190476Y-77788152D01*
X198190476Y-77788152D02*
X198238095Y-77597676D01*
X198238095Y-77597676D02*
X198333333Y-77502438D01*
X198333333Y-77502438D02*
X198428571Y-77454819D01*
X198428571Y-77454819D02*
X198619047Y-77454819D01*
X198619047Y-77454819D02*
X198714285Y-77502438D01*
X198714285Y-77502438D02*
X198809523Y-77597676D01*
X198809523Y-77597676D02*
X198857142Y-77788152D01*
X198857142Y-77788152D02*
X198857142Y-78121485D01*
X198857142Y-78121485D02*
X198809523Y-78311961D01*
X198809523Y-78311961D02*
X198714285Y-78407200D01*
X198714285Y-78407200D02*
X198619047Y-78454819D01*
X198619047Y-78454819D02*
X198428571Y-78454819D01*
X199190476Y-77454819D02*
X199857142Y-77454819D01*
X199857142Y-77454819D02*
X199428571Y-78454819D01*
X198974761Y-73610057D02*
X198879523Y-73562438D01*
X198879523Y-73562438D02*
X198784285Y-73467200D01*
X198784285Y-73467200D02*
X198641428Y-73324342D01*
X198641428Y-73324342D02*
X198546190Y-73276723D01*
X198546190Y-73276723D02*
X198450952Y-73276723D01*
X198498571Y-73514819D02*
X198403333Y-73467200D01*
X198403333Y-73467200D02*
X198308095Y-73371961D01*
X198308095Y-73371961D02*
X198260476Y-73181485D01*
X198260476Y-73181485D02*
X198260476Y-72848152D01*
X198260476Y-72848152D02*
X198308095Y-72657676D01*
X198308095Y-72657676D02*
X198403333Y-72562438D01*
X198403333Y-72562438D02*
X198498571Y-72514819D01*
X198498571Y-72514819D02*
X198689047Y-72514819D01*
X198689047Y-72514819D02*
X198784285Y-72562438D01*
X198784285Y-72562438D02*
X198879523Y-72657676D01*
X198879523Y-72657676D02*
X198927142Y-72848152D01*
X198927142Y-72848152D02*
X198927142Y-73181485D01*
X198927142Y-73181485D02*
X198879523Y-73371961D01*
X198879523Y-73371961D02*
X198784285Y-73467200D01*
X198784285Y-73467200D02*
X198689047Y-73514819D01*
X198689047Y-73514819D02*
X198498571Y-73514819D01*
X199784285Y-72514819D02*
X199593809Y-72514819D01*
X199593809Y-72514819D02*
X199498571Y-72562438D01*
X199498571Y-72562438D02*
X199450952Y-72610057D01*
X199450952Y-72610057D02*
X199355714Y-72752914D01*
X199355714Y-72752914D02*
X199308095Y-72943390D01*
X199308095Y-72943390D02*
X199308095Y-73324342D01*
X199308095Y-73324342D02*
X199355714Y-73419580D01*
X199355714Y-73419580D02*
X199403333Y-73467200D01*
X199403333Y-73467200D02*
X199498571Y-73514819D01*
X199498571Y-73514819D02*
X199689047Y-73514819D01*
X199689047Y-73514819D02*
X199784285Y-73467200D01*
X199784285Y-73467200D02*
X199831904Y-73419580D01*
X199831904Y-73419580D02*
X199879523Y-73324342D01*
X199879523Y-73324342D02*
X199879523Y-73086247D01*
X199879523Y-73086247D02*
X199831904Y-72991009D01*
X199831904Y-72991009D02*
X199784285Y-72943390D01*
X199784285Y-72943390D02*
X199689047Y-72895771D01*
X199689047Y-72895771D02*
X199498571Y-72895771D01*
X199498571Y-72895771D02*
X199403333Y-72943390D01*
X199403333Y-72943390D02*
X199355714Y-72991009D01*
X199355714Y-72991009D02*
X199308095Y-73086247D01*
X198974761Y-68400057D02*
X198879523Y-68352438D01*
X198879523Y-68352438D02*
X198784285Y-68257200D01*
X198784285Y-68257200D02*
X198641428Y-68114342D01*
X198641428Y-68114342D02*
X198546190Y-68066723D01*
X198546190Y-68066723D02*
X198450952Y-68066723D01*
X198498571Y-68304819D02*
X198403333Y-68257200D01*
X198403333Y-68257200D02*
X198308095Y-68161961D01*
X198308095Y-68161961D02*
X198260476Y-67971485D01*
X198260476Y-67971485D02*
X198260476Y-67638152D01*
X198260476Y-67638152D02*
X198308095Y-67447676D01*
X198308095Y-67447676D02*
X198403333Y-67352438D01*
X198403333Y-67352438D02*
X198498571Y-67304819D01*
X198498571Y-67304819D02*
X198689047Y-67304819D01*
X198689047Y-67304819D02*
X198784285Y-67352438D01*
X198784285Y-67352438D02*
X198879523Y-67447676D01*
X198879523Y-67447676D02*
X198927142Y-67638152D01*
X198927142Y-67638152D02*
X198927142Y-67971485D01*
X198927142Y-67971485D02*
X198879523Y-68161961D01*
X198879523Y-68161961D02*
X198784285Y-68257200D01*
X198784285Y-68257200D02*
X198689047Y-68304819D01*
X198689047Y-68304819D02*
X198498571Y-68304819D01*
X199831904Y-67304819D02*
X199355714Y-67304819D01*
X199355714Y-67304819D02*
X199308095Y-67781009D01*
X199308095Y-67781009D02*
X199355714Y-67733390D01*
X199355714Y-67733390D02*
X199450952Y-67685771D01*
X199450952Y-67685771D02*
X199689047Y-67685771D01*
X199689047Y-67685771D02*
X199784285Y-67733390D01*
X199784285Y-67733390D02*
X199831904Y-67781009D01*
X199831904Y-67781009D02*
X199879523Y-67876247D01*
X199879523Y-67876247D02*
X199879523Y-68114342D01*
X199879523Y-68114342D02*
X199831904Y-68209580D01*
X199831904Y-68209580D02*
X199784285Y-68257200D01*
X199784285Y-68257200D02*
X199689047Y-68304819D01*
X199689047Y-68304819D02*
X199450952Y-68304819D01*
X199450952Y-68304819D02*
X199355714Y-68257200D01*
X199355714Y-68257200D02*
X199308095Y-68209580D01*
X198484761Y-63610057D02*
X198389523Y-63562438D01*
X198389523Y-63562438D02*
X198294285Y-63467200D01*
X198294285Y-63467200D02*
X198151428Y-63324342D01*
X198151428Y-63324342D02*
X198056190Y-63276723D01*
X198056190Y-63276723D02*
X197960952Y-63276723D01*
X198008571Y-63514819D02*
X197913333Y-63467200D01*
X197913333Y-63467200D02*
X197818095Y-63371961D01*
X197818095Y-63371961D02*
X197770476Y-63181485D01*
X197770476Y-63181485D02*
X197770476Y-62848152D01*
X197770476Y-62848152D02*
X197818095Y-62657676D01*
X197818095Y-62657676D02*
X197913333Y-62562438D01*
X197913333Y-62562438D02*
X198008571Y-62514819D01*
X198008571Y-62514819D02*
X198199047Y-62514819D01*
X198199047Y-62514819D02*
X198294285Y-62562438D01*
X198294285Y-62562438D02*
X198389523Y-62657676D01*
X198389523Y-62657676D02*
X198437142Y-62848152D01*
X198437142Y-62848152D02*
X198437142Y-63181485D01*
X198437142Y-63181485D02*
X198389523Y-63371961D01*
X198389523Y-63371961D02*
X198294285Y-63467200D01*
X198294285Y-63467200D02*
X198199047Y-63514819D01*
X198199047Y-63514819D02*
X198008571Y-63514819D01*
X199294285Y-62848152D02*
X199294285Y-63514819D01*
X199056190Y-62467200D02*
X198818095Y-63181485D01*
X198818095Y-63181485D02*
X199437142Y-63181485D01*
X198484761Y-58400057D02*
X198389523Y-58352438D01*
X198389523Y-58352438D02*
X198294285Y-58257200D01*
X198294285Y-58257200D02*
X198151428Y-58114342D01*
X198151428Y-58114342D02*
X198056190Y-58066723D01*
X198056190Y-58066723D02*
X197960952Y-58066723D01*
X198008571Y-58304819D02*
X197913333Y-58257200D01*
X197913333Y-58257200D02*
X197818095Y-58161961D01*
X197818095Y-58161961D02*
X197770476Y-57971485D01*
X197770476Y-57971485D02*
X197770476Y-57638152D01*
X197770476Y-57638152D02*
X197818095Y-57447676D01*
X197818095Y-57447676D02*
X197913333Y-57352438D01*
X197913333Y-57352438D02*
X198008571Y-57304819D01*
X198008571Y-57304819D02*
X198199047Y-57304819D01*
X198199047Y-57304819D02*
X198294285Y-57352438D01*
X198294285Y-57352438D02*
X198389523Y-57447676D01*
X198389523Y-57447676D02*
X198437142Y-57638152D01*
X198437142Y-57638152D02*
X198437142Y-57971485D01*
X198437142Y-57971485D02*
X198389523Y-58161961D01*
X198389523Y-58161961D02*
X198294285Y-58257200D01*
X198294285Y-58257200D02*
X198199047Y-58304819D01*
X198199047Y-58304819D02*
X198008571Y-58304819D01*
X198770476Y-57304819D02*
X199389523Y-57304819D01*
X199389523Y-57304819D02*
X199056190Y-57685771D01*
X199056190Y-57685771D02*
X199199047Y-57685771D01*
X199199047Y-57685771D02*
X199294285Y-57733390D01*
X199294285Y-57733390D02*
X199341904Y-57781009D01*
X199341904Y-57781009D02*
X199389523Y-57876247D01*
X199389523Y-57876247D02*
X199389523Y-58114342D01*
X199389523Y-58114342D02*
X199341904Y-58209580D01*
X199341904Y-58209580D02*
X199294285Y-58257200D01*
X199294285Y-58257200D02*
X199199047Y-58304819D01*
X199199047Y-58304819D02*
X198913333Y-58304819D01*
X198913333Y-58304819D02*
X198818095Y-58257200D01*
X198818095Y-58257200D02*
X198770476Y-58209580D01*
X198994761Y-53610057D02*
X198899523Y-53562438D01*
X198899523Y-53562438D02*
X198804285Y-53467200D01*
X198804285Y-53467200D02*
X198661428Y-53324342D01*
X198661428Y-53324342D02*
X198566190Y-53276723D01*
X198566190Y-53276723D02*
X198470952Y-53276723D01*
X198518571Y-53514819D02*
X198423333Y-53467200D01*
X198423333Y-53467200D02*
X198328095Y-53371961D01*
X198328095Y-53371961D02*
X198280476Y-53181485D01*
X198280476Y-53181485D02*
X198280476Y-52848152D01*
X198280476Y-52848152D02*
X198328095Y-52657676D01*
X198328095Y-52657676D02*
X198423333Y-52562438D01*
X198423333Y-52562438D02*
X198518571Y-52514819D01*
X198518571Y-52514819D02*
X198709047Y-52514819D01*
X198709047Y-52514819D02*
X198804285Y-52562438D01*
X198804285Y-52562438D02*
X198899523Y-52657676D01*
X198899523Y-52657676D02*
X198947142Y-52848152D01*
X198947142Y-52848152D02*
X198947142Y-53181485D01*
X198947142Y-53181485D02*
X198899523Y-53371961D01*
X198899523Y-53371961D02*
X198804285Y-53467200D01*
X198804285Y-53467200D02*
X198709047Y-53514819D01*
X198709047Y-53514819D02*
X198518571Y-53514819D01*
X199328095Y-52610057D02*
X199375714Y-52562438D01*
X199375714Y-52562438D02*
X199470952Y-52514819D01*
X199470952Y-52514819D02*
X199709047Y-52514819D01*
X199709047Y-52514819D02*
X199804285Y-52562438D01*
X199804285Y-52562438D02*
X199851904Y-52610057D01*
X199851904Y-52610057D02*
X199899523Y-52705295D01*
X199899523Y-52705295D02*
X199899523Y-52800533D01*
X199899523Y-52800533D02*
X199851904Y-52943390D01*
X199851904Y-52943390D02*
X199280476Y-53514819D01*
X199280476Y-53514819D02*
X199899523Y-53514819D01*
X198904761Y-48550057D02*
X198809523Y-48502438D01*
X198809523Y-48502438D02*
X198714285Y-48407200D01*
X198714285Y-48407200D02*
X198571428Y-48264342D01*
X198571428Y-48264342D02*
X198476190Y-48216723D01*
X198476190Y-48216723D02*
X198380952Y-48216723D01*
X198428571Y-48454819D02*
X198333333Y-48407200D01*
X198333333Y-48407200D02*
X198238095Y-48311961D01*
X198238095Y-48311961D02*
X198190476Y-48121485D01*
X198190476Y-48121485D02*
X198190476Y-47788152D01*
X198190476Y-47788152D02*
X198238095Y-47597676D01*
X198238095Y-47597676D02*
X198333333Y-47502438D01*
X198333333Y-47502438D02*
X198428571Y-47454819D01*
X198428571Y-47454819D02*
X198619047Y-47454819D01*
X198619047Y-47454819D02*
X198714285Y-47502438D01*
X198714285Y-47502438D02*
X198809523Y-47597676D01*
X198809523Y-47597676D02*
X198857142Y-47788152D01*
X198857142Y-47788152D02*
X198857142Y-48121485D01*
X198857142Y-48121485D02*
X198809523Y-48311961D01*
X198809523Y-48311961D02*
X198714285Y-48407200D01*
X198714285Y-48407200D02*
X198619047Y-48454819D01*
X198619047Y-48454819D02*
X198428571Y-48454819D01*
X199809523Y-48454819D02*
X199238095Y-48454819D01*
X199523809Y-48454819D02*
X199523809Y-47454819D01*
X199523809Y-47454819D02*
X199428571Y-47597676D01*
X199428571Y-47597676D02*
X199333333Y-47692914D01*
X199333333Y-47692914D02*
X199238095Y-47740533D01*
X197666666Y-37454819D02*
X197666666Y-38169104D01*
X197666666Y-38169104D02*
X197619047Y-38311961D01*
X197619047Y-38311961D02*
X197523809Y-38407200D01*
X197523809Y-38407200D02*
X197380952Y-38454819D01*
X197380952Y-38454819D02*
X197285714Y-38454819D01*
X198095238Y-37550057D02*
X198142857Y-37502438D01*
X198142857Y-37502438D02*
X198238095Y-37454819D01*
X198238095Y-37454819D02*
X198476190Y-37454819D01*
X198476190Y-37454819D02*
X198571428Y-37502438D01*
X198571428Y-37502438D02*
X198619047Y-37550057D01*
X198619047Y-37550057D02*
X198666666Y-37645295D01*
X198666666Y-37645295D02*
X198666666Y-37740533D01*
X198666666Y-37740533D02*
X198619047Y-37883390D01*
X198619047Y-37883390D02*
X198047619Y-38454819D01*
X198047619Y-38454819D02*
X198666666Y-38454819D01*
X173936666Y-54124819D02*
X173936666Y-54839104D01*
X173936666Y-54839104D02*
X173889047Y-54981961D01*
X173889047Y-54981961D02*
X173793809Y-55077200D01*
X173793809Y-55077200D02*
X173650952Y-55124819D01*
X173650952Y-55124819D02*
X173555714Y-55124819D01*
X174936666Y-55124819D02*
X174365238Y-55124819D01*
X174650952Y-55124819D02*
X174650952Y-54124819D01*
X174650952Y-54124819D02*
X174555714Y-54267676D01*
X174555714Y-54267676D02*
X174460476Y-54362914D01*
X174460476Y-54362914D02*
X174365238Y-54410533D01*
X165261905Y-54954819D02*
X165261905Y-53954819D01*
X165261905Y-53954819D02*
X165500000Y-53954819D01*
X165500000Y-53954819D02*
X165642857Y-54002438D01*
X165642857Y-54002438D02*
X165738095Y-54097676D01*
X165738095Y-54097676D02*
X165785714Y-54192914D01*
X165785714Y-54192914D02*
X165833333Y-54383390D01*
X165833333Y-54383390D02*
X165833333Y-54526247D01*
X165833333Y-54526247D02*
X165785714Y-54716723D01*
X165785714Y-54716723D02*
X165738095Y-54811961D01*
X165738095Y-54811961D02*
X165642857Y-54907200D01*
X165642857Y-54907200D02*
X165500000Y-54954819D01*
X165500000Y-54954819D02*
X165261905Y-54954819D01*
X166785714Y-54954819D02*
X166214286Y-54954819D01*
X166500000Y-54954819D02*
X166500000Y-53954819D01*
X166500000Y-53954819D02*
X166404762Y-54097676D01*
X166404762Y-54097676D02*
X166309524Y-54192914D01*
X166309524Y-54192914D02*
X166214286Y-54240533D01*
D12*
%TO.C,R24*%
X180960000Y-80000000D02*
X181730000Y-80000000D01*
X181730000Y-78630000D02*
X181730000Y-81370000D01*
X181730000Y-81370000D02*
X188270000Y-81370000D01*
X188270000Y-78630000D02*
X181730000Y-78630000D01*
X188270000Y-81370000D02*
X188270000Y-78630000D01*
X189040000Y-80000000D02*
X188270000Y-80000000D01*
%TO.C,R23*%
X180960000Y-75000000D02*
X181730000Y-75000000D01*
X181730000Y-73630000D02*
X181730000Y-76370000D01*
X181730000Y-76370000D02*
X188270000Y-76370000D01*
X188270000Y-73630000D02*
X181730000Y-73630000D01*
X188270000Y-76370000D02*
X188270000Y-73630000D01*
X189040000Y-75000000D02*
X188270000Y-75000000D01*
%TO.C,R22*%
X180960000Y-70000000D02*
X181730000Y-70000000D01*
X181730000Y-68630000D02*
X181730000Y-71370000D01*
X181730000Y-71370000D02*
X188270000Y-71370000D01*
X188270000Y-68630000D02*
X181730000Y-68630000D01*
X188270000Y-71370000D02*
X188270000Y-68630000D01*
X189040000Y-70000000D02*
X188270000Y-70000000D01*
%TO.C,R21*%
X180960000Y-65000000D02*
X181730000Y-65000000D01*
X181730000Y-63630000D02*
X181730000Y-66370000D01*
X181730000Y-66370000D02*
X188270000Y-66370000D01*
X188270000Y-63630000D02*
X181730000Y-63630000D01*
X188270000Y-66370000D02*
X188270000Y-63630000D01*
X189040000Y-65000000D02*
X188270000Y-65000000D01*
%TO.C,R20*%
X180960000Y-60000000D02*
X181730000Y-60000000D01*
X181730000Y-58630000D02*
X181730000Y-61370000D01*
X181730000Y-61370000D02*
X188270000Y-61370000D01*
X188270000Y-58630000D02*
X181730000Y-58630000D01*
X188270000Y-61370000D02*
X188270000Y-58630000D01*
X189040000Y-60000000D02*
X188270000Y-60000000D01*
%TO.C,R19*%
X180960000Y-55000000D02*
X181730000Y-55000000D01*
X181730000Y-53630000D02*
X181730000Y-56370000D01*
X181730000Y-56370000D02*
X188270000Y-56370000D01*
X188270000Y-53630000D02*
X181730000Y-53630000D01*
X188270000Y-56370000D02*
X188270000Y-53630000D01*
X189040000Y-55000000D02*
X188270000Y-55000000D01*
%TO.C,R18*%
X180960000Y-50000000D02*
X181730000Y-50000000D01*
X181730000Y-48630000D02*
X181730000Y-51370000D01*
X181730000Y-51370000D02*
X188270000Y-51370000D01*
X188270000Y-48630000D02*
X181730000Y-48630000D01*
X188270000Y-51370000D02*
X188270000Y-48630000D01*
X189040000Y-50000000D02*
X188270000Y-50000000D01*
%TO.C,R17*%
X180960000Y-45000000D02*
X181730000Y-45000000D01*
X181730000Y-43630000D02*
X181730000Y-46370000D01*
X181730000Y-46370000D02*
X188270000Y-46370000D01*
X188270000Y-43630000D02*
X181730000Y-43630000D01*
X188270000Y-46370000D02*
X188270000Y-43630000D01*
X189040000Y-45000000D02*
X188270000Y-45000000D01*
%TO.C,R16*%
X161227064Y-76735000D02*
X160772936Y-76735000D01*
X161227064Y-75265000D02*
X160772936Y-75265000D01*
%TO.C,R15*%
X161227064Y-74735000D02*
X160772936Y-74735000D01*
X161227064Y-73265000D02*
X160772936Y-73265000D01*
%TO.C,R14*%
X161227064Y-72735000D02*
X160772936Y-72735000D01*
X161227064Y-71265000D02*
X160772936Y-71265000D01*
%TO.C,R13*%
X161227064Y-70735000D02*
X160772936Y-70735000D01*
X161227064Y-69265000D02*
X160772936Y-69265000D01*
%TO.C,R12*%
X161227064Y-68735000D02*
X160772936Y-68735000D01*
X161227064Y-67265000D02*
X160772936Y-67265000D01*
%TO.C,R11*%
X161227064Y-66735000D02*
X160772936Y-66735000D01*
X161227064Y-65265000D02*
X160772936Y-65265000D01*
%TO.C,R10*%
X161227064Y-64735000D02*
X160772936Y-64735000D01*
X161227064Y-63265000D02*
X160772936Y-63265000D01*
%TO.C,R9*%
X161227064Y-62735000D02*
X160772936Y-62735000D01*
X161227064Y-61265000D02*
X160772936Y-61265000D01*
%TO.C,R8*%
X165227064Y-76735000D02*
X164772936Y-76735000D01*
X165227064Y-75265000D02*
X164772936Y-75265000D01*
%TO.C,R7*%
X165227064Y-74735000D02*
X164772936Y-74735000D01*
X165227064Y-73265000D02*
X164772936Y-73265000D01*
%TO.C,R6*%
X165227064Y-72735000D02*
X164772936Y-72735000D01*
X165227064Y-71265000D02*
X164772936Y-71265000D01*
%TO.C,R5*%
X165227064Y-70735000D02*
X164772936Y-70735000D01*
X165227064Y-69265000D02*
X164772936Y-69265000D01*
%TO.C,R4*%
X165227064Y-68735000D02*
X164772936Y-68735000D01*
X165227064Y-67265000D02*
X164772936Y-67265000D01*
%TO.C,R3*%
X165227064Y-66735000D02*
X164772936Y-66735000D01*
X165227064Y-65265000D02*
X164772936Y-65265000D01*
%TO.C,R2*%
X165227064Y-64735000D02*
X164772936Y-64735000D01*
X165227064Y-63265000D02*
X164772936Y-63265000D01*
%TO.C,R1*%
X165227064Y-62735000D02*
X164772936Y-62735000D01*
X165227064Y-61265000D02*
X164772936Y-61265000D01*
%TO.C,Q8*%
X192930000Y-84850000D02*
X196530000Y-84850000D01*
X192891522Y-84838478D02*
G75*
G02*
X194730000Y-80399999I1838478J1838478D01*
G01*
X194730000Y-80400000D02*
G75*
G02*
X196568478Y-84838478I0J-2600000D01*
G01*
%TO.C,Q7*%
X192930000Y-79850000D02*
X196530000Y-79850000D01*
X192891522Y-79838478D02*
G75*
G02*
X194730000Y-75399999I1838478J1838478D01*
G01*
X194730000Y-75400000D02*
G75*
G02*
X196568478Y-79838478I0J-2600000D01*
G01*
%TO.C,Q6*%
X192930000Y-74850000D02*
X196530000Y-74850000D01*
X192891522Y-74838478D02*
G75*
G02*
X194730000Y-70399999I1838478J1838478D01*
G01*
X194730000Y-70400000D02*
G75*
G02*
X196568478Y-74838478I0J-2600000D01*
G01*
%TO.C,Q5*%
X192930000Y-69850000D02*
X196530000Y-69850000D01*
X192891522Y-69838478D02*
G75*
G02*
X194730000Y-65399999I1838478J1838478D01*
G01*
X194730000Y-65400000D02*
G75*
G02*
X196568478Y-69838478I0J-2600000D01*
G01*
%TO.C,Q4*%
X192930000Y-64850000D02*
X196530000Y-64850000D01*
X192891522Y-64838478D02*
G75*
G02*
X194730000Y-60399999I1838478J1838478D01*
G01*
X194730000Y-60400000D02*
G75*
G02*
X196568478Y-64838478I0J-2600000D01*
G01*
%TO.C,Q3*%
X192930000Y-59850000D02*
X196530000Y-59850000D01*
X192891522Y-59838478D02*
G75*
G02*
X194730000Y-55399999I1838478J1838478D01*
G01*
X194730000Y-55400000D02*
G75*
G02*
X196568478Y-59838478I0J-2600000D01*
G01*
%TO.C,Q2*%
X192930000Y-54850000D02*
X196530000Y-54850000D01*
X192891522Y-54838478D02*
G75*
G02*
X194730000Y-50399999I1838478J1838478D01*
G01*
X194730000Y-50400000D02*
G75*
G02*
X196568478Y-54838478I0J-2600000D01*
G01*
%TO.C,Q1*%
X192930000Y-49850000D02*
X196530000Y-49850000D01*
X192891522Y-49838478D02*
G75*
G02*
X194730000Y-45399999I1838478J1838478D01*
G01*
X194730000Y-45400000D02*
G75*
G02*
X196568478Y-49838478I0J-2600000D01*
G01*
%TO.C,J2*%
X208220000Y-36630000D02*
X200380000Y-36630000D01*
X208220000Y-36630000D02*
X208220000Y-92870000D01*
X202000000Y-36630000D02*
X202000000Y-92870000D01*
X200900000Y-36630000D02*
X200900000Y-92870000D01*
X200380000Y-36630000D02*
X200380000Y-38200000D01*
X200380000Y-38800000D02*
X200380000Y-92870000D01*
X203931000Y-40704000D02*
X203817000Y-40589000D01*
X203704000Y-40931000D02*
X203590000Y-40816000D01*
X206411000Y-43184000D02*
X206296000Y-43069000D01*
X206184000Y-43411000D02*
X206069000Y-43296000D01*
X203931000Y-44204000D02*
X203817000Y-44089000D01*
X203704000Y-44431000D02*
X203590000Y-44316000D01*
X206411000Y-46684000D02*
X206296000Y-46569000D01*
X206184000Y-46911000D02*
X206069000Y-46796000D01*
X203931000Y-47704000D02*
X203817000Y-47589000D01*
X203704000Y-47931000D02*
X203590000Y-47816000D01*
X206411000Y-50184000D02*
X206296000Y-50069000D01*
X206184000Y-50411000D02*
X206069000Y-50296000D01*
X203931000Y-51204000D02*
X203817000Y-51089000D01*
X203704000Y-51431000D02*
X203590000Y-51316000D01*
X206411000Y-53684000D02*
X206296000Y-53569000D01*
X206184000Y-53911000D02*
X206069000Y-53796000D01*
X203931000Y-54704000D02*
X203817000Y-54589000D01*
X203704000Y-54931000D02*
X203590000Y-54816000D01*
X206411000Y-57184000D02*
X206296000Y-57069000D01*
X206184000Y-57411000D02*
X206069000Y-57296000D01*
X203931000Y-58204000D02*
X203817000Y-58089000D01*
X203704000Y-58431000D02*
X203590000Y-58316000D01*
X206411000Y-60684000D02*
X206296000Y-60569000D01*
X206184000Y-60911000D02*
X206069000Y-60796000D01*
X203931000Y-61704000D02*
X203817000Y-61589000D01*
X203704000Y-61931000D02*
X203590000Y-61816000D01*
X206411000Y-64184000D02*
X206296000Y-64069000D01*
X206184000Y-64411000D02*
X206069000Y-64296000D01*
X203931000Y-65204000D02*
X203817000Y-65089000D01*
X203704000Y-65431000D02*
X203590000Y-65316000D01*
X206411000Y-67684000D02*
X206296000Y-67569000D01*
X206184000Y-67911000D02*
X206069000Y-67796000D01*
X203931000Y-68704000D02*
X203817000Y-68589000D01*
X203704000Y-68931000D02*
X203590000Y-68816000D01*
X206411000Y-71184000D02*
X206296000Y-71069000D01*
X206184000Y-71411000D02*
X206069000Y-71296000D01*
X203931000Y-72204000D02*
X203817000Y-72089000D01*
X203704000Y-72431000D02*
X203590000Y-72316000D01*
X206411000Y-74684000D02*
X206296000Y-74569000D01*
X206184000Y-74911000D02*
X206069000Y-74796000D01*
X203931000Y-75704000D02*
X203817000Y-75589000D01*
X203704000Y-75931000D02*
X203590000Y-75816000D01*
X206411000Y-78184000D02*
X206296000Y-78069000D01*
X206184000Y-78411000D02*
X206069000Y-78296000D01*
X203931000Y-79204000D02*
X203817000Y-79089000D01*
X203704000Y-79431000D02*
X203590000Y-79316000D01*
X206411000Y-81684000D02*
X206296000Y-81569000D01*
X206184000Y-81911000D02*
X206069000Y-81796000D01*
X203931000Y-82704000D02*
X203817000Y-82589000D01*
X203704000Y-82931000D02*
X203590000Y-82816000D01*
X206411000Y-85184000D02*
X206296000Y-85069000D01*
X206184000Y-85411000D02*
X206069000Y-85296000D01*
X203931000Y-86204000D02*
X203817000Y-86089000D01*
X203704000Y-86431000D02*
X203590000Y-86316000D01*
X206411000Y-88684000D02*
X206296000Y-88569000D01*
X206184000Y-88911000D02*
X206069000Y-88796000D01*
X203931000Y-89704000D02*
X203817000Y-89589000D01*
X203704000Y-89931000D02*
X203590000Y-89816000D01*
X206411000Y-92184000D02*
X206296000Y-92069000D01*
X206184000Y-92411000D02*
X206069000Y-92296000D01*
X208220000Y-92870000D02*
X200380000Y-92870000D01*
X204202000Y-36820000D02*
G75*
G02*
X205798405Y-36820192I798000J-1679997D01*
G01*
X206680000Y-37702000D02*
G75*
G02*
X206679808Y-39298405I-1680000J-798000D01*
G01*
X203320000Y-39298000D02*
G75*
G02*
X203320192Y-37701595I1679997J798000D01*
G01*
X205265000Y-89159000D02*
G75*
G02*
X204735049Y-89158993I-265000J-1841000D01*
G01*
X200380000Y-38500000D02*
X199770000Y-38940000D01*
X199770000Y-38060000D01*
X200380000Y-38500000D01*
G36*
X200380000Y-38500000D02*
G01*
X199770000Y-38940000D01*
X199770000Y-38060000D01*
X200380000Y-38500000D01*
G37*
%TO.C,J1*%
X171670000Y-55670000D02*
X173000000Y-55670000D01*
X171670000Y-57000000D02*
X171670000Y-55670000D01*
X171670000Y-58270000D02*
X171670000Y-71030000D01*
X171670000Y-58270000D02*
X174270000Y-58270000D01*
X171670000Y-71030000D02*
X176870000Y-71030000D01*
X174270000Y-55670000D02*
X176870000Y-55670000D01*
X174270000Y-58270000D02*
X174270000Y-55670000D01*
X176870000Y-55670000D02*
X176870000Y-71030000D01*
%TO.C,D1*%
X161490000Y-55350000D02*
X161490000Y-58650000D01*
X161490000Y-55350000D02*
X168500000Y-55350000D01*
X161490000Y-58650000D02*
X168500000Y-58650000D01*
%TD*%
M02*
