M48
; DRILL file {KiCad 9.0.0} date 2025-03-23T16:42:05-0700
; FORMAT={-:-/ absolute / inch / decimal}
; #@! TF.CreationDate,2025-03-23T16:42:05-07:00
; #@! TF.GenerationSoftware,Kicad,Pcbnew,9.0.0
; #@! TF.FileFunction,MixedPlating,1,2
FMAT,2
INCH
; #@! TA.AperFunction,Plated,PTH,ViaDrill
T1C0.0118
; #@! TA.AperFunction,Plated,PTH,ComponentDrill
T2C0.0295
; #@! TA.AperFunction,Plated,PTH,ComponentDrill
T3C0.0315
; #@! TA.AperFunction,Plated,PTH,ComponentDrill
T4C0.0394
; #@! TA.AperFunction,Plated,PTH,ComponentDrill
T5C0.0472
; #@! TA.AperFunction,NonPlated,NPTH,ComponentDrill
T6C0.1260
%
G90
G05
T1
X6.1811Y-2.2047
X6.2598Y-2.1654
X6.2992Y-2.0866
X6.3386Y-3.4252
X6.378Y-3.3858
X6.4173Y-2.4409
X6.4173Y-2.5197
X6.4173Y-2.5984
X6.4173Y-2.6772
X6.4173Y-2.7559
X6.4173Y-2.8346
X6.4173Y-2.9134
X6.4173Y-2.9921
X6.4173Y-3.3465
X6.4567Y-3.3071
X6.4961Y-3.1496
T2
X7.6165Y-1.8898
X7.6165Y-2.0866
X7.6165Y-2.2835
X7.6165Y-2.4803
X7.6165Y-2.6772
X7.6165Y-2.874
X7.6165Y-3.0709
X7.6165Y-3.2677
X7.6665Y-1.8898
X7.6665Y-2.0866
X7.6665Y-2.2835
X7.6665Y-2.4803
X7.6665Y-2.6772
X7.6665Y-2.874
X7.6665Y-3.0709
X7.6665Y-3.2677
X7.7165Y-1.8898
X7.7165Y-2.0866
X7.7165Y-2.2835
X7.7165Y-2.4803
X7.7165Y-2.6772
X7.7165Y-2.874
X7.7165Y-3.0709
X7.7165Y-3.2677
T3
X7.0835Y-1.7717
X7.0835Y-1.9685
X7.0835Y-2.1654
X7.0835Y-2.3622
X7.0835Y-2.5591
X7.0835Y-2.7559
X7.0835Y-2.9528
X7.0835Y-3.1496
X7.4835Y-1.7717
X7.4835Y-1.9685
X7.4835Y-2.1654
X7.4835Y-2.3622
X7.4835Y-2.5591
X7.4835Y-2.7559
X7.4835Y-2.9528
X7.4835Y-3.1496
T4
X6.811Y-2.2441
X6.811Y-2.3441
X6.811Y-2.4441
X6.811Y-2.5441
X6.811Y-2.6441
X6.811Y-2.7441
X6.911Y-2.2441
X6.911Y-2.3441
X6.911Y-2.4441
X6.911Y-2.5441
X6.911Y-2.6441
X6.911Y-2.7441
T5
X8.0709Y-1.5157
X8.0709Y-1.6535
X8.0709Y-1.7913
X8.0709Y-1.9291
X8.0709Y-2.0669
X8.0709Y-2.2047
X8.0709Y-2.3425
X8.0709Y-2.4803
X8.0709Y-2.6181
X8.0709Y-2.7559
X8.0709Y-2.8937
X8.0709Y-3.0315
X8.0709Y-3.1693
X8.0709Y-3.3071
X8.0709Y-3.4449
X8.0709Y-3.5827
T6
X7.4803Y-1.5748
X7.4803Y-3.5433
M30
