M48
; DRILL file {KiCad 9.0.0} date 2025-03-29T16:04:59-0700
; FORMAT={-:-/ absolute / inch / decimal}
; #@! TF.CreationDate,2025-03-29T16:04:59-07:00
; #@! TF.GenerationSoftware,Kicad,Pcbnew,9.0.0
; #@! TF.FileFunction,MixedPlating,1,2
FMAT,2
INCH
; #@! TA.AperFunction,Plated,PTH,ComponentDrill
T1C0.0197
%
G90
G05
T1
X5.0591Y-4.5374
X5.0591Y-5.0591
X5.0984Y-4.5374
X5.0984Y-5.0591
X5.1378Y-4.5374
X5.1378Y-5.0591
X5.1772Y-4.5374
X5.1772Y-5.0591
X5.3445Y-4.5374
X5.3543Y-5.0591
X5.3839Y-4.5374
X5.3937Y-5.0591
X5.4232Y-4.5374
X5.4331Y-5.0591
X5.4626Y-4.5374
X5.4724Y-5.0591
X5.6299Y-4.5374
X5.6398Y-5.0591
X5.6693Y-4.5374
X5.6791Y-5.0591
X5.7087Y-4.5374
X5.7185Y-5.0591
X5.748Y-4.5374
X5.7579Y-5.0591
M30
