%TF.GenerationSoftware,KiCad,Pcbnew,9.0.0*%
%TF.CreationDate,2025-03-29T16:04:54-07:00*%
%TF.ProjectId,SignalHead3,5369676e-616c-4486-9561-64332e6b6963,n/c*%
%TF.SameCoordinates,Original*%
%TF.FileFunction,Legend,Top*%
%TF.FilePolarity,Positive*%
%FSLAX46Y46*%
G04 Gerber Fmt 4.6, Leading zero omitted, Abs format (unit mm)*
G04 Created by KiCad (PCBNEW 9.0.0) date 2025-03-29 16:04:54*
%MOMM*%
%LPD*%
G01*
G04 APERTURE LIST*
%ADD10C,0.150000*%
%ADD11C,0.120000*%
G04 APERTURE END LIST*
D10*
X144860588Y-124417438D02*
X144765350Y-124369819D01*
X144765350Y-124369819D02*
X144622493Y-124369819D01*
X144622493Y-124369819D02*
X144479636Y-124417438D01*
X144479636Y-124417438D02*
X144384398Y-124512676D01*
X144384398Y-124512676D02*
X144336779Y-124607914D01*
X144336779Y-124607914D02*
X144289160Y-124798390D01*
X144289160Y-124798390D02*
X144289160Y-124941247D01*
X144289160Y-124941247D02*
X144336779Y-125131723D01*
X144336779Y-125131723D02*
X144384398Y-125226961D01*
X144384398Y-125226961D02*
X144479636Y-125322200D01*
X144479636Y-125322200D02*
X144622493Y-125369819D01*
X144622493Y-125369819D02*
X144717731Y-125369819D01*
X144717731Y-125369819D02*
X144860588Y-125322200D01*
X144860588Y-125322200D02*
X144908207Y-125274580D01*
X144908207Y-125274580D02*
X144908207Y-124941247D01*
X144908207Y-124941247D02*
X144717731Y-124941247D01*
X137610588Y-124417438D02*
X137515350Y-124369819D01*
X137515350Y-124369819D02*
X137372493Y-124369819D01*
X137372493Y-124369819D02*
X137229636Y-124417438D01*
X137229636Y-124417438D02*
X137134398Y-124512676D01*
X137134398Y-124512676D02*
X137086779Y-124607914D01*
X137086779Y-124607914D02*
X137039160Y-124798390D01*
X137039160Y-124798390D02*
X137039160Y-124941247D01*
X137039160Y-124941247D02*
X137086779Y-125131723D01*
X137086779Y-125131723D02*
X137134398Y-125226961D01*
X137134398Y-125226961D02*
X137229636Y-125322200D01*
X137229636Y-125322200D02*
X137372493Y-125369819D01*
X137372493Y-125369819D02*
X137467731Y-125369819D01*
X137467731Y-125369819D02*
X137610588Y-125322200D01*
X137610588Y-125322200D02*
X137658207Y-125274580D01*
X137658207Y-125274580D02*
X137658207Y-124941247D01*
X137658207Y-124941247D02*
X137467731Y-124941247D01*
X130110588Y-124417438D02*
X130015350Y-124369819D01*
X130015350Y-124369819D02*
X129872493Y-124369819D01*
X129872493Y-124369819D02*
X129729636Y-124417438D01*
X129729636Y-124417438D02*
X129634398Y-124512676D01*
X129634398Y-124512676D02*
X129586779Y-124607914D01*
X129586779Y-124607914D02*
X129539160Y-124798390D01*
X129539160Y-124798390D02*
X129539160Y-124941247D01*
X129539160Y-124941247D02*
X129586779Y-125131723D01*
X129586779Y-125131723D02*
X129634398Y-125226961D01*
X129634398Y-125226961D02*
X129729636Y-125322200D01*
X129729636Y-125322200D02*
X129872493Y-125369819D01*
X129872493Y-125369819D02*
X129967731Y-125369819D01*
X129967731Y-125369819D02*
X130110588Y-125322200D01*
X130110588Y-125322200D02*
X130158207Y-125274580D01*
X130158207Y-125274580D02*
X130158207Y-124941247D01*
X130158207Y-124941247D02*
X129967731Y-124941247D01*
X144610588Y-111167438D02*
X144515350Y-111119819D01*
X144515350Y-111119819D02*
X144372493Y-111119819D01*
X144372493Y-111119819D02*
X144229636Y-111167438D01*
X144229636Y-111167438D02*
X144134398Y-111262676D01*
X144134398Y-111262676D02*
X144086779Y-111357914D01*
X144086779Y-111357914D02*
X144039160Y-111548390D01*
X144039160Y-111548390D02*
X144039160Y-111691247D01*
X144039160Y-111691247D02*
X144086779Y-111881723D01*
X144086779Y-111881723D02*
X144134398Y-111976961D01*
X144134398Y-111976961D02*
X144229636Y-112072200D01*
X144229636Y-112072200D02*
X144372493Y-112119819D01*
X144372493Y-112119819D02*
X144467731Y-112119819D01*
X144467731Y-112119819D02*
X144610588Y-112072200D01*
X144610588Y-112072200D02*
X144658207Y-112024580D01*
X144658207Y-112024580D02*
X144658207Y-111691247D01*
X144658207Y-111691247D02*
X144467731Y-111691247D01*
X137360588Y-111167438D02*
X137265350Y-111119819D01*
X137265350Y-111119819D02*
X137122493Y-111119819D01*
X137122493Y-111119819D02*
X136979636Y-111167438D01*
X136979636Y-111167438D02*
X136884398Y-111262676D01*
X136884398Y-111262676D02*
X136836779Y-111357914D01*
X136836779Y-111357914D02*
X136789160Y-111548390D01*
X136789160Y-111548390D02*
X136789160Y-111691247D01*
X136789160Y-111691247D02*
X136836779Y-111881723D01*
X136836779Y-111881723D02*
X136884398Y-111976961D01*
X136884398Y-111976961D02*
X136979636Y-112072200D01*
X136979636Y-112072200D02*
X137122493Y-112119819D01*
X137122493Y-112119819D02*
X137217731Y-112119819D01*
X137217731Y-112119819D02*
X137360588Y-112072200D01*
X137360588Y-112072200D02*
X137408207Y-112024580D01*
X137408207Y-112024580D02*
X137408207Y-111691247D01*
X137408207Y-111691247D02*
X137217731Y-111691247D01*
X130110588Y-111167438D02*
X130015350Y-111119819D01*
X130015350Y-111119819D02*
X129872493Y-111119819D01*
X129872493Y-111119819D02*
X129729636Y-111167438D01*
X129729636Y-111167438D02*
X129634398Y-111262676D01*
X129634398Y-111262676D02*
X129586779Y-111357914D01*
X129586779Y-111357914D02*
X129539160Y-111548390D01*
X129539160Y-111548390D02*
X129539160Y-111691247D01*
X129539160Y-111691247D02*
X129586779Y-111881723D01*
X129586779Y-111881723D02*
X129634398Y-111976961D01*
X129634398Y-111976961D02*
X129729636Y-112072200D01*
X129729636Y-112072200D02*
X129872493Y-112119819D01*
X129872493Y-112119819D02*
X129967731Y-112119819D01*
X129967731Y-112119819D02*
X130110588Y-112072200D01*
X130110588Y-112072200D02*
X130158207Y-112024580D01*
X130158207Y-112024580D02*
X130158207Y-111691247D01*
X130158207Y-111691247D02*
X129967731Y-111691247D01*
D11*
%TO.C,D2*%
X143090000Y-126015000D02*
X143090000Y-127485000D01*
X143090000Y-127485000D02*
X145550000Y-127485000D01*
X145550000Y-126015000D02*
X143090000Y-126015000D01*
%TO.C,D3*%
X143090000Y-129515000D02*
X143090000Y-130985000D01*
X143090000Y-130985000D02*
X145550000Y-130985000D01*
X145550000Y-129515000D02*
X143090000Y-129515000D01*
%TO.C,D1*%
X143090000Y-122515000D02*
X143090000Y-123985000D01*
X143090000Y-123985000D02*
X145550000Y-123985000D01*
X145550000Y-122515000D02*
X143090000Y-122515000D01*
%TO.C,D2*%
X135840000Y-126015000D02*
X135840000Y-127485000D01*
X135840000Y-127485000D02*
X138300000Y-127485000D01*
X138300000Y-126015000D02*
X135840000Y-126015000D01*
%TO.C,D3*%
X135840000Y-129515000D02*
X135840000Y-130985000D01*
X135840000Y-130985000D02*
X138300000Y-130985000D01*
X138300000Y-129515000D02*
X135840000Y-129515000D01*
%TO.C,D1*%
X135840000Y-122515000D02*
X135840000Y-123985000D01*
X135840000Y-123985000D02*
X138300000Y-123985000D01*
X138300000Y-122515000D02*
X135840000Y-122515000D01*
%TO.C,D2*%
X128340000Y-126015000D02*
X128340000Y-127485000D01*
X128340000Y-127485000D02*
X130800000Y-127485000D01*
X130800000Y-126015000D02*
X128340000Y-126015000D01*
%TO.C,D1*%
X128340000Y-122515000D02*
X128340000Y-123985000D01*
X128340000Y-123985000D02*
X130800000Y-123985000D01*
X130800000Y-122515000D02*
X128340000Y-122515000D01*
%TO.C,D3*%
X128340000Y-129515000D02*
X128340000Y-130985000D01*
X128340000Y-130985000D02*
X130800000Y-130985000D01*
X130800000Y-129515000D02*
X128340000Y-129515000D01*
X142840000Y-116265000D02*
X142840000Y-117735000D01*
X142840000Y-117735000D02*
X145300000Y-117735000D01*
X145300000Y-116265000D02*
X142840000Y-116265000D01*
%TO.C,D1*%
X142840000Y-109265000D02*
X142840000Y-110735000D01*
X142840000Y-110735000D02*
X145300000Y-110735000D01*
X145300000Y-109265000D02*
X142840000Y-109265000D01*
%TO.C,D2*%
X142840000Y-112765000D02*
X142840000Y-114235000D01*
X142840000Y-114235000D02*
X145300000Y-114235000D01*
X145300000Y-112765000D02*
X142840000Y-112765000D01*
%TO.C,D3*%
X135590000Y-116265000D02*
X135590000Y-117735000D01*
X135590000Y-117735000D02*
X138050000Y-117735000D01*
X138050000Y-116265000D02*
X135590000Y-116265000D01*
%TO.C,D1*%
X135590000Y-109265000D02*
X135590000Y-110735000D01*
X135590000Y-110735000D02*
X138050000Y-110735000D01*
X138050000Y-109265000D02*
X135590000Y-109265000D01*
%TO.C,D2*%
X135590000Y-112765000D02*
X135590000Y-114235000D01*
X135590000Y-114235000D02*
X138050000Y-114235000D01*
X138050000Y-112765000D02*
X135590000Y-112765000D01*
X128340000Y-112765000D02*
X128340000Y-114235000D01*
X128340000Y-114235000D02*
X130800000Y-114235000D01*
X130800000Y-112765000D02*
X128340000Y-112765000D01*
%TO.C,D1*%
X128340000Y-109265000D02*
X128340000Y-110735000D01*
X128340000Y-110735000D02*
X130800000Y-110735000D01*
X130800000Y-109265000D02*
X128340000Y-109265000D01*
%TO.C,D3*%
X128340000Y-116265000D02*
X128340000Y-117735000D01*
X128340000Y-117735000D02*
X130800000Y-117735000D01*
X130800000Y-116265000D02*
X128340000Y-116265000D01*
%TD*%
M02*
