%TF.GenerationSoftware,KiCad,Pcbnew,9.0.0*%
%TF.CreationDate,2025-03-29T16:04:54-07:00*%
%TF.ProjectId,SignalHead3,5369676e-616c-4486-9561-64332e6b6963,n/c*%
%TF.SameCoordinates,Original*%
%TF.FileFunction,Legend,Bot*%
%TF.FilePolarity,Positive*%
%FSLAX46Y46*%
G04 Gerber Fmt 4.6, Leading zero omitted, Abs format (unit mm)*
G04 Created by KiCad (PCBNEW 9.0.0) date 2025-03-29 16:04:54*
%MOMM*%
%LPD*%
G01*
G04 APERTURE LIST*
%ADD10C,0.120000*%
G04 APERTURE END LIST*
D10*
%TO.C,J1*%
X142565000Y-127805000D02*
X142565000Y-128500000D01*
X143250000Y-127805000D02*
X142565000Y-127805000D01*
X143935000Y-127805000D02*
X143935000Y-127891724D01*
X143935000Y-127805000D02*
X146810000Y-127805000D01*
X143935000Y-129108276D02*
X143935000Y-129195000D01*
X143935000Y-129195000D02*
X146810000Y-129195000D01*
X146810000Y-127805000D02*
X146810000Y-128105507D01*
X146810000Y-128894493D02*
X146810000Y-129195000D01*
X135315000Y-127805000D02*
X135315000Y-128500000D01*
X136000000Y-127805000D02*
X135315000Y-127805000D01*
X136685000Y-127805000D02*
X136685000Y-127891724D01*
X136685000Y-127805000D02*
X139560000Y-127805000D01*
X136685000Y-129108276D02*
X136685000Y-129195000D01*
X136685000Y-129195000D02*
X139560000Y-129195000D01*
X139560000Y-127805000D02*
X139560000Y-128105507D01*
X139560000Y-128894493D02*
X139560000Y-129195000D01*
X127815000Y-127805000D02*
X127815000Y-128500000D01*
X128500000Y-127805000D02*
X127815000Y-127805000D01*
X129185000Y-127805000D02*
X129185000Y-127891724D01*
X129185000Y-127805000D02*
X132060000Y-127805000D01*
X129185000Y-129108276D02*
X129185000Y-129195000D01*
X129185000Y-129195000D02*
X132060000Y-129195000D01*
X132060000Y-127805000D02*
X132060000Y-128105507D01*
X132060000Y-128894493D02*
X132060000Y-129195000D01*
X142315000Y-114555000D02*
X142315000Y-115250000D01*
X143000000Y-114555000D02*
X142315000Y-114555000D01*
X143685000Y-114555000D02*
X143685000Y-114641724D01*
X143685000Y-114555000D02*
X146560000Y-114555000D01*
X143685000Y-115858276D02*
X143685000Y-115945000D01*
X143685000Y-115945000D02*
X146560000Y-115945000D01*
X146560000Y-114555000D02*
X146560000Y-114855507D01*
X146560000Y-115644493D02*
X146560000Y-115945000D01*
X135065000Y-114555000D02*
X135065000Y-115250000D01*
X135750000Y-114555000D02*
X135065000Y-114555000D01*
X136435000Y-114555000D02*
X136435000Y-114641724D01*
X136435000Y-114555000D02*
X139310000Y-114555000D01*
X136435000Y-115858276D02*
X136435000Y-115945000D01*
X136435000Y-115945000D02*
X139310000Y-115945000D01*
X139310000Y-114555000D02*
X139310000Y-114855507D01*
X139310000Y-115644493D02*
X139310000Y-115945000D01*
X127815000Y-114555000D02*
X127815000Y-115250000D01*
X128500000Y-114555000D02*
X127815000Y-114555000D01*
X129185000Y-114555000D02*
X129185000Y-114641724D01*
X129185000Y-114555000D02*
X132060000Y-114555000D01*
X129185000Y-115858276D02*
X129185000Y-115945000D01*
X129185000Y-115945000D02*
X132060000Y-115945000D01*
X132060000Y-114555000D02*
X132060000Y-114855507D01*
X132060000Y-115644493D02*
X132060000Y-115945000D01*
%TD*%
M02*
