%TF.GenerationSoftware,KiCad,Pcbnew,9.0.0*%
%TF.CreationDate,2025-03-29T16:04:54-07:00*%
%TF.ProjectId,SignalHead3,5369676e-616c-4486-9561-64332e6b6963,n/c*%
%TF.SameCoordinates,Original*%
%TF.FileFunction,Copper,L1,Top*%
%TF.FilePolarity,Positive*%
%FSLAX46Y46*%
G04 Gerber Fmt 4.6, Leading zero omitted, Abs format (unit mm)*
G04 Created by KiCad (PCBNEW 9.0.0) date 2025-03-29 16:04:54*
%MOMM*%
%LPD*%
G01*
G04 APERTURE LIST*
G04 Aperture macros list*
%AMRoundRect*
0 Rectangle with rounded corners*
0 $1 Rounding radius*
0 $2 $3 $4 $5 $6 $7 $8 $9 X,Y pos of 4 corners*
0 Add a 4 corners polygon primitive as box body*
4,1,4,$2,$3,$4,$5,$6,$7,$8,$9,$2,$3,0*
0 Add four circle primitives for the rounded corners*
1,1,$1+$1,$2,$3*
1,1,$1+$1,$4,$5*
1,1,$1+$1,$6,$7*
1,1,$1+$1,$8,$9*
0 Add four rect primitives between the rounded corners*
20,1,$1+$1,$2,$3,$4,$5,0*
20,1,$1+$1,$4,$5,$6,$7,0*
20,1,$1+$1,$6,$7,$8,$9,0*
20,1,$1+$1,$8,$9,$2,$3,0*%
G04 Aperture macros list end*
%TA.AperFunction,ComponentPad*%
%ADD10R,0.850000X0.850000*%
%TD*%
%TA.AperFunction,ComponentPad*%
%ADD11O,0.850000X0.850000*%
%TD*%
%TA.AperFunction,SMDPad,CuDef*%
%ADD12RoundRect,0.237500X-0.287500X-0.237500X0.287500X-0.237500X0.287500X0.237500X-0.287500X0.237500X0*%
%TD*%
%TA.AperFunction,Conductor*%
%ADD13C,0.300000*%
%TD*%
G04 APERTURE END LIST*
D10*
%TO.P,J1,1,Pin_1*%
%TO.N,Net-(D1-K)*%
X143250000Y-128500000D03*
D11*
%TO.P,J1,2,Pin_2*%
%TO.N,Net-(D2-K)*%
X144250000Y-128500000D03*
%TO.P,J1,3,Pin_3*%
%TO.N,Net-(D3-K)*%
X145250000Y-128500000D03*
%TO.P,J1,4,Pin_4*%
%TO.N,Net-(D1-A)*%
X146250000Y-128500000D03*
%TD*%
D12*
%TO.P,D2,1,K*%
%TO.N,Net-(D2-K)*%
X143875000Y-126750000D03*
%TO.P,D2,2,A*%
%TO.N,Net-(D1-A)*%
X145625000Y-126750000D03*
%TD*%
%TO.P,D3,1,K*%
%TO.N,Net-(D3-K)*%
X143875000Y-130250000D03*
%TO.P,D3,2,A*%
%TO.N,Net-(D1-A)*%
X145625000Y-130250000D03*
%TD*%
%TO.P,D1,1,K*%
%TO.N,Net-(D1-K)*%
X143875000Y-123250000D03*
%TO.P,D1,2,A*%
%TO.N,Net-(D1-A)*%
X145625000Y-123250000D03*
%TD*%
D10*
%TO.P,J1,1,Pin_1*%
%TO.N,Net-(D1-K)*%
X136000000Y-128500000D03*
D11*
%TO.P,J1,2,Pin_2*%
%TO.N,Net-(D2-K)*%
X137000000Y-128500000D03*
%TO.P,J1,3,Pin_3*%
%TO.N,Net-(D3-K)*%
X138000000Y-128500000D03*
%TO.P,J1,4,Pin_4*%
%TO.N,Net-(D1-A)*%
X139000000Y-128500000D03*
%TD*%
D12*
%TO.P,D2,1,K*%
%TO.N,Net-(D2-K)*%
X136625000Y-126750000D03*
%TO.P,D2,2,A*%
%TO.N,Net-(D1-A)*%
X138375000Y-126750000D03*
%TD*%
%TO.P,D3,1,K*%
%TO.N,Net-(D3-K)*%
X136625000Y-130250000D03*
%TO.P,D3,2,A*%
%TO.N,Net-(D1-A)*%
X138375000Y-130250000D03*
%TD*%
%TO.P,D1,1,K*%
%TO.N,Net-(D1-K)*%
X136625000Y-123250000D03*
%TO.P,D1,2,A*%
%TO.N,Net-(D1-A)*%
X138375000Y-123250000D03*
%TD*%
D10*
%TO.P,J1,1,Pin_1*%
%TO.N,Net-(D1-K)*%
X128500000Y-128500000D03*
D11*
%TO.P,J1,2,Pin_2*%
%TO.N,Net-(D2-K)*%
X129500000Y-128500000D03*
%TO.P,J1,3,Pin_3*%
%TO.N,Net-(D3-K)*%
X130500000Y-128500000D03*
%TO.P,J1,4,Pin_4*%
%TO.N,Net-(D1-A)*%
X131500000Y-128500000D03*
%TD*%
D12*
%TO.P,D2,1,K*%
%TO.N,Net-(D2-K)*%
X129125000Y-126750000D03*
%TO.P,D2,2,A*%
%TO.N,Net-(D1-A)*%
X130875000Y-126750000D03*
%TD*%
%TO.P,D1,1,K*%
%TO.N,Net-(D1-K)*%
X129125000Y-123250000D03*
%TO.P,D1,2,A*%
%TO.N,Net-(D1-A)*%
X130875000Y-123250000D03*
%TD*%
%TO.P,D3,1,K*%
%TO.N,Net-(D3-K)*%
X129125000Y-130250000D03*
%TO.P,D3,2,A*%
%TO.N,Net-(D1-A)*%
X130875000Y-130250000D03*
%TD*%
%TO.P,D3,1,K*%
%TO.N,Net-(D3-K)*%
X143625000Y-117000000D03*
%TO.P,D3,2,A*%
%TO.N,Net-(D1-A)*%
X145375000Y-117000000D03*
%TD*%
D10*
%TO.P,J1,1,Pin_1*%
%TO.N,Net-(D1-K)*%
X143000000Y-115250000D03*
D11*
%TO.P,J1,2,Pin_2*%
%TO.N,Net-(D2-K)*%
X144000000Y-115250000D03*
%TO.P,J1,3,Pin_3*%
%TO.N,Net-(D3-K)*%
X145000000Y-115250000D03*
%TO.P,J1,4,Pin_4*%
%TO.N,Net-(D1-A)*%
X146000000Y-115250000D03*
%TD*%
D12*
%TO.P,D1,1,K*%
%TO.N,Net-(D1-K)*%
X143625000Y-110000000D03*
%TO.P,D1,2,A*%
%TO.N,Net-(D1-A)*%
X145375000Y-110000000D03*
%TD*%
%TO.P,D2,1,K*%
%TO.N,Net-(D2-K)*%
X143625000Y-113500000D03*
%TO.P,D2,2,A*%
%TO.N,Net-(D1-A)*%
X145375000Y-113500000D03*
%TD*%
D10*
%TO.P,J1,1,Pin_1*%
%TO.N,Net-(D1-K)*%
X135750000Y-115250000D03*
D11*
%TO.P,J1,2,Pin_2*%
%TO.N,Net-(D2-K)*%
X136750000Y-115250000D03*
%TO.P,J1,3,Pin_3*%
%TO.N,Net-(D3-K)*%
X137750000Y-115250000D03*
%TO.P,J1,4,Pin_4*%
%TO.N,Net-(D1-A)*%
X138750000Y-115250000D03*
%TD*%
D12*
%TO.P,D3,1,K*%
%TO.N,Net-(D3-K)*%
X136375000Y-117000000D03*
%TO.P,D3,2,A*%
%TO.N,Net-(D1-A)*%
X138125000Y-117000000D03*
%TD*%
%TO.P,D1,1,K*%
%TO.N,Net-(D1-K)*%
X136375000Y-110000000D03*
%TO.P,D1,2,A*%
%TO.N,Net-(D1-A)*%
X138125000Y-110000000D03*
%TD*%
%TO.P,D2,1,K*%
%TO.N,Net-(D2-K)*%
X136375000Y-113500000D03*
%TO.P,D2,2,A*%
%TO.N,Net-(D1-A)*%
X138125000Y-113500000D03*
%TD*%
%TO.P,D2,1,K*%
%TO.N,Net-(D2-K)*%
X129125000Y-113500000D03*
%TO.P,D2,2,A*%
%TO.N,Net-(D1-A)*%
X130875000Y-113500000D03*
%TD*%
%TO.P,D1,1,K*%
%TO.N,Net-(D1-K)*%
X129125000Y-110000000D03*
%TO.P,D1,2,A*%
%TO.N,Net-(D1-A)*%
X130875000Y-110000000D03*
%TD*%
%TO.P,D3,1,K*%
%TO.N,Net-(D3-K)*%
X129125000Y-117000000D03*
%TO.P,D3,2,A*%
%TO.N,Net-(D1-A)*%
X130875000Y-117000000D03*
%TD*%
D10*
%TO.P,J1,1,Pin_1*%
%TO.N,Net-(D1-K)*%
X128500000Y-115250000D03*
D11*
%TO.P,J1,2,Pin_2*%
%TO.N,Net-(D2-K)*%
X129500000Y-115250000D03*
%TO.P,J1,3,Pin_3*%
%TO.N,Net-(D3-K)*%
X130500000Y-115250000D03*
%TO.P,J1,4,Pin_4*%
%TO.N,Net-(D1-A)*%
X131500000Y-115250000D03*
%TD*%
D13*
%TO.N,Net-(D1-A)*%
X145625000Y-126750000D02*
X146250000Y-127375000D01*
%TO.N,Net-(D1-K)*%
X142999000Y-124126000D02*
X143875000Y-123250000D01*
%TO.N,Net-(D1-A)*%
X146250000Y-127375000D02*
X146250000Y-128500000D01*
X145625000Y-123250000D02*
X145625000Y-126750000D01*
X145625000Y-130250000D02*
X146250000Y-129625000D01*
%TO.N,Net-(D3-K)*%
X145250000Y-128500000D02*
X145250000Y-128875000D01*
X145250000Y-128875000D02*
X143875000Y-130250000D01*
%TO.N,Net-(D2-K)*%
X144250000Y-127125000D02*
X143875000Y-126750000D01*
%TO.N,Net-(D1-K)*%
X143250000Y-128500000D02*
X142999000Y-128249000D01*
X142999000Y-128249000D02*
X142999000Y-124126000D01*
%TO.N,Net-(D2-K)*%
X144250000Y-128500000D02*
X144250000Y-127125000D01*
%TO.N,Net-(D1-A)*%
X146250000Y-129625000D02*
X146250000Y-128500000D01*
X138375000Y-126750000D02*
X139000000Y-127375000D01*
%TO.N,Net-(D1-K)*%
X135749000Y-124126000D02*
X136625000Y-123250000D01*
%TO.N,Net-(D1-A)*%
X139000000Y-127375000D02*
X139000000Y-128500000D01*
X138375000Y-123250000D02*
X138375000Y-126750000D01*
X138375000Y-130250000D02*
X139000000Y-129625000D01*
%TO.N,Net-(D3-K)*%
X138000000Y-128500000D02*
X138000000Y-128875000D01*
X138000000Y-128875000D02*
X136625000Y-130250000D01*
%TO.N,Net-(D2-K)*%
X137000000Y-127125000D02*
X136625000Y-126750000D01*
%TO.N,Net-(D1-K)*%
X136000000Y-128500000D02*
X135749000Y-128249000D01*
X135749000Y-128249000D02*
X135749000Y-124126000D01*
%TO.N,Net-(D2-K)*%
X137000000Y-128500000D02*
X137000000Y-127125000D01*
%TO.N,Net-(D1-A)*%
X139000000Y-129625000D02*
X139000000Y-128500000D01*
X130875000Y-123250000D02*
X130875000Y-126750000D01*
X131500000Y-127375000D02*
X131500000Y-128500000D01*
%TO.N,Net-(D3-K)*%
X130500000Y-128500000D02*
X130500000Y-128875000D01*
%TO.N,Net-(D1-A)*%
X131500000Y-129625000D02*
X131500000Y-128500000D01*
X130875000Y-126750000D02*
X131500000Y-127375000D01*
%TO.N,Net-(D2-K)*%
X129500000Y-127125000D02*
X129125000Y-126750000D01*
%TO.N,Net-(D1-K)*%
X128500000Y-128500000D02*
X128249000Y-128249000D01*
%TO.N,Net-(D1-A)*%
X130875000Y-130250000D02*
X131500000Y-129625000D01*
%TO.N,Net-(D1-K)*%
X128249000Y-128249000D02*
X128249000Y-124126000D01*
%TO.N,Net-(D3-K)*%
X130500000Y-128875000D02*
X129125000Y-130250000D01*
%TO.N,Net-(D2-K)*%
X129500000Y-128500000D02*
X129500000Y-127125000D01*
%TO.N,Net-(D1-K)*%
X128249000Y-124126000D02*
X129125000Y-123250000D01*
%TO.N,Net-(D1-A)*%
X146000000Y-116375000D02*
X146000000Y-115250000D01*
X146000000Y-114125000D02*
X146000000Y-115250000D01*
X145375000Y-110000000D02*
X145375000Y-113500000D01*
X145375000Y-117000000D02*
X146000000Y-116375000D01*
X145375000Y-113500000D02*
X146000000Y-114125000D01*
%TO.N,Net-(D1-K)*%
X142749000Y-110876000D02*
X143625000Y-110000000D01*
%TO.N,Net-(D3-K)*%
X145000000Y-115250000D02*
X145000000Y-115625000D01*
%TO.N,Net-(D2-K)*%
X144000000Y-115250000D02*
X144000000Y-113875000D01*
X144000000Y-113875000D02*
X143625000Y-113500000D01*
%TO.N,Net-(D1-K)*%
X142749000Y-114999000D02*
X142749000Y-110876000D01*
%TO.N,Net-(D3-K)*%
X145000000Y-115625000D02*
X143625000Y-117000000D01*
%TO.N,Net-(D1-K)*%
X143000000Y-115250000D02*
X142749000Y-114999000D01*
%TO.N,Net-(D3-K)*%
X137750000Y-115625000D02*
X136375000Y-117000000D01*
X137750000Y-115250000D02*
X137750000Y-115625000D01*
%TO.N,Net-(D2-K)*%
X136750000Y-115250000D02*
X136750000Y-113875000D01*
X136750000Y-113875000D02*
X136375000Y-113500000D01*
%TO.N,Net-(D1-K)*%
X135499000Y-114999000D02*
X135499000Y-110876000D01*
X135750000Y-115250000D02*
X135499000Y-114999000D01*
X135499000Y-110876000D02*
X136375000Y-110000000D01*
%TO.N,Net-(D1-A)*%
X138125000Y-113500000D02*
X138750000Y-114125000D01*
X138125000Y-110000000D02*
X138125000Y-113500000D01*
X138750000Y-116375000D02*
X138750000Y-115250000D01*
X138750000Y-114125000D02*
X138750000Y-115250000D01*
X138125000Y-117000000D02*
X138750000Y-116375000D01*
X130875000Y-117000000D02*
X131500000Y-116375000D01*
X131500000Y-114125000D02*
X131500000Y-115250000D01*
X131500000Y-116375000D02*
X131500000Y-115250000D01*
X130875000Y-110000000D02*
X130875000Y-113500000D01*
X130875000Y-113500000D02*
X131500000Y-114125000D01*
%TO.N,Net-(D1-K)*%
X128249000Y-110876000D02*
X129125000Y-110000000D01*
X128500000Y-115250000D02*
X128249000Y-114999000D01*
X128249000Y-114999000D02*
X128249000Y-110876000D01*
%TO.N,Net-(D2-K)*%
X129500000Y-113875000D02*
X129125000Y-113500000D01*
X129500000Y-115250000D02*
X129500000Y-113875000D01*
%TO.N,Net-(D3-K)*%
X130500000Y-115250000D02*
X130500000Y-115625000D01*
X130500000Y-115625000D02*
X129125000Y-117000000D01*
%TD*%
M02*
