%TF.GenerationSoftware,KiCad,Pcbnew,9.0.0*%
%TF.CreationDate,2025-03-29T16:04:54-07:00*%
%TF.ProjectId,SignalHead3,5369676e-616c-4486-9561-64332e6b6963,n/c*%
%TF.SameCoordinates,Original*%
%TF.FileFunction,Soldermask,Top*%
%TF.FilePolarity,Negative*%
%FSLAX46Y46*%
G04 Gerber Fmt 4.6, Leading zero omitted, Abs format (unit mm)*
G04 Created by KiCad (PCBNEW 9.0.0) date 2025-03-29 16:04:54*
%MOMM*%
%LPD*%
G01*
G04 APERTURE LIST*
G04 Aperture macros list*
%AMRoundRect*
0 Rectangle with rounded corners*
0 $1 Rounding radius*
0 $2 $3 $4 $5 $6 $7 $8 $9 X,Y pos of 4 corners*
0 Add a 4 corners polygon primitive as box body*
4,1,4,$2,$3,$4,$5,$6,$7,$8,$9,$2,$3,0*
0 Add four circle primitives for the rounded corners*
1,1,$1+$1,$2,$3*
1,1,$1+$1,$4,$5*
1,1,$1+$1,$6,$7*
1,1,$1+$1,$8,$9*
0 Add four rect primitives between the rounded corners*
20,1,$1+$1,$2,$3,$4,$5,0*
20,1,$1+$1,$4,$5,$6,$7,0*
20,1,$1+$1,$6,$7,$8,$9,0*
20,1,$1+$1,$8,$9,$2,$3,0*%
G04 Aperture macros list end*
%ADD10R,0.850000X0.850000*%
%ADD11O,0.850000X0.850000*%
%ADD12RoundRect,0.237500X-0.287500X-0.237500X0.287500X-0.237500X0.287500X0.237500X-0.287500X0.237500X0*%
G04 APERTURE END LIST*
D10*
%TO.C,J1*%
X143250000Y-128500000D03*
D11*
X144250000Y-128500000D03*
X145250000Y-128500000D03*
X146250000Y-128500000D03*
%TD*%
D12*
%TO.C,D2*%
X143875000Y-126750000D03*
X145625000Y-126750000D03*
%TD*%
%TO.C,D3*%
X143875000Y-130250000D03*
X145625000Y-130250000D03*
%TD*%
%TO.C,D1*%
X143875000Y-123250000D03*
X145625000Y-123250000D03*
%TD*%
D10*
%TO.C,J1*%
X136000000Y-128500000D03*
D11*
X137000000Y-128500000D03*
X138000000Y-128500000D03*
X139000000Y-128500000D03*
%TD*%
D12*
%TO.C,D2*%
X136625000Y-126750000D03*
X138375000Y-126750000D03*
%TD*%
%TO.C,D3*%
X136625000Y-130250000D03*
X138375000Y-130250000D03*
%TD*%
%TO.C,D1*%
X136625000Y-123250000D03*
X138375000Y-123250000D03*
%TD*%
D10*
%TO.C,J1*%
X128500000Y-128500000D03*
D11*
X129500000Y-128500000D03*
X130500000Y-128500000D03*
X131500000Y-128500000D03*
%TD*%
D12*
%TO.C,D2*%
X129125000Y-126750000D03*
X130875000Y-126750000D03*
%TD*%
%TO.C,D1*%
X129125000Y-123250000D03*
X130875000Y-123250000D03*
%TD*%
%TO.C,D3*%
X129125000Y-130250000D03*
X130875000Y-130250000D03*
%TD*%
%TO.C,D3*%
X143625000Y-117000000D03*
X145375000Y-117000000D03*
%TD*%
D10*
%TO.C,J1*%
X143000000Y-115250000D03*
D11*
X144000000Y-115250000D03*
X145000000Y-115250000D03*
X146000000Y-115250000D03*
%TD*%
D12*
%TO.C,D1*%
X143625000Y-110000000D03*
X145375000Y-110000000D03*
%TD*%
%TO.C,D2*%
X143625000Y-113500000D03*
X145375000Y-113500000D03*
%TD*%
D10*
%TO.C,J1*%
X135750000Y-115250000D03*
D11*
X136750000Y-115250000D03*
X137750000Y-115250000D03*
X138750000Y-115250000D03*
%TD*%
D12*
%TO.C,D3*%
X136375000Y-117000000D03*
X138125000Y-117000000D03*
%TD*%
%TO.C,D1*%
X136375000Y-110000000D03*
X138125000Y-110000000D03*
%TD*%
%TO.C,D2*%
X136375000Y-113500000D03*
X138125000Y-113500000D03*
%TD*%
%TO.C,D2*%
X129125000Y-113500000D03*
X130875000Y-113500000D03*
%TD*%
%TO.C,D1*%
X129125000Y-110000000D03*
X130875000Y-110000000D03*
%TD*%
%TO.C,D3*%
X129125000Y-117000000D03*
X130875000Y-117000000D03*
%TD*%
D10*
%TO.C,J1*%
X128500000Y-115250000D03*
D11*
X129500000Y-115250000D03*
X130500000Y-115250000D03*
X131500000Y-115250000D03*
%TD*%
M02*
