M48
; DRILL file {KiCad 9.0.0} date 2025-03-23T15:00:50-0700
; FORMAT={-:-/ absolute / inch / decimal}
; #@! TF.CreationDate,2025-03-23T15:00:50-07:00
; #@! TF.GenerationSoftware,Kicad,Pcbnew,9.0.0
; #@! TF.FileFunction,MixedPlating,1,2
FMAT,2
INCH
; #@! TA.AperFunction,Plated,PTH,ViaDrill
T1C0.0118
; #@! TA.AperFunction,Plated,PTH,ViaDrill
T2C0.0197
; #@! TA.AperFunction,Plated,PTH,ComponentDrill
T3C0.0236
; #@! TA.AperFunction,Plated,PTH,ComponentDrill
T4C0.0394
; #@! TA.AperFunction,Plated,PTH,ComponentDrill
T5C0.0512
; #@! TA.AperFunction,NonPlated,NPTH,ComponentDrill
T6C0.1260
%
G90
G05
T1
X5.2657Y-2.2736
X5.5807Y-2.5098
X5.6102Y-2.3524
X5.6791Y-2.5
X5.689Y-2.5886
X5.6988Y-2.6378
X5.8169Y-2.0866
X5.8169Y-2.7854
X5.8169Y-2.9429
X5.8268Y-2.6772
X5.8268Y-2.7362
X5.8268Y-2.8346
X5.8268Y-2.8839
X5.876Y-2.4213
X6.0236Y-2.9331
X6.063Y-2.4803
X6.063Y-2.5394
T2
X5.4331Y-2.2244
X5.4331Y-2.6575
X5.4823Y-2.9823
X6.063Y-2.5886
X6.5157Y-3.0413
T3
X6.0039Y-2.2441
X6.0827Y-2.2441
T4
X5.1937Y-3.0709
X5.2937Y-3.0709
X5.315Y-1.9685
X5.3937Y-3.0709
X5.415Y-1.9685
X5.515Y-1.9685
X5.615Y-1.9685
X5.715Y-1.9685
X6.2992Y-2.3228
X6.2992Y-2.4228
X6.2992Y-2.5228
X6.2992Y-2.6228
X6.2992Y-2.7228
X6.2992Y-2.8228
X6.3992Y-2.3228
X6.3992Y-2.4228
X6.3992Y-2.5228
X6.3992Y-2.6228
X6.3992Y-2.7228
X6.3992Y-2.8228
T5
X6.9685Y-1.9685
X6.9685Y-2.1654
X6.9685Y-2.3622
X6.9685Y-2.5591
X6.9685Y-2.7559
X6.9685Y-2.9528
X6.9685Y-3.1496
X6.9685Y-3.3465
T6
X5.0Y-1.6535
X5.0Y-3.622
X6.9685Y-1.6535
X6.9685Y-3.622
M30
