%TF.GenerationSoftware,KiCad,Pcbnew,9.0.0*%
%TF.CreationDate,2025-03-23T15:00:11-07:00*%
%TF.ProjectId,SMRRC,534d5252-432e-46b6-9963-61645f706362,n/c*%
%TF.SameCoordinates,Original*%
%TF.FileFunction,Copper,L1,Top*%
%TF.FilePolarity,Positive*%
%FSLAX46Y46*%
G04 Gerber Fmt 4.6, Leading zero omitted, Abs format (unit mm)*
G04 Created by KiCad (PCBNEW 9.0.0) date 2025-03-23 15:00:11*
%MOMM*%
%LPD*%
G01*
G04 APERTURE LIST*
G04 Aperture macros list*
%AMRoundRect*
0 Rectangle with rounded corners*
0 $1 Rounding radius*
0 $2 $3 $4 $5 $6 $7 $8 $9 X,Y pos of 4 corners*
0 Add a 4 corners polygon primitive as box body*
4,1,4,$2,$3,$4,$5,$6,$7,$8,$9,$2,$3,0*
0 Add four circle primitives for the rounded corners*
1,1,$1+$1,$2,$3*
1,1,$1+$1,$4,$5*
1,1,$1+$1,$6,$7*
1,1,$1+$1,$8,$9*
0 Add four rect primitives between the rounded corners*
20,1,$1+$1,$2,$3,$4,$5,0*
20,1,$1+$1,$4,$5,$6,$7,0*
20,1,$1+$1,$6,$7,$8,$9,0*
20,1,$1+$1,$8,$9,$2,$3,0*%
%AMFreePoly0*
4,1,9,3.862500,-0.866500,0.737500,-0.866500,0.737500,-0.450000,-0.737500,-0.450000,-0.737500,0.450000,0.737500,0.450000,0.737500,0.866500,3.862500,0.866500,3.862500,-0.866500,3.862500,-0.866500,$1*%
G04 Aperture macros list end*
%TA.AperFunction,SMDPad,CuDef*%
%ADD10RoundRect,0.250000X-1.500000X-0.650000X1.500000X-0.650000X1.500000X0.650000X-1.500000X0.650000X0*%
%TD*%
%TA.AperFunction,SMDPad,CuDef*%
%ADD11RoundRect,0.225000X0.225000X-0.425000X0.225000X0.425000X-0.225000X0.425000X-0.225000X-0.425000X0*%
%TD*%
%TA.AperFunction,SMDPad,CuDef*%
%ADD12FreePoly0,90.000000*%
%TD*%
%TA.AperFunction,SMDPad,CuDef*%
%ADD13RoundRect,0.150000X-0.875000X-0.150000X0.875000X-0.150000X0.875000X0.150000X-0.875000X0.150000X0*%
%TD*%
%TA.AperFunction,SMDPad,CuDef*%
%ADD14RoundRect,0.150000X-0.825000X-0.150000X0.825000X-0.150000X0.825000X0.150000X-0.825000X0.150000X0*%
%TD*%
%TA.AperFunction,SMDPad,CuDef*%
%ADD15R,1.550000X1.300000*%
%TD*%
%TA.AperFunction,SMDPad,CuDef*%
%ADD16RoundRect,0.250000X-0.350000X-0.450000X0.350000X-0.450000X0.350000X0.450000X-0.350000X0.450000X0*%
%TD*%
%TA.AperFunction,ComponentPad*%
%ADD17R,1.700000X1.700000*%
%TD*%
%TA.AperFunction,ComponentPad*%
%ADD18O,1.700000X1.700000*%
%TD*%
%TA.AperFunction,ComponentPad*%
%ADD19RoundRect,0.250001X-1.149999X1.149999X-1.149999X-1.149999X1.149999X-1.149999X1.149999X1.149999X0*%
%TD*%
%TA.AperFunction,ComponentPad*%
%ADD20C,2.800000*%
%TD*%
%TA.AperFunction,SMDPad,CuDef*%
%ADD21RoundRect,0.250001X0.462499X0.624999X-0.462499X0.624999X-0.462499X-0.624999X0.462499X-0.624999X0*%
%TD*%
%TA.AperFunction,SMDPad,CuDef*%
%ADD22RoundRect,0.250000X-0.337500X-0.475000X0.337500X-0.475000X0.337500X0.475000X-0.337500X0.475000X0*%
%TD*%
%TA.AperFunction,ComponentPad*%
%ADD23R,1.200000X1.200000*%
%TD*%
%TA.AperFunction,ComponentPad*%
%ADD24C,1.200000*%
%TD*%
%TA.AperFunction,SMDPad,CuDef*%
%ADD25RoundRect,0.250000X0.337500X0.475000X-0.337500X0.475000X-0.337500X-0.475000X0.337500X-0.475000X0*%
%TD*%
%TA.AperFunction,ViaPad*%
%ADD26C,0.800000*%
%TD*%
%TA.AperFunction,ViaPad*%
%ADD27C,0.600000*%
%TD*%
%TA.AperFunction,Conductor*%
%ADD28C,0.600000*%
%TD*%
%TA.AperFunction,Conductor*%
%ADD29C,0.300000*%
%TD*%
%TA.AperFunction,Conductor*%
%ADD30C,1.000000*%
%TD*%
%TA.AperFunction,Conductor*%
%ADD31C,1.500000*%
%TD*%
%TA.AperFunction,Conductor*%
%ADD32C,2.000000*%
%TD*%
G04 APERTURE END LIST*
D10*
%TO.P,D4,1,K*%
%TO.N,Net-(D4-K)*%
X158000000Y-49862500D03*
%TO.P,D4,2,A*%
%TO.N,+12V*%
X163000000Y-49862500D03*
%TD*%
D11*
%TO.P,U3,1,OUT*%
%TO.N,+5V*%
X151000000Y-50950000D03*
D12*
%TO.P,U3,2,GND*%
%TO.N,GND*%
X152500000Y-50862500D03*
D11*
%TO.P,U3,3,IN*%
%TO.N,Net-(D4-K)*%
X154000000Y-50950000D03*
%TD*%
D13*
%TO.P,U2,1,VDD*%
%TO.N,+5V*%
X146350000Y-63285000D03*
%TO.P,U2,2,RA5*%
%TO.N,Net-(J3-Pin_3)*%
X146350000Y-64555000D03*
%TO.P,U2,3,RA4*%
%TO.N,Net-(J3-Pin_1)*%
X146350000Y-65825000D03*
%TO.P,U2,4,RA3/~{MCLR}/VPP*%
%TO.N,Net-(J2-Pin_1)*%
X146350000Y-67095000D03*
%TO.P,U2,5,RC5*%
%TO.N,Net-(J4-Pin_10)*%
X146350000Y-68365000D03*
%TO.P,U2,6,RC4*%
%TO.N,Net-(J4-Pin_9)*%
X146350000Y-69635000D03*
%TO.P,U2,7,RC3*%
%TO.N,Net-(J4-Pin_8)*%
X146350000Y-70905000D03*
%TO.P,U2,8,RC6*%
%TO.N,Net-(J4-Pin_11)*%
X146350000Y-72175000D03*
%TO.P,U2,9,RC7*%
%TO.N,Net-(J4-Pin_12)*%
X146350000Y-73445000D03*
%TO.P,U2,10,RB7*%
%TO.N,Net-(U1-DI)*%
X146350000Y-74715000D03*
%TO.P,U2,11,RB6*%
%TO.N,Net-(U1-DE)*%
X155650000Y-74715000D03*
%TO.P,U2,12,RB5*%
%TO.N,Net-(U1-RO)*%
X155650000Y-73445000D03*
%TO.P,U2,13,RB4*%
%TO.N,Net-(U1-~{RE})*%
X155650000Y-72175000D03*
%TO.P,U2,14,RC2*%
%TO.N,Net-(J4-Pin_7)*%
X155650000Y-70905000D03*
%TO.P,U2,15,RC1*%
%TO.N,Net-(J4-Pin_6)*%
X155650000Y-69635000D03*
%TO.P,U2,16,RC0*%
%TO.N,Net-(J4-Pin_5)*%
X155650000Y-68365000D03*
%TO.P,U2,17,RA2*%
%TO.N,Net-(U2-RA2)*%
X155650000Y-67095000D03*
%TO.P,U2,18,RA1/ICSPCLK*%
%TO.N,Net-(J2-Pin_5)*%
X155650000Y-65825000D03*
%TO.P,U2,19,RA0/ICSPDAT*%
%TO.N,Net-(J2-Pin_4)*%
X155650000Y-64555000D03*
%TO.P,U2,20,VSS*%
%TO.N,GND*%
X155650000Y-63285000D03*
%TD*%
D14*
%TO.P,U1,1,RO*%
%TO.N,Net-(U1-RO)*%
X156525000Y-80095000D03*
%TO.P,U1,2,~{RE}*%
%TO.N,Net-(U1-~{RE})*%
X156525000Y-81365000D03*
%TO.P,U1,3,DE*%
%TO.N,Net-(U1-DE)*%
X156525000Y-82635000D03*
%TO.P,U1,4,DI*%
%TO.N,Net-(U1-DI)*%
X156525000Y-83905000D03*
%TO.P,U1,5,GND*%
%TO.N,GND*%
X161475000Y-83905000D03*
%TO.P,U1,6,A*%
%TO.N,Net-(J1-Pin_5)*%
X161475000Y-82635000D03*
%TO.P,U1,7,B*%
%TO.N,Net-(J1-Pin_7)*%
X161475000Y-81365000D03*
%TO.P,U1,8,VCC*%
%TO.N,+5V*%
X161475000Y-80095000D03*
%TD*%
D15*
%TO.P,SW2,1,1*%
%TO.N,GND*%
X135980000Y-73250000D03*
X128020000Y-73250000D03*
%TO.P,SW2,2,2*%
%TO.N,Net-(J3-Pin_3)*%
X135980000Y-68750000D03*
X128020000Y-68750000D03*
%TD*%
%TO.P,SW1,1,1*%
%TO.N,GND*%
X135980000Y-62250000D03*
X128020000Y-62250000D03*
%TO.P,SW1,2,2*%
%TO.N,Net-(J3-Pin_1)*%
X135980000Y-57750000D03*
X128020000Y-57750000D03*
%TD*%
D16*
%TO.P,R5,1*%
%TO.N,+5V*%
X139000000Y-68000000D03*
%TO.P,R5,2*%
%TO.N,Net-(J3-Pin_3)*%
X141000000Y-68000000D03*
%TD*%
%TO.P,R4,1*%
%TO.N,+5V*%
X139000000Y-57000000D03*
%TO.P,R4,2*%
%TO.N,Net-(J3-Pin_1)*%
X141000000Y-57000000D03*
%TD*%
%TO.P,R3,1*%
%TO.N,Net-(D3-K)*%
X139000000Y-66000000D03*
%TO.P,R3,2*%
%TO.N,Net-(J3-Pin_3)*%
X141000000Y-66000000D03*
%TD*%
%TO.P,R2,1*%
%TO.N,Net-(D2-K)*%
X139000000Y-55000000D03*
%TO.P,R2,2*%
%TO.N,Net-(J3-Pin_1)*%
X141000000Y-55000000D03*
%TD*%
%TO.P,R1,1*%
%TO.N,Net-(D1-K)*%
X149512500Y-78000000D03*
%TO.P,R1,2*%
%TO.N,Net-(U2-RA2)*%
X151512500Y-78000000D03*
%TD*%
D17*
%TO.P,J4,1,Pin_1*%
%TO.N,+12V*%
X160000000Y-59000000D03*
D18*
%TO.P,J4,2,Pin_2*%
X162540000Y-59000000D03*
%TO.P,J4,3,Pin_3*%
%TO.N,GND*%
X160000000Y-61540000D03*
%TO.P,J4,4,Pin_4*%
X162540000Y-61540000D03*
%TO.P,J4,5,Pin_5*%
%TO.N,Net-(J4-Pin_5)*%
X160000000Y-64080000D03*
%TO.P,J4,6,Pin_6*%
%TO.N,Net-(J4-Pin_6)*%
X162540000Y-64080000D03*
%TO.P,J4,7,Pin_7*%
%TO.N,Net-(J4-Pin_7)*%
X160000000Y-66620000D03*
%TO.P,J4,8,Pin_8*%
%TO.N,Net-(J4-Pin_8)*%
X162540000Y-66620000D03*
%TO.P,J4,9,Pin_9*%
%TO.N,Net-(J4-Pin_9)*%
X160000000Y-69160000D03*
%TO.P,J4,10,Pin_10*%
%TO.N,Net-(J4-Pin_10)*%
X162540000Y-69160000D03*
%TO.P,J4,11,Pin_11*%
%TO.N,Net-(J4-Pin_11)*%
X160000000Y-71700000D03*
%TO.P,J4,12,Pin_12*%
%TO.N,Net-(J4-Pin_12)*%
X162540000Y-71700000D03*
%TD*%
D17*
%TO.P,J3,1,Pin_1*%
%TO.N,Net-(J3-Pin_1)*%
X131920000Y-78000000D03*
D18*
%TO.P,J3,2,Pin_2*%
%TO.N,GND*%
X134460000Y-78000000D03*
%TO.P,J3,3,Pin_3*%
%TO.N,Net-(J3-Pin_3)*%
X137000000Y-78000000D03*
%TD*%
D17*
%TO.P,J2,1,Pin_1*%
%TO.N,Net-(J2-Pin_1)*%
X135000000Y-50000000D03*
D18*
%TO.P,J2,2,Pin_2*%
%TO.N,+5V*%
X137540000Y-50000000D03*
%TO.P,J2,3,Pin_3*%
%TO.N,GND*%
X140080000Y-50000000D03*
%TO.P,J2,4,Pin_4*%
%TO.N,Net-(J2-Pin_4)*%
X142620000Y-50000000D03*
%TO.P,J2,5,Pin_5*%
%TO.N,Net-(J2-Pin_5)*%
X145160000Y-50000000D03*
%TD*%
D19*
%TO.P,J1,1,Pin_1*%
%TO.N,+12V*%
X177000000Y-50000000D03*
D20*
%TO.P,J1,2,Pin_2*%
X177000000Y-55000000D03*
%TO.P,J1,3,Pin_3*%
%TO.N,GND*%
X177000000Y-60000000D03*
%TO.P,J1,4,Pin_4*%
X177000000Y-65000000D03*
%TO.P,J1,5,Pin_5*%
%TO.N,Net-(J1-Pin_5)*%
X177000000Y-70000000D03*
%TO.P,J1,6,Pin_6*%
X177000000Y-75000000D03*
%TO.P,J1,7,Pin_7*%
%TO.N,Net-(J1-Pin_7)*%
X177000000Y-80000000D03*
%TO.P,J1,8,Pin_8*%
X177000000Y-85000000D03*
%TD*%
D21*
%TO.P,D3,1,K*%
%TO.N,Net-(D3-K)*%
X135975000Y-66000000D03*
%TO.P,D3,2,A*%
%TO.N,+5V*%
X133000000Y-66000000D03*
%TD*%
%TO.P,D2,1,K*%
%TO.N,Net-(D2-K)*%
X135975000Y-55000000D03*
%TO.P,D2,2,A*%
%TO.N,+5V*%
X133000000Y-55000000D03*
%TD*%
%TO.P,D1,1,K*%
%TO.N,Net-(D1-K)*%
X146487500Y-78000000D03*
%TO.P,D1,2,A*%
%TO.N,+5V*%
X143512500Y-78000000D03*
%TD*%
D22*
%TO.P,C5,1*%
%TO.N,+5V*%
X145962500Y-61000000D03*
%TO.P,C5,2*%
%TO.N,GND*%
X148037500Y-61000000D03*
%TD*%
D23*
%TO.P,C4,1*%
%TO.N,Net-(D4-K)*%
X154500000Y-57000000D03*
D24*
%TO.P,C4,2*%
%TO.N,GND*%
X152500000Y-57000000D03*
%TD*%
D25*
%TO.P,C3,1*%
%TO.N,Net-(D4-K)*%
X155575000Y-53112500D03*
%TO.P,C3,2*%
%TO.N,GND*%
X153500000Y-53112500D03*
%TD*%
D22*
%TO.P,C2,1*%
%TO.N,+5V*%
X149500000Y-53112500D03*
%TO.P,C2,2*%
%TO.N,GND*%
X151575000Y-53112500D03*
%TD*%
D25*
%TO.P,C1,1*%
%TO.N,+5V*%
X161787500Y-77500000D03*
%TO.P,C1,2*%
%TO.N,GND*%
X159712500Y-77500000D03*
%TD*%
D26*
%TO.N,+5V*%
X165500000Y-77250000D03*
X138000000Y-56500000D03*
X139250000Y-75750000D03*
X138000000Y-67500000D03*
D27*
X147750000Y-53000000D03*
D26*
%TO.N,Net-(J2-Pin_5)*%
X154000000Y-65750000D03*
D27*
X144250000Y-63500000D03*
%TO.N,Net-(J2-Pin_4)*%
X142500000Y-59750000D03*
X154000000Y-64500000D03*
%TO.N,Net-(J2-Pin_1)*%
X144750000Y-67000000D03*
%TO.N,GND*%
X149250000Y-61500000D03*
X154000000Y-63000000D03*
%TO.N,Net-(J3-Pin_1)*%
X133750000Y-57750000D03*
X141750000Y-63750000D03*
X144500000Y-65750000D03*
%TO.N,Net-(U1-DI)*%
X153000000Y-74500000D03*
X147750000Y-74750000D03*
%TO.N,Net-(J4-Pin_12)*%
X148000000Y-73250000D03*
%TO.N,Net-(J4-Pin_11)*%
X148000000Y-72000000D03*
%TO.N,Net-(J4-Pin_8)*%
X147750000Y-70750000D03*
%TO.N,Net-(J4-Pin_9)*%
X148000000Y-69500000D03*
%TO.N,Net-(J4-Pin_10)*%
X148000000Y-68000000D03*
%TD*%
D28*
%TO.N,+5V*%
X161787500Y-77500000D02*
X165250000Y-77500000D01*
X165250000Y-77500000D02*
X165500000Y-77250000D01*
%TO.N,GND*%
X126000000Y-63750000D02*
X126000000Y-54000000D01*
X126000000Y-54000000D02*
X132000000Y-48000000D01*
X132000000Y-48000000D02*
X140750000Y-48000000D01*
D29*
%TO.N,+5V*%
X134500000Y-56500000D02*
X138000000Y-56500000D01*
D28*
X143512500Y-78000000D02*
X141500000Y-78000000D01*
X141500000Y-78000000D02*
X139250000Y-75750000D01*
D29*
X134500000Y-67500000D02*
X138000000Y-67500000D01*
D30*
X149387500Y-53000000D02*
X149500000Y-53112500D01*
X147750000Y-53000000D02*
X149387500Y-53000000D01*
%TO.N,GND*%
X140080000Y-50000000D02*
X140080000Y-48670000D01*
X140080000Y-48670000D02*
X140750000Y-48000000D01*
X152500000Y-50250000D02*
X152500000Y-50862500D01*
X140750000Y-48000000D02*
X150250000Y-48000000D01*
X150250000Y-48000000D02*
X152500000Y-50250000D01*
D29*
%TO.N,Net-(J2-Pin_5)*%
X154075000Y-65825000D02*
X154000000Y-65750000D01*
X155650000Y-65825000D02*
X154075000Y-65825000D01*
X144250000Y-63500000D02*
X144250000Y-50910000D01*
X144250000Y-50910000D02*
X145160000Y-50000000D01*
%TO.N,Net-(J2-Pin_4)*%
X154055000Y-64555000D02*
X154000000Y-64500000D01*
X155650000Y-64555000D02*
X154055000Y-64555000D01*
X142500000Y-59750000D02*
X142620000Y-59630000D01*
X142620000Y-59630000D02*
X142620000Y-50000000D01*
%TO.N,Net-(J2-Pin_1)*%
X146350000Y-67095000D02*
X144845000Y-67095000D01*
X144845000Y-67095000D02*
X144750000Y-67000000D01*
D28*
%TO.N,GND*%
X149250000Y-61500000D02*
X148537500Y-61500000D01*
X148537500Y-61500000D02*
X148037500Y-61000000D01*
X155650000Y-63285000D02*
X154285000Y-63285000D01*
X154285000Y-63285000D02*
X154000000Y-63000000D01*
D30*
X148037500Y-61000000D02*
X148500000Y-61000000D01*
X148500000Y-61000000D02*
X152500000Y-57000000D01*
D28*
%TO.N,+5V*%
X145962500Y-61000000D02*
X145962500Y-56650000D01*
X145962500Y-56650000D02*
X149500000Y-53112500D01*
D29*
X133000000Y-66000000D02*
X134500000Y-67500000D01*
X138500000Y-67500000D02*
X139000000Y-68000000D01*
X138000000Y-67500000D02*
X138500000Y-67500000D01*
X133000000Y-55000000D02*
X134500000Y-56500000D01*
X138500000Y-56500000D02*
X139000000Y-57000000D01*
X138000000Y-56500000D02*
X138500000Y-56500000D01*
D28*
%TO.N,Net-(J3-Pin_1)*%
X135980000Y-57750000D02*
X133750000Y-57750000D01*
D29*
%TO.N,Net-(J3-Pin_3)*%
X137000000Y-78000000D02*
X138000000Y-77000000D01*
X138000000Y-77000000D02*
X138000000Y-69500000D01*
D28*
%TO.N,Net-(J3-Pin_1)*%
X135980000Y-57750000D02*
X136730000Y-58500000D01*
X136730000Y-58500000D02*
X139500000Y-58500000D01*
X139500000Y-58500000D02*
X141000000Y-57000000D01*
D29*
X146350000Y-65825000D02*
X144575000Y-65825000D01*
X144575000Y-65825000D02*
X144500000Y-65750000D01*
X141750000Y-63750000D02*
X141750000Y-63500000D01*
X141750000Y-63500000D02*
X141000000Y-62750000D01*
X141000000Y-62750000D02*
X141000000Y-57000000D01*
D28*
%TO.N,Net-(J3-Pin_3)*%
X141000000Y-68000000D02*
X141000000Y-68500000D01*
X141000000Y-68500000D02*
X140000000Y-69500000D01*
X140000000Y-69500000D02*
X138000000Y-69500000D01*
X138000000Y-69500000D02*
X137250000Y-68750000D01*
X137250000Y-68750000D02*
X135980000Y-68750000D01*
D29*
X146350000Y-64555000D02*
X142445000Y-64555000D01*
X142445000Y-64555000D02*
X141000000Y-66000000D01*
D28*
%TO.N,GND*%
X128020000Y-62250000D02*
X127500000Y-62250000D01*
X127500000Y-62250000D02*
X126000000Y-63750000D01*
X126000000Y-63750000D02*
X126000000Y-72500000D01*
X126750000Y-73250000D02*
X128020000Y-73250000D01*
X126000000Y-72500000D02*
X126750000Y-73250000D01*
X134460000Y-78000000D02*
X134460000Y-74770000D01*
X134460000Y-74770000D02*
X135980000Y-73250000D01*
%TO.N,Net-(D1-K)*%
X149512500Y-78000000D02*
X146487500Y-78000000D01*
%TO.N,GND*%
X159712500Y-77500000D02*
X159712500Y-76537500D01*
X159712500Y-76537500D02*
X162000000Y-74250000D01*
X162000000Y-74250000D02*
X165500000Y-74250000D01*
X165500000Y-74250000D02*
X170960000Y-68790000D01*
X170960000Y-68790000D02*
X170960000Y-61540000D01*
%TO.N,Net-(J1-Pin_5)*%
X161475000Y-82635000D02*
X171946580Y-82635000D01*
X171946580Y-82635000D02*
X176212580Y-86901000D01*
X178901000Y-85787420D02*
X178901000Y-76901000D01*
X176212580Y-86901000D02*
X177787420Y-86901000D01*
X177787420Y-86901000D02*
X178901000Y-85787420D01*
X178901000Y-76901000D02*
X177000000Y-75000000D01*
%TO.N,Net-(J1-Pin_7)*%
X161475000Y-81365000D02*
X175635000Y-81365000D01*
X175635000Y-81365000D02*
X177000000Y-80000000D01*
D31*
%TO.N,Net-(J1-Pin_5)*%
X177000000Y-75000000D02*
X177000000Y-70000000D01*
%TO.N,Net-(J1-Pin_7)*%
X177000000Y-85000000D02*
X177000000Y-80000000D01*
D28*
%TO.N,GND*%
X161475000Y-83905000D02*
X160405000Y-83905000D01*
X160405000Y-83905000D02*
X159500000Y-83000000D01*
X159500000Y-83000000D02*
X159500000Y-79000000D01*
X159500000Y-79000000D02*
X159712500Y-78787500D01*
X159712500Y-78787500D02*
X159712500Y-77500000D01*
%TO.N,+5V*%
X161475000Y-80095000D02*
X161475000Y-77812500D01*
X161475000Y-77812500D02*
X161787500Y-77500000D01*
D29*
%TO.N,Net-(U2-RA2)*%
X151512500Y-78000000D02*
X151512500Y-70207501D01*
X154625001Y-67095000D02*
X155650000Y-67095000D01*
X151512500Y-70207501D02*
X154625001Y-67095000D01*
%TO.N,Net-(U1-DI)*%
X146350000Y-74715000D02*
X147715000Y-74715000D01*
X147715000Y-74715000D02*
X147750000Y-74750000D01*
X156525000Y-83905000D02*
X155550001Y-83905000D01*
X153000000Y-81354999D02*
X153000000Y-74500000D01*
X155550001Y-83905000D02*
X153000000Y-81354999D01*
%TO.N,Net-(U1-~{RE})*%
X155650000Y-72175000D02*
X154825000Y-72175000D01*
X153750000Y-79564999D02*
X155550001Y-81365000D01*
X154825000Y-72175000D02*
X153750000Y-73250000D01*
X153750000Y-73250000D02*
X153750000Y-79564999D01*
X155550001Y-81365000D02*
X156525000Y-81365000D01*
%TO.N,Net-(U1-RO)*%
X155650000Y-73445000D02*
X154625001Y-73445000D01*
X154625001Y-73445000D02*
X154250000Y-73820001D01*
X154250000Y-73820001D02*
X154250000Y-77820000D01*
X154250000Y-77820000D02*
X156525000Y-80095000D01*
%TO.N,Net-(U1-DE)*%
X155650000Y-74715000D02*
X158250000Y-77315000D01*
X158250000Y-77315000D02*
X158250000Y-82000000D01*
X158250000Y-82000000D02*
X157615000Y-82635000D01*
X157615000Y-82635000D02*
X156525000Y-82635000D01*
%TO.N,Net-(J4-Pin_7)*%
X155650000Y-70905000D02*
X156345000Y-70905000D01*
X156345000Y-70905000D02*
X160000000Y-67250000D01*
X160000000Y-67250000D02*
X160000000Y-66620000D01*
%TO.N,Net-(J4-Pin_6)*%
X158250000Y-68000000D02*
X158250000Y-65750000D01*
X156615000Y-69635000D02*
X158250000Y-68000000D01*
X155650000Y-69635000D02*
X156615000Y-69635000D01*
X158250000Y-65750000D02*
X158581000Y-65419000D01*
X158581000Y-65419000D02*
X161201000Y-65419000D01*
X161201000Y-65419000D02*
X162540000Y-64080000D01*
%TO.N,Net-(J4-Pin_5)*%
X155650000Y-68365000D02*
X156635000Y-68365000D01*
X156635000Y-68365000D02*
X157500000Y-67500000D01*
X157500000Y-67500000D02*
X157500000Y-65000000D01*
X157500000Y-65000000D02*
X158420000Y-64080000D01*
X158420000Y-64080000D02*
X160000000Y-64080000D01*
D31*
%TO.N,GND*%
X162540000Y-61540000D02*
X170960000Y-61540000D01*
X170960000Y-61540000D02*
X172500000Y-60000000D01*
X172500000Y-60000000D02*
X177000000Y-60000000D01*
X160000000Y-61540000D02*
X162540000Y-61540000D01*
%TO.N,+12V*%
X162540000Y-59000000D02*
X166790000Y-54750000D01*
X169000000Y-55000000D02*
X177000000Y-55000000D01*
X166790000Y-54750000D02*
X168750000Y-54750000D01*
X168750000Y-54750000D02*
X169000000Y-55000000D01*
X160000000Y-59000000D02*
X162540000Y-59000000D01*
D32*
%TO.N,GND*%
X177000000Y-60000000D02*
X177000000Y-65000000D01*
%TO.N,+12V*%
X177000000Y-50000000D02*
X177000000Y-55000000D01*
X163000000Y-49862500D02*
X176862500Y-49862500D01*
X176862500Y-49862500D02*
X177000000Y-50000000D01*
D30*
%TO.N,Net-(D4-K)*%
X154500000Y-57000000D02*
X156500000Y-55000000D01*
X156500000Y-55000000D02*
X157500000Y-55000000D01*
X157500000Y-55000000D02*
X158000000Y-54500000D01*
X158000000Y-54500000D02*
X158000000Y-49862500D01*
%TO.N,GND*%
X152500000Y-57000000D02*
X152500000Y-53112500D01*
%TO.N,Net-(D4-K)*%
X154500000Y-57000000D02*
X155575000Y-55925000D01*
X155575000Y-55925000D02*
X155575000Y-53112500D01*
D28*
X154000000Y-50950000D02*
X154750000Y-51700000D01*
X154750000Y-51750000D02*
X155250000Y-51750000D01*
X155575000Y-52075000D02*
X155575000Y-53112500D01*
X154750000Y-51700000D02*
X154750000Y-51750000D01*
X155250000Y-51750000D02*
X155575000Y-52075000D01*
%TO.N,+5V*%
X151000000Y-50950000D02*
X150200000Y-51750000D01*
X149500000Y-52000000D02*
X149500000Y-53112500D01*
X150200000Y-51750000D02*
X149750000Y-51750000D01*
X149750000Y-51750000D02*
X149500000Y-52000000D01*
%TO.N,GND*%
X151575000Y-53112500D02*
X152500000Y-53112500D01*
X152500000Y-50862500D02*
X152500000Y-53112500D01*
X152500000Y-53112500D02*
X153500000Y-53112500D01*
%TO.N,+5V*%
X146350000Y-63285000D02*
X146350000Y-61387500D01*
X146350000Y-61387500D02*
X145962500Y-61000000D01*
D29*
%TO.N,Net-(J4-Pin_12)*%
X146350000Y-73445000D02*
X147805000Y-73445000D01*
X147805000Y-73445000D02*
X148000000Y-73250000D01*
%TO.N,Net-(J4-Pin_11)*%
X146350000Y-72175000D02*
X147825000Y-72175000D01*
X147825000Y-72175000D02*
X148000000Y-72000000D01*
%TO.N,Net-(J4-Pin_8)*%
X146350000Y-70905000D02*
X147595000Y-70905000D01*
X147595000Y-70905000D02*
X147750000Y-70750000D01*
%TO.N,Net-(J4-Pin_9)*%
X146350000Y-69635000D02*
X147865000Y-69635000D01*
X147865000Y-69635000D02*
X148000000Y-69500000D01*
%TO.N,Net-(J4-Pin_10)*%
X146350000Y-68365000D02*
X147635000Y-68365000D01*
X147635000Y-68365000D02*
X148000000Y-68000000D01*
D28*
%TO.N,GND*%
X128020000Y-73250000D02*
X135980000Y-73250000D01*
%TO.N,Net-(J3-Pin_3)*%
X135980000Y-68750000D02*
X128020000Y-68750000D01*
X141000000Y-66000000D02*
X141000000Y-68000000D01*
%TO.N,Net-(D3-K)*%
X135975000Y-66000000D02*
X139000000Y-66000000D01*
%TO.N,GND*%
X128020000Y-62250000D02*
X135980000Y-62250000D01*
%TO.N,Net-(J3-Pin_1)*%
X133750000Y-57750000D02*
X128020000Y-57750000D01*
X141000000Y-57000000D02*
X141000000Y-55000000D01*
%TO.N,Net-(D2-K)*%
X139000000Y-55000000D02*
X135975000Y-55000000D01*
%TD*%
M02*
