%TF.GenerationSoftware,KiCad,Pcbnew,9.0.0*%
%TF.CreationDate,2025-03-23T15:00:11-07:00*%
%TF.ProjectId,SMRRC,534d5252-432e-46b6-9963-61645f706362,n/c*%
%TF.SameCoordinates,Original*%
%TF.FileFunction,Legend,Top*%
%TF.FilePolarity,Positive*%
%FSLAX46Y46*%
G04 Gerber Fmt 4.6, Leading zero omitted, Abs format (unit mm)*
G04 Created by KiCad (PCBNEW 9.0.0) date 2025-03-23 15:00:11*
%MOMM*%
%LPD*%
G01*
G04 APERTURE LIST*
%ADD10C,0.300000*%
%ADD11C,0.187500*%
%ADD12C,0.100000*%
%ADD13C,0.150000*%
%ADD14C,0.120000*%
G04 APERTURE END LIST*
D10*
X137304510Y-87050828D02*
X137304510Y-85550828D01*
X137304510Y-85550828D02*
X138161653Y-87050828D01*
X138161653Y-87050828D02*
X138161653Y-85550828D01*
X139090225Y-87050828D02*
X138947368Y-86979400D01*
X138947368Y-86979400D02*
X138875939Y-86907971D01*
X138875939Y-86907971D02*
X138804511Y-86765114D01*
X138804511Y-86765114D02*
X138804511Y-86336542D01*
X138804511Y-86336542D02*
X138875939Y-86193685D01*
X138875939Y-86193685D02*
X138947368Y-86122257D01*
X138947368Y-86122257D02*
X139090225Y-86050828D01*
X139090225Y-86050828D02*
X139304511Y-86050828D01*
X139304511Y-86050828D02*
X139447368Y-86122257D01*
X139447368Y-86122257D02*
X139518797Y-86193685D01*
X139518797Y-86193685D02*
X139590225Y-86336542D01*
X139590225Y-86336542D02*
X139590225Y-86765114D01*
X139590225Y-86765114D02*
X139518797Y-86907971D01*
X139518797Y-86907971D02*
X139447368Y-86979400D01*
X139447368Y-86979400D02*
X139304511Y-87050828D01*
X139304511Y-87050828D02*
X139090225Y-87050828D01*
X140875940Y-87050828D02*
X140875940Y-85550828D01*
X140875940Y-86979400D02*
X140733082Y-87050828D01*
X140733082Y-87050828D02*
X140447368Y-87050828D01*
X140447368Y-87050828D02*
X140304511Y-86979400D01*
X140304511Y-86979400D02*
X140233082Y-86907971D01*
X140233082Y-86907971D02*
X140161654Y-86765114D01*
X140161654Y-86765114D02*
X140161654Y-86336542D01*
X140161654Y-86336542D02*
X140233082Y-86193685D01*
X140233082Y-86193685D02*
X140304511Y-86122257D01*
X140304511Y-86122257D02*
X140447368Y-86050828D01*
X140447368Y-86050828D02*
X140733082Y-86050828D01*
X140733082Y-86050828D02*
X140875940Y-86122257D01*
X142161654Y-86979400D02*
X142018797Y-87050828D01*
X142018797Y-87050828D02*
X141733083Y-87050828D01*
X141733083Y-87050828D02*
X141590225Y-86979400D01*
X141590225Y-86979400D02*
X141518797Y-86836542D01*
X141518797Y-86836542D02*
X141518797Y-86265114D01*
X141518797Y-86265114D02*
X141590225Y-86122257D01*
X141590225Y-86122257D02*
X141733083Y-86050828D01*
X141733083Y-86050828D02*
X142018797Y-86050828D01*
X142018797Y-86050828D02*
X142161654Y-86122257D01*
X142161654Y-86122257D02*
X142233083Y-86265114D01*
X142233083Y-86265114D02*
X142233083Y-86407971D01*
X142233083Y-86407971D02*
X141518797Y-86550828D01*
X144518796Y-86265114D02*
X144733082Y-86336542D01*
X144733082Y-86336542D02*
X144804511Y-86407971D01*
X144804511Y-86407971D02*
X144875939Y-86550828D01*
X144875939Y-86550828D02*
X144875939Y-86765114D01*
X144875939Y-86765114D02*
X144804511Y-86907971D01*
X144804511Y-86907971D02*
X144733082Y-86979400D01*
X144733082Y-86979400D02*
X144590225Y-87050828D01*
X144590225Y-87050828D02*
X144018796Y-87050828D01*
X144018796Y-87050828D02*
X144018796Y-85550828D01*
X144018796Y-85550828D02*
X144518796Y-85550828D01*
X144518796Y-85550828D02*
X144661654Y-85622257D01*
X144661654Y-85622257D02*
X144733082Y-85693685D01*
X144733082Y-85693685D02*
X144804511Y-85836542D01*
X144804511Y-85836542D02*
X144804511Y-85979400D01*
X144804511Y-85979400D02*
X144733082Y-86122257D01*
X144733082Y-86122257D02*
X144661654Y-86193685D01*
X144661654Y-86193685D02*
X144518796Y-86265114D01*
X144518796Y-86265114D02*
X144018796Y-86265114D01*
X145733082Y-87050828D02*
X145590225Y-86979400D01*
X145590225Y-86979400D02*
X145518796Y-86907971D01*
X145518796Y-86907971D02*
X145447368Y-86765114D01*
X145447368Y-86765114D02*
X145447368Y-86336542D01*
X145447368Y-86336542D02*
X145518796Y-86193685D01*
X145518796Y-86193685D02*
X145590225Y-86122257D01*
X145590225Y-86122257D02*
X145733082Y-86050828D01*
X145733082Y-86050828D02*
X145947368Y-86050828D01*
X145947368Y-86050828D02*
X146090225Y-86122257D01*
X146090225Y-86122257D02*
X146161654Y-86193685D01*
X146161654Y-86193685D02*
X146233082Y-86336542D01*
X146233082Y-86336542D02*
X146233082Y-86765114D01*
X146233082Y-86765114D02*
X146161654Y-86907971D01*
X146161654Y-86907971D02*
X146090225Y-86979400D01*
X146090225Y-86979400D02*
X145947368Y-87050828D01*
X145947368Y-87050828D02*
X145733082Y-87050828D01*
X147518797Y-87050828D02*
X147518797Y-86265114D01*
X147518797Y-86265114D02*
X147447368Y-86122257D01*
X147447368Y-86122257D02*
X147304511Y-86050828D01*
X147304511Y-86050828D02*
X147018797Y-86050828D01*
X147018797Y-86050828D02*
X146875939Y-86122257D01*
X147518797Y-86979400D02*
X147375939Y-87050828D01*
X147375939Y-87050828D02*
X147018797Y-87050828D01*
X147018797Y-87050828D02*
X146875939Y-86979400D01*
X146875939Y-86979400D02*
X146804511Y-86836542D01*
X146804511Y-86836542D02*
X146804511Y-86693685D01*
X146804511Y-86693685D02*
X146875939Y-86550828D01*
X146875939Y-86550828D02*
X147018797Y-86479400D01*
X147018797Y-86479400D02*
X147375939Y-86479400D01*
X147375939Y-86479400D02*
X147518797Y-86407971D01*
X148233082Y-87050828D02*
X148233082Y-86050828D01*
X148233082Y-86336542D02*
X148304511Y-86193685D01*
X148304511Y-86193685D02*
X148375940Y-86122257D01*
X148375940Y-86122257D02*
X148518797Y-86050828D01*
X148518797Y-86050828D02*
X148661654Y-86050828D01*
X149804511Y-87050828D02*
X149804511Y-85550828D01*
X149804511Y-86979400D02*
X149661653Y-87050828D01*
X149661653Y-87050828D02*
X149375939Y-87050828D01*
X149375939Y-87050828D02*
X149233082Y-86979400D01*
X149233082Y-86979400D02*
X149161653Y-86907971D01*
X149161653Y-86907971D02*
X149090225Y-86765114D01*
X149090225Y-86765114D02*
X149090225Y-86336542D01*
X149090225Y-86336542D02*
X149161653Y-86193685D01*
X149161653Y-86193685D02*
X149233082Y-86122257D01*
X149233082Y-86122257D02*
X149375939Y-86050828D01*
X149375939Y-86050828D02*
X149661653Y-86050828D01*
X149661653Y-86050828D02*
X149804511Y-86122257D01*
D11*
X133909069Y-91570334D02*
X134123355Y-91641762D01*
X134123355Y-91641762D02*
X134480497Y-91641762D01*
X134480497Y-91641762D02*
X134623355Y-91570334D01*
X134623355Y-91570334D02*
X134694783Y-91498905D01*
X134694783Y-91498905D02*
X134766212Y-91356048D01*
X134766212Y-91356048D02*
X134766212Y-91213191D01*
X134766212Y-91213191D02*
X134694783Y-91070334D01*
X134694783Y-91070334D02*
X134623355Y-90998905D01*
X134623355Y-90998905D02*
X134480497Y-90927476D01*
X134480497Y-90927476D02*
X134194783Y-90856048D01*
X134194783Y-90856048D02*
X134051926Y-90784619D01*
X134051926Y-90784619D02*
X133980497Y-90713191D01*
X133980497Y-90713191D02*
X133909069Y-90570334D01*
X133909069Y-90570334D02*
X133909069Y-90427476D01*
X133909069Y-90427476D02*
X133980497Y-90284619D01*
X133980497Y-90284619D02*
X134051926Y-90213191D01*
X134051926Y-90213191D02*
X134194783Y-90141762D01*
X134194783Y-90141762D02*
X134551926Y-90141762D01*
X134551926Y-90141762D02*
X134766212Y-90213191D01*
X135980497Y-91570334D02*
X135837640Y-91641762D01*
X135837640Y-91641762D02*
X135551926Y-91641762D01*
X135551926Y-91641762D02*
X135409068Y-91570334D01*
X135409068Y-91570334D02*
X135337640Y-91427476D01*
X135337640Y-91427476D02*
X135337640Y-90856048D01*
X135337640Y-90856048D02*
X135409068Y-90713191D01*
X135409068Y-90713191D02*
X135551926Y-90641762D01*
X135551926Y-90641762D02*
X135837640Y-90641762D01*
X135837640Y-90641762D02*
X135980497Y-90713191D01*
X135980497Y-90713191D02*
X136051926Y-90856048D01*
X136051926Y-90856048D02*
X136051926Y-90998905D01*
X136051926Y-90998905D02*
X135337640Y-91141762D01*
X136694782Y-91641762D02*
X136694782Y-90641762D01*
X136694782Y-90927476D02*
X136766211Y-90784619D01*
X136766211Y-90784619D02*
X136837640Y-90713191D01*
X136837640Y-90713191D02*
X136980497Y-90641762D01*
X136980497Y-90641762D02*
X137123354Y-90641762D01*
X137623353Y-91641762D02*
X137623353Y-90641762D01*
X137623353Y-90141762D02*
X137551925Y-90213191D01*
X137551925Y-90213191D02*
X137623353Y-90284619D01*
X137623353Y-90284619D02*
X137694782Y-90213191D01*
X137694782Y-90213191D02*
X137623353Y-90141762D01*
X137623353Y-90141762D02*
X137623353Y-90284619D01*
X138980497Y-91641762D02*
X138980497Y-90856048D01*
X138980497Y-90856048D02*
X138909068Y-90713191D01*
X138909068Y-90713191D02*
X138766211Y-90641762D01*
X138766211Y-90641762D02*
X138480497Y-90641762D01*
X138480497Y-90641762D02*
X138337639Y-90713191D01*
X138980497Y-91570334D02*
X138837639Y-91641762D01*
X138837639Y-91641762D02*
X138480497Y-91641762D01*
X138480497Y-91641762D02*
X138337639Y-91570334D01*
X138337639Y-91570334D02*
X138266211Y-91427476D01*
X138266211Y-91427476D02*
X138266211Y-91284619D01*
X138266211Y-91284619D02*
X138337639Y-91141762D01*
X138337639Y-91141762D02*
X138480497Y-91070334D01*
X138480497Y-91070334D02*
X138837639Y-91070334D01*
X138837639Y-91070334D02*
X138980497Y-90998905D01*
X139909068Y-91641762D02*
X139766211Y-91570334D01*
X139766211Y-91570334D02*
X139694782Y-91427476D01*
X139694782Y-91427476D02*
X139694782Y-90141762D01*
X141623353Y-91641762D02*
X141623353Y-90141762D01*
X141623353Y-90141762D02*
X142123353Y-91213191D01*
X142123353Y-91213191D02*
X142623353Y-90141762D01*
X142623353Y-90141762D02*
X142623353Y-91641762D01*
X143551925Y-91641762D02*
X143409068Y-91570334D01*
X143409068Y-91570334D02*
X143337639Y-91498905D01*
X143337639Y-91498905D02*
X143266211Y-91356048D01*
X143266211Y-91356048D02*
X143266211Y-90927476D01*
X143266211Y-90927476D02*
X143337639Y-90784619D01*
X143337639Y-90784619D02*
X143409068Y-90713191D01*
X143409068Y-90713191D02*
X143551925Y-90641762D01*
X143551925Y-90641762D02*
X143766211Y-90641762D01*
X143766211Y-90641762D02*
X143909068Y-90713191D01*
X143909068Y-90713191D02*
X143980497Y-90784619D01*
X143980497Y-90784619D02*
X144051925Y-90927476D01*
X144051925Y-90927476D02*
X144051925Y-91356048D01*
X144051925Y-91356048D02*
X143980497Y-91498905D01*
X143980497Y-91498905D02*
X143909068Y-91570334D01*
X143909068Y-91570334D02*
X143766211Y-91641762D01*
X143766211Y-91641762D02*
X143551925Y-91641762D01*
X145337640Y-91641762D02*
X145337640Y-90141762D01*
X145337640Y-91570334D02*
X145194782Y-91641762D01*
X145194782Y-91641762D02*
X144909068Y-91641762D01*
X144909068Y-91641762D02*
X144766211Y-91570334D01*
X144766211Y-91570334D02*
X144694782Y-91498905D01*
X144694782Y-91498905D02*
X144623354Y-91356048D01*
X144623354Y-91356048D02*
X144623354Y-90927476D01*
X144623354Y-90927476D02*
X144694782Y-90784619D01*
X144694782Y-90784619D02*
X144766211Y-90713191D01*
X144766211Y-90713191D02*
X144909068Y-90641762D01*
X144909068Y-90641762D02*
X145194782Y-90641762D01*
X145194782Y-90641762D02*
X145337640Y-90713191D01*
X146623354Y-91570334D02*
X146480497Y-91641762D01*
X146480497Y-91641762D02*
X146194783Y-91641762D01*
X146194783Y-91641762D02*
X146051925Y-91570334D01*
X146051925Y-91570334D02*
X145980497Y-91427476D01*
X145980497Y-91427476D02*
X145980497Y-90856048D01*
X145980497Y-90856048D02*
X146051925Y-90713191D01*
X146051925Y-90713191D02*
X146194783Y-90641762D01*
X146194783Y-90641762D02*
X146480497Y-90641762D01*
X146480497Y-90641762D02*
X146623354Y-90713191D01*
X146623354Y-90713191D02*
X146694783Y-90856048D01*
X146694783Y-90856048D02*
X146694783Y-90998905D01*
X146694783Y-90998905D02*
X145980497Y-91141762D01*
X147551925Y-91641762D02*
X147409068Y-91570334D01*
X147409068Y-91570334D02*
X147337639Y-91427476D01*
X147337639Y-91427476D02*
X147337639Y-90141762D01*
X150123353Y-91641762D02*
X149623353Y-90927476D01*
X149266210Y-91641762D02*
X149266210Y-90141762D01*
X149266210Y-90141762D02*
X149837639Y-90141762D01*
X149837639Y-90141762D02*
X149980496Y-90213191D01*
X149980496Y-90213191D02*
X150051925Y-90284619D01*
X150051925Y-90284619D02*
X150123353Y-90427476D01*
X150123353Y-90427476D02*
X150123353Y-90641762D01*
X150123353Y-90641762D02*
X150051925Y-90784619D01*
X150051925Y-90784619D02*
X149980496Y-90856048D01*
X149980496Y-90856048D02*
X149837639Y-90927476D01*
X149837639Y-90927476D02*
X149266210Y-90927476D01*
X151409068Y-91641762D02*
X151409068Y-90856048D01*
X151409068Y-90856048D02*
X151337639Y-90713191D01*
X151337639Y-90713191D02*
X151194782Y-90641762D01*
X151194782Y-90641762D02*
X150909068Y-90641762D01*
X150909068Y-90641762D02*
X150766210Y-90713191D01*
X151409068Y-91570334D02*
X151266210Y-91641762D01*
X151266210Y-91641762D02*
X150909068Y-91641762D01*
X150909068Y-91641762D02*
X150766210Y-91570334D01*
X150766210Y-91570334D02*
X150694782Y-91427476D01*
X150694782Y-91427476D02*
X150694782Y-91284619D01*
X150694782Y-91284619D02*
X150766210Y-91141762D01*
X150766210Y-91141762D02*
X150909068Y-91070334D01*
X150909068Y-91070334D02*
X151266210Y-91070334D01*
X151266210Y-91070334D02*
X151409068Y-90998905D01*
X152123353Y-91641762D02*
X152123353Y-90641762D01*
X152123353Y-90141762D02*
X152051925Y-90213191D01*
X152051925Y-90213191D02*
X152123353Y-90284619D01*
X152123353Y-90284619D02*
X152194782Y-90213191D01*
X152194782Y-90213191D02*
X152123353Y-90141762D01*
X152123353Y-90141762D02*
X152123353Y-90284619D01*
X153051925Y-91641762D02*
X152909068Y-91570334D01*
X152909068Y-91570334D02*
X152837639Y-91427476D01*
X152837639Y-91427476D02*
X152837639Y-90141762D01*
X153623353Y-91641762D02*
X153623353Y-90641762D01*
X153623353Y-90927476D02*
X153694782Y-90784619D01*
X153694782Y-90784619D02*
X153766211Y-90713191D01*
X153766211Y-90713191D02*
X153909068Y-90641762D01*
X153909068Y-90641762D02*
X154051925Y-90641762D01*
X154766210Y-91641762D02*
X154623353Y-91570334D01*
X154623353Y-91570334D02*
X154551924Y-91498905D01*
X154551924Y-91498905D02*
X154480496Y-91356048D01*
X154480496Y-91356048D02*
X154480496Y-90927476D01*
X154480496Y-90927476D02*
X154551924Y-90784619D01*
X154551924Y-90784619D02*
X154623353Y-90713191D01*
X154623353Y-90713191D02*
X154766210Y-90641762D01*
X154766210Y-90641762D02*
X154980496Y-90641762D01*
X154980496Y-90641762D02*
X155123353Y-90713191D01*
X155123353Y-90713191D02*
X155194782Y-90784619D01*
X155194782Y-90784619D02*
X155266210Y-90927476D01*
X155266210Y-90927476D02*
X155266210Y-91356048D01*
X155266210Y-91356048D02*
X155194782Y-91498905D01*
X155194782Y-91498905D02*
X155123353Y-91570334D01*
X155123353Y-91570334D02*
X154980496Y-91641762D01*
X154980496Y-91641762D02*
X154766210Y-91641762D01*
X156551925Y-91641762D02*
X156551925Y-90856048D01*
X156551925Y-90856048D02*
X156480496Y-90713191D01*
X156480496Y-90713191D02*
X156337639Y-90641762D01*
X156337639Y-90641762D02*
X156051925Y-90641762D01*
X156051925Y-90641762D02*
X155909067Y-90713191D01*
X156551925Y-91570334D02*
X156409067Y-91641762D01*
X156409067Y-91641762D02*
X156051925Y-91641762D01*
X156051925Y-91641762D02*
X155909067Y-91570334D01*
X155909067Y-91570334D02*
X155837639Y-91427476D01*
X155837639Y-91427476D02*
X155837639Y-91284619D01*
X155837639Y-91284619D02*
X155909067Y-91141762D01*
X155909067Y-91141762D02*
X156051925Y-91070334D01*
X156051925Y-91070334D02*
X156409067Y-91070334D01*
X156409067Y-91070334D02*
X156551925Y-90998905D01*
X157909068Y-91641762D02*
X157909068Y-90141762D01*
X157909068Y-91570334D02*
X157766210Y-91641762D01*
X157766210Y-91641762D02*
X157480496Y-91641762D01*
X157480496Y-91641762D02*
X157337639Y-91570334D01*
X157337639Y-91570334D02*
X157266210Y-91498905D01*
X157266210Y-91498905D02*
X157194782Y-91356048D01*
X157194782Y-91356048D02*
X157194782Y-90927476D01*
X157194782Y-90927476D02*
X157266210Y-90784619D01*
X157266210Y-90784619D02*
X157337639Y-90713191D01*
X157337639Y-90713191D02*
X157480496Y-90641762D01*
X157480496Y-90641762D02*
X157766210Y-90641762D01*
X157766210Y-90641762D02*
X157909068Y-90713191D01*
X160623353Y-91498905D02*
X160551925Y-91570334D01*
X160551925Y-91570334D02*
X160337639Y-91641762D01*
X160337639Y-91641762D02*
X160194782Y-91641762D01*
X160194782Y-91641762D02*
X159980496Y-91570334D01*
X159980496Y-91570334D02*
X159837639Y-91427476D01*
X159837639Y-91427476D02*
X159766210Y-91284619D01*
X159766210Y-91284619D02*
X159694782Y-90998905D01*
X159694782Y-90998905D02*
X159694782Y-90784619D01*
X159694782Y-90784619D02*
X159766210Y-90498905D01*
X159766210Y-90498905D02*
X159837639Y-90356048D01*
X159837639Y-90356048D02*
X159980496Y-90213191D01*
X159980496Y-90213191D02*
X160194782Y-90141762D01*
X160194782Y-90141762D02*
X160337639Y-90141762D01*
X160337639Y-90141762D02*
X160551925Y-90213191D01*
X160551925Y-90213191D02*
X160623353Y-90284619D01*
X161480496Y-91641762D02*
X161337639Y-91570334D01*
X161337639Y-91570334D02*
X161266210Y-91498905D01*
X161266210Y-91498905D02*
X161194782Y-91356048D01*
X161194782Y-91356048D02*
X161194782Y-90927476D01*
X161194782Y-90927476D02*
X161266210Y-90784619D01*
X161266210Y-90784619D02*
X161337639Y-90713191D01*
X161337639Y-90713191D02*
X161480496Y-90641762D01*
X161480496Y-90641762D02*
X161694782Y-90641762D01*
X161694782Y-90641762D02*
X161837639Y-90713191D01*
X161837639Y-90713191D02*
X161909068Y-90784619D01*
X161909068Y-90784619D02*
X161980496Y-90927476D01*
X161980496Y-90927476D02*
X161980496Y-91356048D01*
X161980496Y-91356048D02*
X161909068Y-91498905D01*
X161909068Y-91498905D02*
X161837639Y-91570334D01*
X161837639Y-91570334D02*
X161694782Y-91641762D01*
X161694782Y-91641762D02*
X161480496Y-91641762D01*
X162623353Y-90641762D02*
X162623353Y-91641762D01*
X162623353Y-90784619D02*
X162694782Y-90713191D01*
X162694782Y-90713191D02*
X162837639Y-90641762D01*
X162837639Y-90641762D02*
X163051925Y-90641762D01*
X163051925Y-90641762D02*
X163194782Y-90713191D01*
X163194782Y-90713191D02*
X163266211Y-90856048D01*
X163266211Y-90856048D02*
X163266211Y-91641762D01*
X163766211Y-90641762D02*
X164337639Y-90641762D01*
X163980496Y-90141762D02*
X163980496Y-91427476D01*
X163980496Y-91427476D02*
X164051925Y-91570334D01*
X164051925Y-91570334D02*
X164194782Y-91641762D01*
X164194782Y-91641762D02*
X164337639Y-91641762D01*
X164837639Y-91641762D02*
X164837639Y-90641762D01*
X164837639Y-90927476D02*
X164909068Y-90784619D01*
X164909068Y-90784619D02*
X164980497Y-90713191D01*
X164980497Y-90713191D02*
X165123354Y-90641762D01*
X165123354Y-90641762D02*
X165266211Y-90641762D01*
X165980496Y-91641762D02*
X165837639Y-91570334D01*
X165837639Y-91570334D02*
X165766210Y-91498905D01*
X165766210Y-91498905D02*
X165694782Y-91356048D01*
X165694782Y-91356048D02*
X165694782Y-90927476D01*
X165694782Y-90927476D02*
X165766210Y-90784619D01*
X165766210Y-90784619D02*
X165837639Y-90713191D01*
X165837639Y-90713191D02*
X165980496Y-90641762D01*
X165980496Y-90641762D02*
X166194782Y-90641762D01*
X166194782Y-90641762D02*
X166337639Y-90713191D01*
X166337639Y-90713191D02*
X166409068Y-90784619D01*
X166409068Y-90784619D02*
X166480496Y-90927476D01*
X166480496Y-90927476D02*
X166480496Y-91356048D01*
X166480496Y-91356048D02*
X166409068Y-91498905D01*
X166409068Y-91498905D02*
X166337639Y-91570334D01*
X166337639Y-91570334D02*
X166194782Y-91641762D01*
X166194782Y-91641762D02*
X165980496Y-91641762D01*
X167337639Y-91641762D02*
X167194782Y-91570334D01*
X167194782Y-91570334D02*
X167123353Y-91427476D01*
X167123353Y-91427476D02*
X167123353Y-90141762D01*
X168123353Y-91641762D02*
X167980496Y-91570334D01*
X167980496Y-91570334D02*
X167909067Y-91427476D01*
X167909067Y-91427476D02*
X167909067Y-90141762D01*
X169266210Y-91570334D02*
X169123353Y-91641762D01*
X169123353Y-91641762D02*
X168837639Y-91641762D01*
X168837639Y-91641762D02*
X168694781Y-91570334D01*
X168694781Y-91570334D02*
X168623353Y-91427476D01*
X168623353Y-91427476D02*
X168623353Y-90856048D01*
X168623353Y-90856048D02*
X168694781Y-90713191D01*
X168694781Y-90713191D02*
X168837639Y-90641762D01*
X168837639Y-90641762D02*
X169123353Y-90641762D01*
X169123353Y-90641762D02*
X169266210Y-90713191D01*
X169266210Y-90713191D02*
X169337639Y-90856048D01*
X169337639Y-90856048D02*
X169337639Y-90998905D01*
X169337639Y-90998905D02*
X168623353Y-91141762D01*
X169980495Y-91641762D02*
X169980495Y-90641762D01*
X169980495Y-90927476D02*
X170051924Y-90784619D01*
X170051924Y-90784619D02*
X170123353Y-90713191D01*
X170123353Y-90713191D02*
X170266210Y-90641762D01*
X170266210Y-90641762D02*
X170409067Y-90641762D01*
X133980497Y-94056678D02*
X133980497Y-92556678D01*
X133980497Y-92556678D02*
X134337640Y-92556678D01*
X134337640Y-92556678D02*
X134551926Y-92628107D01*
X134551926Y-92628107D02*
X134694783Y-92770964D01*
X134694783Y-92770964D02*
X134766212Y-92913821D01*
X134766212Y-92913821D02*
X134837640Y-93199535D01*
X134837640Y-93199535D02*
X134837640Y-93413821D01*
X134837640Y-93413821D02*
X134766212Y-93699535D01*
X134766212Y-93699535D02*
X134694783Y-93842392D01*
X134694783Y-93842392D02*
X134551926Y-93985250D01*
X134551926Y-93985250D02*
X134337640Y-94056678D01*
X134337640Y-94056678D02*
X133980497Y-94056678D01*
X135480497Y-94056678D02*
X135480497Y-92556678D01*
X135480497Y-92556678D02*
X135980497Y-93628107D01*
X135980497Y-93628107D02*
X136480497Y-92556678D01*
X136480497Y-92556678D02*
X136480497Y-94056678D01*
X137694783Y-93270964D02*
X137194783Y-93270964D01*
X137194783Y-94056678D02*
X137194783Y-92556678D01*
X137194783Y-92556678D02*
X137909069Y-92556678D01*
X138480497Y-93270964D02*
X138980497Y-93270964D01*
X139194783Y-94056678D02*
X138480497Y-94056678D01*
X138480497Y-94056678D02*
X138480497Y-92556678D01*
X138480497Y-92556678D02*
X139194783Y-92556678D01*
X140909069Y-92699535D02*
X140980497Y-92628107D01*
X140980497Y-92628107D02*
X141123355Y-92556678D01*
X141123355Y-92556678D02*
X141480497Y-92556678D01*
X141480497Y-92556678D02*
X141623355Y-92628107D01*
X141623355Y-92628107D02*
X141694783Y-92699535D01*
X141694783Y-92699535D02*
X141766212Y-92842392D01*
X141766212Y-92842392D02*
X141766212Y-92985250D01*
X141766212Y-92985250D02*
X141694783Y-93199535D01*
X141694783Y-93199535D02*
X140837640Y-94056678D01*
X140837640Y-94056678D02*
X141766212Y-94056678D01*
X142694783Y-92556678D02*
X142837640Y-92556678D01*
X142837640Y-92556678D02*
X142980497Y-92628107D01*
X142980497Y-92628107D02*
X143051926Y-92699535D01*
X143051926Y-92699535D02*
X143123354Y-92842392D01*
X143123354Y-92842392D02*
X143194783Y-93128107D01*
X143194783Y-93128107D02*
X143194783Y-93485250D01*
X143194783Y-93485250D02*
X143123354Y-93770964D01*
X143123354Y-93770964D02*
X143051926Y-93913821D01*
X143051926Y-93913821D02*
X142980497Y-93985250D01*
X142980497Y-93985250D02*
X142837640Y-94056678D01*
X142837640Y-94056678D02*
X142694783Y-94056678D01*
X142694783Y-94056678D02*
X142551926Y-93985250D01*
X142551926Y-93985250D02*
X142480497Y-93913821D01*
X142480497Y-93913821D02*
X142409068Y-93770964D01*
X142409068Y-93770964D02*
X142337640Y-93485250D01*
X142337640Y-93485250D02*
X142337640Y-93128107D01*
X142337640Y-93128107D02*
X142409068Y-92842392D01*
X142409068Y-92842392D02*
X142480497Y-92699535D01*
X142480497Y-92699535D02*
X142551926Y-92628107D01*
X142551926Y-92628107D02*
X142694783Y-92556678D01*
X143766211Y-92699535D02*
X143837639Y-92628107D01*
X143837639Y-92628107D02*
X143980497Y-92556678D01*
X143980497Y-92556678D02*
X144337639Y-92556678D01*
X144337639Y-92556678D02*
X144480497Y-92628107D01*
X144480497Y-92628107D02*
X144551925Y-92699535D01*
X144551925Y-92699535D02*
X144623354Y-92842392D01*
X144623354Y-92842392D02*
X144623354Y-92985250D01*
X144623354Y-92985250D02*
X144551925Y-93199535D01*
X144551925Y-93199535D02*
X143694782Y-94056678D01*
X143694782Y-94056678D02*
X144623354Y-94056678D01*
X145980496Y-92556678D02*
X145266210Y-92556678D01*
X145266210Y-92556678D02*
X145194782Y-93270964D01*
X145194782Y-93270964D02*
X145266210Y-93199535D01*
X145266210Y-93199535D02*
X145409068Y-93128107D01*
X145409068Y-93128107D02*
X145766210Y-93128107D01*
X145766210Y-93128107D02*
X145909068Y-93199535D01*
X145909068Y-93199535D02*
X145980496Y-93270964D01*
X145980496Y-93270964D02*
X146051925Y-93413821D01*
X146051925Y-93413821D02*
X146051925Y-93770964D01*
X146051925Y-93770964D02*
X145980496Y-93913821D01*
X145980496Y-93913821D02*
X145909068Y-93985250D01*
X145909068Y-93985250D02*
X145766210Y-94056678D01*
X145766210Y-94056678D02*
X145409068Y-94056678D01*
X145409068Y-94056678D02*
X145266210Y-93985250D01*
X145266210Y-93985250D02*
X145194782Y-93913821D01*
X148694781Y-94056678D02*
X148194781Y-93342392D01*
X147837638Y-94056678D02*
X147837638Y-92556678D01*
X147837638Y-92556678D02*
X148409067Y-92556678D01*
X148409067Y-92556678D02*
X148551924Y-92628107D01*
X148551924Y-92628107D02*
X148623353Y-92699535D01*
X148623353Y-92699535D02*
X148694781Y-92842392D01*
X148694781Y-92842392D02*
X148694781Y-93056678D01*
X148694781Y-93056678D02*
X148623353Y-93199535D01*
X148623353Y-93199535D02*
X148551924Y-93270964D01*
X148551924Y-93270964D02*
X148409067Y-93342392D01*
X148409067Y-93342392D02*
X147837638Y-93342392D01*
X149909067Y-93985250D02*
X149766210Y-94056678D01*
X149766210Y-94056678D02*
X149480496Y-94056678D01*
X149480496Y-94056678D02*
X149337638Y-93985250D01*
X149337638Y-93985250D02*
X149266210Y-93842392D01*
X149266210Y-93842392D02*
X149266210Y-93270964D01*
X149266210Y-93270964D02*
X149337638Y-93128107D01*
X149337638Y-93128107D02*
X149480496Y-93056678D01*
X149480496Y-93056678D02*
X149766210Y-93056678D01*
X149766210Y-93056678D02*
X149909067Y-93128107D01*
X149909067Y-93128107D02*
X149980496Y-93270964D01*
X149980496Y-93270964D02*
X149980496Y-93413821D01*
X149980496Y-93413821D02*
X149266210Y-93556678D01*
X150480495Y-93056678D02*
X150837638Y-94056678D01*
X150837638Y-94056678D02*
X151194781Y-93056678D01*
X151766209Y-93913821D02*
X151837638Y-93985250D01*
X151837638Y-93985250D02*
X151766209Y-94056678D01*
X151766209Y-94056678D02*
X151694781Y-93985250D01*
X151694781Y-93985250D02*
X151766209Y-93913821D01*
X151766209Y-93913821D02*
X151766209Y-94056678D01*
X153623352Y-93056678D02*
X153623352Y-94056678D01*
X153623352Y-93199535D02*
X153694781Y-93128107D01*
X153694781Y-93128107D02*
X153837638Y-93056678D01*
X153837638Y-93056678D02*
X154051924Y-93056678D01*
X154051924Y-93056678D02*
X154194781Y-93128107D01*
X154194781Y-93128107D02*
X154266210Y-93270964D01*
X154266210Y-93270964D02*
X154266210Y-94056678D01*
X156051924Y-92485250D02*
X154766210Y-94413821D01*
X157194782Y-93985250D02*
X157051924Y-94056678D01*
X157051924Y-94056678D02*
X156766210Y-94056678D01*
X156766210Y-94056678D02*
X156623353Y-93985250D01*
X156623353Y-93985250D02*
X156551924Y-93913821D01*
X156551924Y-93913821D02*
X156480496Y-93770964D01*
X156480496Y-93770964D02*
X156480496Y-93342392D01*
X156480496Y-93342392D02*
X156551924Y-93199535D01*
X156551924Y-93199535D02*
X156623353Y-93128107D01*
X156623353Y-93128107D02*
X156766210Y-93056678D01*
X156766210Y-93056678D02*
X157051924Y-93056678D01*
X157051924Y-93056678D02*
X157194782Y-93128107D01*
D12*
X133047618Y-81262475D02*
X132714285Y-80786284D01*
X132476190Y-81262475D02*
X132476190Y-80262475D01*
X132476190Y-80262475D02*
X132857142Y-80262475D01*
X132857142Y-80262475D02*
X132952380Y-80310094D01*
X132952380Y-80310094D02*
X132999999Y-80357713D01*
X132999999Y-80357713D02*
X133047618Y-80452951D01*
X133047618Y-80452951D02*
X133047618Y-80595808D01*
X133047618Y-80595808D02*
X132999999Y-80691046D01*
X132999999Y-80691046D02*
X132952380Y-80738665D01*
X132952380Y-80738665D02*
X132857142Y-80786284D01*
X132857142Y-80786284D02*
X132476190Y-80786284D01*
X133857142Y-81214856D02*
X133761904Y-81262475D01*
X133761904Y-81262475D02*
X133571428Y-81262475D01*
X133571428Y-81262475D02*
X133476190Y-81214856D01*
X133476190Y-81214856D02*
X133428571Y-81119617D01*
X133428571Y-81119617D02*
X133428571Y-80738665D01*
X133428571Y-80738665D02*
X133476190Y-80643427D01*
X133476190Y-80643427D02*
X133571428Y-80595808D01*
X133571428Y-80595808D02*
X133761904Y-80595808D01*
X133761904Y-80595808D02*
X133857142Y-80643427D01*
X133857142Y-80643427D02*
X133904761Y-80738665D01*
X133904761Y-80738665D02*
X133904761Y-80833903D01*
X133904761Y-80833903D02*
X133428571Y-80929141D01*
X134333333Y-81262475D02*
X134333333Y-80595808D01*
X134333333Y-80691046D02*
X134380952Y-80643427D01*
X134380952Y-80643427D02*
X134476190Y-80595808D01*
X134476190Y-80595808D02*
X134619047Y-80595808D01*
X134619047Y-80595808D02*
X134714285Y-80643427D01*
X134714285Y-80643427D02*
X134761904Y-80738665D01*
X134761904Y-80738665D02*
X134761904Y-81262475D01*
X134761904Y-80738665D02*
X134809523Y-80643427D01*
X134809523Y-80643427D02*
X134904761Y-80595808D01*
X134904761Y-80595808D02*
X135047618Y-80595808D01*
X135047618Y-80595808D02*
X135142857Y-80643427D01*
X135142857Y-80643427D02*
X135190476Y-80738665D01*
X135190476Y-80738665D02*
X135190476Y-81262475D01*
X135809523Y-81262475D02*
X135714285Y-81214856D01*
X135714285Y-81214856D02*
X135666666Y-81167236D01*
X135666666Y-81167236D02*
X135619047Y-81071998D01*
X135619047Y-81071998D02*
X135619047Y-80786284D01*
X135619047Y-80786284D02*
X135666666Y-80691046D01*
X135666666Y-80691046D02*
X135714285Y-80643427D01*
X135714285Y-80643427D02*
X135809523Y-80595808D01*
X135809523Y-80595808D02*
X135952380Y-80595808D01*
X135952380Y-80595808D02*
X136047618Y-80643427D01*
X136047618Y-80643427D02*
X136095237Y-80691046D01*
X136095237Y-80691046D02*
X136142856Y-80786284D01*
X136142856Y-80786284D02*
X136142856Y-81071998D01*
X136142856Y-81071998D02*
X136095237Y-81167236D01*
X136095237Y-81167236D02*
X136047618Y-81214856D01*
X136047618Y-81214856D02*
X135952380Y-81262475D01*
X135952380Y-81262475D02*
X135809523Y-81262475D01*
X136428571Y-80595808D02*
X136809523Y-80595808D01*
X136571428Y-80262475D02*
X136571428Y-81119617D01*
X136571428Y-81119617D02*
X136619047Y-81214856D01*
X136619047Y-81214856D02*
X136714285Y-81262475D01*
X136714285Y-81262475D02*
X136809523Y-81262475D01*
X137523809Y-81214856D02*
X137428571Y-81262475D01*
X137428571Y-81262475D02*
X137238095Y-81262475D01*
X137238095Y-81262475D02*
X137142857Y-81214856D01*
X137142857Y-81214856D02*
X137095238Y-81119617D01*
X137095238Y-81119617D02*
X137095238Y-80738665D01*
X137095238Y-80738665D02*
X137142857Y-80643427D01*
X137142857Y-80643427D02*
X137238095Y-80595808D01*
X137238095Y-80595808D02*
X137428571Y-80595808D01*
X137428571Y-80595808D02*
X137523809Y-80643427D01*
X137523809Y-80643427D02*
X137571428Y-80738665D01*
X137571428Y-80738665D02*
X137571428Y-80833903D01*
X137571428Y-80833903D02*
X137095238Y-80929141D01*
X131904762Y-82824800D02*
X132047619Y-82872419D01*
X132047619Y-82872419D02*
X132285714Y-82872419D01*
X132285714Y-82872419D02*
X132380952Y-82824800D01*
X132380952Y-82824800D02*
X132428571Y-82777180D01*
X132428571Y-82777180D02*
X132476190Y-82681942D01*
X132476190Y-82681942D02*
X132476190Y-82586704D01*
X132476190Y-82586704D02*
X132428571Y-82491466D01*
X132428571Y-82491466D02*
X132380952Y-82443847D01*
X132380952Y-82443847D02*
X132285714Y-82396228D01*
X132285714Y-82396228D02*
X132095238Y-82348609D01*
X132095238Y-82348609D02*
X132000000Y-82300990D01*
X132000000Y-82300990D02*
X131952381Y-82253371D01*
X131952381Y-82253371D02*
X131904762Y-82158133D01*
X131904762Y-82158133D02*
X131904762Y-82062895D01*
X131904762Y-82062895D02*
X131952381Y-81967657D01*
X131952381Y-81967657D02*
X132000000Y-81920038D01*
X132000000Y-81920038D02*
X132095238Y-81872419D01*
X132095238Y-81872419D02*
X132333333Y-81872419D01*
X132333333Y-81872419D02*
X132476190Y-81920038D01*
X132809524Y-81872419D02*
X133047619Y-82872419D01*
X133047619Y-82872419D02*
X133238095Y-82158133D01*
X133238095Y-82158133D02*
X133428571Y-82872419D01*
X133428571Y-82872419D02*
X133666667Y-81872419D01*
X134571428Y-82872419D02*
X134000000Y-82872419D01*
X134285714Y-82872419D02*
X134285714Y-81872419D01*
X134285714Y-81872419D02*
X134190476Y-82015276D01*
X134190476Y-82015276D02*
X134095238Y-82110514D01*
X134095238Y-82110514D02*
X134000000Y-82158133D01*
X135047619Y-82824800D02*
X135047619Y-82872419D01*
X135047619Y-82872419D02*
X135000000Y-82967657D01*
X135000000Y-82967657D02*
X134952381Y-83015276D01*
X135428571Y-82824800D02*
X135571428Y-82872419D01*
X135571428Y-82872419D02*
X135809523Y-82872419D01*
X135809523Y-82872419D02*
X135904761Y-82824800D01*
X135904761Y-82824800D02*
X135952380Y-82777180D01*
X135952380Y-82777180D02*
X135999999Y-82681942D01*
X135999999Y-82681942D02*
X135999999Y-82586704D01*
X135999999Y-82586704D02*
X135952380Y-82491466D01*
X135952380Y-82491466D02*
X135904761Y-82443847D01*
X135904761Y-82443847D02*
X135809523Y-82396228D01*
X135809523Y-82396228D02*
X135619047Y-82348609D01*
X135619047Y-82348609D02*
X135523809Y-82300990D01*
X135523809Y-82300990D02*
X135476190Y-82253371D01*
X135476190Y-82253371D02*
X135428571Y-82158133D01*
X135428571Y-82158133D02*
X135428571Y-82062895D01*
X135428571Y-82062895D02*
X135476190Y-81967657D01*
X135476190Y-81967657D02*
X135523809Y-81920038D01*
X135523809Y-81920038D02*
X135619047Y-81872419D01*
X135619047Y-81872419D02*
X135857142Y-81872419D01*
X135857142Y-81872419D02*
X135999999Y-81920038D01*
X136333333Y-81872419D02*
X136571428Y-82872419D01*
X136571428Y-82872419D02*
X136761904Y-82158133D01*
X136761904Y-82158133D02*
X136952380Y-82872419D01*
X136952380Y-82872419D02*
X137190476Y-81872419D01*
X137523809Y-81967657D02*
X137571428Y-81920038D01*
X137571428Y-81920038D02*
X137666666Y-81872419D01*
X137666666Y-81872419D02*
X137904761Y-81872419D01*
X137904761Y-81872419D02*
X137999999Y-81920038D01*
X137999999Y-81920038D02*
X138047618Y-81967657D01*
X138047618Y-81967657D02*
X138095237Y-82062895D01*
X138095237Y-82062895D02*
X138095237Y-82158133D01*
X138095237Y-82158133D02*
X138047618Y-82300990D01*
X138047618Y-82300990D02*
X137476190Y-82872419D01*
X137476190Y-82872419D02*
X138095237Y-82872419D01*
X138303884Y-47872419D02*
X138303884Y-46872419D01*
X138303884Y-46872419D02*
X138684836Y-46872419D01*
X138684836Y-46872419D02*
X138780074Y-46920038D01*
X138780074Y-46920038D02*
X138827693Y-46967657D01*
X138827693Y-46967657D02*
X138875312Y-47062895D01*
X138875312Y-47062895D02*
X138875312Y-47205752D01*
X138875312Y-47205752D02*
X138827693Y-47300990D01*
X138827693Y-47300990D02*
X138780074Y-47348609D01*
X138780074Y-47348609D02*
X138684836Y-47396228D01*
X138684836Y-47396228D02*
X138303884Y-47396228D01*
X139303884Y-47872419D02*
X139303884Y-47205752D01*
X139303884Y-47396228D02*
X139351503Y-47300990D01*
X139351503Y-47300990D02*
X139399122Y-47253371D01*
X139399122Y-47253371D02*
X139494360Y-47205752D01*
X139494360Y-47205752D02*
X139589598Y-47205752D01*
X140065789Y-47872419D02*
X139970551Y-47824800D01*
X139970551Y-47824800D02*
X139922932Y-47777180D01*
X139922932Y-47777180D02*
X139875313Y-47681942D01*
X139875313Y-47681942D02*
X139875313Y-47396228D01*
X139875313Y-47396228D02*
X139922932Y-47300990D01*
X139922932Y-47300990D02*
X139970551Y-47253371D01*
X139970551Y-47253371D02*
X140065789Y-47205752D01*
X140065789Y-47205752D02*
X140208646Y-47205752D01*
X140208646Y-47205752D02*
X140303884Y-47253371D01*
X140303884Y-47253371D02*
X140351503Y-47300990D01*
X140351503Y-47300990D02*
X140399122Y-47396228D01*
X140399122Y-47396228D02*
X140399122Y-47681942D01*
X140399122Y-47681942D02*
X140351503Y-47777180D01*
X140351503Y-47777180D02*
X140303884Y-47824800D01*
X140303884Y-47824800D02*
X140208646Y-47872419D01*
X140208646Y-47872419D02*
X140065789Y-47872419D01*
X141256265Y-47205752D02*
X141256265Y-48015276D01*
X141256265Y-48015276D02*
X141208646Y-48110514D01*
X141208646Y-48110514D02*
X141161027Y-48158133D01*
X141161027Y-48158133D02*
X141065789Y-48205752D01*
X141065789Y-48205752D02*
X140922932Y-48205752D01*
X140922932Y-48205752D02*
X140827694Y-48158133D01*
X141256265Y-47824800D02*
X141161027Y-47872419D01*
X141161027Y-47872419D02*
X140970551Y-47872419D01*
X140970551Y-47872419D02*
X140875313Y-47824800D01*
X140875313Y-47824800D02*
X140827694Y-47777180D01*
X140827694Y-47777180D02*
X140780075Y-47681942D01*
X140780075Y-47681942D02*
X140780075Y-47396228D01*
X140780075Y-47396228D02*
X140827694Y-47300990D01*
X140827694Y-47300990D02*
X140875313Y-47253371D01*
X140875313Y-47253371D02*
X140970551Y-47205752D01*
X140970551Y-47205752D02*
X141161027Y-47205752D01*
X141161027Y-47205752D02*
X141256265Y-47253371D01*
D10*
X164554510Y-85550828D02*
X164554510Y-84050828D01*
X164554510Y-84050828D02*
X164911653Y-84050828D01*
X164911653Y-84050828D02*
X165125939Y-84122257D01*
X165125939Y-84122257D02*
X165268796Y-84265114D01*
X165268796Y-84265114D02*
X165340225Y-84407971D01*
X165340225Y-84407971D02*
X165411653Y-84693685D01*
X165411653Y-84693685D02*
X165411653Y-84907971D01*
X165411653Y-84907971D02*
X165340225Y-85193685D01*
X165340225Y-85193685D02*
X165268796Y-85336542D01*
X165268796Y-85336542D02*
X165125939Y-85479400D01*
X165125939Y-85479400D02*
X164911653Y-85550828D01*
X164911653Y-85550828D02*
X164554510Y-85550828D01*
X166697368Y-85550828D02*
X166697368Y-84765114D01*
X166697368Y-84765114D02*
X166625939Y-84622257D01*
X166625939Y-84622257D02*
X166483082Y-84550828D01*
X166483082Y-84550828D02*
X166197368Y-84550828D01*
X166197368Y-84550828D02*
X166054510Y-84622257D01*
X166697368Y-85479400D02*
X166554510Y-85550828D01*
X166554510Y-85550828D02*
X166197368Y-85550828D01*
X166197368Y-85550828D02*
X166054510Y-85479400D01*
X166054510Y-85479400D02*
X165983082Y-85336542D01*
X165983082Y-85336542D02*
X165983082Y-85193685D01*
X165983082Y-85193685D02*
X166054510Y-85050828D01*
X166054510Y-85050828D02*
X166197368Y-84979400D01*
X166197368Y-84979400D02*
X166554510Y-84979400D01*
X166554510Y-84979400D02*
X166697368Y-84907971D01*
X167197368Y-84550828D02*
X167768796Y-84550828D01*
X167411653Y-84050828D02*
X167411653Y-85336542D01*
X167411653Y-85336542D02*
X167483082Y-85479400D01*
X167483082Y-85479400D02*
X167625939Y-85550828D01*
X167625939Y-85550828D02*
X167768796Y-85550828D01*
X168911654Y-85550828D02*
X168911654Y-84765114D01*
X168911654Y-84765114D02*
X168840225Y-84622257D01*
X168840225Y-84622257D02*
X168697368Y-84550828D01*
X168697368Y-84550828D02*
X168411654Y-84550828D01*
X168411654Y-84550828D02*
X168268796Y-84622257D01*
X168911654Y-85479400D02*
X168768796Y-85550828D01*
X168768796Y-85550828D02*
X168411654Y-85550828D01*
X168411654Y-85550828D02*
X168268796Y-85479400D01*
X168268796Y-85479400D02*
X168197368Y-85336542D01*
X168197368Y-85336542D02*
X168197368Y-85193685D01*
X168197368Y-85193685D02*
X168268796Y-85050828D01*
X168268796Y-85050828D02*
X168411654Y-84979400D01*
X168411654Y-84979400D02*
X168768796Y-84979400D01*
X168768796Y-84979400D02*
X168911654Y-84907971D01*
X170768796Y-84979400D02*
X171911654Y-84979400D01*
X164554510Y-80550828D02*
X164554510Y-79050828D01*
X164554510Y-79050828D02*
X164911653Y-79050828D01*
X164911653Y-79050828D02*
X165125939Y-79122257D01*
X165125939Y-79122257D02*
X165268796Y-79265114D01*
X165268796Y-79265114D02*
X165340225Y-79407971D01*
X165340225Y-79407971D02*
X165411653Y-79693685D01*
X165411653Y-79693685D02*
X165411653Y-79907971D01*
X165411653Y-79907971D02*
X165340225Y-80193685D01*
X165340225Y-80193685D02*
X165268796Y-80336542D01*
X165268796Y-80336542D02*
X165125939Y-80479400D01*
X165125939Y-80479400D02*
X164911653Y-80550828D01*
X164911653Y-80550828D02*
X164554510Y-80550828D01*
X166697368Y-80550828D02*
X166697368Y-79765114D01*
X166697368Y-79765114D02*
X166625939Y-79622257D01*
X166625939Y-79622257D02*
X166483082Y-79550828D01*
X166483082Y-79550828D02*
X166197368Y-79550828D01*
X166197368Y-79550828D02*
X166054510Y-79622257D01*
X166697368Y-80479400D02*
X166554510Y-80550828D01*
X166554510Y-80550828D02*
X166197368Y-80550828D01*
X166197368Y-80550828D02*
X166054510Y-80479400D01*
X166054510Y-80479400D02*
X165983082Y-80336542D01*
X165983082Y-80336542D02*
X165983082Y-80193685D01*
X165983082Y-80193685D02*
X166054510Y-80050828D01*
X166054510Y-80050828D02*
X166197368Y-79979400D01*
X166197368Y-79979400D02*
X166554510Y-79979400D01*
X166554510Y-79979400D02*
X166697368Y-79907971D01*
X167197368Y-79550828D02*
X167768796Y-79550828D01*
X167411653Y-79050828D02*
X167411653Y-80336542D01*
X167411653Y-80336542D02*
X167483082Y-80479400D01*
X167483082Y-80479400D02*
X167625939Y-80550828D01*
X167625939Y-80550828D02*
X167768796Y-80550828D01*
X168911654Y-80550828D02*
X168911654Y-79765114D01*
X168911654Y-79765114D02*
X168840225Y-79622257D01*
X168840225Y-79622257D02*
X168697368Y-79550828D01*
X168697368Y-79550828D02*
X168411654Y-79550828D01*
X168411654Y-79550828D02*
X168268796Y-79622257D01*
X168911654Y-80479400D02*
X168768796Y-80550828D01*
X168768796Y-80550828D02*
X168411654Y-80550828D01*
X168411654Y-80550828D02*
X168268796Y-80479400D01*
X168268796Y-80479400D02*
X168197368Y-80336542D01*
X168197368Y-80336542D02*
X168197368Y-80193685D01*
X168197368Y-80193685D02*
X168268796Y-80050828D01*
X168268796Y-80050828D02*
X168411654Y-79979400D01*
X168411654Y-79979400D02*
X168768796Y-79979400D01*
X168768796Y-79979400D02*
X168911654Y-79907971D01*
X170768796Y-79979400D02*
X171911654Y-79979400D01*
X164554510Y-75550828D02*
X164554510Y-74050828D01*
X164554510Y-74050828D02*
X164911653Y-74050828D01*
X164911653Y-74050828D02*
X165125939Y-74122257D01*
X165125939Y-74122257D02*
X165268796Y-74265114D01*
X165268796Y-74265114D02*
X165340225Y-74407971D01*
X165340225Y-74407971D02*
X165411653Y-74693685D01*
X165411653Y-74693685D02*
X165411653Y-74907971D01*
X165411653Y-74907971D02*
X165340225Y-75193685D01*
X165340225Y-75193685D02*
X165268796Y-75336542D01*
X165268796Y-75336542D02*
X165125939Y-75479400D01*
X165125939Y-75479400D02*
X164911653Y-75550828D01*
X164911653Y-75550828D02*
X164554510Y-75550828D01*
X166697368Y-75550828D02*
X166697368Y-74765114D01*
X166697368Y-74765114D02*
X166625939Y-74622257D01*
X166625939Y-74622257D02*
X166483082Y-74550828D01*
X166483082Y-74550828D02*
X166197368Y-74550828D01*
X166197368Y-74550828D02*
X166054510Y-74622257D01*
X166697368Y-75479400D02*
X166554510Y-75550828D01*
X166554510Y-75550828D02*
X166197368Y-75550828D01*
X166197368Y-75550828D02*
X166054510Y-75479400D01*
X166054510Y-75479400D02*
X165983082Y-75336542D01*
X165983082Y-75336542D02*
X165983082Y-75193685D01*
X165983082Y-75193685D02*
X166054510Y-75050828D01*
X166054510Y-75050828D02*
X166197368Y-74979400D01*
X166197368Y-74979400D02*
X166554510Y-74979400D01*
X166554510Y-74979400D02*
X166697368Y-74907971D01*
X167197368Y-74550828D02*
X167768796Y-74550828D01*
X167411653Y-74050828D02*
X167411653Y-75336542D01*
X167411653Y-75336542D02*
X167483082Y-75479400D01*
X167483082Y-75479400D02*
X167625939Y-75550828D01*
X167625939Y-75550828D02*
X167768796Y-75550828D01*
X168911654Y-75550828D02*
X168911654Y-74765114D01*
X168911654Y-74765114D02*
X168840225Y-74622257D01*
X168840225Y-74622257D02*
X168697368Y-74550828D01*
X168697368Y-74550828D02*
X168411654Y-74550828D01*
X168411654Y-74550828D02*
X168268796Y-74622257D01*
X168911654Y-75479400D02*
X168768796Y-75550828D01*
X168768796Y-75550828D02*
X168411654Y-75550828D01*
X168411654Y-75550828D02*
X168268796Y-75479400D01*
X168268796Y-75479400D02*
X168197368Y-75336542D01*
X168197368Y-75336542D02*
X168197368Y-75193685D01*
X168197368Y-75193685D02*
X168268796Y-75050828D01*
X168268796Y-75050828D02*
X168411654Y-74979400D01*
X168411654Y-74979400D02*
X168768796Y-74979400D01*
X168768796Y-74979400D02*
X168911654Y-74907971D01*
X170768796Y-74979400D02*
X171911654Y-74979400D01*
X171340225Y-75550828D02*
X171340225Y-74407971D01*
X164592010Y-70800828D02*
X164592010Y-69300828D01*
X164592010Y-69300828D02*
X164949153Y-69300828D01*
X164949153Y-69300828D02*
X165163439Y-69372257D01*
X165163439Y-69372257D02*
X165306296Y-69515114D01*
X165306296Y-69515114D02*
X165377725Y-69657971D01*
X165377725Y-69657971D02*
X165449153Y-69943685D01*
X165449153Y-69943685D02*
X165449153Y-70157971D01*
X165449153Y-70157971D02*
X165377725Y-70443685D01*
X165377725Y-70443685D02*
X165306296Y-70586542D01*
X165306296Y-70586542D02*
X165163439Y-70729400D01*
X165163439Y-70729400D02*
X164949153Y-70800828D01*
X164949153Y-70800828D02*
X164592010Y-70800828D01*
X166734868Y-70800828D02*
X166734868Y-70015114D01*
X166734868Y-70015114D02*
X166663439Y-69872257D01*
X166663439Y-69872257D02*
X166520582Y-69800828D01*
X166520582Y-69800828D02*
X166234868Y-69800828D01*
X166234868Y-69800828D02*
X166092010Y-69872257D01*
X166734868Y-70729400D02*
X166592010Y-70800828D01*
X166592010Y-70800828D02*
X166234868Y-70800828D01*
X166234868Y-70800828D02*
X166092010Y-70729400D01*
X166092010Y-70729400D02*
X166020582Y-70586542D01*
X166020582Y-70586542D02*
X166020582Y-70443685D01*
X166020582Y-70443685D02*
X166092010Y-70300828D01*
X166092010Y-70300828D02*
X166234868Y-70229400D01*
X166234868Y-70229400D02*
X166592010Y-70229400D01*
X166592010Y-70229400D02*
X166734868Y-70157971D01*
X167234868Y-69800828D02*
X167806296Y-69800828D01*
X167449153Y-69300828D02*
X167449153Y-70586542D01*
X167449153Y-70586542D02*
X167520582Y-70729400D01*
X167520582Y-70729400D02*
X167663439Y-70800828D01*
X167663439Y-70800828D02*
X167806296Y-70800828D01*
X168949154Y-70800828D02*
X168949154Y-70015114D01*
X168949154Y-70015114D02*
X168877725Y-69872257D01*
X168877725Y-69872257D02*
X168734868Y-69800828D01*
X168734868Y-69800828D02*
X168449154Y-69800828D01*
X168449154Y-69800828D02*
X168306296Y-69872257D01*
X168949154Y-70729400D02*
X168806296Y-70800828D01*
X168806296Y-70800828D02*
X168449154Y-70800828D01*
X168449154Y-70800828D02*
X168306296Y-70729400D01*
X168306296Y-70729400D02*
X168234868Y-70586542D01*
X168234868Y-70586542D02*
X168234868Y-70443685D01*
X168234868Y-70443685D02*
X168306296Y-70300828D01*
X168306296Y-70300828D02*
X168449154Y-70229400D01*
X168449154Y-70229400D02*
X168806296Y-70229400D01*
X168806296Y-70229400D02*
X168949154Y-70157971D01*
X170806296Y-70229400D02*
X171949154Y-70229400D01*
X171377725Y-70800828D02*
X171377725Y-69657971D01*
X168090225Y-64372257D02*
X167947368Y-64300828D01*
X167947368Y-64300828D02*
X167733082Y-64300828D01*
X167733082Y-64300828D02*
X167518796Y-64372257D01*
X167518796Y-64372257D02*
X167375939Y-64515114D01*
X167375939Y-64515114D02*
X167304510Y-64657971D01*
X167304510Y-64657971D02*
X167233082Y-64943685D01*
X167233082Y-64943685D02*
X167233082Y-65157971D01*
X167233082Y-65157971D02*
X167304510Y-65443685D01*
X167304510Y-65443685D02*
X167375939Y-65586542D01*
X167375939Y-65586542D02*
X167518796Y-65729400D01*
X167518796Y-65729400D02*
X167733082Y-65800828D01*
X167733082Y-65800828D02*
X167875939Y-65800828D01*
X167875939Y-65800828D02*
X168090225Y-65729400D01*
X168090225Y-65729400D02*
X168161653Y-65657971D01*
X168161653Y-65657971D02*
X168161653Y-65157971D01*
X168161653Y-65157971D02*
X167875939Y-65157971D01*
X168804510Y-65800828D02*
X168804510Y-64300828D01*
X168804510Y-64300828D02*
X169661653Y-65800828D01*
X169661653Y-65800828D02*
X169661653Y-64300828D01*
X170375939Y-65800828D02*
X170375939Y-64300828D01*
X170375939Y-64300828D02*
X170733082Y-64300828D01*
X170733082Y-64300828D02*
X170947368Y-64372257D01*
X170947368Y-64372257D02*
X171090225Y-64515114D01*
X171090225Y-64515114D02*
X171161654Y-64657971D01*
X171161654Y-64657971D02*
X171233082Y-64943685D01*
X171233082Y-64943685D02*
X171233082Y-65157971D01*
X171233082Y-65157971D02*
X171161654Y-65443685D01*
X171161654Y-65443685D02*
X171090225Y-65586542D01*
X171090225Y-65586542D02*
X170947368Y-65729400D01*
X170947368Y-65729400D02*
X170733082Y-65800828D01*
X170733082Y-65800828D02*
X170375939Y-65800828D01*
X168340225Y-59372257D02*
X168197368Y-59300828D01*
X168197368Y-59300828D02*
X167983082Y-59300828D01*
X167983082Y-59300828D02*
X167768796Y-59372257D01*
X167768796Y-59372257D02*
X167625939Y-59515114D01*
X167625939Y-59515114D02*
X167554510Y-59657971D01*
X167554510Y-59657971D02*
X167483082Y-59943685D01*
X167483082Y-59943685D02*
X167483082Y-60157971D01*
X167483082Y-60157971D02*
X167554510Y-60443685D01*
X167554510Y-60443685D02*
X167625939Y-60586542D01*
X167625939Y-60586542D02*
X167768796Y-60729400D01*
X167768796Y-60729400D02*
X167983082Y-60800828D01*
X167983082Y-60800828D02*
X168125939Y-60800828D01*
X168125939Y-60800828D02*
X168340225Y-60729400D01*
X168340225Y-60729400D02*
X168411653Y-60657971D01*
X168411653Y-60657971D02*
X168411653Y-60157971D01*
X168411653Y-60157971D02*
X168125939Y-60157971D01*
X169054510Y-60800828D02*
X169054510Y-59300828D01*
X169054510Y-59300828D02*
X169911653Y-60800828D01*
X169911653Y-60800828D02*
X169911653Y-59300828D01*
X170625939Y-60800828D02*
X170625939Y-59300828D01*
X170625939Y-59300828D02*
X170983082Y-59300828D01*
X170983082Y-59300828D02*
X171197368Y-59372257D01*
X171197368Y-59372257D02*
X171340225Y-59515114D01*
X171340225Y-59515114D02*
X171411654Y-59657971D01*
X171411654Y-59657971D02*
X171483082Y-59943685D01*
X171483082Y-59943685D02*
X171483082Y-60157971D01*
X171483082Y-60157971D02*
X171411654Y-60443685D01*
X171411654Y-60443685D02*
X171340225Y-60586542D01*
X171340225Y-60586542D02*
X171197368Y-60729400D01*
X171197368Y-60729400D02*
X170983082Y-60800828D01*
X170983082Y-60800828D02*
X170625939Y-60800828D01*
X167804510Y-55229400D02*
X168947368Y-55229400D01*
X168375939Y-55800828D02*
X168375939Y-54657971D01*
X170447368Y-55800828D02*
X169590225Y-55800828D01*
X170018796Y-55800828D02*
X170018796Y-54300828D01*
X170018796Y-54300828D02*
X169875939Y-54515114D01*
X169875939Y-54515114D02*
X169733082Y-54657971D01*
X169733082Y-54657971D02*
X169590225Y-54729400D01*
X171018796Y-54443685D02*
X171090224Y-54372257D01*
X171090224Y-54372257D02*
X171233082Y-54300828D01*
X171233082Y-54300828D02*
X171590224Y-54300828D01*
X171590224Y-54300828D02*
X171733082Y-54372257D01*
X171733082Y-54372257D02*
X171804510Y-54443685D01*
X171804510Y-54443685D02*
X171875939Y-54586542D01*
X171875939Y-54586542D02*
X171875939Y-54729400D01*
X171875939Y-54729400D02*
X171804510Y-54943685D01*
X171804510Y-54943685D02*
X170947367Y-55800828D01*
X170947367Y-55800828D02*
X171875939Y-55800828D01*
X167304510Y-50229400D02*
X168447368Y-50229400D01*
X167875939Y-50800828D02*
X167875939Y-49657971D01*
X169947368Y-50800828D02*
X169090225Y-50800828D01*
X169518796Y-50800828D02*
X169518796Y-49300828D01*
X169518796Y-49300828D02*
X169375939Y-49515114D01*
X169375939Y-49515114D02*
X169233082Y-49657971D01*
X169233082Y-49657971D02*
X169090225Y-49729400D01*
X170518796Y-49443685D02*
X170590224Y-49372257D01*
X170590224Y-49372257D02*
X170733082Y-49300828D01*
X170733082Y-49300828D02*
X171090224Y-49300828D01*
X171090224Y-49300828D02*
X171233082Y-49372257D01*
X171233082Y-49372257D02*
X171304510Y-49443685D01*
X171304510Y-49443685D02*
X171375939Y-49586542D01*
X171375939Y-49586542D02*
X171375939Y-49729400D01*
X171375939Y-49729400D02*
X171304510Y-49943685D01*
X171304510Y-49943685D02*
X170447367Y-50800828D01*
X170447367Y-50800828D02*
X171375939Y-50800828D01*
D13*
X159761905Y-47817319D02*
X159761905Y-46817319D01*
X159761905Y-46817319D02*
X160000000Y-46817319D01*
X160000000Y-46817319D02*
X160142857Y-46864938D01*
X160142857Y-46864938D02*
X160238095Y-46960176D01*
X160238095Y-46960176D02*
X160285714Y-47055414D01*
X160285714Y-47055414D02*
X160333333Y-47245890D01*
X160333333Y-47245890D02*
X160333333Y-47388747D01*
X160333333Y-47388747D02*
X160285714Y-47579223D01*
X160285714Y-47579223D02*
X160238095Y-47674461D01*
X160238095Y-47674461D02*
X160142857Y-47769700D01*
X160142857Y-47769700D02*
X160000000Y-47817319D01*
X160000000Y-47817319D02*
X159761905Y-47817319D01*
X161190476Y-47150652D02*
X161190476Y-47817319D01*
X160952381Y-46769700D02*
X160714286Y-47483985D01*
X160714286Y-47483985D02*
X161333333Y-47483985D01*
X148238095Y-48454819D02*
X148238095Y-49264342D01*
X148238095Y-49264342D02*
X148285714Y-49359580D01*
X148285714Y-49359580D02*
X148333333Y-49407200D01*
X148333333Y-49407200D02*
X148428571Y-49454819D01*
X148428571Y-49454819D02*
X148619047Y-49454819D01*
X148619047Y-49454819D02*
X148714285Y-49407200D01*
X148714285Y-49407200D02*
X148761904Y-49359580D01*
X148761904Y-49359580D02*
X148809523Y-49264342D01*
X148809523Y-49264342D02*
X148809523Y-48454819D01*
X149190476Y-48454819D02*
X149809523Y-48454819D01*
X149809523Y-48454819D02*
X149476190Y-48835771D01*
X149476190Y-48835771D02*
X149619047Y-48835771D01*
X149619047Y-48835771D02*
X149714285Y-48883390D01*
X149714285Y-48883390D02*
X149761904Y-48931009D01*
X149761904Y-48931009D02*
X149809523Y-49026247D01*
X149809523Y-49026247D02*
X149809523Y-49264342D01*
X149809523Y-49264342D02*
X149761904Y-49359580D01*
X149761904Y-49359580D02*
X149714285Y-49407200D01*
X149714285Y-49407200D02*
X149619047Y-49454819D01*
X149619047Y-49454819D02*
X149333333Y-49454819D01*
X149333333Y-49454819D02*
X149238095Y-49407200D01*
X149238095Y-49407200D02*
X149190476Y-49359580D01*
X150238095Y-61104819D02*
X150238095Y-61914342D01*
X150238095Y-61914342D02*
X150285714Y-62009580D01*
X150285714Y-62009580D02*
X150333333Y-62057200D01*
X150333333Y-62057200D02*
X150428571Y-62104819D01*
X150428571Y-62104819D02*
X150619047Y-62104819D01*
X150619047Y-62104819D02*
X150714285Y-62057200D01*
X150714285Y-62057200D02*
X150761904Y-62009580D01*
X150761904Y-62009580D02*
X150809523Y-61914342D01*
X150809523Y-61914342D02*
X150809523Y-61104819D01*
X151238095Y-61200057D02*
X151285714Y-61152438D01*
X151285714Y-61152438D02*
X151380952Y-61104819D01*
X151380952Y-61104819D02*
X151619047Y-61104819D01*
X151619047Y-61104819D02*
X151714285Y-61152438D01*
X151714285Y-61152438D02*
X151761904Y-61200057D01*
X151761904Y-61200057D02*
X151809523Y-61295295D01*
X151809523Y-61295295D02*
X151809523Y-61390533D01*
X151809523Y-61390533D02*
X151761904Y-61533390D01*
X151761904Y-61533390D02*
X151190476Y-62104819D01*
X151190476Y-62104819D02*
X151809523Y-62104819D01*
X154988095Y-77704819D02*
X154988095Y-78514342D01*
X154988095Y-78514342D02*
X155035714Y-78609580D01*
X155035714Y-78609580D02*
X155083333Y-78657200D01*
X155083333Y-78657200D02*
X155178571Y-78704819D01*
X155178571Y-78704819D02*
X155369047Y-78704819D01*
X155369047Y-78704819D02*
X155464285Y-78657200D01*
X155464285Y-78657200D02*
X155511904Y-78609580D01*
X155511904Y-78609580D02*
X155559523Y-78514342D01*
X155559523Y-78514342D02*
X155559523Y-77704819D01*
X156559523Y-78704819D02*
X155988095Y-78704819D01*
X156273809Y-78704819D02*
X156273809Y-77704819D01*
X156273809Y-77704819D02*
X156178571Y-77847676D01*
X156178571Y-77847676D02*
X156083333Y-77942914D01*
X156083333Y-77942914D02*
X155988095Y-77990533D01*
X126666667Y-67407200D02*
X126809524Y-67454819D01*
X126809524Y-67454819D02*
X127047619Y-67454819D01*
X127047619Y-67454819D02*
X127142857Y-67407200D01*
X127142857Y-67407200D02*
X127190476Y-67359580D01*
X127190476Y-67359580D02*
X127238095Y-67264342D01*
X127238095Y-67264342D02*
X127238095Y-67169104D01*
X127238095Y-67169104D02*
X127190476Y-67073866D01*
X127190476Y-67073866D02*
X127142857Y-67026247D01*
X127142857Y-67026247D02*
X127047619Y-66978628D01*
X127047619Y-66978628D02*
X126857143Y-66931009D01*
X126857143Y-66931009D02*
X126761905Y-66883390D01*
X126761905Y-66883390D02*
X126714286Y-66835771D01*
X126714286Y-66835771D02*
X126666667Y-66740533D01*
X126666667Y-66740533D02*
X126666667Y-66645295D01*
X126666667Y-66645295D02*
X126714286Y-66550057D01*
X126714286Y-66550057D02*
X126761905Y-66502438D01*
X126761905Y-66502438D02*
X126857143Y-66454819D01*
X126857143Y-66454819D02*
X127095238Y-66454819D01*
X127095238Y-66454819D02*
X127238095Y-66502438D01*
X127571429Y-66454819D02*
X127809524Y-67454819D01*
X127809524Y-67454819D02*
X128000000Y-66740533D01*
X128000000Y-66740533D02*
X128190476Y-67454819D01*
X128190476Y-67454819D02*
X128428572Y-66454819D01*
X128761905Y-66550057D02*
X128809524Y-66502438D01*
X128809524Y-66502438D02*
X128904762Y-66454819D01*
X128904762Y-66454819D02*
X129142857Y-66454819D01*
X129142857Y-66454819D02*
X129238095Y-66502438D01*
X129238095Y-66502438D02*
X129285714Y-66550057D01*
X129285714Y-66550057D02*
X129333333Y-66645295D01*
X129333333Y-66645295D02*
X129333333Y-66740533D01*
X129333333Y-66740533D02*
X129285714Y-66883390D01*
X129285714Y-66883390D02*
X128714286Y-67454819D01*
X128714286Y-67454819D02*
X129333333Y-67454819D01*
X126666667Y-56407200D02*
X126809524Y-56454819D01*
X126809524Y-56454819D02*
X127047619Y-56454819D01*
X127047619Y-56454819D02*
X127142857Y-56407200D01*
X127142857Y-56407200D02*
X127190476Y-56359580D01*
X127190476Y-56359580D02*
X127238095Y-56264342D01*
X127238095Y-56264342D02*
X127238095Y-56169104D01*
X127238095Y-56169104D02*
X127190476Y-56073866D01*
X127190476Y-56073866D02*
X127142857Y-56026247D01*
X127142857Y-56026247D02*
X127047619Y-55978628D01*
X127047619Y-55978628D02*
X126857143Y-55931009D01*
X126857143Y-55931009D02*
X126761905Y-55883390D01*
X126761905Y-55883390D02*
X126714286Y-55835771D01*
X126714286Y-55835771D02*
X126666667Y-55740533D01*
X126666667Y-55740533D02*
X126666667Y-55645295D01*
X126666667Y-55645295D02*
X126714286Y-55550057D01*
X126714286Y-55550057D02*
X126761905Y-55502438D01*
X126761905Y-55502438D02*
X126857143Y-55454819D01*
X126857143Y-55454819D02*
X127095238Y-55454819D01*
X127095238Y-55454819D02*
X127238095Y-55502438D01*
X127571429Y-55454819D02*
X127809524Y-56454819D01*
X127809524Y-56454819D02*
X128000000Y-55740533D01*
X128000000Y-55740533D02*
X128190476Y-56454819D01*
X128190476Y-56454819D02*
X128428572Y-55454819D01*
X129333333Y-56454819D02*
X128761905Y-56454819D01*
X129047619Y-56454819D02*
X129047619Y-55454819D01*
X129047619Y-55454819D02*
X128952381Y-55597676D01*
X128952381Y-55597676D02*
X128857143Y-55692914D01*
X128857143Y-55692914D02*
X128761905Y-55740533D01*
X142833333Y-68534819D02*
X142500000Y-68058628D01*
X142261905Y-68534819D02*
X142261905Y-67534819D01*
X142261905Y-67534819D02*
X142642857Y-67534819D01*
X142642857Y-67534819D02*
X142738095Y-67582438D01*
X142738095Y-67582438D02*
X142785714Y-67630057D01*
X142785714Y-67630057D02*
X142833333Y-67725295D01*
X142833333Y-67725295D02*
X142833333Y-67868152D01*
X142833333Y-67868152D02*
X142785714Y-67963390D01*
X142785714Y-67963390D02*
X142738095Y-68011009D01*
X142738095Y-68011009D02*
X142642857Y-68058628D01*
X142642857Y-68058628D02*
X142261905Y-68058628D01*
X143738095Y-67534819D02*
X143261905Y-67534819D01*
X143261905Y-67534819D02*
X143214286Y-68011009D01*
X143214286Y-68011009D02*
X143261905Y-67963390D01*
X143261905Y-67963390D02*
X143357143Y-67915771D01*
X143357143Y-67915771D02*
X143595238Y-67915771D01*
X143595238Y-67915771D02*
X143690476Y-67963390D01*
X143690476Y-67963390D02*
X143738095Y-68011009D01*
X143738095Y-68011009D02*
X143785714Y-68106247D01*
X143785714Y-68106247D02*
X143785714Y-68344342D01*
X143785714Y-68344342D02*
X143738095Y-68439580D01*
X143738095Y-68439580D02*
X143690476Y-68487200D01*
X143690476Y-68487200D02*
X143595238Y-68534819D01*
X143595238Y-68534819D02*
X143357143Y-68534819D01*
X143357143Y-68534819D02*
X143261905Y-68487200D01*
X143261905Y-68487200D02*
X143214286Y-68439580D01*
X142833333Y-57454819D02*
X142500000Y-56978628D01*
X142261905Y-57454819D02*
X142261905Y-56454819D01*
X142261905Y-56454819D02*
X142642857Y-56454819D01*
X142642857Y-56454819D02*
X142738095Y-56502438D01*
X142738095Y-56502438D02*
X142785714Y-56550057D01*
X142785714Y-56550057D02*
X142833333Y-56645295D01*
X142833333Y-56645295D02*
X142833333Y-56788152D01*
X142833333Y-56788152D02*
X142785714Y-56883390D01*
X142785714Y-56883390D02*
X142738095Y-56931009D01*
X142738095Y-56931009D02*
X142642857Y-56978628D01*
X142642857Y-56978628D02*
X142261905Y-56978628D01*
X143690476Y-56788152D02*
X143690476Y-57454819D01*
X143452381Y-56407200D02*
X143214286Y-57121485D01*
X143214286Y-57121485D02*
X143833333Y-57121485D01*
X142833333Y-66434819D02*
X142500000Y-65958628D01*
X142261905Y-66434819D02*
X142261905Y-65434819D01*
X142261905Y-65434819D02*
X142642857Y-65434819D01*
X142642857Y-65434819D02*
X142738095Y-65482438D01*
X142738095Y-65482438D02*
X142785714Y-65530057D01*
X142785714Y-65530057D02*
X142833333Y-65625295D01*
X142833333Y-65625295D02*
X142833333Y-65768152D01*
X142833333Y-65768152D02*
X142785714Y-65863390D01*
X142785714Y-65863390D02*
X142738095Y-65911009D01*
X142738095Y-65911009D02*
X142642857Y-65958628D01*
X142642857Y-65958628D02*
X142261905Y-65958628D01*
X143166667Y-65434819D02*
X143785714Y-65434819D01*
X143785714Y-65434819D02*
X143452381Y-65815771D01*
X143452381Y-65815771D02*
X143595238Y-65815771D01*
X143595238Y-65815771D02*
X143690476Y-65863390D01*
X143690476Y-65863390D02*
X143738095Y-65911009D01*
X143738095Y-65911009D02*
X143785714Y-66006247D01*
X143785714Y-66006247D02*
X143785714Y-66244342D01*
X143785714Y-66244342D02*
X143738095Y-66339580D01*
X143738095Y-66339580D02*
X143690476Y-66387200D01*
X143690476Y-66387200D02*
X143595238Y-66434819D01*
X143595238Y-66434819D02*
X143309524Y-66434819D01*
X143309524Y-66434819D02*
X143214286Y-66387200D01*
X143214286Y-66387200D02*
X143166667Y-66339580D01*
X142833333Y-55454819D02*
X142500000Y-54978628D01*
X142261905Y-55454819D02*
X142261905Y-54454819D01*
X142261905Y-54454819D02*
X142642857Y-54454819D01*
X142642857Y-54454819D02*
X142738095Y-54502438D01*
X142738095Y-54502438D02*
X142785714Y-54550057D01*
X142785714Y-54550057D02*
X142833333Y-54645295D01*
X142833333Y-54645295D02*
X142833333Y-54788152D01*
X142833333Y-54788152D02*
X142785714Y-54883390D01*
X142785714Y-54883390D02*
X142738095Y-54931009D01*
X142738095Y-54931009D02*
X142642857Y-54978628D01*
X142642857Y-54978628D02*
X142261905Y-54978628D01*
X143214286Y-54550057D02*
X143261905Y-54502438D01*
X143261905Y-54502438D02*
X143357143Y-54454819D01*
X143357143Y-54454819D02*
X143595238Y-54454819D01*
X143595238Y-54454819D02*
X143690476Y-54502438D01*
X143690476Y-54502438D02*
X143738095Y-54550057D01*
X143738095Y-54550057D02*
X143785714Y-54645295D01*
X143785714Y-54645295D02*
X143785714Y-54740533D01*
X143785714Y-54740533D02*
X143738095Y-54883390D01*
X143738095Y-54883390D02*
X143166667Y-55454819D01*
X143166667Y-55454819D02*
X143785714Y-55454819D01*
X153345833Y-78454819D02*
X153012500Y-77978628D01*
X152774405Y-78454819D02*
X152774405Y-77454819D01*
X152774405Y-77454819D02*
X153155357Y-77454819D01*
X153155357Y-77454819D02*
X153250595Y-77502438D01*
X153250595Y-77502438D02*
X153298214Y-77550057D01*
X153298214Y-77550057D02*
X153345833Y-77645295D01*
X153345833Y-77645295D02*
X153345833Y-77788152D01*
X153345833Y-77788152D02*
X153298214Y-77883390D01*
X153298214Y-77883390D02*
X153250595Y-77931009D01*
X153250595Y-77931009D02*
X153155357Y-77978628D01*
X153155357Y-77978628D02*
X152774405Y-77978628D01*
X154298214Y-78454819D02*
X153726786Y-78454819D01*
X154012500Y-78454819D02*
X154012500Y-77454819D01*
X154012500Y-77454819D02*
X153917262Y-77597676D01*
X153917262Y-77597676D02*
X153822024Y-77692914D01*
X153822024Y-77692914D02*
X153726786Y-77740533D01*
X128816666Y-77454819D02*
X128816666Y-78169104D01*
X128816666Y-78169104D02*
X128769047Y-78311961D01*
X128769047Y-78311961D02*
X128673809Y-78407200D01*
X128673809Y-78407200D02*
X128530952Y-78454819D01*
X128530952Y-78454819D02*
X128435714Y-78454819D01*
X129197619Y-77454819D02*
X129816666Y-77454819D01*
X129816666Y-77454819D02*
X129483333Y-77835771D01*
X129483333Y-77835771D02*
X129626190Y-77835771D01*
X129626190Y-77835771D02*
X129721428Y-77883390D01*
X129721428Y-77883390D02*
X129769047Y-77931009D01*
X129769047Y-77931009D02*
X129816666Y-78026247D01*
X129816666Y-78026247D02*
X129816666Y-78264342D01*
X129816666Y-78264342D02*
X129769047Y-78359580D01*
X129769047Y-78359580D02*
X129721428Y-78407200D01*
X129721428Y-78407200D02*
X129626190Y-78454819D01*
X129626190Y-78454819D02*
X129340476Y-78454819D01*
X129340476Y-78454819D02*
X129245238Y-78407200D01*
X129245238Y-78407200D02*
X129197619Y-78359580D01*
X131666666Y-49454819D02*
X131666666Y-50169104D01*
X131666666Y-50169104D02*
X131619047Y-50311961D01*
X131619047Y-50311961D02*
X131523809Y-50407200D01*
X131523809Y-50407200D02*
X131380952Y-50454819D01*
X131380952Y-50454819D02*
X131285714Y-50454819D01*
X132095238Y-49550057D02*
X132142857Y-49502438D01*
X132142857Y-49502438D02*
X132238095Y-49454819D01*
X132238095Y-49454819D02*
X132476190Y-49454819D01*
X132476190Y-49454819D02*
X132571428Y-49502438D01*
X132571428Y-49502438D02*
X132619047Y-49550057D01*
X132619047Y-49550057D02*
X132666666Y-49645295D01*
X132666666Y-49645295D02*
X132666666Y-49740533D01*
X132666666Y-49740533D02*
X132619047Y-49883390D01*
X132619047Y-49883390D02*
X132047619Y-50454819D01*
X132047619Y-50454819D02*
X132666666Y-50454819D01*
X173166666Y-45204819D02*
X173166666Y-45919104D01*
X173166666Y-45919104D02*
X173119047Y-46061961D01*
X173119047Y-46061961D02*
X173023809Y-46157200D01*
X173023809Y-46157200D02*
X172880952Y-46204819D01*
X172880952Y-46204819D02*
X172785714Y-46204819D01*
X174166666Y-46204819D02*
X173595238Y-46204819D01*
X173880952Y-46204819D02*
X173880952Y-45204819D01*
X173880952Y-45204819D02*
X173785714Y-45347676D01*
X173785714Y-45347676D02*
X173690476Y-45442914D01*
X173690476Y-45442914D02*
X173595238Y-45490533D01*
X130261905Y-66454819D02*
X130261905Y-65454819D01*
X130261905Y-65454819D02*
X130500000Y-65454819D01*
X130500000Y-65454819D02*
X130642857Y-65502438D01*
X130642857Y-65502438D02*
X130738095Y-65597676D01*
X130738095Y-65597676D02*
X130785714Y-65692914D01*
X130785714Y-65692914D02*
X130833333Y-65883390D01*
X130833333Y-65883390D02*
X130833333Y-66026247D01*
X130833333Y-66026247D02*
X130785714Y-66216723D01*
X130785714Y-66216723D02*
X130738095Y-66311961D01*
X130738095Y-66311961D02*
X130642857Y-66407200D01*
X130642857Y-66407200D02*
X130500000Y-66454819D01*
X130500000Y-66454819D02*
X130261905Y-66454819D01*
X131166667Y-65454819D02*
X131785714Y-65454819D01*
X131785714Y-65454819D02*
X131452381Y-65835771D01*
X131452381Y-65835771D02*
X131595238Y-65835771D01*
X131595238Y-65835771D02*
X131690476Y-65883390D01*
X131690476Y-65883390D02*
X131738095Y-65931009D01*
X131738095Y-65931009D02*
X131785714Y-66026247D01*
X131785714Y-66026247D02*
X131785714Y-66264342D01*
X131785714Y-66264342D02*
X131738095Y-66359580D01*
X131738095Y-66359580D02*
X131690476Y-66407200D01*
X131690476Y-66407200D02*
X131595238Y-66454819D01*
X131595238Y-66454819D02*
X131309524Y-66454819D01*
X131309524Y-66454819D02*
X131214286Y-66407200D01*
X131214286Y-66407200D02*
X131166667Y-66359580D01*
X130261905Y-55454819D02*
X130261905Y-54454819D01*
X130261905Y-54454819D02*
X130500000Y-54454819D01*
X130500000Y-54454819D02*
X130642857Y-54502438D01*
X130642857Y-54502438D02*
X130738095Y-54597676D01*
X130738095Y-54597676D02*
X130785714Y-54692914D01*
X130785714Y-54692914D02*
X130833333Y-54883390D01*
X130833333Y-54883390D02*
X130833333Y-55026247D01*
X130833333Y-55026247D02*
X130785714Y-55216723D01*
X130785714Y-55216723D02*
X130738095Y-55311961D01*
X130738095Y-55311961D02*
X130642857Y-55407200D01*
X130642857Y-55407200D02*
X130500000Y-55454819D01*
X130500000Y-55454819D02*
X130261905Y-55454819D01*
X131214286Y-54550057D02*
X131261905Y-54502438D01*
X131261905Y-54502438D02*
X131357143Y-54454819D01*
X131357143Y-54454819D02*
X131595238Y-54454819D01*
X131595238Y-54454819D02*
X131690476Y-54502438D01*
X131690476Y-54502438D02*
X131738095Y-54550057D01*
X131738095Y-54550057D02*
X131785714Y-54645295D01*
X131785714Y-54645295D02*
X131785714Y-54740533D01*
X131785714Y-54740533D02*
X131738095Y-54883390D01*
X131738095Y-54883390D02*
X131166667Y-55454819D01*
X131166667Y-55454819D02*
X131785714Y-55454819D01*
X140774405Y-78454819D02*
X140774405Y-77454819D01*
X140774405Y-77454819D02*
X141012500Y-77454819D01*
X141012500Y-77454819D02*
X141155357Y-77502438D01*
X141155357Y-77502438D02*
X141250595Y-77597676D01*
X141250595Y-77597676D02*
X141298214Y-77692914D01*
X141298214Y-77692914D02*
X141345833Y-77883390D01*
X141345833Y-77883390D02*
X141345833Y-78026247D01*
X141345833Y-78026247D02*
X141298214Y-78216723D01*
X141298214Y-78216723D02*
X141250595Y-78311961D01*
X141250595Y-78311961D02*
X141155357Y-78407200D01*
X141155357Y-78407200D02*
X141012500Y-78454819D01*
X141012500Y-78454819D02*
X140774405Y-78454819D01*
X142298214Y-78454819D02*
X141726786Y-78454819D01*
X142012500Y-78454819D02*
X142012500Y-77454819D01*
X142012500Y-77454819D02*
X141917262Y-77597676D01*
X141917262Y-77597676D02*
X141822024Y-77692914D01*
X141822024Y-77692914D02*
X141726786Y-77740533D01*
X146833333Y-59679580D02*
X146785714Y-59727200D01*
X146785714Y-59727200D02*
X146642857Y-59774819D01*
X146642857Y-59774819D02*
X146547619Y-59774819D01*
X146547619Y-59774819D02*
X146404762Y-59727200D01*
X146404762Y-59727200D02*
X146309524Y-59631961D01*
X146309524Y-59631961D02*
X146261905Y-59536723D01*
X146261905Y-59536723D02*
X146214286Y-59346247D01*
X146214286Y-59346247D02*
X146214286Y-59203390D01*
X146214286Y-59203390D02*
X146261905Y-59012914D01*
X146261905Y-59012914D02*
X146309524Y-58917676D01*
X146309524Y-58917676D02*
X146404762Y-58822438D01*
X146404762Y-58822438D02*
X146547619Y-58774819D01*
X146547619Y-58774819D02*
X146642857Y-58774819D01*
X146642857Y-58774819D02*
X146785714Y-58822438D01*
X146785714Y-58822438D02*
X146833333Y-58870057D01*
X147738095Y-58774819D02*
X147261905Y-58774819D01*
X147261905Y-58774819D02*
X147214286Y-59251009D01*
X147214286Y-59251009D02*
X147261905Y-59203390D01*
X147261905Y-59203390D02*
X147357143Y-59155771D01*
X147357143Y-59155771D02*
X147595238Y-59155771D01*
X147595238Y-59155771D02*
X147690476Y-59203390D01*
X147690476Y-59203390D02*
X147738095Y-59251009D01*
X147738095Y-59251009D02*
X147785714Y-59346247D01*
X147785714Y-59346247D02*
X147785714Y-59584342D01*
X147785714Y-59584342D02*
X147738095Y-59679580D01*
X147738095Y-59679580D02*
X147690476Y-59727200D01*
X147690476Y-59727200D02*
X147595238Y-59774819D01*
X147595238Y-59774819D02*
X147357143Y-59774819D01*
X147357143Y-59774819D02*
X147261905Y-59727200D01*
X147261905Y-59727200D02*
X147214286Y-59679580D01*
X150083333Y-55722080D02*
X150035714Y-55769700D01*
X150035714Y-55769700D02*
X149892857Y-55817319D01*
X149892857Y-55817319D02*
X149797619Y-55817319D01*
X149797619Y-55817319D02*
X149654762Y-55769700D01*
X149654762Y-55769700D02*
X149559524Y-55674461D01*
X149559524Y-55674461D02*
X149511905Y-55579223D01*
X149511905Y-55579223D02*
X149464286Y-55388747D01*
X149464286Y-55388747D02*
X149464286Y-55245890D01*
X149464286Y-55245890D02*
X149511905Y-55055414D01*
X149511905Y-55055414D02*
X149559524Y-54960176D01*
X149559524Y-54960176D02*
X149654762Y-54864938D01*
X149654762Y-54864938D02*
X149797619Y-54817319D01*
X149797619Y-54817319D02*
X149892857Y-54817319D01*
X149892857Y-54817319D02*
X150035714Y-54864938D01*
X150035714Y-54864938D02*
X150083333Y-54912557D01*
X150940476Y-55150652D02*
X150940476Y-55817319D01*
X150702381Y-54769700D02*
X150464286Y-55483985D01*
X150464286Y-55483985D02*
X151083333Y-55483985D01*
X157333333Y-53472080D02*
X157285714Y-53519700D01*
X157285714Y-53519700D02*
X157142857Y-53567319D01*
X157142857Y-53567319D02*
X157047619Y-53567319D01*
X157047619Y-53567319D02*
X156904762Y-53519700D01*
X156904762Y-53519700D02*
X156809524Y-53424461D01*
X156809524Y-53424461D02*
X156761905Y-53329223D01*
X156761905Y-53329223D02*
X156714286Y-53138747D01*
X156714286Y-53138747D02*
X156714286Y-52995890D01*
X156714286Y-52995890D02*
X156761905Y-52805414D01*
X156761905Y-52805414D02*
X156809524Y-52710176D01*
X156809524Y-52710176D02*
X156904762Y-52614938D01*
X156904762Y-52614938D02*
X157047619Y-52567319D01*
X157047619Y-52567319D02*
X157142857Y-52567319D01*
X157142857Y-52567319D02*
X157285714Y-52614938D01*
X157285714Y-52614938D02*
X157333333Y-52662557D01*
X157666667Y-52567319D02*
X158285714Y-52567319D01*
X158285714Y-52567319D02*
X157952381Y-52948271D01*
X157952381Y-52948271D02*
X158095238Y-52948271D01*
X158095238Y-52948271D02*
X158190476Y-52995890D01*
X158190476Y-52995890D02*
X158238095Y-53043509D01*
X158238095Y-53043509D02*
X158285714Y-53138747D01*
X158285714Y-53138747D02*
X158285714Y-53376842D01*
X158285714Y-53376842D02*
X158238095Y-53472080D01*
X158238095Y-53472080D02*
X158190476Y-53519700D01*
X158190476Y-53519700D02*
X158095238Y-53567319D01*
X158095238Y-53567319D02*
X157809524Y-53567319D01*
X157809524Y-53567319D02*
X157714286Y-53519700D01*
X157714286Y-53519700D02*
X157666667Y-53472080D01*
X147333333Y-53722080D02*
X147285714Y-53769700D01*
X147285714Y-53769700D02*
X147142857Y-53817319D01*
X147142857Y-53817319D02*
X147047619Y-53817319D01*
X147047619Y-53817319D02*
X146904762Y-53769700D01*
X146904762Y-53769700D02*
X146809524Y-53674461D01*
X146809524Y-53674461D02*
X146761905Y-53579223D01*
X146761905Y-53579223D02*
X146714286Y-53388747D01*
X146714286Y-53388747D02*
X146714286Y-53245890D01*
X146714286Y-53245890D02*
X146761905Y-53055414D01*
X146761905Y-53055414D02*
X146809524Y-52960176D01*
X146809524Y-52960176D02*
X146904762Y-52864938D01*
X146904762Y-52864938D02*
X147047619Y-52817319D01*
X147047619Y-52817319D02*
X147142857Y-52817319D01*
X147142857Y-52817319D02*
X147285714Y-52864938D01*
X147285714Y-52864938D02*
X147333333Y-52912557D01*
X147714286Y-52912557D02*
X147761905Y-52864938D01*
X147761905Y-52864938D02*
X147857143Y-52817319D01*
X147857143Y-52817319D02*
X148095238Y-52817319D01*
X148095238Y-52817319D02*
X148190476Y-52864938D01*
X148190476Y-52864938D02*
X148238095Y-52912557D01*
X148238095Y-52912557D02*
X148285714Y-53007795D01*
X148285714Y-53007795D02*
X148285714Y-53103033D01*
X148285714Y-53103033D02*
X148238095Y-53245890D01*
X148238095Y-53245890D02*
X147666667Y-53817319D01*
X147666667Y-53817319D02*
X148285714Y-53817319D01*
X160570833Y-76014580D02*
X160523214Y-76062200D01*
X160523214Y-76062200D02*
X160380357Y-76109819D01*
X160380357Y-76109819D02*
X160285119Y-76109819D01*
X160285119Y-76109819D02*
X160142262Y-76062200D01*
X160142262Y-76062200D02*
X160047024Y-75966961D01*
X160047024Y-75966961D02*
X159999405Y-75871723D01*
X159999405Y-75871723D02*
X159951786Y-75681247D01*
X159951786Y-75681247D02*
X159951786Y-75538390D01*
X159951786Y-75538390D02*
X159999405Y-75347914D01*
X159999405Y-75347914D02*
X160047024Y-75252676D01*
X160047024Y-75252676D02*
X160142262Y-75157438D01*
X160142262Y-75157438D02*
X160285119Y-75109819D01*
X160285119Y-75109819D02*
X160380357Y-75109819D01*
X160380357Y-75109819D02*
X160523214Y-75157438D01*
X160523214Y-75157438D02*
X160570833Y-75205057D01*
X161523214Y-76109819D02*
X160951786Y-76109819D01*
X161237500Y-76109819D02*
X161237500Y-75109819D01*
X161237500Y-75109819D02*
X161142262Y-75252676D01*
X161142262Y-75252676D02*
X161047024Y-75347914D01*
X161047024Y-75347914D02*
X160951786Y-75395533D01*
D14*
%TO.C,D4*%
X155990000Y-48212500D02*
X155990000Y-51512500D01*
X155990000Y-48212500D02*
X163000000Y-48212500D01*
X155990000Y-51512500D02*
X163000000Y-51512500D01*
%TO.C,U3*%
X150140000Y-50220000D02*
X150140000Y-47640000D01*
X151120000Y-47640000D02*
X150140000Y-47640000D01*
X153880000Y-47640000D02*
X154860000Y-47640000D01*
X154860000Y-47640000D02*
X154860000Y-50360000D01*
X150290000Y-50770000D02*
X149960000Y-51010000D01*
X149960000Y-50530000D01*
X150290000Y-50770000D01*
G36*
X150290000Y-50770000D02*
G01*
X149960000Y-51010000D01*
X149960000Y-50530000D01*
X150290000Y-50770000D01*
G37*
%TO.C,U2*%
X147140000Y-62490000D02*
X147140000Y-62725000D01*
X147140000Y-75510000D02*
X147140000Y-75275000D01*
X151000000Y-62490000D02*
X147140000Y-62490000D01*
X151000000Y-62490000D02*
X154860000Y-62490000D01*
X151000000Y-75510000D02*
X147140000Y-75510000D01*
X151000000Y-75510000D02*
X154860000Y-75510000D01*
X154860000Y-62490000D02*
X154860000Y-62725000D01*
X154860000Y-75510000D02*
X154860000Y-75275000D01*
X146287500Y-62725000D02*
X145947500Y-62255000D01*
X146627500Y-62255000D01*
X146287500Y-62725000D01*
G36*
X146287500Y-62725000D02*
G01*
X145947500Y-62255000D01*
X146627500Y-62255000D01*
X146287500Y-62725000D01*
G37*
%TO.C,U1*%
X159000000Y-79440000D02*
X157050000Y-79440000D01*
X159000000Y-79440000D02*
X160950000Y-79440000D01*
X159000000Y-84560000D02*
X157050000Y-84560000D01*
X159000000Y-84560000D02*
X160950000Y-84560000D01*
X156300000Y-79535000D02*
X156060000Y-79205000D01*
X156540000Y-79205000D01*
X156300000Y-79535000D01*
G36*
X156300000Y-79535000D02*
G01*
X156060000Y-79205000D01*
X156540000Y-79205000D01*
X156300000Y-79535000D01*
G37*
%TO.C,SW2*%
X135230000Y-74230000D02*
X128770000Y-74230000D01*
X135230000Y-74200000D02*
X135230000Y-74230000D01*
X135230000Y-72300000D02*
X135230000Y-69700000D01*
X135230000Y-67770000D02*
X135230000Y-67800000D01*
X135230000Y-67770000D02*
X128770000Y-67770000D01*
X128770000Y-74230000D02*
X128770000Y-74200000D01*
X128770000Y-72300000D02*
X128770000Y-69700000D01*
X128770000Y-67770000D02*
X128770000Y-67800000D01*
%TO.C,SW1*%
X135230000Y-63230000D02*
X128770000Y-63230000D01*
X135230000Y-63200000D02*
X135230000Y-63230000D01*
X135230000Y-61300000D02*
X135230000Y-58700000D01*
X135230000Y-56770000D02*
X135230000Y-56800000D01*
X135230000Y-56770000D02*
X128770000Y-56770000D01*
X128770000Y-63230000D02*
X128770000Y-63200000D01*
X128770000Y-61300000D02*
X128770000Y-58700000D01*
X128770000Y-56770000D02*
X128770000Y-56800000D01*
%TO.C,R5*%
X139772936Y-67265000D02*
X140227064Y-67265000D01*
X139772936Y-68735000D02*
X140227064Y-68735000D01*
%TO.C,R4*%
X139772936Y-56265000D02*
X140227064Y-56265000D01*
X139772936Y-57735000D02*
X140227064Y-57735000D01*
%TO.C,R3*%
X139772936Y-65265000D02*
X140227064Y-65265000D01*
X139772936Y-66735000D02*
X140227064Y-66735000D01*
%TO.C,R2*%
X139772936Y-54265000D02*
X140227064Y-54265000D01*
X139772936Y-55735000D02*
X140227064Y-55735000D01*
%TO.C,R1*%
X150285436Y-77265000D02*
X150739564Y-77265000D01*
X150285436Y-78735000D02*
X150739564Y-78735000D01*
%TO.C,J3*%
X133190000Y-79330000D02*
X138330000Y-79330000D01*
X133190000Y-79330000D02*
X133190000Y-76670000D01*
X138330000Y-79330000D02*
X138330000Y-76670000D01*
X130590000Y-78000000D02*
X130590000Y-76670000D01*
X130590000Y-76670000D02*
X131920000Y-76670000D01*
X133190000Y-76670000D02*
X138330000Y-76670000D01*
%TO.C,J2*%
X133670000Y-51330000D02*
X133670000Y-50000000D01*
X135000000Y-51330000D02*
X133670000Y-51330000D01*
X136270000Y-51330000D02*
X146490000Y-51330000D01*
X136270000Y-51330000D02*
X136270000Y-48670000D01*
X146490000Y-51330000D02*
X146490000Y-48670000D01*
X136270000Y-48670000D02*
X146490000Y-48670000D01*
%TO.C,J1*%
X181120000Y-46880000D02*
X173080000Y-46880000D01*
X181120000Y-46880000D02*
X181120000Y-87620000D01*
X177500000Y-46880000D02*
X177500000Y-48120000D01*
X176500000Y-46880000D02*
X176500000Y-48120000D01*
X175200000Y-46880000D02*
X175200000Y-48120000D01*
X173080000Y-46880000D02*
X173080000Y-49700000D01*
X173080000Y-50300000D02*
X173080000Y-87620000D01*
X177500000Y-51880000D02*
X177500000Y-53188000D01*
X176500000Y-51880000D02*
X176500000Y-53188000D01*
X175200000Y-51880000D02*
X175200000Y-54457000D01*
X175796000Y-53556000D02*
X175753000Y-53513000D01*
X175557000Y-53795000D02*
X175514000Y-53752000D01*
X175200000Y-55543000D02*
X175200000Y-59457000D01*
X178486000Y-56247000D02*
X178443000Y-56204000D01*
X178247000Y-56487000D02*
X178204000Y-56444000D01*
X177500000Y-56812000D02*
X177500000Y-58188000D01*
X176500000Y-56812000D02*
X176500000Y-58188000D01*
X175796000Y-58556000D02*
X175753000Y-58513000D01*
X175557000Y-58795000D02*
X175514000Y-58752000D01*
X175200000Y-60543000D02*
X175200000Y-64457000D01*
X178486000Y-61247000D02*
X178443000Y-61204000D01*
X178247000Y-61487000D02*
X178204000Y-61444000D01*
X177500000Y-61812000D02*
X177500000Y-63188000D01*
X176500000Y-61812000D02*
X176500000Y-63188000D01*
X175796000Y-63556000D02*
X175753000Y-63513000D01*
X175557000Y-63795000D02*
X175514000Y-63752000D01*
X175200000Y-65543000D02*
X175200000Y-69457000D01*
X178486000Y-66247000D02*
X178443000Y-66204000D01*
X178247000Y-66487000D02*
X178204000Y-66444000D01*
X177500000Y-66812000D02*
X177500000Y-68188000D01*
X176500000Y-66812000D02*
X176500000Y-68188000D01*
X175796000Y-68556000D02*
X175753000Y-68513000D01*
X175557000Y-68795000D02*
X175514000Y-68752000D01*
X175200000Y-70543000D02*
X175200000Y-74457000D01*
X178486000Y-71247000D02*
X178443000Y-71204000D01*
X178247000Y-71487000D02*
X178204000Y-71444000D01*
X177500000Y-71812000D02*
X177500000Y-73188000D01*
X176500000Y-71812000D02*
X176500000Y-73188000D01*
X175796000Y-73556000D02*
X175753000Y-73513000D01*
X175557000Y-73795000D02*
X175514000Y-73752000D01*
X175200000Y-75543000D02*
X175200000Y-79457000D01*
X178486000Y-76247000D02*
X178443000Y-76204000D01*
X178247000Y-76487000D02*
X178204000Y-76444000D01*
X177500000Y-76812000D02*
X177500000Y-78188000D01*
X176500000Y-76812000D02*
X176500000Y-78188000D01*
X175796000Y-78556000D02*
X175753000Y-78513000D01*
X175557000Y-78795000D02*
X175514000Y-78752000D01*
X175200000Y-80543000D02*
X175200000Y-84457000D01*
X178486000Y-81247000D02*
X178443000Y-81204000D01*
X178247000Y-81487000D02*
X178204000Y-81444000D01*
X177500000Y-81812000D02*
X177500000Y-83188000D01*
X176500000Y-81812000D02*
X176500000Y-83188000D01*
X175796000Y-83556000D02*
X175753000Y-83513000D01*
X175557000Y-83795000D02*
X175514000Y-83752000D01*
X175200000Y-85543000D02*
X175200000Y-87620000D01*
X178486000Y-86247000D02*
X178443000Y-86204000D01*
X178247000Y-86487000D02*
X178204000Y-86444000D01*
X177500000Y-86812000D02*
X177500000Y-87620000D01*
X176500000Y-86812000D02*
X176500000Y-87620000D01*
X181120000Y-87620000D02*
X173080000Y-87620000D01*
X176446000Y-48120000D02*
G75*
G02*
X177554472Y-48120139I554000J-1879990D01*
G01*
X178880000Y-49446000D02*
G75*
G02*
X178879861Y-50554472I-1880000J-554000D01*
G01*
X175120000Y-50554000D02*
G75*
G02*
X175120139Y-49445528I1879990J554000D01*
G01*
X177554000Y-51880000D02*
G75*
G02*
X176445528Y-51879861I-554000J1880000D01*
G01*
X178960000Y-55000000D02*
G75*
G02*
X175040000Y-55000000I-1960000J0D01*
G01*
X175040000Y-55000000D02*
G75*
G02*
X178960000Y-55000000I1960000J0D01*
G01*
X178960000Y-60000000D02*
G75*
G02*
X175040000Y-60000000I-1960000J0D01*
G01*
X175040000Y-60000000D02*
G75*
G02*
X178960000Y-60000000I1960000J0D01*
G01*
X178960000Y-65000000D02*
G75*
G02*
X175040000Y-65000000I-1960000J0D01*
G01*
X175040000Y-65000000D02*
G75*
G02*
X178960000Y-65000000I1960000J0D01*
G01*
X178960000Y-70000000D02*
G75*
G02*
X175040000Y-70000000I-1960000J0D01*
G01*
X175040000Y-70000000D02*
G75*
G02*
X178960000Y-70000000I1960000J0D01*
G01*
X178960000Y-75000000D02*
G75*
G02*
X175040000Y-75000000I-1960000J0D01*
G01*
X175040000Y-75000000D02*
G75*
G02*
X178960000Y-75000000I1960000J0D01*
G01*
X178960000Y-80000000D02*
G75*
G02*
X175040000Y-80000000I-1960000J0D01*
G01*
X175040000Y-80000000D02*
G75*
G02*
X178960000Y-80000000I1960000J0D01*
G01*
X178960000Y-85000000D02*
G75*
G02*
X175040000Y-85000000I-1960000J0D01*
G01*
X175040000Y-85000000D02*
G75*
G02*
X178960000Y-85000000I1960000J0D01*
G01*
X173080000Y-50000000D02*
X172470000Y-50440000D01*
X172470000Y-49560000D01*
X173080000Y-50000000D01*
G36*
X173080000Y-50000000D02*
G01*
X172470000Y-50440000D01*
X172470000Y-49560000D01*
X173080000Y-50000000D01*
G37*
%TO.C,D3*%
X136947500Y-67135000D02*
X136947500Y-64865000D01*
X136947500Y-64865000D02*
X132887500Y-64865000D01*
X132887500Y-67135000D02*
X136947500Y-67135000D01*
%TO.C,D2*%
X136947500Y-56135000D02*
X136947500Y-53865000D01*
X136947500Y-53865000D02*
X132887500Y-53865000D01*
X132887500Y-56135000D02*
X136947500Y-56135000D01*
%TO.C,D1*%
X147460000Y-79135000D02*
X147460000Y-76865000D01*
X147460000Y-76865000D02*
X143400000Y-76865000D01*
X143400000Y-79135000D02*
X147460000Y-79135000D01*
%TO.C,C5*%
X146738748Y-60265000D02*
X147261252Y-60265000D01*
X146738748Y-61735000D02*
X147261252Y-61735000D01*
%TO.C,C4*%
X155769801Y-58195000D02*
X155369801Y-58195000D01*
X155569801Y-58395000D02*
X155569801Y-57995000D01*
X153500000Y-59080000D02*
X153500000Y-54920000D01*
X153460000Y-59080000D02*
X153460000Y-54920000D01*
X153420000Y-59079000D02*
X153420000Y-54921000D01*
X153380000Y-59077000D02*
X153380000Y-54923000D01*
X153340000Y-59074000D02*
X153340000Y-54926000D01*
X153300000Y-59071000D02*
X153300000Y-57840000D01*
X153300000Y-56160000D02*
X153300000Y-54929000D01*
X153260000Y-59067000D02*
X153260000Y-57840000D01*
X153260000Y-56160000D02*
X153260000Y-54933000D01*
X153220000Y-59062000D02*
X153220000Y-57840000D01*
X153220000Y-56160000D02*
X153220000Y-54938000D01*
X153180000Y-59056000D02*
X153180000Y-57840000D01*
X153180000Y-56160000D02*
X153180000Y-54944000D01*
X153140000Y-59050000D02*
X153140000Y-57840000D01*
X153140000Y-56160000D02*
X153140000Y-54950000D01*
X153100000Y-59042000D02*
X153100000Y-57840000D01*
X153100000Y-56160000D02*
X153100000Y-54958000D01*
X153060000Y-59034000D02*
X153060000Y-57840000D01*
X153060000Y-56160000D02*
X153060000Y-54966000D01*
X153020000Y-59025000D02*
X153020000Y-57840000D01*
X153020000Y-56160000D02*
X153020000Y-54975000D01*
X152980000Y-59016000D02*
X152980000Y-57840000D01*
X152980000Y-56160000D02*
X152980000Y-54984000D01*
X152940000Y-59005000D02*
X152940000Y-57840000D01*
X152940000Y-56160000D02*
X152940000Y-54995000D01*
X152900000Y-58994000D02*
X152900000Y-57840000D01*
X152900000Y-56160000D02*
X152900000Y-55006000D01*
X152860000Y-58982000D02*
X152860000Y-57840000D01*
X152860000Y-56160000D02*
X152860000Y-55018000D01*
X152820000Y-58968000D02*
X152820000Y-57840000D01*
X152820000Y-56160000D02*
X152820000Y-55032000D01*
X152779000Y-58954000D02*
X152779000Y-57840000D01*
X152779000Y-56160000D02*
X152779000Y-55046000D01*
X152739000Y-58940000D02*
X152739000Y-57840000D01*
X152739000Y-56160000D02*
X152739000Y-55060000D01*
X152699000Y-58924000D02*
X152699000Y-57840000D01*
X152699000Y-56160000D02*
X152699000Y-55076000D01*
X152659000Y-58907000D02*
X152659000Y-57840000D01*
X152659000Y-56160000D02*
X152659000Y-55093000D01*
X152619000Y-58889000D02*
X152619000Y-57840000D01*
X152619000Y-56160000D02*
X152619000Y-55111000D01*
X152579000Y-58870000D02*
X152579000Y-57840000D01*
X152579000Y-56160000D02*
X152579000Y-55130000D01*
X152539000Y-58851000D02*
X152539000Y-57840000D01*
X152539000Y-56160000D02*
X152539000Y-55149000D01*
X152499000Y-58830000D02*
X152499000Y-57840000D01*
X152499000Y-56160000D02*
X152499000Y-55170000D01*
X152459000Y-58808000D02*
X152459000Y-57840000D01*
X152459000Y-56160000D02*
X152459000Y-55192000D01*
X152419000Y-58785000D02*
X152419000Y-57840000D01*
X152419000Y-56160000D02*
X152419000Y-55215000D01*
X152379000Y-58760000D02*
X152379000Y-57840000D01*
X152379000Y-56160000D02*
X152379000Y-55240000D01*
X152339000Y-58735000D02*
X152339000Y-57840000D01*
X152339000Y-56160000D02*
X152339000Y-55265000D01*
X152299000Y-58708000D02*
X152299000Y-57840000D01*
X152299000Y-56160000D02*
X152299000Y-55292000D01*
X152259000Y-58680000D02*
X152259000Y-57840000D01*
X152259000Y-56160000D02*
X152259000Y-55320000D01*
X152219000Y-58650000D02*
X152219000Y-57840000D01*
X152219000Y-56160000D02*
X152219000Y-55350000D01*
X152179000Y-58619000D02*
X152179000Y-57840000D01*
X152179000Y-56160000D02*
X152179000Y-55381000D01*
X152139000Y-58587000D02*
X152139000Y-57840000D01*
X152139000Y-56160000D02*
X152139000Y-55413000D01*
X152099000Y-58552000D02*
X152099000Y-57840000D01*
X152099000Y-56160000D02*
X152099000Y-55448000D01*
X152059000Y-58516000D02*
X152059000Y-57840000D01*
X152059000Y-56160000D02*
X152059000Y-55484000D01*
X152019000Y-58478000D02*
X152019000Y-57840000D01*
X152019000Y-56160000D02*
X152019000Y-55522000D01*
X151979000Y-58438000D02*
X151979000Y-57840000D01*
X151979000Y-56160000D02*
X151979000Y-55562000D01*
X151939000Y-58396000D02*
X151939000Y-57840000D01*
X151939000Y-56160000D02*
X151939000Y-55604000D01*
X151899000Y-58351000D02*
X151899000Y-57840000D01*
X151899000Y-56160000D02*
X151899000Y-55649000D01*
X151859000Y-58304000D02*
X151859000Y-57840000D01*
X151859000Y-56160000D02*
X151859000Y-55696000D01*
X151819000Y-58254000D02*
X151819000Y-57840000D01*
X151819000Y-56160000D02*
X151819000Y-55746000D01*
X151779000Y-58200000D02*
X151779000Y-57840000D01*
X151779000Y-56160000D02*
X151779000Y-55800000D01*
X151739000Y-58142000D02*
X151739000Y-57840000D01*
X151739000Y-56160000D02*
X151739000Y-55858000D01*
X151699000Y-58080000D02*
X151699000Y-57840000D01*
X151699000Y-56160000D02*
X151699000Y-55920000D01*
X151659000Y-58013000D02*
X151659000Y-55987000D01*
X151619000Y-57940000D02*
X151619000Y-56060000D01*
X151579000Y-57859000D02*
X151579000Y-56141000D01*
X151539000Y-57768000D02*
X151539000Y-56232000D01*
X151499000Y-57664000D02*
X151499000Y-56336000D01*
X151459000Y-57537000D02*
X151459000Y-56463000D01*
X151419000Y-57370000D02*
X151419000Y-56630000D01*
X155620000Y-57000000D02*
G75*
G02*
X151380000Y-57000000I-2120000J0D01*
G01*
X151380000Y-57000000D02*
G75*
G02*
X155620000Y-57000000I2120000J0D01*
G01*
%TO.C,C3*%
X154798752Y-53847500D02*
X154276248Y-53847500D01*
X154798752Y-52377500D02*
X154276248Y-52377500D01*
%TO.C,C2*%
X150276248Y-52377500D02*
X150798752Y-52377500D01*
X150276248Y-53847500D02*
X150798752Y-53847500D01*
%TO.C,C1*%
X161011252Y-78235000D02*
X160488748Y-78235000D01*
X161011252Y-76765000D02*
X160488748Y-76765000D01*
%TD*%
M02*
